<svg data-name="Layer 1" xmlns="http://www.w3.org/2000/svg" viewBox="0 0 178.44 181.79"><path d="m6.13 95.71 13.93 5.74a2.53 2.53 0 0 0 .71 0V69.89a2.41 2.41 0 0 1 2.29-2.32 2.36 2.36 0 0 1 2.72 1.76 9.22 9.22 0 0 1 .31 2.67v104.3h41.24v-66.94a2.3 2.3 0 0 0-1.77-2.54c-5.48-2.19-10.91-4.48-16.36-6.74-2.82-1.22-3.2-2.2-2.02-5.08l10-24c.18-.43.35-.86.58-1.44C48.86 65.81 43.67 59.21 42.2 50c-3.44 0-6.78-.36-10 .09-5.12.7-8.66 3.83-10.68 8.58-2.64 6.13-5.19 12.33-7.77 18.56a9.39 9.39 0 0 1-.58 1.29 2.55 2.55 0 0 1-3.49 1.13 2.44 2.44 0 0 1-1.28-3.27c.7-1.82 1.44-3.61 2.19-5.41 2-4.85 3.89-9.75 6.06-14.53 3.52-7.78 9.65-11.86 18.23-12 4.49-.11 9 0 13.49-.07a5.51 5.51 0 0 0 2.86-1c2-1.4 3.94-3 5.91-4.49s1.92-3.86-.18-5.06A18.09 18.09 0 0 1 67.23 0a17.92 17.92 0 0 1 16.46 14.87 13.73 13.73 0 0 1 0 5.23 7.27 7.27 0 0 1-7.9 5.42 7.56 7.56 0 0 1-6.61-7c-.21-2.73-2.26-4.36-4.3-3.22A3.88 3.88 0 0 0 63 17.8c-.1.9.75 1.94 1.3 2.85.18.31.69.42 1 .62 5.19 2.89 8 7.3 8 13.23 0 2.39.62 4 2.82 5.18 1.64.88 2.89 2.44 4.44 3.5a6 6 0 0 0 3 1.13c3.72.14 7.46.13 11.18 0a6.1 6.1 0 0 0 3-1.08c2-1.36 3.83-3 5.77-4.39s2-3.89-.19-5.17A18.08 18.08 0 0 1 113.71 0a17.86 17.86 0 0 1 16.48 14.59 14.05 14.05 0 0 1-.11 5.92 7.22 7.22 0 0 1-7.87 5 7.6 7.6 0 0 1-6.54-7.11c-.21-2.38-1.84-3.89-3.74-3.38a3 3 0 0 0-2.41 2.54 3.26 3.26 0 0 0 1.71 3.44 29.92 29.92 0 0 1 5.15 3.95A13.56 13.56 0 0 1 120 35a4.39 4.39 0 0 0 2.46 4.47c1.62.92 2.89 2.44 4.47 3.46a7.69 7.69 0 0 0 3.63 1.38c4.49.17 9 0 13.49.09 8.26.21 14.51 4 17.81 11.55 5.76 13.18 11.12 26.54 16.62 39.83.82 2 .27 3.14-1.85 4q-8.57 3.6-17.16 7.11a2 2 0 0 0-1.49 2.2c.09 4.26.05 8.52 0 12.78 0 2.08-1 3.31-2.62 3.31s-2.69-1.3-2.69-3.32v-51.1c0-2 1.18-3.3 2.75-3.26s2.58 1.29 2.58 3.39v30.87l14.67-6.06c-1.87-4.5-3.68-8.85-5.48-13.2q-4.81-11.59-9.61-23.2c-2.67-6.43-7.46-9.61-14.46-9.61h-6.64c-.32 1.37-.58 2.68-.94 4a24.07 24.07 0 0 1-23.67 17.3 12.54 12.54 0 0 1-1.93-.22 2.65 2.65 0 0 1-2.34-2.84 2.86 2.86 0 0 1 3-2.39 37.8 37.8 0 0 0 6.83-.61 16.57 16.57 0 0 0 9.16-5.81c-4.42-.74-7.73-3.1-10.81-5.88-1.3-1.17-5.53-1-6.9.32A19.61 19.61 0 0 1 98.76 59l-.53.58a21.13 21.13 0 0 1 2.26 1.57 2.7 2.7 0 0 1 .5 3.93 2.63 2.63 0 0 1-3.95.1 23.67 23.67 0 0 1-8-13.83c-.1-.51-.18-1-.25-1.38-3.5 0-6.89-.35-10.18.09a12.84 12.84 0 0 0-10.38 8.19C63 70.52 58 82.86 52.89 95.18a2.55 2.55 0 0 0-.07.57l14.51 6V70.66c0-2.46 1.91-3.91 3.76-2.77a4.9 4.9 0 0 1 1.5 2.23 4.62 4.62 0 0 1 .06 1.75V176.3h80V135.57c.07-2.12 1-3.22 2.73-3.21s2.59 1 2.59 3.26v42.77c0 2.43-.91 3.33-3.3 3.33H24c-2.47 0-3.26-.91-3.26-3.72v-68a3.2 3.2 0 0 0-2.44-3.56c-5.24-2.03-10.5-4.28-15.78-6.44-2.65-1.1-3-2.11-1.94-4.81.87-2.19 1.72-4.3 2.62-6.41.77-1.82 2.14-2.56 3.58-2 1.6.62 2.1 2.06 1.35 4-.62 1.57-1.28 3.15-2 4.93Zm124.68-46.07c-4.12.66-6.76-2-9.52-4.42a13.17 13.17 0 0 0-2.14-1.56 8.6 8.6 0 0 1-4.5-7.89 17.9 17.9 0 0 0-.31-3.51c-.76-3.3-3-5.3-5.91-6.86a8.21 8.21 0 0 1-3.91-9.86 8.42 8.42 0 0 1 16.45 2c.15 1.83 1 2.91 2.34 2.7 1.59-.27 2.06-1.41 1.94-2.88-.42-5.1-2.93-8.84-7.59-10.88a12 12 0 0 0-13.54 2.13 12.64 12.64 0 0 0 2.49 20.77c1.57.84 3 1.76 3.45 3.57.93 4.27.15 8-3.59 10.44a20.92 20.92 0 0 0-3 2.17c-2.6 2.4-5.24 4.65-9.29 4.15.21 1 .42 1.72.52 2.47.22 1.7 1.25 2.24 2.71 1.69 2.06-.79 4.52-1.33 6-2.8a13 13 0 0 1 11.34-3.88 7.4 7.4 0 0 1 4.16 1.55 32.38 32.38 0 0 0 6.85 4.55c3.67 1.59 4.47.93 5.15-3a2.93 2.93 0 0 0-.1-.65Zm-56-4.49c-.8-.54-1.5-1.07-2.25-1.52a8.54 8.54 0 0 1-4.45-7.91 15.66 15.66 0 0 0-.19-3c-.69-3.37-2.78-5.59-5.77-7.18a8.33 8.33 0 0 1-4.26-9.88 8.65 8.65 0 0 1 8.44-6.06 8.52 8.52 0 0 1 8 7c.11.52.08 1.06.16 1.58a2 2 0 0 0 2.11 2 2.09 2.09 0 0 0 2.11-2 5.54 5.54 0 0 0 0-1.41 12.76 12.76 0 0 0-18.85-9.84 12.17 12.17 0 0 0-6.6 11.17 12.18 12.18 0 0 0 6.79 11.23c1.62.88 3.11 1.85 3.5 3.73.89 4.29 0 7.95-3.77 10.37a22.38 22.38 0 0 0-3 2.19c-2.56 2.36-5.17 4.56-9.15 4 .19.9.29 1.58.47 2.25.64 2.3.73 2.32 3 1.9a11.29 11.29 0 0 0 6.51-3.34 9.82 9.82 0 0 1 9.2-3.27 9.85 9.85 0 0 0 7.99-2.01ZM59.55 64.89c1.94-4.41 3.68-8.35 5.53-12.54-.8.23-1.63.22-2.07.62-3.16 2.88-6.52 5.35-10.92 6.08l-.13.6Z"/><path d="M135.33 79.89h10.29c2.54 0 3.47.89 3.47 3.36 0 4.14.08 8.28-.06 12.42-.21 6.6-5.75 12.44-12.12 12.94-7.48.59-14.2-3.93-15.13-10.88-.67-5.06-.38-10.26-.39-15.39 0-1.57 1.24-2.43 3.12-2.45 3.61-.02 7.21 0 10.82 0Zm-8.61 5.43c0 3.62-.26 7.17.07 10.66a8.27 8.27 0 0 0 8.18 7.38c4.2.08 8.12-2.68 8.57-6.68.41-3.72.08-7.51.08-11.36Z"/></svg>