<svg data-name="Layer 1" xmlns="http://www.w3.org/2000/svg" viewBox="0 0 132.09 119.62"><path d="M94.38 84.89c7-2.39 13.8-4.76 20.65-7.09a34.47 34.47 0 0 1 5.65-1.67 9.51 9.51 0 0 1 11 6.93A9.81 9.81 0 0 1 126.06 95c-16.43 7.27-32.81 14.62-49.32 21.67-10.29 4.39-20.38 3.28-30-2.37q-6.21-3.66-12.36-7.43a22.45 22.45 0 0 0-8.38-2.82 1.36 1.36 0 0 0-1.05.59 7.87 7.87 0 0 1-7.4 4.25H2.98c-2 0-3-1-3-3V60.26a2.65 2.65 0 0 1 2.94-3h15.09a7.45 7.45 0 0 1 6.88 4.21 1.45 1.45 0 0 0 1.55.95h16.51a19.54 19.54 0 0 1 10 2.58c4.18 2.38 8.36 4.74 12.57 7a5.7 5.7 0 0 0 2.54.68c4.86.06 9.73.24 14.57 0 6.75-.31 12.37 4.43 11.75 12.21ZM25.82 98.71c9.65 1.9 9.09 2.55 15.3 6.17 2.71 1.58 5.38 3.21 8.07 4.82 8.51 5.1 17.34 5.81 26.47 1.83q15.8-6.9 31.55-13.87 8.36-3.68 16.7-7.36a4.77 4.77 0 0 0 2.91-5.44c-.71-3-3.39-4.46-6.59-3.37-9.94 3.38-19.86 6.81-29.79 10.2-1.82.62-3.66 1.59-5.51 1.62-9 .18-18.05.1-27.08.08A2.55 2.55 0 0 1 55.3 91a2.64 2.64 0 0 1 2.27-2.7 9.26 9.26 0 0 1 1.29 0h25a5 5 0 0 0 4.26-2 4.84 4.84 0 0 0 .61-5.33 5 5 0 0 0-4.73-3H68.13a10.11 10.11 0 0 1-5.27-1.38c-4.07-2.32-8.16-4.58-12.22-6.91a15.13 15.13 0 0 0-7.86-2.06H25.82Zm-20.61 5h12.4c2.08 0 3-1 3-3.1V65.54c0-2.08-1-3.08-3.08-3.09H6.05c-.29 0-.57.07-.87.1ZM76.84 57.22c2.72-2.33 5.42-4.53 8-6.87C90 45.6 95.28 40.89 100.3 36a22.52 22.52 0 0 0 6.57-11c1.4-6.31.24-12.06-4.77-16.44-6.35-5.56-15.13-4.1-20 3.19a36 36 0 0 0-2.88 5.72c-.7 1.59-1.41 2.29-2.75 2.26s-2-.7-2.55-2.31A18.69 18.69 0 0 0 67.58 8C60.73 2.63 51 5.25 47.21 13.41c-.34.73-.58 1.52-.87 2.28a2.61 2.61 0 0 1-3.25 1.78 2.58 2.58 0 0 1-1.63-3.41c2.57-8.72 10-14.27 19-14 6.43.19 11.16 3.5 14.76 8.63.42.59.8 1.21 1.23 1.88.9-1.24 1.73-2.48 2.66-3.62 9.26-11.44 26.9-8.26 32 5.89 2.82 7.76 1.45 15-3.18 21.76a72 72 0 0 1-11.78 12.71c-5.63 5-11.35 9.87-17 14.79-1.81 1.56-2.78 1.51-4.6-.06-7-6.06-14.14-12-21.07-18.2a99 99 0 0 1-7.12-7.62 2.36 2.36 0 0 1-.27-3 2.3 2.3 0 0 1 2.62-1.19 3 3 0 0 1 1.61.94C55 39 60.92 43.72 66.67 48.64c3.33 2.84 6.69 5.65 10.17 8.58Z"/><path d="M43.65 27.88A2.56 2.56 0 0 1 41 25.31a2.57 2.57 0 1 1 5.14 0 2.57 2.57 0 0 1-2.49 2.57ZM12.92 72.76a2.57 2.57 0 0 1-2.6-2.59 2.66 2.66 0 0 1 2.55-2.55 2.65 2.65 0 0 1 2.6 2.63 2.56 2.56 0 0 1-2.55 2.51Z"/></svg>