<svg data-name="Layer 1" xmlns="http://www.w3.org/2000/svg" viewBox="0 0 182.3 181.79"><path d="M136.31 77.09c0 32.58-26.88 59.23-59.59 59.17S17.1 109.39 17.29 76.89c.19-33.38 26.58-59.59 59.53-59.59a59.35 59.35 0 0 1 59.49 59.79Zm-7-1.28a51.33 51.33 0 0 0-17.65-38.17C100.05 27.27 86.31 23 71 24.67s-28 8.97-36.84 21.71c-11.52 16.53-12.86 34.24-4.88 52.7a7.92 7.92 0 0 0 .75 1.16c.32-.39.63-.79.94-1.19 2.43-3.1 4.58-6.47 7.34-9.25C43 85.07 49.12 83 55.54 81.86c1.66-.29 1.79-.67 1.13-2.2-4.11-9.43-4-18.83.9-27.95 8.3-15.59 27.53-16.83 37.07-2.32 6.23 9.49 6.78 19.64 2.41 30.05-.6 1.45-.91 2.14 1.13 2.46 11 1.71 19.16 7.5 24.55 17.23a6.43 6.43 0 0 0 .88 1 10 10 0 0 0 .74-1.13 53.32 53.32 0 0 0 4.97-23.19ZM76.87 129.3c17.06-.48 31.06-7.23 41.68-20.77.3-.4.62-1.15.45-1.49-3.43-6.83-7.25-13.44-15-16.13a93.84 93.84 0 0 0-11.63-2.82 3.07 3.07 0 0 0-2.14.85c-7.47 6.39-17.61 6.93-25.43 1a7 7 0 0 0-6.07-1.56c-6.17 1.16-12.31 2.54-16.57 7.51-2.85 3.32-5 7.23-7.4 10.94-.24.37 0 1.36.4 1.82 10.61 13.43 24.55 20.18 41.71 20.65Zm15.9-61c0-6.83-1.37-11.32-4.31-15.6C83 44.79 73.22 44 66.64 51c-7.54 8-7.73 22.61-.41 30.88 5.79 6.54 14.3 6.88 20.41.7a21.61 21.61 0 0 0 6.13-14.24Z"/><path d="M76.74 152.64A76.06 76.06 0 0 1 2.4 91.93a3.67 3.67 0 0 1 2.73-4.47c1.89-.41 3.46.89 4.21 3.16 1.85 5.58 3.21 11.42 5.82 16.62C25 126.87 40.85 139.3 62.3 144c18.29 4.05 35.5.81 51.41-9.13.55-.35 1.09-.71 1.64-1 2.59-1.59 3.78-1.46 5.93.69L142.72 156c5.44 5.43 10.85 10.89 16.31 16.29 3.13 3.09 7.11 3.88 10.73 2.28a9.42 9.42 0 0 0 5.61-9.07 10.47 10.47 0 0 0-3.46-7q-18.53-18.47-37-37c-2.58-2.58-2.72-3.62-.74-6.61A70.9 70.9 0 0 0 144.3 91a5.64 5.64 0 0 1 2.7-3.54c2.58-1.15 5 1.3 4.18 4.36a134 134 0 0 1-4.43 14.32 80.07 80.07 0 0 1-5.12 10.07 1.73 1.73 0 0 0 .36 2.52c11.69 11.63 23.29 23.35 35 34.93 4.7 4.64 6.29 10.25 4.75 16.35-3.23 12.71-18.29 16.48-27.74 7.11q-17.56-17.42-35-35a2.07 2.07 0 0 0-3.08-.39 75.1 75.1 0 0 1-39.18 10.91ZM76.93.85a76 76 0 0 1 73 55.61c.39 1.42.68 2.87 1 4.3.61 2.59-.29 4.49-2.34 4.94-2.25.49-3.86-.69-4.47-3.4a66.18 66.18 0 0 0-8.49-21.24c-11.55-18.37-28-29.63-49.63-32.42-24.47-3.15-45 4.94-61.4 23.25C16.77 40.63 11.94 51 9.39 62.45 8.75 65.33 7.1 66.56 4.9 66S2 63.63 2.63 60.88C10 31 28.4 11.64 58.05 3.32c6.07-1.7 12.51-2.07 18.79-3ZM4.35 73.28a3.62 3.62 0 0 1 3.53 3.5 3.58 3.58 0 0 1-3.36 3.45A3.58 3.58 0 0 1 .9 76.86a3.63 3.63 0 0 1 3.45-3.58ZM149.13 73.08a3.44 3.44 0 0 1 3.5 3.45 3.41 3.41 0 0 1-3.37 3.38 3.42 3.42 0 1 1-.13-6.83Z"/></svg>