<svg data-name="Layer 1" xmlns="http://www.w3.org/2000/svg" viewBox="0 0 182.3 181.79"><path d="M8.08 42h6.38V5a14 14 0 0 1 0-1.59 3.53 3.53 0 0 1 7-.05 13.07 13.07 0 0 1 0 1.77V41.9h6.38V4.14A3.54 3.54 0 0 1 31.42.29 3.58 3.58 0 0 1 35 4.08v37.84h6.39V4.33c0-3.13 2.79-5.13 5.14-3.55a4.47 4.47 0 0 1 1.84 3.11c.12 14.81.33 29.63 0 44.43-.23 7.84-4.37 13.78-11.24 17.73-.56.32-1.14.6-1.78.94V170.54c0 6.36-4.7 11.11-10.86 11a10.64 10.64 0 0 1-10.36-10.27c-.06-3.54 0-7.08 0-10.62V68.78a2.61 2.61 0 0 0-1.59-2.7C5 61.91 1.09 55.41 1 46.79.94 32.63 1 18.46 1 4.3c0-2.41 1.43-4 3.52-4S8 1.88 8.08 4.28V42Zm.38 7.22c.09 4.58 4.2 9.67 9.26 11.54 3 1.11 3.46 1.8 3.46 4.91v104.44c0 2.72 1.35 4.37 3.55 4.37s3.53-1.65 3.54-4.37V64.78A3.63 3.63 0 0 1 30.9 61c.5-.18 1-.34 1.48-.56a14.62 14.62 0 0 0 8.81-11.26ZM182.3 87.92v82.84a10.61 10.61 0 1 1-21.22.15v-50.27a4.1 4.1 0 0 0-1.32-3.24 94.29 94.29 0 0 1-6.88-7.12A17 17 0 0 1 149 99c0-15.63-.3-31.27.07-46.9.51-21.39 9.8-38.33 27.16-50.84a3.63 3.63 0 0 1 4.12-.55c1.52.83 1.94 2.19 1.93 3.86q0 41.67.02 83.35Zm-7.07-76.83c-.88.76-1.48 1.22-2 1.75-10.8 10.68-16.74 23.61-17 38.78-.31 15.81-.08 31.63-.08 47.44a11.2 11.2 0 0 0 3.38 8.11c2.27 2.32 4.54 4.64 6.89 6.87a5.54 5.54 0 0 1 1.79 4.39q-.06 25.5 0 51a17.42 17.42 0 0 0 0 1.77 3.53 3.53 0 0 0 7 0 17.37 17.37 0 0 0 0-1.77V11.09Z"/><path d="M91.7 40.65a50.27 50.27 0 1 1-50.32 50 50.34 50.34 0 0 1 50.32-50Zm0 93.47A43.2 43.2 0 1 0 48.45 91a43.3 43.3 0 0 0 43.23 43.12Z"/><path d="M91.44 158.59a67.41 67.41 0 0 1-36-10.51 3.52 3.52 0 0 1-1.94-3.83 3.12 3.12 0 0 1 3-2.8 6 6 0 0 1 3.11.91A59.14 59.14 0 0 0 84 151c16 1.86 30.72-1.78 43.64-11.5 4-3 7.39-6.91 11-10.47 1.08-1.07 2.08-2.15 3.75-1.91 2.93.43 4 3.62 2 6.1a65.37 65.37 0 0 1-15 13.86 67.38 67.38 0 0 1-37.95 11.51ZM93.75 23.25c16.64.26 32.8 6.94 46.16 20.27a6 6 0 0 1 1.62 2.48 3.15 3.15 0 0 1-1.69 3.88 3.6 3.6 0 0 1-4.37-.74 112.44 112.44 0 0 0-8.55-7.38c-12.2-8.8-25.85-12.37-40.83-11.09a60.46 60.46 0 0 0-21.28 6c-2.42 1.17-4.47.62-5.41-1.42s-.07-3.75 2.33-4.94c9.39-4.72 19.33-7.02 32.02-7.06ZM49.93 136.46a3.37 3.37 0 0 1-3.47 3.41 3.67 3.67 0 0 1-3.66-3.7 3.58 3.58 0 0 1 3.51-3.46 3.69 3.69 0 0 1 3.62 3.75ZM59.13 88.62c1-11.91 7.18-21.56 19.11-27.35 2.2-1.07 4.25-.47 5.18 1.37s.2 3.88-2.14 5A25.36 25.36 0 0 0 66.68 86a24.65 24.65 0 0 0-.48 4c-.15 2.92-1.41 4.5-3.66 4.43s-3.54-1.77-3.41-5.81ZM91.38 65.42A3.43 3.43 0 0 1 88 61.67a3.5 3.5 0 0 1 3.66-3.31 3.61 3.61 0 0 1 3.49 3.7 3.54 3.54 0 0 1-3.77 3.36Z"/></svg>