<svg data-name="Layer 1" xmlns="http://www.w3.org/2000/svg" viewBox="0 0 255.22 181.79"><path d="M24.55 49.46c0-7.94-.06-16.08 0-24.22C24.67 14.19 32 4 42 .9 46-.35 49.89.07 53.85.64a241.33 241.33 0 0 0 57.47 1.47c5.7-.55 11.38-1.3 17.07-2 9.32-1.1 18.92 4.78 22.93 14.65a36.85 36.85 0 0 1 2.44 11.57c.39 6.89.11 13.81.11 20.71v2.8c7.87.49 14.38 3.37 19.26 9.4a25 25 0 0 1-4.87 36.3 4.11 4.11 0 0 0-1.89 3.89c.05 14.39-.29 28.8.14 43.18.31 10.47-7.17 20.8-20.13 20.43-.57 0-1.15.07-2.1.13v9.42c0 6.43-2.67 9.09-9.08 9.1h-4.25a7.07 7.07 0 0 1-7.1-6.65c-.23-3-.12-6-.16-9v-3H57.6c-2.21 0-3.15.46-3 2.86a80 80 0 0 1 0 8.48 7.2 7.2 0 0 1-7.47 7.35h-5c-4.91 0-7.93-2.95-8-7.88-.08-3.48 0-7 0-10.59-2-.14-3.82-.22-5.61-.4a18.34 18.34 0 0 1-16.46-17.76C12 129.79 12 114.48 12 99.17a3.75 3.75 0 0 0-1.72-3.48C3.6 90.7-.35 84.26 0 75.55.18 72 0 68.41 1.64 65.08c1.2-2.44 3.06-3.42 5.18-2.59S9.53 65.4 8.59 68C5 77.65 8 85.84 17 91c2 1.16 2.51 2.84 2.51 5v47.17c0 7.91 4.41 12.38 12.34 12.39h114.6c8 0 12.42-4.51 12.43-12.58 0-15.56 0-31.12-.05-46.68a5.74 5.74 0 0 1 3.32-5.76 17.46 17.46 0 0 0 8.47-20.21 17.78 17.78 0 0 0-17.8-12.87c-9.18.32-16.86 8.38-16.91 17.95-.07 15 0 30 0 44.92 0 7.63-4.43 12.17-12 12.18H54.5c-7.62 0-12-4.48-12-12.17V75.92c0-9.25-6-16.69-15-18.11-3-.47-6.24.3-9.25 1s-4.93.31-5.79-2 .13-4 3.07-5 5.74-1.52 9.02-2.35ZM128.4 98.19c0-7.45-.06-14.66 0-21.88.13-11.64 5.53-19.9 16.21-24.6a2.35 2.35 0 0 0 1.73-2.53c-.07-7.74 0-15.47-.06-23.21a19.68 19.68 0 0 0-4.37-12.45c-3.39-4.22-7.68-6.5-13.26-5.9-7.92.86-15.84 1.88-23.79 2.46a245.8 245.8 0 0 1-51.5-1.9 26 26 0 0 0-8.14-.29C37.84 9.29 32.19 17 32.07 25.45c-.12 7.9 0 15.81-.06 23.71a2.3 2.3 0 0 0 1.69 2.55c10.68 4.68 16 13 16.25 24.59.12 6.41 0 12.81 0 19.22 0 .87.08 1.74.13 2.67ZM50 105.86v13.64c0 4.69.82 5.53 5.47 5.53h67.35a20.49 20.49 0 0 0 2.48-.1 3.14 3.14 0 0 0 3-3.1c.14-5.29.05-10.58.05-16Zm86.61 68.24v-10.87h-5.32v10.87Zm-94.84-10.92V174H47v-10.82ZM223.11 64.82v16.65c.94 0 1.81.13 2.69.13h20.22c6.12 0 9.19 3.11 9.2 9.19v2.5c0 5-2.54 7.89-8 8.84v57.26c0 3.18-1 5.65-4.1 7a2.58 2.58 0 0 0-1.07 1.91c-.14 2.32 0 4.66-.1 7-.22 4.05-2.69 6.35-6.74 6.42-1.58 0-3.17.05-4.74 0a6.17 6.17 0 0 1-6.37-6c-.13-1.49-.07-3-.08-4.49s0-2.78 0-4.31h-14.48v7.2c-.05 5.36-2.31 7.42-7.58 7.67-9.2.44-10.81-2.68-10.4-10.36.15-2.71.3-5.32-2.48-7.25-.93-.65-1.21-2.69-1.22-4.1-.1-11.65-.06-23.29 0-34.93 0-2.94 1.37-4.67 3.64-4.71s3.73 1.72 3.84 4.6v1.67h44.28v-24.56h-44.34v6.06c0 3-1.35 4.61-3.7 4.66s-3.77-1.57-3.79-4.74v-5.85c-6.33-1.53-8.06-3.72-8-10a21.53 21.53 0 0 1 .29-5c.87-3.57 4.05-5.67 8.37-5.7h26.9V64.82c-4.08 0-8.13.06-12.18 0-4.32-.07-7.12-2.32-7.5-6.11a8.74 8.74 0 0 1 .55-3.63q3.8-10.78 7.74-21.52c1.32-3.58 3.53-5 7.43-5h16c3.83 0 6 1.52 7.35 5.16q3.89 10.62 7.68 21.28c1.93 5.45-1 9.71-6.79 9.86-4.13.05-8.19-.04-12.52-.04Zm16.51 69.74h-44.21v24.53h44.21Zm-4.36-77.32c-2.55-7-4.93-13.62-7.44-20.19a2.68 2.68 0 0 0-2.08-1c-4.24-.1-8.49 0-12.73-.1-1.66-.05-2.26.61-2.76 2.06-1.49 4.4-3.14 8.74-4.71 13.11-.72 2-1.41 4-2.17 6.15Zm-47.91 37h60.23v-5h-60.23Zm11.93 72.65v7.33l2.64-.13v-7.2Zm35 7.23v-7.38l-2.56.12v7.26Z"/><path d="M217.24 112.11a31.47 31.47 0 0 1-3.2-.22 3.23 3.23 0 0 1-2.88-3.26c-.13-1.87.63-3.49 2.52-3.73a31.84 31.84 0 0 1 7.43 0c1.88.2 2.74 1.75 2.66 3.64a3.3 3.3 0 0 1-3 3.39 33.59 33.59 0 0 1-3.53.18ZM68.22 38.75c3.67.74 4.88 1.8 4.8 4.21-.08 2.26-1.29 3.22-4.68 3.73-.9 3.81-1.83 4.89-4.17 4.81s-3.32-1.38-3.78-4.67c-3.65-.89-5-2-4.87-4.19s1.46-3.28 4.72-3.79c.76-3.52 2-5 4.25-4.84s3.23 1.52 3.73 4.74ZM118 46.7c-.62 3.63-1.68 4.85-4.08 4.8s-3.25-1.18-3.75-4.61c-4-1.15-5-2-4.83-4.4.26-2.89 2.45-3.4 4.91-3.63 0-2.57.81-4.53 3.58-4.83 2.21-.24 3.48 1.28 4.26 4.8 3.26.55 4.81 1.87 4.75 4.06s-1.52 3.32-4.84 3.81ZM217.16 144.55c-.94-.06-2 0-3.1-.21a3.26 3.26 0 0 1-2.91-3.48c0-1.89.84-3.38 2.75-3.59a33.54 33.54 0 0 1 6.94 0c2 .2 3 1.68 2.92 3.69a3.34 3.34 0 0 1-3.23 3.46c-1.07.1-2.15.08-3.37.13Z"/></svg>