<svg xmlns="http://www.w3.org/2000/svg" viewBox="0 0 182.3 115.79"><g><path d="M100.05-.63h59c13.27,0,23.29,10,23.3,23.26V67.55C182.29,81,172.46,91,159,91c-2,0-2.75.43-2.67,2.61.17,5.27,0,10.54.06,15.81,0,2.69-.87,4.86-3.45,5.95s-4.74.19-6.64-1.73c-7-7-14-14.1-21.13-21a5.6,5.6,0,0,0-3.54-1.47C88.33,91,55,91,21.7,91,10.33,91,1.43,84-1.1,73.17a22.48,22.48,0,0,1-.56-5q-.06-23,0-46A22.79,22.79,0,0,1,21.14-.63c1.8,0,3.6,0,5.39,0S29.46.16,29.48,2s-1.24,2.6-2.94,2.67c-2.93.13-5.91-.12-8.76.4A17.18,17.18,0,0,0,3.63,22.26q0,22.91,0,45.82A17.2,17.2,0,0,0,20.75,85.65c15.33.18,30.67.07,46,.07,18.75,0,37.51,0,56.26,0a6.55,6.55,0,0,1,5,2.12c7.1,7.22,14.29,14.34,21.46,21.49a13.54,13.54,0,0,0,1.24,1,10.64,10.64,0,0,0,.31-1.65c0-6.35,0-12.7,0-19,0-3.12.76-3.81,3.95-3.88a48.75,48.75,0,0,0,8.22-.46A17.21,17.21,0,0,0,177,68.4q.06-23,0-46A17.4,17.4,0,0,0,159.25,4.68q-59.4,0-118.81,0H38.82c-1.73-.06-3-.89-3-2.65S37.06-.64,38.93-.64q25.44,0,50.87,0Z"/><path d="M54,45.88c0,6.41,0,12.82,0,19.22,0,1.85-.49,3.31-2.59,3.33S48.78,67,48.77,65.15c0-5.15-.06-10.3,0-15.45,0-1.54-.51-1.89-2-1.87q-9.24.11-18.5,0c-1.39,0-1.87.35-1.85,1.79.08,5.15,0,10.3,0,15.45,0,1.53-.32,2.9-2.09,3.31s-3.13-.69-3.16-2.66c-.05-3.83,0-7.66,0-11.49q0-13.65,0-27.31c0-1.86.33-3.46,2.6-3.46s2.67,1.64,2.68,3.46c0,4.61,0,9.22,0,13.83,0,1.35.27,1.87,1.76,1.85q9.35-.12,18.68,0c1.57,0,1.88-.52,1.86-2-.08-4.66-.06-9.34,0-14,0-2.36,1.38-3.62,3.29-3.15,1.55.37,2,1.53,2,3C54,33,54,39.42,54,45.88Z"/><path d="M127.86,23.22a58.87,58.87,0,0,1,8,.65c7,1.5,11.25,7.91,10.5,15.33-.65,6.33-6.63,11.69-13.28,11.87-2.45.07-4.91.11-7.36,0-1.31,0-1.77.33-1.75,1.7.09,4.07,0,8.14,0,12.21,0,2.22-1.05,3.56-2.75,3.44-2.07-.14-2.56-1.52-2.56-3.37,0-12.81,0-25.61,0-38.41,0-2.4.84-3.24,3.2-3.27,2,0,4,0,5.93,0ZM124,37.16h0c0,2.39,0,4.79,0,7.18,0,1.14.28,1.6,1.49,1.55,2.45-.1,4.91,0,7.36-.11a8.78,8.78,0,0,0,8.4-8.6,8.75,8.75,0,0,0-8.38-8.44c-2.45-.1-4.91,0-7.36-.08-1.14,0-1.58.29-1.54,1.5C124.09,32.49,124,34.83,124,37.16Z"/><path d="M62.33,45.82q0-9.34,0-18.68c0-2.69,1-3.63,3.7-3.64q7.36,0,14.73,0c2.32,0,3.53.93,3.46,2.69-.09,2.25-1.6,2.64-3.48,2.62-3.83,0-7.67,0-11.5,0-1.24,0-1.66.34-1.63,1.61.07,3.77.08,7.55,0,11.32,0,1.31.45,1.6,1.65,1.57,3.42-.07,6.83,0,10.24,0,1.88,0,3.39.48,3.56,2.64.13,1.7-1.18,2.66-3.46,2.67-3.41,0-6.83.05-10.24,0-1.29,0-1.79.28-1.75,1.68.09,3.77.07,7.54,0,11.31,0,1.17.32,1.55,1.51,1.53C73,63,76.91,63,80.8,63c2.29,0,3.51.95,3.42,2.72-.1,2.1-1.5,2.6-3.34,2.59-5.09,0-10.18,0-15.27,0-2.31,0-3.26-.94-3.27-3.28C62.31,58.63,62.33,52.22,62.33,45.82Z"/><path d="M93,45.83V27c0-1.57.21-3.06,2.07-3.5s3.16.75,3.18,2.84c0,4.13,0,8.25,0,12.38,0,7.48,0,15,0,22.44,0,1.78.56,2.24,2.24,2.17,2.93-.14,5.87-.07,8.8-.06,1.74,0,2.93.71,2.94,2.6s-1.13,2.57-2.78,2.59c-4.31.06-8.62.12-12.93,0-2.75,0-3.48-.87-3.49-3.63C93,58.51,93,52.17,93,45.83Z"/><path d="M159.29,40.67c0,4.6,0,9.21,0,13.81,0,1.86-.58,3.21-2.61,3.37-1.7.13-2.7-1.21-2.7-3.44q0-13.81,0-27.63c0-1.83.51-3.22,2.61-3.34,1.78-.09,2.69,1.1,2.7,3.42Z"/><path d="M159.69,66.54c-1,.7-1.92,1.84-3,2-1.61.25-2.7-.94-2.67-2.61a2.43,2.43,0,0,1,2.63-2.55C158.27,63.4,159.09,64.43,159.69,66.54Z"/></g></svg>