<?xml version="1.0" encoding="utf-8"?>
<!-- Generator: Adobe Illustrator 23.1.1, SVG Export Plug-In . SVG Version: 6.00 Build 0)  -->
<svg version="1.1" id="Layer_1" xmlns="http://www.w3.org/2000/svg" xmlns:xlink="http://www.w3.org/1999/xlink" x="0px" y="0px"
	 viewBox="0 0 1606.6 1202.4" style="enable-background:new 0 0 1606.6 1202.4;" xml:space="preserve">
<linearGradient id="SVGID_1_" gradientUnits="userSpaceOnUse" x1="0" y1="1092.7512" x2="1606.6" y2="1092.7512" gradientTransform="matrix(1 0 0 -1 0 1694)">
	<stop  offset="7.210000e-02" style="stop-color:#FF2E63;stop-opacity:0.6"/>
	<stop  offset="0.7394" style="stop-color:#FF2E63"/>
</linearGradient>
<path style="opacity:0.71;fill:url(#SVGID_1_);enable-background:new    ;" d="M1606.6,0v779.9c0,0-85.2,123.6-238.8,237.1
	c-45.1,33.4-96.2,65.9-152.7,94.1c-187.3,93.5-434.7,140.2-726.6,16.6c-0.9-0.4-1.9-0.8-2.8-1.2c-2.9-1.2-5.7-2.5-8.6-3.7
	C328.7,1057.8,169,948.9,0,779.9V0H1606.6z"/>
<g>
	<g>
		<g>
			<g>
				<defs>
					<path id="SVGID_2_" d="M1606.6,0v779.9c0,0-85.2,123.6-238.8,237.1c-45.1,33.4-96.2,65.9-152.7,94.1
						c-187.3,93.5-434.7,140.2-726.6,16.6c-0.9-0.4-1.9-0.8-2.8-1.2c-2.9-1.2-5.7-2.5-8.6-3.7c-148.3-65-308-173.9-477.1-342.9V0
						H1606.6z"/>
				</defs>
				<clipPath id="SVGID_3_">
					<use xlink:href="#SVGID_2_"  style="overflow:visible;"/>
				</clipPath>
				<path style="opacity:0.12;clip-path:url(#SVGID_3_);enable-background:new    ;" d="M1507.9,1097.9
					c-60.8,71.2-118.2-47.8-194.3,12.4c-252.2,199.5-585.4,299-978.5,35.3c-1.2-0.8-2.5-1.7-3.8-2.6c-3.9-2.6-7.7-5.2-11.6-7.9
					L121.3,502.5l1320.5,385.9L1507.9,1097.9z"/>
			</g>
		</g>
	</g>
	<g>
		<g>
			<g>
				<defs>
					<path id="SVGID_4_" d="M1606.6,0v779.9c0,0-85.2,123.6-238.8,237.1c-45.1,33.4-96.2,65.9-152.7,94.1
						c-187.3,93.5-434.7,140.2-726.6,16.6c-0.9-0.4-1.9-0.8-2.8-1.2c-2.9-1.2-5.7-2.5-8.6-3.7c-148.3-65-308-173.9-477.1-342.9V0
						H1606.6z"/>
				</defs>
				<clipPath id="SVGID_5_">
					<use xlink:href="#SVGID_4_"  style="overflow:visible;"/>
				</clipPath>
				<g style="clip-path:url(#SVGID_5_);">
					<g>
						<polygon style="fill:#CC2756;" points="452.1,697.9 782.1,507.2 782.1,238.5 452.1,417.6 						"/>
						<polygon style="fill:#FF2E63;" points="452.1,417.6 279.9,277.6 122.3,238.8 122.3,507.3 166.3,532.8 182.1,521.8 
							383.4,638.3 383.4,658.3 452.1,697.9 						"/>
						<polygon style="fill:#707070;" points="122.3,226.9 277,269.2 606.9,78.6 452.1,36.4 						"/>
						<polygon style="fill:#4D4D4D;" points="277,269.2 606.9,78.6 782.1,227.1 452.1,417.6 						"/>
						<polygon style="fill:#D3D3D3;" points="182.1,521.8 383.4,638.3 383.4,452.3 182,336 						"/>
						<g>
							<polygon style="fill:#B7B7B7;" points="685.6,325.5 617.1,365 617.1,398.7 685.6,359.2 							"/>
							<polygon style="fill:#E2E2E2;" points="685.6,363.5 673.2,358.1 617.1,390.6 617.1,403.2 							"/>
							<polygon style="fill:#919191;" points="685.6,363.5 673.2,358.1 673.2,332.6 685.6,325.5 							"/>
						</g>
						<g>
							<polygon style="fill:#B7B7B7;" points="767.3,278.2 698.8,317.7 698.8,351.5 767.3,311.9 							"/>
							<polygon style="fill:#E2E2E2;" points="767.3,316.2 754.9,310.9 698.8,343.3 698.8,355.9 							"/>
							<polygon style="fill:#919191;" points="767.3,316.2 754.9,310.9 754.9,285.3 767.3,278.2 							"/>
						</g>
						<polygon style="fill:#CC2756;" points="183.6,336.8 166.3,326.8 166.3,532.8 183.6,522.8 						"/>
						<g>
							<path style="fill:#4D4D4D;" d="M270,353.8c0.8-0.4-14.9,7.9-16.4,27c15,10,32.2,8,33.2,6.9
								C288.9,375.1,283.1,359.2,270,353.8z"/>
							<path style="fill:#707070;" d="M270,353.8c-18.1-8.8-23.5,10.7-23.5,10.7s-3.1,8.9,6.3,15.7C258.4,359.1,270,353.8,270,353.8
								z"/>
						</g>
						<polygon style="fill:#D3D3D3;" points="122.3,226.9 122.3,239.2 276.7,284.3 452.1,429.8 452.1,417.6 277,269.2 						"/>
						<polygon style="fill:#AAAAAA;" points="452.1,417.6 452.1,429.8 782.1,239.2 782.1,227.1 						"/>
						<polygon style="fill:#AAAAAA;" points="452.1,697.9 452.1,678 782.1,487.4 782.1,507.2 						"/>
						<polygon style="fill:#D3D3D3;" points="452.1,678 452.1,697.9 383.4,658.3 383.4,638.3 						"/>
						<polygon style="fill:#D3D3D3;" points="166.3,532.8 166.3,512.8 122.3,487.4 122.3,507.3 						"/>
						<polygon style="fill:#AAAAAA;" points="183.6,502.9 166.3,512.8 166.3,532.8 183.6,522.8 						"/>
						<g>
							<polygon style="fill:#AAAAAA;" points="183.6,358.4 183.6,365.3 383.4,480.8 383.4,473.8 							"/>
							<polygon style="fill:#AAAAAA;" points="183.6,381 183.6,388 383.4,503.4 383.4,496.5 							"/>
							<polygon style="fill:#AAAAAA;" points="183.6,403.7 183.6,410.6 383.4,526.1 383.4,519.1 							"/>
							<polygon style="fill:#AAAAAA;" points="183.6,426.3 183.6,433.2 383.4,548.7 383.4,541.8 							"/>
							<polygon style="fill:#AAAAAA;" points="183.6,449 183.6,455.9 383.4,571.4 383.4,564.4 							"/>
							<polygon style="fill:#AAAAAA;" points="183.6,471.6 183.6,478.5 383.4,594 383.4,587.1 							"/>
							<polygon style="fill:#AAAAAA;" points="183.6,494.3 183.6,501.2 383.4,616.7 383.4,609.7 							"/>
						</g>
						<g>
							<polygon style="fill:#AAAAAA;" points="287.6,263.1 132.9,220.8 137.4,218.2 292,260.5 							"/>
							<polygon style="fill:#AAAAAA;" points="303.4,253.9 148.8,211.6 153.3,209 307.9,251.3 							"/>
							<polygon style="fill:#AAAAAA;" points="319.3,244.7 164.6,202.4 169.2,199.8 323.8,242.1 							"/>
							<polygon style="fill:#AAAAAA;" points="335.1,235.6 180.4,193.3 185,190.7 339.6,233 							"/>
							<polygon style="fill:#AAAAAA;" points="351,226.4 196.3,184.2 200.8,181.6 355.5,223.9 							"/>
							<polygon style="fill:#AAAAAA;" points="366.8,217.2 212.2,175 216.7,172.4 371.3,214.7 							"/>
							<polygon style="fill:#AAAAAA;" points="382.7,208.1 228,165.9 232.5,163.2 387.1,205.5 							"/>
							<polygon style="fill:#AAAAAA;" points="398.5,198.9 243.9,156.7 248.4,154.1 403,196.4 							"/>
							<polygon style="fill:#AAAAAA;" points="414.4,189.8 259.7,147.5 264.2,144.9 418.9,187.2 							"/>
							<polygon style="fill:#AAAAAA;" points="430.2,180.6 275.6,138.4 280.1,135.8 434.7,178.1 							"/>
							<polygon style="fill:#AAAAAA;" points="446.1,171.5 291.4,129.2 295.9,126.6 450.5,168.9 							"/>
							<polygon style="fill:#AAAAAA;" points="462,162.3 307.3,120.1 311.8,117.5 466.4,159.7 							"/>
							<polygon style="fill:#AAAAAA;" points="477.8,153.1 323.1,110.9 327.7,108.3 482.3,150.6 							"/>
							<polygon style="fill:#AAAAAA;" points="493.7,144 339,101.7 343.5,99.1 498.1,141.4 							"/>
							<polygon style="fill:#AAAAAA;" points="509.5,134.8 354.9,92.6 359.4,90 514,132.3 							"/>
							<polygon style="fill:#AAAAAA;" points="525.4,125.7 370.7,83.4 375.2,80.8 529.8,123.1 							"/>
							<polygon style="fill:#AAAAAA;" points="541.2,116.5 386.6,74.3 391.1,71.7 545.7,113.9 							"/>
							<polygon style="fill:#AAAAAA;" points="557.1,107.4 402.4,65.1 406.9,62.5 561.5,104.8 							"/>
							<polygon style="fill:#AAAAAA;" points="572.9,98.2 418.2,56 422.8,53.4 577.4,95.6 							"/>
							<polygon style="fill:#AAAAAA;" points="588.8,89 434.1,46.8 438.6,44.2 593.2,86.5 							"/>
						</g>
						<g>
							<polygon style="fill:#707070;" points="287.6,263.1 462.7,411.5 467.2,409 292,260.5 							"/>
							<polygon style="fill:#707070;" points="303.4,253.9 478.6,402.4 483,399.8 307.9,251.3 							"/>
							<polygon style="fill:#707070;" points="319.3,244.7 494.4,393.2 498.9,390.6 323.7,242.2 							"/>
							<polygon style="fill:#707070;" points="335.1,235.6 510.3,384 514.7,381.5 339.6,233 							"/>
							<polygon style="fill:#707070;" points="351,226.4 526.1,374.9 530.6,372.3 355.5,223.9 							"/>
							<polygon style="fill:#707070;" points="366.8,217.3 542,365.7 546.4,363.2 371.3,214.7 							"/>
							<polygon style="fill:#707070;" points="382.7,208.1 557.8,356.6 562.3,354 387.1,205.5 							"/>
							<polygon style="fill:#707070;" points="398.6,199 573.7,347.4 578.1,344.9 403,196.4 							"/>
							<polygon style="fill:#707070;" points="414.4,189.8 589.6,338.2 594,335.7 418.9,187.2 							"/>
							<polygon style="fill:#707070;" points="430.3,180.6 605.4,329.1 609.8,326.5 434.7,178.1 							"/>
							<polygon style="fill:#707070;" points="446.1,171.5 621.3,320 625.7,317.4 450.6,168.9 							"/>
							<polygon style="fill:#707070;" points="462,162.3 637.1,310.8 641.6,308.2 466.4,159.8 							"/>
							<polygon style="fill:#707070;" points="477.8,153.2 653,301.6 657.4,299.1 482.3,150.6 							"/>
							<polygon style="fill:#707070;" points="493.7,144 668.8,292.5 673.3,289.9 498.1,141.4 							"/>
							<polygon style="fill:#707070;" points="509.5,134.9 684.7,283.3 689.1,280.8 514,132.3 							"/>
							<polygon style="fill:#707070;" points="525.4,125.7 700.5,274.2 705,271.6 529.8,123.1 							"/>
							<polygon style="fill:#707070;" points="541.2,116.5 716.4,265 720.8,262.4 545.7,114 							"/>
							<polygon style="fill:#707070;" points="557.1,107.4 732.3,255.9 736.7,253.3 561.6,104.8 							"/>
							<polygon style="fill:#707070;" points="573,98.2 748.2,246.7 752.6,244.1 577.4,95.6 							"/>
							<polygon style="fill:#707070;" points="588.8,89 764,237.6 768.5,235 593.3,86.5 							"/>
						</g>
					</g>
					<g>
						<polygon style="fill:#CC2756;" points="781.9,888.3 1111.9,697.7 1111.9,429 781.9,608.1 						"/>
						<polygon style="fill:#FF2E63;" points="781.9,608.1 609.7,468 452.1,429.3 452.1,697.8 496.1,723.2 511.9,712.3 713.2,828.8 
							713.2,848.8 781.9,888.3 						"/>
						<polygon style="fill:#707070;" points="452.1,417.4 606.8,459.7 936.7,269.1 781.9,226.8 						"/>
						<polygon style="fill:#4D4D4D;" points="606.8,459.7 936.7,269.1 1111.9,417.6 781.9,608.1 						"/>
						<polygon style="fill:#EAEAEA;" points="511.9,712.3 713.2,828.8 713.2,642.8 511.9,526.5 						"/>
						<g>
							<polygon style="fill:#B7B7B7;" points="1015.4,515.9 946.9,555.4 946.9,589.2 1015.4,549.6 							"/>
							<polygon style="fill:#E2E2E2;" points="1015.4,553.9 1003,548.6 946.9,581.1 946.9,593.6 							"/>
							<polygon style="fill:#919191;" points="1015.4,553.9 1003,548.6 1003,523 1015.4,515.9 							"/>
						</g>
						<g>
							<polygon style="fill:#B7B7B7;" points="1097.1,468.6 1028.6,508.2 1028.6,541.9 1097.1,502.4 							"/>
							<polygon style="fill:#E2E2E2;" points="1097.1,506.7 1084.7,501.3 1028.6,533.8 1028.6,546.4 							"/>
							<polygon style="fill:#919191;" points="1097.1,506.7 1084.7,501.3 1084.7,475.8 1097.1,468.6 							"/>
						</g>
						<polygon style="fill:#CC2756;" points="513.4,527.2 496.1,517.3 496.1,723.2 513.4,713.3 						"/>
						<g>
							<path style="fill:#4D4D4D;" d="M599.8,544.3c0.8-0.4-14.9,7.9-16.4,27c15,10,32.2,8,33.2,6.9
								C618.7,565.5,613,549.7,599.8,544.3z"/>
							<path style="fill:#707070;" d="M599.8,544.3c-18-8.8-23.5,10.7-23.5,10.7s-3.1,8.9,6.3,15.7
								C588.2,549.6,599.8,544.3,599.8,544.3z"/>
						</g>
						<polygon style="fill:#D3D3D3;" points="452.1,417.4 452.1,429.7 606.5,474.8 781.9,620.2 781.9,608.1 606.8,459.7 						"/>
						<polygon style="fill:#AAAAAA;" points="781.9,608.1 781.9,620.2 1111.9,429.6 1111.9,417.6 						"/>
						<polygon style="fill:#AAAAAA;" points="781.9,888.3 781.9,868.5 1111.9,677.9 1111.9,697.7 						"/>
						<polygon style="fill:#D3D3D3;" points="781.9,868.5 781.9,888.3 713.2,848.8 713.2,828.8 						"/>
						<polygon style="fill:#D3D3D3;" points="496.1,723.2 496.1,703.3 452.1,677.8 452.1,697.8 						"/>
						<polygon style="fill:#AAAAAA;" points="513.4,693.4 496.1,703.3 496.1,723.2 513.4,713.3 						"/>
						<g>
							<polygon style="fill:#AAAAAA;" points="617.4,453.5 462.7,411.3 467.2,408.7 621.8,451 							"/>
							<polygon style="fill:#AAAAAA;" points="633.3,444.3 478.6,402.1 483.1,399.5 637.7,441.8 							"/>
							<polygon style="fill:#AAAAAA;" points="649.1,435.2 494.5,392.9 499,390.3 653.6,432.6 							"/>
							<polygon style="fill:#AAAAAA;" points="664.9,426 510.2,383.8 514.8,381.2 669.4,423.5 							"/>
							<polygon style="fill:#AAAAAA;" points="680.8,416.9 526.1,374.6 530.7,372 685.3,414.3 							"/>
							<polygon style="fill:#AAAAAA;" points="696.7,407.7 542,365.5 546.5,362.9 701.1,405.1 							"/>
							<polygon style="fill:#AAAAAA;" points="712.5,398.6 557.8,356.3 562.3,353.7 717,396 							"/>
							<polygon style="fill:#AAAAAA;" points="728.4,389.4 573.7,347.1 578.2,344.5 732.8,386.8 							"/>
							<polygon style="fill:#AAAAAA;" points="744.2,380.2 589.5,338 594.1,335.4 748.7,377.7 							"/>
							<polygon style="fill:#AAAAAA;" points="760.1,371.1 605.4,328.8 609.9,326.2 764.5,368.5 							"/>
							<polygon style="fill:#AAAAAA;" points="775.9,361.9 621.2,319.7 625.8,317.1 780.4,359.4 							"/>
							<polygon style="fill:#AAAAAA;" points="791.8,352.8 637.1,310.5 641.6,307.9 796.2,350.2 							"/>
							<polygon style="fill:#AAAAAA;" points="807.6,343.6 653,301.4 657.5,298.8 812.1,341 							"/>
							<polygon style="fill:#AAAAAA;" points="823.5,334.4 668.8,292.2 673.3,289.6 828,331.9 							"/>
							<polygon style="fill:#AAAAAA;" points="839.3,325.3 684.7,283 689.2,280.4 843.8,322.7 							"/>
							<polygon style="fill:#AAAAAA;" points="855.2,316.1 700.5,273.9 705,271.3 859.7,313.6 							"/>
							<polygon style="fill:#AAAAAA;" points="871,307 716.4,264.7 720.9,262.1 875.5,304.4 							"/>
							<polygon style="fill:#AAAAAA;" points="886.9,297.8 732.2,255.6 736.8,253 891.4,295.2 							"/>
							<polygon style="fill:#AAAAAA;" points="902.7,288.7 748.1,246.4 752.6,243.8 907.2,286.1 							"/>
							<polygon style="fill:#AAAAAA;" points="918.6,279.5 763.9,237.3 768.4,234.6 923,276.9 							"/>
						</g>
						<g>
							<polygon style="fill:#707070;" points="617.4,453.5 792.5,602 797,599.4 621.8,450.9 							"/>
							<polygon style="fill:#707070;" points="633.2,444.4 808.4,592.8 812.8,590.2 637.7,441.8 							"/>
							<polygon style="fill:#707070;" points="649.1,435.2 824.2,583.7 828.7,581.1 653.5,432.6 							"/>
							<polygon style="fill:#707070;" points="665,426 840.1,574.5 844.5,571.9 669.4,423.5 							"/>
							<polygon style="fill:#707070;" points="680.8,416.9 855.9,565.3 860.4,562.8 685.3,414.3 							"/>
							<polygon style="fill:#707070;" points="696.7,407.7 871.8,556.2 876.2,553.6 701.1,405.1 							"/>
							<polygon style="fill:#707070;" points="712.5,398.6 887.7,547 892.1,544.5 717,396 							"/>
							<polygon style="fill:#707070;" points="728.4,389.4 903.5,537.9 908,535.3 732.8,386.9 							"/>
							<polygon style="fill:#707070;" points="744.2,380.3 919.4,528.7 923.8,526.2 748.7,377.7 							"/>
							<polygon style="fill:#707070;" points="760.1,371.1 935.2,519.6 939.7,517 764.5,368.5 							"/>
							<polygon style="fill:#707070;" points="775.9,362 951.1,510.4 955.5,507.9 780.4,359.4 							"/>
							<polygon style="fill:#707070;" points="791.8,352.8 966.9,501.2 971.4,498.7 796.2,350.2 							"/>
							<polygon style="fill:#707070;" points="807.6,343.6 982.8,492.1 987.2,489.5 812.1,341.1 							"/>
							<polygon style="fill:#707070;" points="823.5,334.5 998.7,482.9 1003.1,480.4 828,331.9 							"/>
							<polygon style="fill:#707070;" points="839.4,325.3 1014.5,473.8 1018.9,471.2 843.8,322.8 							"/>
							<polygon style="fill:#707070;" points="855.2,316.2 1030.3,464.6 1034.8,462.1 859.7,313.6 							"/>
							<polygon style="fill:#707070;" points="871.1,307 1046.2,455.5 1050.7,452.9 875.5,304.4 							"/>
							<polygon style="fill:#707070;" points="886.9,297.9 1062.1,446.3 1066.6,443.8 891.4,295.3 							"/>
							<polygon style="fill:#707070;" points="902.8,288.6 1078,437.2 1082.4,434.6 907.2,286.1 							"/>
							<polygon style="fill:#707070;" points="918.6,279.5 1093.8,428 1098.3,425.5 923.1,276.9 							"/>
						</g>
					</g>
					<g>
						<polygon style="fill:#CC2756;" points="1111.8,1079.1 1441.8,888.5 1441.8,619.8 1111.8,798.9 						"/>
						<polygon style="fill:#FF2E63;" points="1111.8,798.9 939.6,658.8 782,620 782,888.6 826.1,914 841.8,903.1 1043.2,1019.5 
							1043.2,1039.5 1111.8,1079.1 						"/>
						<polygon style="fill:#707070;" points="782,608.2 936.7,650.4 1266.6,459.9 1111.8,417.6 						"/>
						<polygon style="fill:#4D4D4D;" points="936.7,650.4 1266.6,459.9 1441.8,608.4 1111.8,798.9 						"/>
						<polygon style="fill:#D3D3D3;" points="841.8,903.1 1043.2,1019.5 1043.2,833.5 841.8,717.2 						"/>
						<g>
							<polygon style="fill:#B7B7B7;" points="1345.3,706.7 1276.8,746.2 1276.8,780 1345.3,740.4 							"/>
							<polygon style="fill:#E2E2E2;" points="1345.3,744.7 1332.9,739.4 1276.8,771.8 1276.8,784.4 							"/>
							<polygon style="fill:#919191;" points="1345.3,744.7 1332.9,739.4 1332.9,713.8 1345.3,706.7 							"/>
						</g>
						<g>
							<polygon style="fill:#B7B7B7;" points="1427,659.4 1358.5,699 1358.5,732.7 1427,693.2 							"/>
							<polygon style="fill:#E2E2E2;" points="1427,697.5 1414.6,692.1 1358.5,724.6 1358.5,737.2 							"/>
							<polygon style="fill:#919191;" points="1427,697.5 1414.6,692.1 1414.6,666.6 1427,659.4 							"/>
						</g>
						<polygon style="fill:#CC2756;" points="843.3,718 826.1,708 826.1,914 843.3,904 						"/>
						<g>
							<path style="fill:#4D4D4D;" d="M929.8,735c0.8-0.4-14.9,7.9-16.4,27c15,10,32.2,8,33.2,6.9
								C948.6,756.3,942.9,740.5,929.8,735z"/>
							<path style="fill:#707070;" d="M929.8,735c-18-8.8-23.5,10.7-23.5,10.7s-3.1,8.9,6.3,15.7C918.1,740.3,929.8,735,929.8,735z"
								/>
						</g>
						<polygon style="fill:#D3D3D3;" points="782,608.2 782,620.5 936.5,665.5 1111.8,811 1111.8,798.9 936.7,650.4 						"/>
						<polygon style="fill:#AAAAAA;" points="1111.8,798.9 1111.8,811 1441.8,620.4 1441.8,608.4 						"/>
						<polygon style="fill:#AAAAAA;" points="1111.8,1079.1 1111.8,1059.2 1441.8,868.7 1441.8,888.5 						"/>
						<polygon style="fill:#D3D3D3;" points="1111.8,1059.2 1111.8,1079.1 1043.2,1039.5 1043.2,1019.5 						"/>
						<polygon style="fill:#D3D3D3;" points="826.1,914 826.1,894.1 782,868.6 782,888.6 						"/>
						<polygon style="fill:#AAAAAA;" points="843.3,884.1 826.1,894.1 826.1,914 843.3,904 						"/>
						<g>
							<polygon style="fill:#AAAAAA;" points="843.3,739.6 843.3,746.6 1043.2,862 1043.2,855.1 							"/>
							<polygon style="fill:#AAAAAA;" points="843.3,762.3 843.3,769.2 1043.2,884.7 1043.2,877.7 							"/>
							<polygon style="fill:#AAAAAA;" points="843.3,784.9 843.3,791.8 1043.2,907.3 1043.2,900.3 							"/>
							<polygon style="fill:#AAAAAA;" points="843.3,807.6 843.3,814.5 1043.2,930 1043.2,923 							"/>
							<polygon style="fill:#AAAAAA;" points="843.3,830.2 843.3,837.1 1043.2,952.6 1043.2,945.7 							"/>
							<polygon style="fill:#AAAAAA;" points="843.3,852.9 843.3,859.8 1043.2,975.3 1043.2,968.3 							"/>
							<polygon style="fill:#AAAAAA;" points="843.3,875.5 843.3,882.4 1043.2,997.9 1043.2,991 							"/>
						</g>
						<g>
							<polygon style="fill:#AAAAAA;" points="947.3,644.3 792.6,602.1 797.1,599.5 951.8,641.7 							"/>
							<polygon style="fill:#AAAAAA;" points="963.2,635.1 808.5,592.9 813,590.3 967.6,632.5 							"/>
							<polygon style="fill:#AAAAAA;" points="979.1,625.9 824.4,583.7 828.9,581.1 983.5,623.4 							"/>
							<polygon style="fill:#AAAAAA;" points="994.8,616.8 840.2,574.6 844.7,572 999.3,614.2 							"/>
							<polygon style="fill:#AAAAAA;" points="1010.7,607.7 856,565.4 860.6,562.8 1015.2,605.1 							"/>
							<polygon style="fill:#AAAAAA;" points="1026.6,598.5 871.9,556.2 876.4,553.6 1031,595.9 							"/>
							<polygon style="fill:#AAAAAA;" points="1042.4,589.3 887.8,547.1 892.3,544.5 1046.9,586.8 							"/>
							<polygon style="fill:#AAAAAA;" points="1058.3,580.2 903.6,537.9 908.1,535.3 1062.7,577.6 							"/>
							<polygon style="fill:#AAAAAA;" points="1074.1,571 919.5,528.8 924,526.2 1078.6,568.4 							"/>
							<polygon style="fill:#AAAAAA;" points="1090,561.9 935.3,519.6 939.8,517 1094.4,559.3 							"/>
							<polygon style="fill:#AAAAAA;" points="1105.8,552.7 951.2,510.5 955.7,507.9 1110.3,550.1 							"/>
							<polygon style="fill:#AAAAAA;" points="1121.7,543.6 967,501.3 971.5,498.7 1126.2,541 							"/>
							<polygon style="fill:#AAAAAA;" points="1137.6,534.4 982.9,492.1 987.4,489.5 1142,531.8 							"/>
							<polygon style="fill:#AAAAAA;" points="1153.4,525.2 998.8,483 1003.3,480.4 1157.9,522.7 							"/>
							<polygon style="fill:#AAAAAA;" points="1169.2,516.1 1014.6,473.8 1019.1,471.2 1173.7,513.5 							"/>
							<polygon style="fill:#AAAAAA;" points="1185.1,506.9 1030.4,464.7 1035,462.1 1189.6,504.4 							"/>
							<polygon style="fill:#AAAAAA;" points="1201,497.8 1046.3,455.5 1050.8,452.9 1205.4,495.2 							"/>
							<polygon style="fill:#AAAAAA;" points="1216.8,488.6 1062.2,446.4 1066.7,443.7 1221.3,486 							"/>
							<polygon style="fill:#AAAAAA;" points="1232.7,479.5 1078,437.2 1082.5,434.6 1237.1,476.9 							"/>
							<polygon style="fill:#AAAAAA;" points="1248.5,470.3 1093.8,428 1098.3,425.4 1253,467.7 							"/>
						</g>
						<g>
							<polygon style="fill:#707070;" points="947.3,644.3 1122.4,792.8 1126.9,790.2 951.8,641.7 							"/>
							<polygon style="fill:#707070;" points="963.2,635.1 1138.3,783.6 1142.7,781 967.6,632.6 							"/>
							<polygon style="fill:#707070;" points="979,626 1154.2,774.4 1158.6,771.9 983.5,623.4 							"/>
							<polygon style="fill:#707070;" points="994.9,616.8 1170,765.3 1174.4,762.7 999.3,614.2 							"/>
							<polygon style="fill:#707070;" points="1010.7,607.7 1185.9,756.1 1190.3,753.6 1015.2,605.1 							"/>
							<polygon style="fill:#707070;" points="1026.6,598.5 1201.7,747 1206.2,744.4 1031,595.9 							"/>
							<polygon style="fill:#707070;" points="1042.4,589.3 1217.6,737.8 1222,735.2 1046.9,586.8 							"/>
							<polygon style="fill:#707070;" points="1058.3,580.2 1233.4,728.7 1237.9,726.1 1062.7,577.6 							"/>
							<polygon style="fill:#707070;" points="1074.1,571 1249.3,719.5 1253.7,716.9 1078.6,568.5 							"/>
							<polygon style="fill:#707070;" points="1090,561.9 1265.1,710.3 1269.6,707.8 1094.4,559.3 							"/>
							<polygon style="fill:#707070;" points="1105.8,552.7 1281,701.2 1285.4,698.6 1110.3,550.2 							"/>
							<polygon style="fill:#707070;" points="1121.7,543.6 1296.8,692 1301.3,689.5 1126.2,541 							"/>
							<polygon style="fill:#707070;" points="1137.6,534.4 1312.7,682.9 1317.2,680.3 1142,531.8 							"/>
							<polygon style="fill:#707070;" points="1153.4,525.3 1328.6,673.7 1333,671.2 1157.9,522.7 							"/>
							<polygon style="fill:#707070;" points="1169.3,516.1 1344.4,664.6 1348.8,662 1173.7,513.5 							"/>
							<polygon style="fill:#707070;" points="1185.1,507 1360.3,655.4 1364.7,652.8 1189.6,504.4 							"/>
							<polygon style="fill:#707070;" points="1201,497.8 1376.1,646.2 1380.6,643.7 1205.4,495.2 							"/>
							<polygon style="fill:#707070;" points="1216.8,488.6 1392,637.1 1396.5,634.5 1221.3,486.1 							"/>
							<polygon style="fill:#707070;" points="1232.7,479.4 1407.9,627.9 1412.3,625.4 1237.1,476.9 							"/>
							<polygon style="fill:#707070;" points="1248.5,470.3 1423.8,618.8 1428.2,616.2 1253,467.7 							"/>
						</g>
					</g>
					<g>
						<rect x="1065" y="941.5" style="fill:#4D4D4D;" width="3.6" height="92.1"/>
						<rect x="1058.9" y="941.5" style="fill:#3A3A3A;" width="6.1" height="92.1"/>
						<path style="fill:#4D4D4D;" d="M1065.5,943.8c-11.8-6.2-28.7-49.1-1.2-32.4C1096.8,924.6,1086.7,937.1,1065.5,943.8z
							 M1063.3,937c1.5,6.1,24.5-9.2,15.3-12.8C1044.3,904.2,1051.3,911.6,1063.3,937z"/>
						<path style="fill:#4D4D4D;" d="M1066.7,945.2c0-0.1,4.9-2.3,3.7-3.1C1069.2,943.1,1063.7,944.2,1066.7,945.2z"/>
						<path style="fill:#4D4D4D;" d="M1049.2,909.9c3.2-2.5,4.5-1.4,1,1.6L1049.2,909.9z"/>
						<path style="fill:#3A3A3A;" d="M1062.5,945.5c-11.8-6.2-28.7-49.1-1.2-32.4C1093.7,926.3,1083.6,938.8,1062.5,945.5z
							 M1060.3,938.7c1.5,6.1,24.5-9.2,15.3-12.8C1041.2,905.9,1048.2,913.3,1060.3,938.7z"/>
						<g>
							<path style="fill:#4D4D4D;" d="M1089.1,1072.2c-19.2,8.6-113.6,73.6-120.8,60.1c-21.4-7.3,88-57.2,101.8-68.9
								C1070.6,1060,1083.2,1069.2,1089.1,1072.2z"/>
							<path style="fill:#4D4D4D;" d="M1089.1,1067.7c1.3,8.1-10.4,7.3-9-1.3L1089.1,1067.7z"/>
							<path style="fill:#4D4D4D;" d="M965,1123.2c0.1,1.7-0.6,4.9,1.7,6.5C966.9,1127.4,968.9,1123.6,965,1123.2z"/>
							<path style="fill:#707070;" d="M1089.1,1067.7c-19.2,8.6-113.6,73.6-120.8,60.1c-21.4-7.3,88-57.2,101.8-68.9
								C1070.6,1055.5,1083.2,1064.7,1089.1,1067.7z"/>
							<path style="fill:#FF9003;" d="M984.6,1119.6c1.1,3.7-13.1,6.6-10.4,0C976.3,1117,982.5,1116.1,984.6,1119.6z"/>
							<path style="fill:#FFA543;" d="M983.8,1118.8c1,3.3-11.7,5.9-9.3,0C976.4,1116.5,981.9,1115.7,983.8,1118.8z"/>
						</g>
						<g>
							<path style="fill:#4D4D4D;" d="M1046.2,1047.4c-19.2,8.6-113.6,73.6-120.8,60.1c-21.4-7.3,88-57.2,101.8-68.9
								C1027.7,1035.2,1040.2,1044.4,1046.2,1047.4z"/>
							<path style="fill:#4D4D4D;" d="M1046.2,1043c1.3,8.1-10.4,7.3-9-1.3L1046.2,1043z"/>
							<path style="fill:#4D4D4D;" d="M922.1,1098.4c0.1,1.7-0.6,4.9,1.7,6.5C924,1102.7,926,1098.8,922.1,1098.4z"/>
							<path style="fill:#707070;" d="M1046.2,1043c-19.2,8.6-113.6,73.6-120.8,60.1c-21.4-7.3,88-57.2,101.8-68.9
								C1027.7,1030.8,1040.2,1039.9,1046.2,1043z"/>
							<path style="fill:#FF9003;" d="M941.7,1094.9c1.1,3.7-13.1,6.6-10.4,0C933.4,1092.3,939.5,1091.3,941.7,1094.9z"/>
							<path style="fill:#FFA543;" d="M940.9,1094.1c1,3.3-11.7,5.9-9.3,0C933.5,1091.7,939,1090.9,940.9,1094.1z"/>
						</g>
						<path style="fill:#E57700;" d="M1022.4,1036.9l12.8-33.8c59.1,35.2,40.9,13.6,47.2,68.4L1022.4,1036.9z"/>
						<path style="fill:#FF9003;" d="M1082.5,1071.6c12.7,0.4,1.9-41.1,3.4-46.7C1073.5,1024.4,1084,1066.1,1082.5,1071.6z"/>
						<path style="fill:#FFA543;" d="M1035.2,1003.1c39.1,22.1,43.9,28.7,50.7,21.8C1046.9,1002.9,1042.1,996.2,1035.2,1003.1z"/>
						<g>
							<path style="fill:#DBA763;" d="M1020.2,1125.2c-1.1-58.6-3.2-32.5,56.9-72.1C1078.1,1111.7,1080.1,1085.6,1020.2,1125.2z"/>
							<path style="fill:#E8B679;" d="M1020.2,1125.2c-0.2-59.3,10.6-28.1-81.9-86.5C938.4,1097.9,927.7,1066.8,1020.2,1125.2z"/>
							<path style="fill:#FFE1C0;" d="M938.3,1038.7c110.3,60.3,59.6,55.3,138.8,14.4C966.6,992.8,1017.4,997.9,938.3,1038.7z"/>
							<g>
								<path style="fill:#4D4D4D;" d="M1055.9,1086.1l-12.7,7.4c-1.1-26.7,0.4-20.2,12.7-28.2V1086.1z"/>
								<path style="fill:#6D6D6D;" d="M1055.9,1065.3c-94.6-54.1-77.2-49.5-94.5-39.9C1055.8,1079.5,1038.6,1075,1055.9,1065.3z"/>
								<path style="fill:#4D4D4D;" d="M1024.4,1118.7c-3.3-4.9,17.5-12.7,19.1-14.7C1046.8,1109,1026,1116.7,1024.4,1118.7z"/>
								<path style="fill:#4D4D4D;" d="M1024.4,1112.2c-3.3-4.9,17.5-12.7,19.1-14.7C1046.8,1102.5,1026,1110.1,1024.4,1112.2z"/>
								<path style="fill:#4D4D4D;" d="M949.8,1066.7v13.2c-14-5.4-8-12-9.1-18.5L949.8,1066.7z"/>
								<path style="fill:#4D4D4D;" d="M962.2,1073.9v13.2c-14-5.4-8-12-9.1-18.5L962.2,1073.9z"/>
								<path style="fill:#4D4D4D;" d="M974.8,1081.2v13.2c-14-5.4-8-12-9.1-18.5L974.8,1081.2z"/>
								<path style="fill:#FFFFFF;" d="M1017.7,1087.7v19c-26.6-13.5-17.2-12.2-18.8-29.9L1017.7,1087.7z"/>
								<path style="fill:#4D4D4D;" d="M1015.4,1091.5c2.7-4.1-13.4-10-14.8-11.6C997.9,1084,1014.1,1089.9,1015.4,1091.5z"/>
							</g>
						</g>
						<g>
							<polygon style="fill:#DBA763;" points="1013.3,1070.6 1013.2,1047.6 1050,1026.4 1050,1049.3 							"/>
							<polygon style="fill:#E8B679;" points="1013.3,1070.6 1013.2,1047.6 960.4,1017.1 960.4,1040 							"/>
							<path style="fill:#FFE1C0;" d="M960.4,1017.1c70.5,39.1,39.7,35.2,89.6,9.3C979.5,987.4,1010.2,991.2,960.4,1017.1z"/>
							<g>
								<path style="fill:#4D4D4D;" d="M1016,1066.4c-2.3-2.8,11.5-8.5,12.3-9.5C1030.7,1059.7,1016.8,1065.4,1016,1066.4z"/>
								<path style="fill:#4D4D4D;" d="M1016,1062.2c-2.3-2.8,11.5-8.5,12.3-9.5C1030.7,1055.5,1016.8,1061.1,1016,1062.2z"/>
								<path style="fill:#4D4D4D;" d="M969.5,1026.4v10.7c-11.2-4-6.5-10.4-7.4-14.9L969.5,1026.4z"/>
								<path style="fill:#4D4D4D;" d="M979.6,1032.2v10.7c-11.2-4-6.5-10.4-7.4-14.9L979.6,1032.2z"/>
							</g>
							<path style="fill:#FFFFFF;" d="M1010.4,1050.1v12.7c-23.4-12.3-18.5-10.8-18.8-23.6L1010.4,1050.1z"/>
							<path style="fill:#4D4D4D;" d="M1008.1,1053.9c2.7-4.1-13.4-10-14.8-11.6C990.6,1046.4,1006.8,1052.3,1008.1,1053.9z"/>
							<path style="fill:#4D4D4D;" d="M1040.7,1043.8l-12.7,7.4c-2.3-17.1,6-14,12.7-19.4V1043.8z"/>
							<path style="fill:#6D6D6D;" d="M1040.7,1031.8c-60.9-35.1-49.3-32.6-65.5-23.2C1036.1,1043.7,1024.5,1041.2,1040.7,1031.8z"
								/>
						</g>
					</g>
					<g>
						<g>
							<g>
								<path style="fill:#AFAFAF;" d="M408.6,715.9c3,13,9.7,5.7,8.4-4.8C416.8,711.5,409.3,715.3,408.6,715.9z"/>
								<g>
									<path style="fill:#3A3A3A;" d="M418.9,720.9c1.3,5.2-10.1,10.6-9.3,1.3C410.4,718.3,417,715.1,418.9,720.9z"/>
									<path style="fill:#3A3A3A;" d="M413.5,728.2l-2.2-1.3c1.6-1.3,4.7-11.8,7.8-7.6L413.5,728.2z"/>
									<path style="fill:#4D4D4D;" d="M421,722.1c1.3,5.2-10.1,10.6-9.3,1.3C412.4,719.4,419.1,716.3,421,722.1z"/>
								</g>
								<path style="fill:#AFAFAF;" d="M411.5,716.9c4,19.6,9.1,3.8,7.8-5.5L411.5,716.9z"/>
								<path style="fill:#FFFFFF;" d="M417,723.9C416.5,723.2,416,723.3,417,723.9C417.8,724.5,413.9,726.3,417,723.9z"/>
							</g>
							<g>
								<path style="fill:#AFAFAF;" d="M347.7,681c3,13,9.7,5.7,8.4-4.8C356,676.5,348.5,680.3,347.7,681z"/>
								<g>
									<path style="fill:#3A3A3A;" d="M358,686c1.3,5.2-10.1,10.6-9.3,1.3C349.5,683.3,356.2,680.2,358,686z"/>
									<path style="fill:#3A3A3A;" d="M352.6,693.2l-2.2-1.3c1.6-1.3,4.7-11.8,7.8-7.6L352.6,693.2z"/>
									<path style="fill:#4D4D4D;" d="M360.1,687.1c1.3,5.2-10.1,10.6-9.3,1.3C351.6,684.5,358.2,681.3,360.1,687.1z"/>
								</g>
								<path style="fill:#AFAFAF;" d="M350.7,682c4,19.6,9.1,3.8,7.8-5.5L350.7,682z"/>
								<path style="fill:#FFFFFF;" d="M356.2,688.9C355.6,688.2,355.2,688.4,356.2,688.9C356.9,689.6,353,691.3,356.2,688.9z"/>
							</g>
							<g>
								<path style="fill:#AFAFAF;" d="M443.3,695.9c3,13,9.7,5.7,8.4-4.8C451.5,691.4,444.1,695.2,443.3,695.9z"/>
								<g>
									<path style="fill:#3A3A3A;" d="M453.6,700.8c1.3,5.2-10.1,10.6-9.3,1.3C445.1,698.2,451.8,695,453.6,700.8z"/>
									<path style="fill:#3A3A3A;" d="M448.2,708.1l-2.2-1.3c1.6-1.3,4.7-11.8,7.8-7.6L448.2,708.1z"/>
									<path style="fill:#4D4D4D;" d="M455.7,702c1.3,5.2-10.1,10.6-9.3,1.3C447.2,699.4,453.8,696.2,455.7,702z"/>
								</g>
								<path style="fill:#AFAFAF;" d="M446.2,696.9c4,19.6,9.1,3.8,7.8-5.5L446.2,696.9z"/>
								<path style="fill:#FFFFFF;" d="M451.8,703.8C451.2,703.1,450.8,703.2,451.8,703.8C452.5,704.5,448.6,706.2,451.8,703.8z"/>
							</g>
							<g>
								<path style="fill:#AFAFAF;" d="M406.4,584.3c-0.6-2.5,15.8-34.8,7.3-33.4c-18.2,37.5-9.4,81.1-11.2,110.1
									C411,664.2,404.5,586,406.4,584.3z"/>
								<path style="fill:#AFAFAF;" d="M455.1,573.8c-19,39.8-9.9,81.1-11.8,111.7c8.4,2.8,2.1-65.4,4-75.8
									C445,609,464.1,572.8,455.1,573.8z"/>
							</g>
							<g>
								<path style="fill:#D3D3D3;" d="M458.8,685.2c-77.6,43.5-36,36.1-118.6-6.1C417.9,635.5,376.3,643,458.8,685.2z"/>
								<path style="fill:#7C7C7C;" d="M404.8,716.4v4.7c2.5-3.1,60.3-30.3,54-35.9L404.8,716.4z"/>
								<path style="fill:#AFAFAF;" d="M404.8,721c6.5-6.2-63.7-39.3-64.6-42C333.7,685.3,404,718.3,404.8,721z"/>
							</g>
							<path style="fill:#AFAFAF;" d="M444.9,637.3l-40.1-23.1c-5.2,6.1,38.8,25.1,40.1,27.6V637.3z"/>
							<path style="fill:#AFAFAF;" d="M444.9,625l-40.1-23.1c-5.2,6.1,38.8,25.1,40.1,27.6V625z"/>
							<path style="fill:#7C7C7C;" d="M465.2,576.7c-4.4-0.8-65.8-42.5-56.3-27.9C413.3,549.6,474.7,591.3,465.2,576.7z"/>
						</g>
						<g>
							<polygon style="fill:#DBA763;" points="399.3,706 399.3,677.7 440.4,654 440.4,682.2 							"/>
							<polygon style="fill:#E8B679;" points="399.3,706 399.3,677.7 358.2,654 358.2,682.2 							"/>
							<path style="fill:#FFE1C0;" d="M358.2,654c58.1,33.7,31.7,25.1,82.2,0C382.4,620.2,408.7,628.9,358.2,654z"/>
							<g>
								<path style="fill:#4D4D4D;" d="M425.1,677.8l-9.2,5.3c-1.7-19,2.7-15.9,9.2-20.3V677.8z"/>
								<polygon style="fill:#6D6D6D;" points="425.1,662.7 384.1,639 374.9,644.3 416,668.1 								"/>
								<path style="fill:#4D4D4D;" d="M404.7,698.7c-2.4-3.5,12.8-9.2,13.8-10.7C421,691.6,405.8,697.3,404.7,698.7z"/>
								<path style="fill:#4D4D4D;" d="M404.7,694c-2.4-3.5,12.8-9.2,13.8-10.7C421,686.9,405.8,692.5,404.7,694z"/>
								<path style="fill:#4D4D4D;" d="M430.9,674.7v9.2c9.7-3.4,6-8.9,6.6-13L430.9,674.7z"/>
								<path style="fill:#4D4D4D;" d="M366.5,675.3c0.2,7.8,1.1,13.7-6.3,4.8C358.1,667.2,361.4,672.9,366.5,675.3z"/>
								<path style="fill:#4D4D4D;" d="M375.5,680.5c0.2,7.8,1.1,13.7-6.3,4.8C367.1,672.5,370.4,678.1,375.5,680.5z"/>
								<path style="fill:#FFFFFF;" d="M397.5,678.9v13.7c-19.6-9.2-12.3-11.2-13.6-21.6L397.5,678.9z"/>
								<path style="fill:#4D4D4D;" d="M395.9,681.7c2.1-2.6-9.8-7.4-10.7-8.4C383.1,675.9,395,680.8,395.9,681.7z"/>
							</g>
						</g>
						<g>
							<path style="fill:#DBA763;" d="M400,672.8c0-58.5-5.6-35.8,33.7-61.7C433.7,669.5,439.3,646.8,400,672.8z"/>
							<path style="fill:#E8B679;" d="M400,672.8c0-58.5,5.6-35.8-33.7-61.7C366.3,669.5,360.7,646.8,400,672.8z"/>
							<path style="fill:#FFE1C0;" d="M366.3,611c47.3,28.3,28,19.3,67.4,0C386.4,582.7,405.7,591.8,366.3,611z"/>
							<g>
								<path style="fill:#4D4D4D;" d="M421.2,630.6l-7.5,4.4c-1.6-15.8,2.8-13.3,7.5-16.7V630.6z"/>
								<path style="fill:#6D6D6D;" d="M421.2,618.2c-6.5-2.2-35.2-26.1-41.2-15.1C386.5,605.3,415.2,629.3,421.2,618.2z"/>
								<path style="fill:#4D4D4D;" d="M404.5,666.7c-2.1-2.5,10.6-7.8,11.3-8.7C417.9,660.6,405.2,665.8,404.5,666.7z"/>
								<path style="fill:#4D4D4D;" d="M404.5,662.8c-2.1-2.5,10.6-7.8,11.3-8.7C417.9,656.7,405.2,661.9,404.5,662.8z"/>
								<path style="fill:#4D4D4D;" d="M426,647c0.1,5.6-1.5,10.8,4.9,4.1C433.5,640.4,429.6,645.2,426,647z"/>
								<path style="fill:#4D4D4D;" d="M373.7,646.2c-0.1,5.5,1.5,11.5-4.9,4.3C366.2,639.3,370.1,644.6,373.7,646.2z"/>
								<path style="fill:#4D4D4D;" d="M381.1,650.5c-0.1,5.5,1.5,11.5-4.9,4.3C373.6,643.6,377.5,648.9,381.1,650.5z"/>
								<path style="fill:#FFFFFF;" d="M379.4,623.3v11.3c-15.8-7-10.3-10.1-11.1-17.7L379.4,623.3z"/>
								<path style="fill:#4D4D4D;" d="M378,625.6c1.7-2.2-8.1-6.1-8.8-6.9C367.6,620.8,377.4,624.8,378,625.6z"/>
							</g>
						</g>
						<g>
							<path style="fill:#DBA763;" d="M401.4,626.5c-4-23.5,14.2-21.1,25.2-30.3C430.7,619.6,412.2,617.4,401.4,626.5z"/>
							<path style="fill:#E8B679;" d="M401.4,626.5c4.7-23.5-18.3-23.3-29.5-32.8C367.2,617.2,390.3,617,401.4,626.5z"/>
							<path style="fill:#FFE1C0;" d="M372,593.7c39.9,23.4,24,18,54.7,2.5C386.7,572.7,402.7,578.2,372,593.7z"/>
							<g>
								<path style="fill:#4D4D4D;" d="M403.3,623.6c-1.6-1.9,7.9-5.8,8.5-6.5C413.3,619,403.9,622.9,403.3,623.6z"/>
								<path style="fill:#4D4D4D;" d="M403.3,620.7c-1.6-1.9,7.9-5.8,8.5-6.5C413.3,616.1,403.9,620,403.3,620.7z"/>
								<path style="fill:#4D4D4D;" d="M378.3,600.1c0,5.6,1.2,10.5-4.6,4C371.4,593.9,374.7,598.4,378.3,600.1z"/>
							</g>
							<path style="fill:#FFFFFF;" d="M399.4,612.4v8.7c-6.6-3.3-15.7-7.6-12.9-16.2L399.4,612.4z"/>
							<path style="fill:#4D4D4D;" d="M397.9,615.1c2-2.5-9.3-7.1-10.1-8C385.8,609.5,397.1,614.2,397.9,615.1z"/>
							<path style="fill:#4D4D4D;" d="M420.3,608.1l-8.7,5c-1.9-11.6,5.2-10.2,8.7-13.3V608.1z"/>
							<path style="fill:#6D6D6D;" d="M420.3,599.8c-7.5-3.1-30.9-23.4-38.1-12C389.6,590.9,413,611.3,420.3,599.8z"/>
						</g>
					</g>
				</g>
			</g>
		</g>
	</g>
</g>
<g>
	<g>
		<path style="fill:#504759;" d="M611.7,940c0,0-2.1,2.3-5,5.1c-2.6,2.5-3.4,3.3-5.9,5.7c-1.4,1.4-0.2,2.7,2.5,2.5
			c2.4-0.1,7.8-1.2,10.8-2.3c2.1-0.8,6.1-2.9,8.1-4.2s2.4-3,2.4-3v-4.3L611.7,940z"/>
		<path style="fill:#504759;" d="M650.4,936.2c0,0-1.3,2-4.2,4.7c-2.6,2.5-3.4,3.6-5.7,6.6c-0.5,0.7-0.8,2.7,1.9,2.6
			c2.4-0.1,6-1.1,9-2.2c3.4-1.2,6.3-4.7,8.3-6s2.9-4.1,2.9-4.1l-1.4-4.2L650.4,936.2z"/>
		<path style="fill:#0C76BF;" d="M649.3,867.2c1-15.6-7.6-23.8-7.6-23.8c0.7-5.3-23.7,2.1-23.7,2.1s-5.2,28.3-7.4,43.2
			c-2.5,16.9-1,51.4-1,51.4s0.3,3.7,6.6,3.7c4.8,0,8.4-4.3,8.4-4.3l0.5-39.2l5.6-27.8c0,0,5.4,22.6,7.1,30.7
			c1.8,8.6,8.8,34.2,8.8,34.2s4.5,5.2,10.1,2.4s4.5-5.9,4.5-5.9s-1.1-18.1-8.3-34.3C652.3,887.1,648.9,874.3,649.3,867.2z"/>
		<path style="fill:#D83232;" d="M621.3,804.4c0,0-3.5-0.2-7.1,6.6s-7,14-7,14s5.2,0.8,11,6C626,823.9,627.2,807.7,621.3,804.4z"/>
		<path style="fill:#EF5454;" d="M621.3,804.4c0,0-2,3.8-3.8,10.7s-1.2,39-1.2,39s7.4,5.3,19.9,4.2c7.4-0.6,11.2-5.2,11.2-5.2
			s4.4-31.5,3.8-36s-10-15.1-10-15.1S628.8,801.5,621.3,804.4z"/>
		<path style="fill:#FFAD97;" d="M629.9,800l-1.5,8.4c0,0,4.3,4.8,8.5,1.2s4.8-5.3,4.8-5.3l-2.1-11.5L629.9,800z"/>
		<g>
			<path style="fill:#0C76BF;" d="M631.7,823.9c0,0,5.4-8.2,9.7-10.5s6.6-2.7,6.6-2.7s-1.6-3.2-2.6-3.6c-1.8,0.3-3,0.8-6.9,2.8
				s-8.1,6.9-9.8,9.8C625.4,825.8,629.2,827.4,631.7,823.9z"/>
			<path style="fill:#0C76BF;" d="M623,803.7c0,0-3.5,8.4-4,12.5c-0.4,4.1,0.4,5.3,2,5.5s1.7-2.8,2.2-6c0.5-3,3.4-13.1,3.4-13.1
				L623,803.7z"/>
			<path style="fill:#0C76BF;" d="M648.1,848.7c0,0-4,3.1-7.9,2.7c-3.4-0.4-8.4-3.7-8.1-14.6c0.3-10.9,1.3-15.9,1.3-15.9l-13.2-5.8
				c0,0-3.6,8.3-4.3,24.5s-1,21.8-1,21.8s14,0.9,22.3,0s11.8-1.9,11.8-1.9L648.1,848.7z"/>
			<path style="fill:#FFFFFF;" d="M621.7,818.1c0,0.7-0.4,1.2-0.8,1.2s-0.8-0.5-0.8-1.2s0.4-1.2,0.8-1.2
				C621.3,816.9,621.7,817.5,621.7,818.1z"/>
			<path style="fill:#FFFFFF;" d="M629.6,821.8c-0.4,0.5-0.4,1.2,0,1.5s1,0,1.4-0.5s0.4-1.2,0-1.5S630,821.2,629.6,821.8z"/>
			<path style="fill:#1D94DD;" d="M619.1,823.4c-0.5,2.7-0.3,11.3,4.6,12.6c4.4,1.2,5.5-4,6.5-8
				C624.5,826.6,619.1,823.4,619.1,823.4z"/>
		</g>
		<path style="fill:#FFC5B3;" d="M635.8,780.2c-3.6-2.7-12.1-3.6-15.2,5.2c-3.3,9.2,5.1,20.7,9.5,18.8c2.5-1.1,7.7-5,9.2-9.8
			C641,788.9,638.6,782.4,635.8,780.2z"/>
		<g>
			<polygon style="fill:#DBA763;" points="601.5,880.6 601.5,847.1 628.4,833.7 628.4,865.2 			"/>
			<polygon style="fill:#E8B679;" points="601.5,880.6 601.5,847.1 574.5,833.7 574.5,865.2 			"/>
			<polygon style="fill:#DBA763;" points="601.5,880.8 601.5,847.1 628.4,831.6 628.4,865.2 			"/>
			<polygon style="fill:#E8B679;" points="601.5,880.8 601.5,847.1 574.5,831.6 574.5,865.2 			"/>
			<polygon style="fill:#FFE1C0;" points="574.5,831.6 601.5,847.1 628.4,831.6 601.5,816 			"/>
			<g>
				<polygon style="fill:#504759;" points="618.4,847.2 612.4,850.7 612.4,840.8 618.4,837.3 				"/>
				<polygon style="fill:#6D6477;" points="618.4,837.3 591.5,821.8 585.5,825.2 612.4,840.8 				"/>
				<polygon style="fill:#504759;" points="605,876 605,874.3 614.1,869 614.1,870.8 				"/>
				<polygon style="fill:#504759;" points="605,872.9 605,871.2 614.1,866 614.1,867.7 				"/>
				<polygon style="fill:#504759;" points="622.2,860.3 622.2,866.3 626.5,863.8 626.5,857.8 				"/>
				<polygon style="fill:#504759;" points="580.5,859.7 580.5,865.9 576.1,863.4 576.1,857.2 				"/>
				<polygon style="fill:#504759;" points="586.4,863.1 586.4,869.4 582,866.9 582,860.6 				"/>
				<polygon style="fill:#FFFFFF;" points="585,841.4 585,850.4 576.1,845.2 576.1,836.2 				"/>
				<polygon style="fill:#504759;" points="584,843.2 584,841.7 577,837.7 577,839.1 				"/>
			</g>
		</g>
		<path style="fill:#FFC5B3;" d="M635.1,833.5c0,0-5.1,10.7-7.2,13.7c-2.1,3-10.7,9.8-12.5,10.8s-5.8,2.2-7.9,2s-3.5,0.8-1.5,1.6
			s4,1,4,1s-3.7,2.7-5.2,5.1c-1.2,1.9-2.2,5.3,2.4,4.3c3.7-0.8,8.8-6.5,10.2-7.7c2.5-2.4,12.6-7.8,14.9-9.4
			c3.2-2.3,12.3-15.7,12.3-15.7S641.7,832.1,635.1,833.5z"/>
		<path style="fill:#D83232;" d="M649.7,813.3c-2.6-2.1-8.3,5.1-11.3,9.6s-5.4,11.2-5.4,11.2s3.6,2.6,6.9,4.7c2.7,1.7,5.6,3,5.6,3
			S658.8,820.6,649.7,813.3z"/>
		<path style="fill:#504759;" d="M619.9,788.3c1.5,1.5,3.6,3.2,8.1,2.5c3.7-0.6,6.3-2.3,6.3-2.3l0.8,4.9c0,0,0.7-0.1,1.3-0.5
			c0.1-1.9,0.8-2.5,1.8-2c1.2,0.7,1.2,3.4,1.2,3.4s3.6-3.5,2.4-9c-0.8-3.4-5.4-10.2-11.9-9.6c-6.5,0.6-10.2,4.9-11,8.6
			C618.5,786.2,619.2,787.7,619.9,788.3z"/>
		<g>
			<path style="fill:#0C76BF;" d="M618.6,784.1c0,0-8.3,5.8-9.7,7.1c-1.4,1.2,6.6,6.6,12.2,4.8s14.2-8.1,14.2-8.1L618.6,784.1z"/>
			<path style="fill:#1D94DD;" d="M618.6,784.1c0,0,9.5,5.9,15.4,4.2s7.5-3.2,7.5-3.2s-0.5-12.3-11.4-12.3
				C619.2,772.8,618.6,784.1,618.6,784.1z"/>
			<path style="fill:#0C76BF;" d="M630.6,773.2c0,0.5-0.7,0.9-1.6,0.9s-1.6-0.4-1.6-0.9s0.7-0.9,1.6-0.9S630.6,772.7,630.6,773.2z"
				/>
		</g>
	</g>
	<g>
		<g>
			<g>
				<polygon style="fill:#FFAC33;" points="619.5,963.6 555.3,1000.7 557.3,1002 621.7,964.8 				"/>
				<polygon style="fill:#E88900;" points="621.7,964.7 557.3,1001.9 557.3,1011.1 621.7,973.9 				"/>
				<polygon style="fill:#FF9C00;" points="555.3,1010 555.3,1000.7 557.3,1001.9 557.3,1011.1 				"/>
			</g>
			<g>
				<polygon style="fill:#FFAC33;" points="547.8,922 483.6,959.1 485.6,960.4 550,923.2 				"/>
				<polygon style="fill:#E88900;" points="550,923.2 485.6,960.3 485.6,969.5 550,932.3 				"/>
				<polygon style="fill:#FF9C00;" points="483.6,968.4 483.6,959.1 485.6,960.3 485.6,969.5 				"/>
			</g>
			<g>
				<polygon style="fill:#FFAC33;" points="582.6,941.8 518.4,978.9 520.4,980.1 584.8,942.9 				"/>
				<polygon style="fill:#E88900;" points="584.8,942.9 520.4,980.1 520.4,989.3 584.8,952.1 				"/>
				<polygon style="fill:#FF9C00;" points="518.4,988.1 518.4,978.9 520.4,980.1 520.4,989.3 				"/>
			</g>
			<g>
				<polygon style="fill:#FF9C00;" points="557.3,999.1 483.6,956.6 483.6,959.5 557.3,1002.1 				"/>
				<polygon style="fill:#FFAC33;" points="565,994.8 557.3,999.1 483.6,956.6 491.3,952.3 				"/>
				<polygon style="fill:#E88900;" points="565,994.8 557.3,999.1 557.3,1004.7 565,1000.2 				"/>
			</g>
			<g>
				<polygon style="fill:#FF9C00;" points="571.7,990.7 497.8,947.9 497.8,950.9 571.7,993.6 				"/>
				<polygon style="fill:#FFAC33;" points="579.4,986.3 571.7,990.7 497.8,947.9 505.5,943.6 				"/>
				<polygon style="fill:#E88900;" points="579.4,986.3 571.7,990.7 571.7,996.2 579.4,991.7 				"/>
			</g>
			<g>
				<polygon style="fill:#FF9C00;" points="586.4,982.3 512.3,939.5 512.3,942.5 586.4,985.3 				"/>
				<polygon style="fill:#FFAC33;" points="594.1,978 586.4,982.3 512.3,939.5 520,935.2 				"/>
				<polygon style="fill:#E88900;" points="594.1,978 586.4,982.3 586.4,987.8 594.1,983.3 				"/>
			</g>
			<g>
				<polygon style="fill:#FF9C00;" points="600.8,973.9 526.9,931.3 526.9,934.3 600.8,976.8 				"/>
				<polygon style="fill:#FFAC33;" points="608.5,969.5 600.8,973.9 526.9,931.3 534.5,927 				"/>
				<polygon style="fill:#E88900;" points="608.5,969.5 600.8,973.9 600.8,979.4 608.5,974.9 				"/>
			</g>
			<g>
				<polygon style="fill:#FF9C00;" points="614,966.4 539.9,923.7 539.9,926.7 614,969.4 				"/>
				<polygon style="fill:#FFAC33;" points="621.7,962.1 614,966.4 539.9,923.7 547.6,919.4 				"/>
				<polygon style="fill:#E88900;" points="621.7,962.1 614,966.4 614,972 621.7,967.5 				"/>
			</g>
		</g>
		<g>
			<polygon style="fill:#DBA763;" points="524.4,974.6 524.4,951.7 491.1,932.4 491.1,955.3 			"/>
			<polygon style="fill:#E8B679;" points="524.4,974.6 524.4,951.7 572.4,924 572.4,946.9 			"/>
			<polygon style="fill:#FFE1C0;" points="572.4,924 524.4,951.7 491.1,932.4 539.1,904.8 			"/>
			<g>
				<polygon style="fill:#504759;" points="503.5,951.7 510.9,956 510.9,943.9 503.5,939.5 				"/>
				<polygon style="fill:#6D6477;" points="503.5,939.5 551.4,911.9 558.8,916.2 510.9,943.9 				"/>
				<polygon style="fill:#504759;" points="521.9,970.8 521.9,968.7 510.8,962.2 510.8,964.4 				"/>
				<polygon style="fill:#504759;" points="521.9,967 521.9,964.9 510.8,958.4 510.8,960.6 				"/>
				<polygon style="fill:#504759;" points="565.6,940.4 565.6,948.1 571,945 571,937.3 				"/>
				<polygon style="fill:#504759;" points="558.3,944.6 558.3,952.3 563.7,949.3 563.7,941.5 				"/>
				<polygon style="fill:#504759;" points="550.9,948.8 550.9,956.6 556.3,953.5 556.3,945.8 				"/>
				<polygon style="fill:#FFFFFF;" points="525.9,952.6 525.9,963.8 536.9,957.4 536.9,946.3 				"/>
				<polygon style="fill:#504759;" points="527.2,954.9 527.2,953.1 535.9,948.1 535.9,949.9 				"/>
			</g>
		</g>
		<g>
			<polygon style="fill:#DBA763;" points="561,996.1 561,973.1 527.7,953.9 527.7,976.8 			"/>
			<polygon style="fill:#E8B679;" points="561,996.1 561,973.1 608.9,945.4 608.9,968.3 			"/>
			<polygon style="fill:#FFE1C0;" points="608.9,945.4 561,973.1 527.7,953.9 575.6,926.2 			"/>
			<g>
				<polygon style="fill:#504759;" points="540.1,973.2 547.5,977.5 547.5,965.3 540.1,961 				"/>
				<polygon style="fill:#6D6477;" points="540.1,961 588,933.3 595.4,937.6 547.5,965.3 				"/>
				<polygon style="fill:#504759;" points="558.5,992.3 558.5,990.1 547.3,983.7 547.3,985.8 				"/>
				<polygon style="fill:#504759;" points="558.5,988.5 558.5,986.3 547.3,979.8 547.3,982 				"/>
				<polygon style="fill:#504759;" points="602.2,961.8 602.2,969.6 607.5,966.5 607.5,958.7 				"/>
				<polygon style="fill:#504759;" points="594.9,966 594.9,973.8 600.2,970.7 600.2,963 				"/>
				<polygon style="fill:#504759;" points="587.5,970.3 587.5,978 592.8,975 592.8,967.2 				"/>
				<polygon style="fill:#FFFFFF;" points="562.4,974.1 562.4,985.2 573.4,978.9 573.4,967.7 				"/>
				<polygon style="fill:#504759;" points="563.8,976.4 563.8,974.5 572.4,969.6 572.4,971.3 				"/>
			</g>
		</g>
		<g>
			<polygon style="fill:#DBA763;" points="524.4,949.3 524.4,926.4 491.1,907.1 491.1,930 			"/>
			<polygon style="fill:#E8B679;" points="524.4,949.3 524.4,926.4 572.4,898.7 572.4,921.6 			"/>
			<polygon style="fill:#FFE1C0;" points="572.4,898.7 524.4,926.4 491.1,907.1 539.1,879.4 			"/>
			<g>
				<polygon style="fill:#504759;" points="503.5,926.4 510.9,930.7 510.9,918.5 503.5,914.2 				"/>
				<polygon style="fill:#6D6477;" points="503.5,914.2 551.4,886.6 558.8,890.9 510.9,918.6 				"/>
				<polygon style="fill:#504759;" points="521.9,945.5 521.9,943.4 510.8,936.9 510.8,939.1 				"/>
				<polygon style="fill:#504759;" points="521.9,941.7 521.9,939.5 510.8,933.1 510.8,935.2 				"/>
				<polygon style="fill:#504759;" points="565.6,915.1 565.6,922.8 571,919.7 571,912 				"/>
				<polygon style="fill:#504759;" points="558.3,919.3 558.3,927 563.7,923.9 563.7,916.2 				"/>
				<polygon style="fill:#504759;" points="550.9,923.5 550.9,931.3 556.3,928.2 556.3,920.4 				"/>
				<polygon style="fill:#FFFFFF;" points="525.9,927.3 525.9,938.5 536.9,932.1 536.9,921 				"/>
				<polygon style="fill:#504759;" points="527.2,929.6 527.2,927.8 535.9,922.8 535.9,924.6 				"/>
			</g>
		</g>
		<g>
			<polygon style="fill:#DBA763;" points="561,970.8 561,947.8 527.7,928.6 527.7,951.5 			"/>
			<polygon style="fill:#E8B679;" points="561,970.8 561,947.8 608.9,920.1 608.9,943 			"/>
			<polygon style="fill:#FFE1C0;" points="608.9,920.1 561,947.8 527.7,928.6 575.6,900.9 			"/>
			<g>
				<polygon style="fill:#504759;" points="540.1,947.8 547.5,952.2 547.5,940 540.1,935.7 				"/>
				<polygon style="fill:#6D6477;" points="540.1,935.7 588,908 595.4,912.3 547.5,940 				"/>
				<polygon style="fill:#504759;" points="558.5,967 558.5,964.8 547.3,958.3 547.3,960.5 				"/>
				<polygon style="fill:#504759;" points="558.5,963.1 558.5,961 547.3,954.5 547.3,956.7 				"/>
				<polygon style="fill:#504759;" points="602.2,936.5 602.2,944.2 607.5,941.2 607.5,933.4 				"/>
				<polygon style="fill:#504759;" points="594.9,940.7 594.9,948.5 600.2,945.4 600.2,937.6 				"/>
				<polygon style="fill:#504759;" points="587.5,945 587.5,952.7 592.8,949.6 592.8,941.9 				"/>
				<polygon style="fill:#FFFFFF;" points="562.4,948.8 562.4,959.9 573.4,953.5 573.4,942.4 				"/>
				<polygon style="fill:#504759;" points="563.8,951 563.8,949.2 572.4,944.2 572.4,946 				"/>
			</g>
		</g>
	</g>
	<g>
		<polygon style="fill:#DBA763;" points="559.8,943.3 559.8,914.5 601.5,890.4 601.5,919.1 		"/>
		<polygon style="fill:#E8B679;" points="559.8,943.3 559.8,914.5 499.7,879.8 499.7,908.5 		"/>
		<polygon style="fill:#FFE1C0;" points="499.7,879.8 559.8,914.5 601.5,890.4 541.4,855.7 		"/>
		<g>
			<polygon style="fill:#504759;" points="586,914.5 576.7,920 576.7,904.7 586,899.3 			"/>
			<polygon style="fill:#6D6477;" points="586,899.3 526,864.6 516.6,870 576.7,904.7 			"/>
			<polygon style="fill:#504759;" points="562.9,938.5 562.9,935.9 576.9,927.7 576.9,930.5 			"/>
			<polygon style="fill:#504759;" points="562.9,933.7 562.9,931 576.9,922.9 576.9,925.7 			"/>
			<polygon style="fill:#504759;" points="508.1,900.3 508.1,910 501.4,906.2 501.4,896.5 			"/>
			<polygon style="fill:#504759;" points="517.3,905.6 517.3,915.4 510.6,911.5 510.6,901.8 			"/>
			<polygon style="fill:#504759;" points="526.5,911 526.5,920.7 519.8,916.8 519.8,907.1 			"/>
			<polygon style="fill:#FFFFFF;" points="558,915.7 558,929.7 544.2,921.7 544.2,907.7 			"/>
			<polygon style="fill:#504759;" points="556.3,918.6 556.3,916.3 545.4,910 545.4,912.3 			"/>
		</g>
	</g>
	<g>
		<polygon style="fill:#DBA763;" points="513.2,912.1 513.2,895.2 540.1,879.6 540.1,896.5 		"/>
		<polygon style="fill:#E8B679;" points="513.2,912.1 513.2,895.2 474.3,872.8 474.3,889.6 		"/>
		<polygon style="fill:#FFE1C0;" points="474.3,872.8 513.2,895.2 540.1,879.7 501.3,857.2 		"/>
		<g>
			<polygon style="fill:#504759;" points="515.2,909 515.2,907.3 524.2,902 524.2,903.8 			"/>
			<polygon style="fill:#504759;" points="515.2,905.9 515.2,904.2 524.2,898.9 524.2,900.7 			"/>
			<polygon style="fill:#504759;" points="481,879.6 481,887.4 475.6,884.3 475.6,876.5 			"/>
			<polygon style="fill:#504759;" points="488.4,883.9 488.4,891.7 483,888.6 483,880.8 			"/>
		</g>
		<polygon style="fill:#FFFFFF;" points="511,897 511,906.3 497.2,898.4 497.2,889 		"/>
		<polygon style="fill:#504759;" points="509.4,899.9 509.4,897.6 498.5,891.3 498.5,893.6 		"/>
		<polygon style="fill:#504759;" points="533.3,892.4 524,897.8 524,889 533.3,883.6 		"/>
		<polygon style="fill:#6D6477;" points="533.3,883.6 494.5,861.2 485.2,866.6 524,889 		"/>
	</g>
	<g>
		<path style="fill:#FFC5B3;" d="M471.8,899.5c2.2-7.6,3.4-16-0.4-22.1l-8.2,0.2c0,0-3.3,7.2-4.2,12.6s0.4,7.9,2.5,10.5
			c2.1,2.5,9.8-0.8,10-1C471.6,899.6,471.7,899.5,471.8,899.5z"/>
		<path style="fill:#504759;" d="M494.2,1017.3c0,0,8.8-3.9,13.2-4.1s4.8,4.9,0,8.9c-4.8,4-8.5,4.5-12.4,6.1
			c-3.5,1.4-4.8,1.6-7.6-0.3c-3.8-2.4-0.8-8.9-0.8-8.9L494.2,1017.3z"/>
		<path style="fill:#504759;" d="M468.7,1002.2c0,0,7-2.9,11.4-3.1c4.4-0.2,5.9,3.6,1.1,7.5c-4.8,4-7.8,4.8-11.7,6.5
			c-3.5,1.5-4.8,1.5-7.6-0.3c-3.9-2.5-0.8-8.9-0.8-8.9L468.7,1002.2z"/>
		<path style="fill:#0C76BF;" d="M494.8,915.3c0,0,7.7,41.6,7.7,54.6c0,23-0.2,47.3-0.2,47.3s-3.8,4-7.5,4c-8.4,0-9.2-4.2-9.2-4.2
			s-0.1-27.4-0.8-39.9c-0.5-8.7-1-20.9-4.5-31c-0.1,10.3-0.1,13.7-0.9,24.9c-0.6,8.3-4.1,30.6-4.3,32.1c-2.6,3.2-10.9,5.4-15,0.7
			c0.3-3.7,2.6-29.5,2.3-42.8c-0.3-12.3-3.4-41.4,3.6-47C472,909.2,494.8,915.3,494.8,915.3z"/>
		<path style="fill:#FFAC33;" d="M473.5,888.8c-0.4-6.1-1.3-9.7-1.3-9.7l4.1-13c0,0-5.7-2.9-9.6,1.7c-1.6,1.9-4.6,7.7-7.1,13.1
			C461.5,884.4,466.9,889.1,473.5,888.8z"/>
		<path style="fill:#FFC5B3;" d="M485,840.6c-3.1-2.1-9-1.5-11.5,3.9c-1.4,3,0.6,11,0.9,16.7c0.3,4.6-1.3,7.2-1.3,7.2s0,0,3.9,1.6
			s8,0,8,0l-0.1-7c0,0,4.2-0.6,5-1.3c1.8-1.6,2.7-6.5,1.9-12.7C490.4,839.8,486.1,841.4,485,840.6z"/>
		<path style="fill:#E88900;" d="M495.5,890.5c2.3-4.9-2.9-13.9-4.4-17.1s-6.2-5.2-6.2-5.2s-6.4-2.3-8.7-2.7c-1-0.2-4.4-0.4-4.4-0.4
			s-7.5,11.8-8.3,18.2c-0.6,4.5,1.9,19.3,0.1,33.9c-1,7.7,28.2,5.5,30.7,2.4C492.9,912.5,490.8,900.6,495.5,890.5z"/>
		<path style="fill:#0C76BF;" d="M464,893.7c0,0.8,0.5,9.7-0.4,15.5s-1.5,14.8-1.5,14.8s8.3,6.4,17.9,5.3s16.2-6.7,16.2-6.7
			s-3.2-16.4-3-18.4s0.2-2,0.2-2s-3.7,1.7-6,0.8c-2.3-1-6.2-2.8-7.4-8.7c-0.8-4.2-0.3-14-0.1-16.6c-0.5-0.1-12.4-3.6-12.4-3.6
			S463.8,885.8,464,893.7z"/>
		<path style="fill:#504759;" d="M488.7,851.6c0.5-1.6,1.5-5.2,1.8-6.6c0.3-1.7,0.4-4.2-1.9-6.6c-2.3-2.4-10.3-3.2-13.2-1.5
			c-2.9,1.7-9.1,4.7-6.9,14.7c1.7,8.1,3.4,9,5.9,10.9c2.1,1.7,5.9,2.1,5.9,2.1s2.1-1.5,2.5-4.6c0.1-1,0-3.9,0-3.9s-2.1-4.2-0.5-5.7
			c1.8-1.6,3.6,1,4,2C487.7,855.9,489.1,857.6,488.7,851.6z"/>
		<path style="fill:#FFC5B3;" d="M527.8,902.6c0,0-8.5,0.5-17-1.8c-5.6-1.5-8.6-3.4-10.6-4.4c-1.1-1.9-3.1-8-3.1-8l-10.7,4.4
			c0,0,2.7,7.2,4.3,10.5c1.3,2.7,2.9,3.2,5.4,4.1c3.7,1.4,14.6,1.7,18.9,2.3s7.1,0.1,9.5-0.5C529.8,908,528,904.1,527.8,902.6z"/>
		<path style="fill:#FFAC33;" d="M486.4,896.1c5.1,1.1,10.6-0.5,13.4-4.4c-2.1-9.3-5.4-19.5-9.9-21c-2.4-0.8-6.8,7.6-6,13.5
			C484.1,886,485.1,890.7,486.4,896.1z"/>
		<path style="fill:#1D94DD;" d="M462.7,916l-0.4,4.1c0,0,5.6,4.8,17.6,5c12,0.3,15.9-3.8,15.9-3.8l-0.7-4.2c0,0-6.2,3.9-15.5,4
			C470.2,921.2,462.7,916,462.7,916z"/>
		<path style="fill:#0C76BF;" d="M476.3,879c0,0,1.3-5.3,3.8-7.9c2.3-2.4,4.8-2.8,4.8-2.8s2.5,0.7,2.4,1.4c-1.3,0.8-3.8,1.7-5.2,4.2
			c-1.5,2.5-2.5,7.6-2.5,7.6L476.3,879z"/>
		<path style="fill:#0C76BF;" d="M471.5,865.2c-0.1,0-2.3,3.3-3.9,8.6c-0.7,2.3-1.5,7.6-1.5,7.6l2.3,0.3c0,0,2.2-8.6,3.5-11.7
			c1.3-3.1,2.2-4.6,2.2-4.6L471.5,865.2z"/>
		<path style="fill:#FFC5B3;" d="M521.8,903.9c0.2-0.1,3-2.6,4-3.8s1.8-0.9,1.5,0.4c-0.3,1.3-2.1,3.6-2.1,3.6s-2.6-0.2-3-0.2H521.8
			L521.8,903.9z"/>
		<path style="fill:#1D94DD;" d="M484.9,838.6c5.9,0.6,8.2,4.5,5.2,8.6s-10.2,7-16,6.4c-5.9-0.6-8.2-4.5-5.2-8.6
			C471.8,840.8,479,837.9,484.9,838.6z"/>
		<path style="fill:#1D94DD;" d="M467.7,849.6c0,0-3.5-11.9,7.1-15.5c7.6-2.6,13.3,0.4,16.4,8.2C493,847.1,467.7,849.6,467.7,849.6z
			"/>
		<path style="fill:#0C76BF;" d="M487,850c0.8-0.4,4.4-4.9,3.4-9c-0.1-0.6-1.5-2.9-1.5-2.9s1.1-0.6,5.4,0.4s5.1,4.8,1.8,7.5
			C491.8,849.5,487,850,487,850z"/>
	</g>
</g>
<polygon style="fill:#AEAEAF;" points="713.2,828.8 713.2,642.8 669.4,617.5 513.4,713.3 "/>
<g>
	<g>
		<g>
			<g>
				<defs>
					<polygon id="SVGID_6_" points="713.2,828.8 713.2,642.8 669.4,617.5 513.4,713.3 					"/>
				</defs>
				<clipPath id="SVGID_7_">
					<use xlink:href="#SVGID_6_"  style="overflow:visible;"/>
				</clipPath>
				<g id="_x31_1_10_" style="clip-path:url(#SVGID_7_);">
					<g id="_x35__10_">
						<polygon id="XMLID_4615_" style="fill:#CC4728;" points="695.1,668.4 652.1,643 652.1,687.5 695.1,713.2 						"/>
						<polygon id="XMLID_4614_" style="fill:#911C1D;" points="695.1,713.2 695.1,668.4 728.8,648.6 728.8,693.8 						"/>
						<polygon id="XMLID_4613_" style="fill:#F47A4F;" points="652.1,643 687.2,623.4 728.8,648.6 695.1,668.4 						"/>
						<path id="XMLID_4612_" style="fill:#F79762;" d="M688.7,680.7L657.3,662c-1-0.6-1.8-2.2-1.8-3.5l0.1-5.2c0-1.4,0.8-2,1.8-1.4
							l31.4,18.7c1,0.6,1.8,2.2,1.8,3.5l-0.1,5.2C690.5,680.7,689.7,681.2,688.7,680.7z"/>
						<path id="XMLID_4611_" style="fill:#911C1D;" d="M674.3,669.2l-6.1-3.7c-0.8-0.5-1.1-1.6-0.6-2.5l0,0c0.5-0.8,1.6-1.1,2.5-0.6
							l6.1,3.7c0.8,0.5,1.1,1.6,0.6,2.5l0,0C676.3,669.5,675.2,669.7,674.3,669.2z"/>
					</g>
					<path id="XMLID_4610_" style="fill:#F79762;" d="M688.7,695.3l-31.4-18.7c-1-0.6-1.8-2.2-1.8-3.5l0.1-5.2c0-1.4,0.8-2,1.8-1.4
						l31.4,18.7c1,0.6,1.8,2.2,1.8,3.5l-0.1,5.2C690.5,695.3,689.7,695.9,688.7,695.3z"/>
					<path id="XMLID_4609_" style="fill:#911C1D;" d="M674.3,683.8l-6.1-3.7c-0.8-0.5-1.1-1.6-0.6-2.5l0,0c0.5-0.8,1.6-1.1,2.5-0.6
						l6.1,3.7c0.8,0.5,1.1,1.6,0.6,2.5l0,0C676.3,684.1,675.2,684.3,674.3,683.8z"/>
				</g>
			</g>
		</g>
	</g>
</g>
<g id="_x31_4">
	
		<linearGradient id="XMLID_2_" gradientUnits="userSpaceOnUse" x1="651.7855" y1="3026.0588" x2="669.4658" y2="3063.2617" gradientTransform="matrix(1 0 0 1 0 -2308.1624)">
		<stop  offset="0" style="stop-color:#FFBA22"/>
		<stop  offset="1" style="stop-color:#AF2F02"/>
	</linearGradient>
	<path id="XMLID_2039_" style="fill:url(#XMLID_2_);" d="M664.2,725.1c11.9,7.2-5.3,14-13.4,9.6
		C638.9,727.6,656.1,720.8,664.2,725.1z"/>
	<path id="XMLID_2038_" style="fill:#911703;" d="M657.5,729.5c-3.9,0.2-5.5-21.2,0-21.8C661.4,707.5,663,728.9,657.5,729.5z"/>
	
		<linearGradient id="XMLID_3_" gradientUnits="userSpaceOnUse" x1="652.5116" y1="2993.866" x2="699.3516" y2="3102.1833" gradientTransform="matrix(1 0 0 1 0 -2308.1624)">
		<stop  offset="0" style="stop-color:#FFBA22"/>
		<stop  offset="1" style="stop-color:#AF2F02"/>
	</linearGradient>
	<path id="XMLID_2037_" style="fill:url(#XMLID_3_);" d="M677.9,705.1c0-0.2-8.7-34.6-9.4-37.7c0.6-0.5-3.3,0-9.2-0.1
		c-7.9,0.2-13.8-0.6-12.9,0.4c-1.6,6.2-8.7,33.8-9.3,36l0,0C637.4,720.3,676.5,721,677.9,705.1L677.9,705.1z"/>
	
		<linearGradient id="XMLID_4_" gradientUnits="userSpaceOnUse" x1="643.6948" y1="2970.5471" x2="692.7033" y2="2988.0232" gradientTransform="matrix(1 0 0 1 0 -2308.1624)">
		<stop  offset="0" style="stop-color:#FFBA22"/>
		<stop  offset="1" style="stop-color:#AF2F02"/>
	</linearGradient>
	<path id="XMLID_2036_" style="fill:url(#XMLID_4_);" d="M664.2,662.5c11.9,7.2-5.3,14-13.4,9.6C638.9,665,656.1,658.2,664.2,662.5z
		"/>
	<path id="XMLID_2033_" style="fill:#FFEFAE;" d="M664.2,662.5c-6.8-4-25.8,1.5-13.4,9.6C657.6,676.1,676.6,670.6,664.2,662.5z
		 M664,670.2c-3.6,4.1-21.9-0.5-11-6.8C657.1,661.3,669.2,663.8,664,670.2z"/>
</g>
<g>
	<polygon style="fill:#DBA763;" points="713.7,712.6 682.8,694.7 682.8,745 713.7,762.9 	"/>
	<polygon style="fill:#FFE1C0;" points="710.5,678.7 682.8,694.7 713.7,712.6 713.7,680.7 	"/>
	<polygon style="fill:#404A5B;" points="695.2,714 702.6,718.3 702.6,706.1 695.2,701.8 	"/>
	<polygon style="fill:#596475;" points="713.7,691.1 695.2,701.8 702.6,706.2 713.7,699.7 	"/>
	<polygon style="fill:#404A5B;" points="690.5,711.5 690.5,719 685.1,715.8 685.1,708.4 	"/>
</g>
<g>
	<g>
		<polygon style="fill:#DBA763;" points="674.7,788.4 674.7,765.5 641.5,746.2 641.5,769.1 		"/>
		<polygon style="fill:#E8B679;" points="674.7,788.4 674.7,765.5 708,746.2 708,769.1 		"/>
		<polygon style="fill:#FFE1C0;" points="708,746.2 674.7,765.5 641.5,746.2 674.7,727 		"/>
		<g>
			<polygon style="fill:#404A5B;" points="653.8,765.5 661.2,769.8 661.2,757.7 653.8,753.3 			"/>
			<polygon style="fill:#596475;" points="653.8,753.3 687.1,734.1 694.5,738.4 661.2,757.7 			"/>
			<polygon style="fill:#404A5B;" points="670.3,782.5 670.3,780.3 659.2,773.8 659.2,776 			"/>
			<polygon style="fill:#404A5B;" points="670.3,778.6 670.3,776.5 659.2,770 659.2,772.2 			"/>
			<polygon style="fill:#404A5B;" points="649.1,763 649.1,770.5 643.8,767.4 643.8,759.9 			"/>
			<polygon style="fill:#404A5B;" points="701.3,763.5 701.3,771.2 706.7,768.2 706.7,760.4 			"/>
			<polygon style="fill:#404A5B;" points="694,767.7 694,775.5 699.4,772.4 699.4,764.6 			"/>
			<polygon style="fill:#FFFFFF;" points="676.2,766.4 676.2,777.6 687.2,771.2 687.2,760.1 			"/>
			<polygon style="fill:#404A5B;" points="677.5,768.7 677.5,766.9 686.2,761.9 686.2,763.7 			"/>
		</g>
	</g>
	<g>
		<polygon style="fill:#DBA763;" points="713.7,787.9 685.5,771.6 685.5,794.5 713.7,810.8 		"/>
		<polygon style="fill:#FFE1C0;" points="713.7,755.3 685.5,771.6 713.7,787.9 		"/>
		<g>
			<polygon style="fill:#404A5B;" points="697.8,790.8 705.3,795.2 705.3,783 697.8,778.7 			"/>
			<polygon style="fill:#596475;" points="713.7,769.5 697.8,778.7 705.3,783 713.7,778.2 			"/>
		</g>
	</g>
	<g>
		<polygon style="fill:#DBA763;" points="713.7,763.1 701.3,755.9 701.3,769.3 713.7,776.5 		"/>
		<polygon style="fill:#FFE1C0;" points="713.7,748.8 701.3,756 713.7,763.1 		"/>
		<polygon style="fill:#404A5B;" points="713.7,763.1 706.7,759.1 706.7,766.1 713.7,770.2 		"/>
	</g>
	<g>
		<polygon style="fill:#DBA763;" points="674.4,759.5 674.4,746.1 652.9,733.7 652.9,747.1 		"/>
		<polygon style="fill:#E8B679;" points="674.4,759.5 674.4,746.1 699.5,731.6 699.5,745 		"/>
		<polygon style="fill:#FFE1C0;" points="699.5,731.6 674.4,746.1 652.9,733.7 678,719.2 		"/>
		<g>
			<polygon style="fill:#404A5B;" points="672.8,757.1 672.8,755.7 665.6,751.5 665.6,752.9 			"/>
			<polygon style="fill:#404A5B;" points="672.8,754.6 672.8,753.2 665.6,749.1 665.6,750.5 			"/>
			<polygon style="fill:#404A5B;" points="694.1,737.1 694.1,743.3 698.4,740.8 698.4,734.6 			"/>
		</g>
		<polygon style="fill:#FFFFFF;" points="676.1,747.5 676.1,755 687,748.6 687,741.2 		"/>
		<polygon style="fill:#404A5B;" points="677.4,749.8 677.4,748 686.1,743 686.1,744.8 		"/>
		<polygon style="fill:#404A5B;" points="658.3,743.9 665.7,748.2 665.7,741.1 658.3,736.8 		"/>
		<polygon style="fill:#596475;" points="658.3,736.8 683.4,722.3 690.8,726.6 665.7,741.2 		"/>
	</g>
</g>
<g id="_x32_9">
	<g id="XMLID_124_">
		
			<linearGradient id="XMLID_5_" gradientUnits="userSpaceOnUse" x1="750.6885" y1="811.9999" x2="723.8434" y2="811.9999" gradientTransform="matrix(1 0 0 -1 0 1694)">
			<stop  offset="0" style="stop-color:#CC451B"/>
			<stop  offset="1" style="stop-color:#911703"/>
		</linearGradient>
		<path id="XMLID_131_" style="fill:url(#XMLID_5_);" d="M722.7,870.9l3,15.3c0,3.8,5.5,6.9,12.3,6.9s12.3-3.1,12.3-6.9l3-15.3
			H722.7z"/>
		
			<linearGradient id="XMLID_6_" gradientUnits="userSpaceOnUse" x1="756.9711" y1="827.65" x2="719.2751" y2="827.65" gradientTransform="matrix(1 0 0 -1 0 1694)">
			<stop  offset="0" style="stop-color:#E55E1B"/>
			<stop  offset="1" style="stop-color:#BF3103"/>
		</linearGradient>
		<path id="XMLID_130_" style="fill:url(#XMLID_6_);" d="M755.5,857.9l-8,0.2c-2.7-1-5.9-1.5-9.4-1.5c-4,0-7.6,0.7-10.5,2l-7,0.2
			v7.6c0,5.4,7.8,9.7,17.5,9.7s17.5-4.3,17.5-9.7L755.5,857.9z"/>
		<path id="XMLID_129_" style="fill:#768730;" d="M755.6,858.7c0,5.4-7.8,9.7-17.5,9.7s-17.5-4.3-17.5-9.7s7.8-9.7,17.5-9.7
			S755.6,853.3,755.6,858.7z"/>
		
			<linearGradient id="XMLID_7_" gradientUnits="userSpaceOnUse" x1="720.6" y1="838.35" x2="755.6" y2="838.35" gradientTransform="matrix(1 0 0 -1 0 1694)">
			<stop  offset="0" style="stop-color:#AD4618"/>
			<stop  offset="1" style="stop-color:#662109"/>
		</linearGradient>
		<path id="XMLID_128_" style="fill:url(#XMLID_7_);" d="M738.1,856.5c7.2,0,13.4,2.4,16.1,5.9c0.9-1.2,1.4-2.5,1.4-3.8
			c0-5.4-7.8-9.7-17.5-9.7s-17.5,4.3-17.5,9.7c0,1.3,0.5,2.6,1.4,3.8C724.7,859,730.8,856.5,738.1,856.5z"/>
		<path id="XMLID_125_" style="fill:#941D0A;" d="M738.1,849c-9.7,0-17.5,4.3-17.5,9.7s7.8,9.7,17.5,9.7s17.5-4.3,17.5-9.7
			S747.8,849,738.1,849z M738.1,866.3c-7.6,0-13.7-3.4-13.7-7.6s6.1-7.6,13.7-7.6c7.6,0,13.7,3.4,13.7,7.6S745.6,866.3,738.1,866.3z
			"/>
	</g>
	<g id="XMLID_122_">
		
			<radialGradient id="XMLID_8_" cx="761.5403" cy="957.3708" r="109.3294" gradientTransform="matrix(1 0 0 -1 0 1694)" gradientUnits="userSpaceOnUse">
			<stop  offset="0" style="stop-color:#B6F644"/>
			<stop  offset="1" style="stop-color:#4BA700"/>
		</radialGradient>
		<path id="XMLID_123_" style="fill:url(#XMLID_8_);" d="M762.6,834.4L762.6,834.4l-14.1-76.3l0,0c-0.8-5-5-8.8-10.3-8.8
			c-5.2,0-9.5,3.9-10.3,8.9h-0.2l-13.2,76.2h0.1c-0.5,2-0.8,4-0.8,6.1c0,13.7,11.1,24.8,24.8,24.8s24.8-11.1,24.8-24.8
			C763.4,838.4,763.1,836.4,762.6,834.4z"/>
	</g>
</g>
<g>
	<path style="fill:#FFFFFF;" d="M1258.3,176l5.8-6.9l5.3-6.3l6-7.1v7.1h55.2c0.6,4.3,1,8.5,1,12.6c0,39.4-29.7,64.9-66.6,64.9
		c-41.2,0-72.3-30.7-72.3-67.7s31.2-68.1,71.4-68.1c16.4,0.3,35.5,7.2,46.2,17.1l-19,26.1c-7.2-6.8-17.6-11.1-27.2-11.1
		c-19.3,0-36.3,15.8-36.3,35.9c0,18.2,14.6,35.9,38.5,35.9c15.7,0,26.9-7.6,27.3-20h-18.4v7.9"/>
	<path style="fill:#FFFFFF;" d="M1313,172.6c0-38.9,30.9-68.4,71.1-68.4s71.1,29.5,71.1,68.4c0,38.6-30.9,67.9-71.2,67.9
		C1343.8,240.5,1313,211.2,1313,172.6z M1420.5,172.3c0-20-15.8-35.4-36.3-35.4s-36.3,15.4-36.3,35.4c0,19.9,15.8,35.3,36.3,35.3
		C1404.7,207.6,1420.5,192.3,1420.5,172.3z"/>
	<path style="fill:#FFFFFF;" d="M1462.6,105.2h39.9l-5.6,84.3h-28.5L1462.6,105.2z M1462.6,220.4c0-10.3,9.2-18.6,19.9-18.6
		c11.1,0,20.3,8.8,20.3,19c0,10.4-9.2,18.6-20.1,18.6C1471.7,239.3,1462.6,230.9,1462.6,220.4z"/>
</g>
<g>
	<path style="fill:#FFFFFF;" d="M1212.5,297.1l3.5-2.6c1.8,3.5,6,5.8,10.3,5.8c5.3,0,9.6-2.9,9.6-6.9c0-4.6-5.8-6.8-11-8.7
		c-5-1.9-10.6-4.4-10.6-10.6s5.6-10.9,12.7-10.9c6,0,10.1,3.3,11.6,7.3l-3.4,2.3c-1.3-3-4.6-5.1-8.2-5.1c-4.4,0-8.1,2.9-8.1,6.5
		c0,3.9,4.5,5.4,9.7,7.4c6.1,2.5,11.9,5.3,11.9,11.8c0,7-6.5,11.6-14.3,11.6C1219.6,304.9,1214.4,301.5,1212.5,297.1z"/>
	<path style="fill:#FFFFFF;" d="M1271.7,268.3h-11.8v36.1h-4.6v-36.1h-11.8v-4.5h28.2L1271.7,268.3L1271.7,268.3z"/>
	<path style="fill:#FFFFFF;" d="M1273.1,284.1c0-11.5,9.4-20.9,20.8-20.9c11.5,0,20.9,9.4,20.9,20.9c0,11.4-9.4,20.8-20.9,20.8
		C1282.5,304.9,1273.1,295.5,1273.1,284.1z M1310.2,284.1c0-8.9-7.3-16.3-16.3-16.3c-8.9,0-16.2,7.3-16.2,16.3
		c0,8.9,7.3,16.2,16.2,16.2C1302.9,300.3,1310.2,293,1310.2,284.1z"/>
	<path style="fill:#FFFFFF;" d="M1344.8,304.4l-11.3-15.8h-7.6v15.8h-4.6v-40.6h12c7.5,0,13.7,5.8,13.7,12.9c0,5.3-3.6,9.8-8.5,11.3
		l12.1,16.4L1344.8,304.4L1344.8,304.4z M1333.4,284.7c4.8,0,8.8-3.7,8.8-8.1c0-4.7-4-8.3-8.8-8.3h-7.6v16.3L1333.4,284.7z"/>
	<path style="fill:#FFFFFF;" d="M1381.6,297.7h-22.2l-3,6.7h-5l18.8-41.2h0.5l18.8,41.2h-5L1381.6,297.7z M1379.8,293.7l-9.3-20.9
		l-9.3,20.9H1379.8z"/>
	<path style="fill:#FFFFFF;" d="M1428.8,285.8c0,11.4-8.8,19.2-19.2,19.2c-11.7,0-21-9.4-21-20.8s9.4-20.9,20.8-20.9
		c5,0,11.1,2.5,14.7,6.1l-2.6,3.8c-3.2-3.1-8.1-5.3-12.2-5.3c-8.6,0-16.2,7.1-16.2,16.3c0,8.9,7.2,16.2,16.5,16.2
		c7.9,0,14.2-5.3,14.2-12.5c0-0.3,0-0.6,0-0.8h-14.6V283h19.3C1428.7,283.5,1428.8,284.6,1428.8,285.8z"/>
	<path style="fill:#FFFFFF;" d="M1439.8,268.3v12.8h16.7v4.6h-16.7v14.1h19.3v4.6h-23.8v-40.6h23.8v4.5H1439.8z"/>
	<path style="fill:#FFFFFF;" d="M1463.8,297.1l3.5-2.6c1.8,3.5,6,5.8,10.3,5.8c5.3,0,9.6-2.9,9.6-6.9c0-4.6-5.8-6.8-11-8.7
		c-5-1.9-10.6-4.4-10.6-10.6s5.6-10.9,12.7-10.9c6,0,10.1,3.3,11.6,7.3l-3.4,2.3c-1.3-3-4.6-5.1-8.2-5.1c-4.4,0-8.1,2.9-8.1,6.5
		c0,3.9,4.5,5.4,9.7,7.4c6.1,2.5,11.9,5.3,11.9,11.8c0,7-6.5,11.6-14.3,11.6C1470.9,304.9,1465.8,301.5,1463.8,297.1z"/>
</g>
</svg>
