<?xml version="1.0" encoding="utf-8"?>
<!-- Generator: Adobe Illustrator 23.1.1, SVG Export Plug-In . SVG Version: 6.00 Build 0)  -->
<svg version="1.1" id="Layer_1" xmlns="http://www.w3.org/2000/svg" xmlns:xlink="http://www.w3.org/1999/xlink" x="0px" y="0px"
	 viewBox="0 0 1606.6 1202.4" style="enable-background:new 0 0 1606.6 1202.4;" xml:space="preserve">
<linearGradient id="SVGID_1_" gradientUnits="userSpaceOnUse" x1="0" y1="111.2488" x2="1606.6" y2="111.2488" gradientTransform="matrix(1 0 0 1 0 490)">
	<stop  offset="7.210000e-02" style="stop-color:#FF2E63;stop-opacity:0.6"/>
	<stop  offset="0.7394" style="stop-color:#FF2E63"/>
</linearGradient>
<path style="opacity:0.71;fill:url(#SVGID_1_);enable-background:new    ;" d="M1606.6,0v779.9c0,0-85.2,123.6-238.8,237.1
	c-45.1,33.4-96.2,65.9-152.7,94.1c-187.3,93.5-434.7,140.2-726.6,16.6c-0.9-0.4-1.9-0.8-2.8-1.2c-2.9-1.2-5.7-2.5-8.6-3.7
	C328.7,1057.8,169,948.9,0,779.9V0H1606.6z"/>
<g>
	<path style="fill:#FFFFFF;" d="M1258.3,176l5.8-6.9l5.3-6.3l6-7.1v7.1h55.2c0.6,4.3,1,8.5,1,12.6c0,39.4-29.7,64.9-66.6,64.9
		c-41.2,0-72.3-30.7-72.3-67.7s31.2-68.1,71.4-68.1c16.4,0.3,35.5,7.2,46.2,17.1l-19,26.1c-7.2-6.8-17.6-11.1-27.2-11.1
		c-19.3,0-36.3,15.8-36.3,35.9c0,18.2,14.6,35.9,38.5,35.9c15.7,0,26.9-7.6,27.3-20h-18.4v7.9"/>
	<path style="fill:#FFFFFF;" d="M1313,172.6c0-38.9,30.9-68.4,71.1-68.4s71.1,29.5,71.1,68.4c0,38.6-30.9,67.9-71.2,67.9
		C1343.8,240.5,1313,211.2,1313,172.6z M1420.5,172.3c0-20-15.8-35.4-36.3-35.4s-36.3,15.4-36.3,35.4c0,19.9,15.8,35.3,36.3,35.3
		C1404.7,207.6,1420.5,192.3,1420.5,172.3z"/>
	<path style="fill:#FFFFFF;" d="M1462.6,105.2h39.9l-5.6,84.3h-28.5L1462.6,105.2z M1462.6,220.4c0-10.3,9.2-18.6,19.9-18.6
		c11.1,0,20.3,8.8,20.3,19c0,10.4-9.2,18.6-20.1,18.6C1471.7,239.3,1462.6,230.9,1462.6,220.4z"/>
</g>
<g>
	<path style="fill:#FFFFFF;" d="M1212.5,297.1l3.5-2.6c1.8,3.5,6,5.8,10.3,5.8c5.3,0,9.6-2.9,9.6-6.9c0-4.6-5.8-6.8-11-8.7
		c-5-1.9-10.6-4.4-10.6-10.6s5.6-10.9,12.7-10.9c6,0,10.1,3.3,11.6,7.3l-3.4,2.3c-1.3-3-4.6-5.1-8.2-5.1c-4.4,0-8.1,2.9-8.1,6.5
		c0,3.9,4.5,5.4,9.7,7.4c6.1,2.5,11.9,5.3,11.9,11.8c0,7-6.5,11.6-14.3,11.6C1219.6,304.9,1214.4,301.5,1212.5,297.1z"/>
	<path style="fill:#FFFFFF;" d="M1271.7,268.3h-11.8v36.1h-4.6v-36.1h-11.8v-4.5h28.2L1271.7,268.3L1271.7,268.3z"/>
	<path style="fill:#FFFFFF;" d="M1273.1,284.1c0-11.5,9.4-20.9,20.8-20.9c11.5,0,20.9,9.4,20.9,20.9c0,11.4-9.4,20.8-20.9,20.8
		C1282.5,304.9,1273.1,295.5,1273.1,284.1z M1310.2,284.1c0-8.9-7.3-16.3-16.3-16.3c-8.9,0-16.2,7.3-16.2,16.3
		c0,8.9,7.3,16.2,16.2,16.2C1302.9,300.3,1310.2,293,1310.2,284.1z"/>
	<path style="fill:#FFFFFF;" d="M1344.8,304.4l-11.3-15.8h-7.6v15.8h-4.6v-40.6h12c7.5,0,13.7,5.8,13.7,12.9c0,5.3-3.6,9.8-8.5,11.3
		l12.1,16.4L1344.8,304.4L1344.8,304.4z M1333.4,284.7c4.8,0,8.8-3.7,8.8-8.1c0-4.7-4-8.3-8.8-8.3h-7.6v16.3L1333.4,284.7z"/>
	<path style="fill:#FFFFFF;" d="M1381.6,297.7h-22.2l-3,6.7h-5l18.8-41.2h0.5l18.8,41.2h-5L1381.6,297.7z M1379.8,293.7l-9.3-20.9
		l-9.3,20.9H1379.8z"/>
	<path style="fill:#FFFFFF;" d="M1428.8,285.8c0,11.4-8.8,19.2-19.2,19.2c-11.7,0-21-9.4-21-20.8s9.4-20.9,20.8-20.9
		c5,0,11.1,2.5,14.7,6.1l-2.6,3.8c-3.2-3.1-8.1-5.3-12.2-5.3c-8.6,0-16.2,7.1-16.2,16.3c0,8.9,7.2,16.2,16.5,16.2
		c7.9,0,14.2-5.3,14.2-12.5c0-0.3,0-0.6,0-0.8h-14.6V283h19.3C1428.7,283.5,1428.8,284.6,1428.8,285.8z"/>
	<path style="fill:#FFFFFF;" d="M1439.8,268.3v12.8h16.7v4.6h-16.7v14.1h19.3v4.6h-23.8v-40.6h23.8v4.5H1439.8z"/>
	<path style="fill:#FFFFFF;" d="M1463.8,297.1l3.5-2.6c1.8,3.5,6,5.8,10.3,5.8c5.3,0,9.6-2.9,9.6-6.9c0-4.6-5.8-6.8-11-8.7
		c-5-1.9-10.6-4.4-10.6-10.6s5.6-10.9,12.7-10.9c6,0,10.1,3.3,11.6,7.3l-3.4,2.3c-1.3-3-4.6-5.1-8.2-5.1c-4.4,0-8.1,2.9-8.1,6.5
		c0,3.9,4.5,5.4,9.7,7.4c6.1,2.5,11.9,5.3,11.9,11.8c0,7-6.5,11.6-14.3,11.6C1470.9,304.9,1465.8,301.5,1463.8,297.1z"/>
</g>
<g>
	<g>
		<g>
			<defs>
				<path id="SVGID_2_" d="M1606.6,0v779.9c0,0-85.2,123.6-238.8,237.1c-45.1,33.4-96.2,65.9-152.7,94.1
					c-187.3,93.5-434.7,140.2-726.6,16.6c-0.9-0.4-1.9-0.8-2.8-1.2c-2.9-1.2-5.7-2.5-8.6-3.7C328.7,1057.8,169,948.9,0,779.9V0
					H1606.6z"/>
			</defs>
			<clipPath id="SVGID_3_">
				<use xlink:href="#SVGID_2_"  style="overflow:visible;"/>
			</clipPath>
			<path style="opacity:0.12;clip-path:url(#SVGID_3_);enable-background:new    ;" d="M1523.9,1399.2
				c-52.2,65-37.2-72.4-102.6-17.4c-216.7,182.2-503,273.1-840.8,32.2c-1.1-0.8-2.2-1.5-3.2-2.3c-3.3-2.4-6.6-4.8-10-7.2
				L396.8,826.7l892.1-82.5L1523.9,1399.2z"/>
		</g>
	</g>
</g>
<g>
	<polygon style="fill:#F96E6E;" points="1019.6,469.3 897.9,396.9 867.3,415.2 984.3,480.6 	"/>
	<path style="fill:#F96E6E;" d="M861.1,395.1l-65.7,40.3v156.8l28.9-16.7c3.2-22.3,16.8-45.5,33.1-54.9c16.3-9.4,29.9-1.9,33.1,16.7
		l21.5-12.4V424.6C912.2,398.4,883.8,382,861.1,395.1z"/>
	<path style="fill:#262626;" d="M1014.8,614.7l-19.2-11.6l-18-9.2c0,0,15.4-4.9,16.4-5.5C995,587.8,1019.8,596.7,1014.8,614.7z"/>
	<g>
		<path style="fill:#3B3344;" d="M991.6,615.8c0,18.4-11.2,39.8-25,47.7s-25-0.5-25-18.9s11.2-39.8,25-47.7S991.6,597.4,991.6,615.8
			z"/>
		<polygon style="fill:#3B3344;" points="969.2,675.3 951.1,665.2 983.4,595.9 1000.7,605.5 		"/>
		<path style="fill:#504759;" d="M1010.4,626.2c0,18.4-11.2,39.8-25,47.7s-25-0.5-25-18.9s11.2-39.8,25-47.7
			C999.2,599.4,1010.4,607.8,1010.4,626.2z"/>
		<path style="fill:#86808E;" d="M1001.6,631.9c0,11.9-7.2,25.8-16.2,30.9s-16.2-0.3-16.2-12.2s7.2-25.8,16.2-30.9
			C994.3,614.5,1001.6,620,1001.6,631.9z"/>
		<path style="fill:#FFFFFF;" d="M997,634.5c0,8.5-5.2,18.5-11.6,22.2s-11.6-0.2-11.6-8.8s5.2-18.5,11.6-22.2S997,626,997,634.5z"/>
		<path style="fill:#3B3344;" d="M991,638c0,4.1-2.5,8.9-5.6,10.7s-5.6-0.1-5.6-4.2s2.5-8.9,5.6-10.7S991,633.9,991,638z"/>
		<path style="fill:#3B3344;" d="M986.5,629c0,0.8-0.5,1.7-1.1,2.1c-0.6,0.3-1.1,0-1.1-0.8s0.5-1.7,1.1-2.1
			C986,627.9,986.5,628.2,986.5,629z"/>
		<path style="fill:#3B3344;" d="M993.8,629c0,0.8-0.5,1.7-1.1,2.1c-0.6,0.3-1.1,0-1.1-0.8s0.5-1.7,1.1-2.1
			C993.3,627.9,993.8,628.2,993.8,629z"/>
		<path style="fill:#3B3344;" d="M979.8,637.1c0,0.8-0.5,1.7-1.1,2.1c-0.6,0.3-1.1,0-1.1-0.8s0.5-1.7,1.1-2.1
			S979.8,636.3,979.8,637.1z"/>
		<path style="fill:#3B3344;" d="M993.8,644.2c0,0.8-0.5,1.7-1.1,2.1c-0.6,0.3-1.1,0-1.1-0.8s0.5-1.7,1.1-2.1
			C993.3,643,993.8,643.4,993.8,644.2z"/>
		<path style="fill:#3B3344;" d="M979.8,652.2c0,0.8-0.5,1.7-1.1,2.1c-0.6,0.3-1.1,0-1.1-0.8s0.5-1.7,1.1-2.1
			C979.3,651,979.8,651.4,979.8,652.2z"/>
		<path style="fill:#3B3344;" d="M995.5,636c0,0.8-0.5,1.7-1.1,2.1c-0.6,0.3-1.1,0-1.1-0.8s0.5-1.7,1.1-2.1S995.5,635.2,995.5,636z"
			/>
		<path style="fill:#3B3344;" d="M977.6,646.3c0,0.8-0.5,1.7-1.1,2.1c-0.6,0.3-1.1,0-1.1-0.8s0.5-1.7,1.1-2.1
			C977.2,645.1,977.6,645.5,977.6,646.3z"/>
		<path style="fill:#3B3344;" d="M986.5,652.2c0,0.8-0.5,1.7-1.1,2.1c-0.6,0.3-1.1,0-1.1-0.8s0.5-1.7,1.1-2.1
			C986,651,986.5,651.4,986.5,652.2z"/>
	</g>
	<g>
		<polygon style="fill:#86808E;" points="818.2,672.1 907.2,621.2 957.1,650 867.7,701.3 		"/>
		<polygon style="fill:#6D6477;" points="957.1,650 867.3,701.4 867.3,725.8 957.1,674.4 		"/>
		<polygon style="fill:#2D2735;" points="951.4,671.1 902.5,699.2 902.5,701.9 951.4,673.9 		"/>
		<polygon style="fill:#2D2735;" points="951.4,665.1 902.5,693.1 902.5,695.9 951.4,667.8 		"/>
	</g>
	<polygon style="fill:#EF5454;" points="923,511.6 988.2,472.6 857.7,397.2 793.4,436.8 	"/>
	<path style="fill:#EF5454;" d="M817.2,439.1c0,0,38.7-23.6,52.6-31.7c7.8-4.5,16.5-8.3,16.5-8.3s-1.5-11.7-19.1-7.9
		c-19.3,4.2-50,17.4-50,17.4V439.1L817.2,439.1z"/>
	<polygon style="fill:#EF5454;" points="985,452.9 882,392.6 823.4,412.2 924.1,480.6 	"/>
	<polygon style="fill:#E54242;" points="923,667.8 867.3,638.2 867.3,478.6 923,510.9 	"/>
	<polygon style="fill:#E54242;" points="924.1,501 817.2,441.6 817.2,408.6 924.1,470.5 	"/>
	<g>
		<polygon style="fill:#3B3344;" points="646.9,793.7 674.4,809.6 674.4,837.8 646.9,821.9 		"/>
		<g>
			<path style="fill:#3B3344;" d="M880.3,680.3c0,18.4-11.2,39.8-25,47.7s-25-0.5-25-18.9s11.2-39.8,25-47.7
				S880.3,661.9,880.3,680.3z"/>
			<polygon style="fill:#3B3344;" points="857.9,739.9 839.8,729.7 872,660.4 889.3,670.1 			"/>
			<path style="fill:#504759;" d="M899,690.8c0,18.4-11.2,39.8-25,47.7s-25-0.5-25-18.9s11.2-39.8,25-47.7
				C887.8,663.9,899,672.4,899,690.8z"/>
			<path style="fill:#86808E;" d="M890.2,696.4c0,11.9-7.2,25.8-16.2,30.9s-16.2-0.3-16.2-12.2s7.2-25.8,16.2-30.9
				C883,679,890.2,684.5,890.2,696.4z"/>
			<path style="fill:#FFFFFF;" d="M885.7,699.1c0,8.5-5.2,18.5-11.6,22.2s-11.6-0.2-11.6-8.8s5.2-18.5,11.6-22.2
				S885.7,690.5,885.7,699.1z"/>
			<path style="fill:#3B3344;" d="M879.7,702.5c0,4.1-2.5,8.9-5.6,10.7s-5.6-0.1-5.6-4.2s2.5-8.9,5.6-10.7S879.7,698.4,879.7,702.5z
				"/>
			<path style="fill:#3B3344;" d="M875.1,693.6c0,0.8-0.5,1.7-1.1,2.1c-0.6,0.3-1.1,0-1.1-0.8s0.5-1.7,1.1-2.1
				S875.1,692.8,875.1,693.6z"/>
			<path style="fill:#3B3344;" d="M882.4,693.6c0,0.8-0.5,1.7-1.1,2.1c-0.6,0.3-1.1,0-1.1-0.8s0.5-1.7,1.1-2.1
				S882.4,692.8,882.4,693.6z"/>
			<path style="fill:#3B3344;" d="M868.4,701.6c0,0.8-0.5,1.7-1.1,2.1c-0.6,0.3-1.1,0-1.1-0.8s0.5-1.7,1.1-2.1
				S868.4,700.8,868.4,701.6z"/>
			<path style="fill:#3B3344;" d="M882.4,708.7c0,0.8-0.5,1.7-1.1,2.1c-0.6,0.3-1.1,0-1.1-0.8s0.5-1.7,1.1-2.1
				C881.9,707.5,882.4,707.9,882.4,708.7z"/>
			<path style="fill:#3B3344;" d="M868.4,716.7c0,0.8-0.5,1.7-1.1,2.1c-0.6,0.3-1.1,0-1.1-0.8s0.5-1.7,1.1-2.1
				S868.4,715.9,868.4,716.7z"/>
			<path style="fill:#3B3344;" d="M884.2,700.5c0,0.8-0.5,1.7-1.1,2.1c-0.6,0.3-1.1,0-1.1-0.8s0.5-1.7,1.1-2.1
				C883.7,699.4,884.2,699.7,884.2,700.5z"/>
			<path style="fill:#3B3344;" d="M866.3,710.8c0,0.8-0.5,1.7-1.1,2.1c-0.6,0.3-1.1,0-1.1-0.8s0.5-1.7,1.1-2.1
				C865.8,709.7,866.3,710,866.3,710.8z"/>
			<path style="fill:#3B3344;" d="M875.1,716.7c0,0.8-0.5,1.7-1.1,2.1c-0.6,0.3-1.1,0-1.1-0.8s0.5-1.7,1.1-2.1
				S875.1,715.9,875.1,716.7z"/>
		</g>
		<g>
			<path style="fill:#3B3344;" d="M821.7,714.6c0,18.4-11.2,39.8-25,47.7s-25-0.5-25-18.9s11.2-39.8,25-47.7
				C810.5,687.8,821.7,696.2,821.7,714.6z"/>
			<polygon style="fill:#3B3344;" points="799.3,774.2 781.2,764 813.4,694.7 830.7,704.4 			"/>
			<path style="fill:#504759;" d="M840.4,725.1c0,18.4-11.2,39.8-25,47.7s-25-0.5-25-18.9s11.2-39.8,25-47.7
				S840.4,706.7,840.4,725.1z"/>
			<path style="fill:#86808E;" d="M831.6,730.7c0,11.9-7.2,25.8-16.2,30.9s-16.2-0.3-16.2-12.2s7.2-25.8,16.2-30.9
				C824.4,713.3,831.6,718.8,831.6,730.7z"/>
			<path style="fill:#FFFFFF;" d="M827.1,733.4c0,8.5-5.2,18.5-11.6,22.2c-6.4,3.7-11.6-0.2-11.6-8.8s5.2-18.5,11.6-22.2
				C821.9,720.9,827.1,724.8,827.1,733.4z"/>
			<path style="fill:#3B3344;" d="M821.1,736.8c0,4.1-2.5,8.9-5.6,10.7s-5.6-0.1-5.6-4.2c0-4.1,2.5-8.9,5.6-10.7
				C818.5,730.8,821.1,732.7,821.1,736.8z"/>
			<path style="fill:#3B3344;" d="M816.5,727.9c0,0.8-0.5,1.7-1.1,2.1c-0.6,0.3-1.1,0-1.1-0.8s0.5-1.7,1.1-2.1
				C816,726.7,816.5,727.1,816.5,727.9z"/>
			<path style="fill:#3B3344;" d="M823.8,727.9c0,0.8-0.5,1.7-1.1,2.1c-0.6,0.3-1.1,0-1.1-0.8s0.5-1.7,1.1-2.1
				C823.3,726.7,823.8,727.1,823.8,727.9z"/>
			<path style="fill:#3B3344;" d="M809.8,735.9c0,0.8-0.5,1.7-1.1,2.1c-0.6,0.3-1.1,0-1.1-0.8s0.5-1.7,1.1-2.1
				C809.3,734.8,809.8,735.1,809.8,735.9z"/>
			<path style="fill:#3B3344;" d="M823.8,743c0,0.8-0.5,1.7-1.1,2.1c-0.6,0.3-1.1,0-1.1-0.8s0.5-1.7,1.1-2.1
				C823.3,741.8,823.8,742.2,823.8,743z"/>
			<path style="fill:#3B3344;" d="M809.8,751.1c0,0.8-0.5,1.7-1.1,2.1c-0.6,0.3-1.1,0-1.1-0.8s0.5-1.7,1.1-2.1
				S809.8,750.3,809.8,751.1z"/>
			<path style="fill:#3B3344;" d="M825.5,734.8c0,0.8-0.5,1.7-1.1,2.1c-0.6,0.3-1.1,0-1.1-0.8s0.5-1.7,1.1-2.1
				S825.5,734.1,825.5,734.8z"/>
			<path style="fill:#3B3344;" d="M807.7,745.1c0,0.8-0.5,1.7-1.1,2.1c-0.6,0.3-1.1,0-1.1-0.8s0.5-1.7,1.1-2.1
				C807.2,744,807.7,744.3,807.7,745.1z"/>
			<path style="fill:#3B3344;" d="M816.5,751.1c0,0.8-0.5,1.7-1.1,2.1c-0.6,0.3-1.1,0-1.1-0.8s0.5-1.7,1.1-2.1
				S816.5,750.3,816.5,751.1z"/>
		</g>
		<g>
			<polygon style="fill:#86808E;" points="624.4,784.7 734.8,719.2 784.8,748.1 674.4,813.5 			"/>
			<polygon style="fill:#6D6477;" points="674.4,813.4 674.4,837.7 784.8,772.5 784.8,748.1 			"/>
			<polygon style="fill:#2D2735;" points="674.4,830.7 674.4,833.4 780.2,771.4 780.2,768.6 			"/>
			<polygon style="fill:#2D2735;" points="674.4,824.6 674.4,827.4 780.2,765.3 780.2,762.6 			"/>
		</g>
		<g>
			<path style="fill:#3B3344;" d="M651.3,812c0,18.4-11.2,39.8-25,47.7s-25-0.5-25-18.9s11.2-39.8,25-47.7
				C640.1,785.2,651.3,793.7,651.3,812z"/>
			<polygon style="fill:#3B3344;" points="628.9,871.6 610.8,861.4 643.1,792.1 660.4,801.8 			"/>
			<path style="fill:#504759;" d="M670.1,822.5c0,18.4-11.2,39.8-25,47.7s-25-0.5-25-18.9s11.2-39.8,25-47.7
				S670.1,804.1,670.1,822.5z"/>
			<path style="fill:#86808E;" d="M661.3,828.2c0,11.9-7.2,25.8-16.2,30.9s-16.2-0.3-16.2-12.2s7.2-25.8,16.2-30.9
				S661.3,816.2,661.3,828.2z"/>
			<path style="fill:#FFFFFF;" d="M656.7,830.8c0,8.5-5.2,18.5-11.6,22.2s-11.6-0.2-11.6-8.8s5.2-18.5,11.6-22.2
				S656.7,822.2,656.7,830.8z"/>
			<path style="fill:#3B3344;" d="M650.7,834.3c0,4.1-2.5,8.9-5.6,10.7s-5.6-0.1-5.6-4.2s2.5-8.9,5.6-10.7
				C648.2,828.2,650.7,830.1,650.7,834.3z"/>
			<path style="fill:#3B3344;" d="M646.2,825.3c0,0.8-0.5,1.7-1.1,2.1c-0.6,0.3-1.1,0-1.1-0.8s0.5-1.7,1.1-2.1
				S646.2,824.5,646.2,825.3z"/>
			<path style="fill:#3B3344;" d="M653.5,825.3c0,0.8-0.5,1.7-1.1,2.1c-0.6,0.3-1.1,0-1.1-0.8s0.5-1.7,1.1-2.1
				C653,824.1,653.5,824.5,653.5,825.3z"/>
			<path style="fill:#3B3344;" d="M639.5,833.3c0,0.8-0.5,1.7-1.1,2.1c-0.6,0.3-1.1,0-1.1-0.8s0.5-1.7,1.1-2.1
				C639,832.2,639.5,832.6,639.5,833.3z"/>
			<path style="fill:#3B3344;" d="M653.5,840.4c0,0.8-0.5,1.7-1.1,2.1c-0.6,0.3-1.1,0-1.1-0.8s0.5-1.7,1.1-2.1
				C653,839.3,653.5,839.6,653.5,840.4z"/>
			<path style="fill:#3B3344;" d="M639.5,848.5c0,0.8-0.5,1.7-1.1,2.1c-0.6,0.3-1.1,0-1.1-0.8s0.5-1.7,1.1-2.1
				C639,847.3,639.5,847.7,639.5,848.5z"/>
			<path style="fill:#3B3344;" d="M655.2,832.3c0,0.8-0.5,1.7-1.1,2.1c-0.6,0.3-1.1,0-1.1-0.8s0.5-1.7,1.1-2.1
				C654.7,831.1,655.2,831.5,655.2,832.3z"/>
			<path style="fill:#3B3344;" d="M637.3,842.6c0,0.8-0.5,1.7-1.1,2.1c-0.6,0.3-1.1,0-1.1-0.8s0.5-1.7,1.1-2.1
				C636.9,841.4,637.3,841.8,637.3,842.6z"/>
			<path style="fill:#3B3344;" d="M646.2,848.5c0,0.8-0.5,1.7-1.1,2.1c-0.6,0.3-1.1,0-1.1-0.8s0.5-1.7,1.1-2.1
				C645.7,847.3,646.2,847.7,646.2,848.5z"/>
		</g>
		<g>
			<path style="fill:#3B3344;" d="M599.3,842.1c0,18.4-11.2,39.8-25,47.7s-25-0.5-25-18.9s11.2-39.8,25-47.7
				C588.2,815.3,599.3,823.7,599.3,842.1z"/>
			<polygon style="fill:#3B3344;" points="576.9,901.7 558.9,891.5 591.1,822.2 608.4,831.9 			"/>
			<path style="fill:#504759;" d="M618.1,852.6c0,18.4-11.2,39.8-25,47.7s-25-0.5-25-18.9s11.2-39.8,25-47.7
				S618.1,834.2,618.1,852.6z"/>
			<path style="fill:#86808E;" d="M609.3,858.2c0,11.9-7.2,25.8-16.2,30.9s-16.2-0.3-16.2-12.2s7.2-25.8,16.2-30.9
				C602.1,840.8,609.3,846.3,609.3,858.2z"/>
			<path style="fill:#FFFFFF;" d="M604.7,860.9c0,8.5-5.2,18.5-11.6,22.2c-6.4,3.7-11.6-0.2-11.6-8.8c0-8.5,5.2-18.5,11.6-22.2
				S604.7,852.3,604.7,860.9z"/>
			<path style="fill:#3B3344;" d="M598.7,864.3c0,4.1-2.5,8.9-5.6,10.7s-5.6-0.1-5.6-4.2s2.5-8.9,5.6-10.7S598.7,860.2,598.7,864.3z
				"/>
			<path style="fill:#3B3344;" d="M594.2,855.4c0,0.8-0.5,1.7-1.1,2.1c-0.6,0.3-1.1,0-1.1-0.8s0.5-1.7,1.1-2.1
				C593.7,854.2,594.2,854.6,594.2,855.4z"/>
			<path style="fill:#3B3344;" d="M601.5,855.4c0,0.8-0.5,1.7-1.1,2.1c-0.6,0.3-1.1,0-1.1-0.8s0.5-1.7,1.1-2.1
				C601,854.2,601.5,854.6,601.5,855.4z"/>
			<path style="fill:#3B3344;" d="M587.5,863.4c0,0.8-0.5,1.7-1.1,2.1c-0.6,0.3-1.1,0-1.1-0.8s0.5-1.7,1.1-2.1
				C587,862.3,587.5,862.6,587.5,863.4z"/>
			<path style="fill:#3B3344;" d="M601.5,870.5c0,0.8-0.5,1.7-1.1,2.1c-0.6,0.3-1.1,0-1.1-0.8s0.5-1.7,1.1-2.1
				C601,869.3,601.5,869.7,601.5,870.5z"/>
			<path style="fill:#3B3344;" d="M587.5,878.5c0,0.8-0.5,1.7-1.1,2.1c-0.6,0.3-1.1,0-1.1-0.8s0.5-1.7,1.1-2.1
				C587,877.4,587.5,877.8,587.5,878.5z"/>
			<path style="fill:#3B3344;" d="M603.2,862.3c0,0.8-0.5,1.7-1.1,2.1c-0.6,0.3-1.1,0-1.1-0.8s0.5-1.7,1.1-2.1
				C602.7,861.2,603.2,861.5,603.2,862.3z"/>
			<path style="fill:#3B3344;" d="M585.4,872.6c0,0.8-0.5,1.7-1.1,2.1c-0.6,0.3-1.1,0-1.1-0.8s0.5-1.7,1.1-2.1
				C584.9,871.5,585.4,871.8,585.4,872.6z"/>
			<path style="fill:#3B3344;" d="M594.2,878.5c0,0.8-0.5,1.7-1.1,2.1c-0.6,0.3-1.1,0-1.1-0.8s0.5-1.7,1.1-2.1
				C593.7,877.4,594.2,877.8,594.2,878.5z"/>
		</g>
		<path style="fill:#504759;" d="M556.5,880.4c-7.3-3.8-18-9.3-18-9.3l21.4-9.7L556.5,880.4z"/>
		<path style="fill:#86808E;" d="M591,822.2l-2,1.2c-20.2,11.9-32.5,33.6-32.5,57.1l0,0l6-3.6l0.4-2.5c2.5-14.8,10.3-28.2,22-37.7
			l2.6-2.2L591,822.2z"/>
		<polygon style="fill:#FFFFFF;" points="522.7,678.5 896.2,463 765.2,387.3 391.7,602.8 		"/>
		<polygon style="fill:#D7E2DC;" points="411.3,606.7 771.4,399.1 764,395.3 403.9,602.8 		"/>
		<polygon style="fill:#D7E2DC;" points="523.4,671 883.5,463.5 876.1,459.7 516,667.2 		"/>
		<polygon style="fill:#3B3344;" points="396.8,805.3 396.8,826.7 527.8,902.3 527.8,881 		"/>
		<polygon style="fill:#504759;" points="533.9,877.4 527.6,881 527.6,902.3 533.9,898.7 		"/>
		<g>
			<polygon style="fill:#E54242;" points="521.6,895 513.1,890 513.1,878.7 521.6,883.6 			"/>
			<polygon style="fill:#D83232;" points="523.9,882.3 521.6,883.6 521.6,895 523.9,893.6 			"/>
			<polygon style="fill:#F95377;" points="523.9,882.3 515.4,877.4 513.1,878.7 521.6,883.6 			"/>
		</g>
		<g>
			<polygon style="fill:#E54242;" points="408.9,827.6 400.3,822.7 400.3,811.4 408.9,816.3 			"/>
			<polygon style="fill:#D83232;" points="411.1,815 408.9,816.3 408.9,827.6 411.1,826.3 			"/>
			<polygon style="fill:#F95377;" points="411.1,815 402.6,810.1 400.3,811.4 408.9,816.3 			"/>
		</g>
		<g>
			<polygon style="fill:#D7E2DC;" points="391.7,602.8 391.7,766.5 391.7,779.4 391.7,808.8 522.7,884.4 522.7,855 522.7,842.2 
				522.7,678.5 			"/>
			<g>
				<polygon style="fill:#504759;" points="518,681.8 396.3,611.1 396.3,756.5 396.3,768 396.3,805.5 396.5,805.6 518,735.5 				"/>
				<polygon style="fill:#6D6477;" points="518,735.5 396.5,805.6 518,876.1 				"/>
			</g>
			<polygon style="fill:#FFFFFF;" points="735.9,588.6 634.7,647 619.5,667 735.9,599.8 			"/>
			<polygon style="fill:#FFFFFF;" points="735.9,568.9 659.1,614 643.9,634 735.9,580.1 			"/>
			<polygon style="fill:#9AA89F;" points="522.7,678.1 522.7,842.2 522.7,865.2 522.7,884.4 896.2,669 896.2,649.7 896.2,626.7 
				896.2,462.6 			"/>
			<polygon style="fill:#859389;" points="544.2,678 539.3,680.7 539.3,861 544.2,858.2 			"/>
			<polygon style="fill:#859389;" points="565.9,665.4 561,668.2 561,848.5 565.9,845.7 			"/>
			<polygon style="fill:#859389;" points="640.1,622.5 635.3,625.3 635.3,805.5 640.1,802.7 			"/>
			<polygon style="fill:#859389;" points="661.8,610 657,612.8 657,793 661.8,790.2 			"/>
			<polygon style="fill:#859389;" points="684.9,597 680.1,599.8 680.1,780 684.9,777.2 			"/>
			<polygon style="fill:#859389;" points="706.6,584.5 701.8,587.3 701.8,767.5 706.6,764.7 			"/>
			<polygon style="fill:#859389;" points="730.2,570 725.3,572.8 725.3,753 730.2,750.2 			"/>
			<polygon style="fill:#859389;" points="751.9,557.5 747,560.2 747,740.5 751.9,737.7 			"/>
			<polygon style="fill:#859389;" points="840.7,505.8 835.8,508.6 835.8,688.9 840.7,686.1 			"/>
			<polygon style="fill:#859389;" points="862.3,493.3 857.5,496.1 857.5,676.4 862.3,673.6 			"/>
		</g>
		<g>
			<polygon style="fill:#FFFFFF;" points="876.1,671.5 884.6,666.6 884.6,655.2 876.1,660.2 			"/>
			<polygon style="fill:#9AA89F;" points="873.8,658.8 876.1,660.2 876.1,671.5 873.8,670.2 			"/>
			<polygon style="fill:#CECECE;" points="873.8,658.8 882.3,653.9 884.6,655.3 876.1,660.2 			"/>
		</g>
		<g>
			<polygon style="fill:#FFFFFF;" points="597,833.3 605.5,828.4 605.5,817 597,822 			"/>
			<polygon style="fill:#9AA89F;" points="594.7,820.6 597,822 597,833.3 594.7,832 			"/>
			<polygon style="fill:#CECECE;" points="594.7,820.6 603.2,815.7 605.5,817.1 597,822 			"/>
		</g>
	</g>
	<g>
		<polygon style="fill:#D7E2DC;" points="389.9,608.8 324.2,646.7 324.2,840.9 389.9,803.1 		"/>
		<polygon style="fill:#9AA89F;" points="324.2,840.9 320.3,838 320.3,643.8 324.2,646.7 		"/>
		<polygon style="fill:#EDEDED;" points="389.9,608.8 385.9,605.9 320.3,643.8 324.2,646.7 		"/>
		<polygon style="fill:#9AA89F;" points="331.1,830.3 355.1,816.9 355.1,636.1 331.1,649.5 		"/>
		<polygon style="fill:#9AA89F;" points="360.7,813.2 384.7,799.8 384.7,619 360.7,632.5 		"/>
	</g>
	<path style="fill:#D83232;" d="M988.4,470.8l-65.7,40.3v156.8l28.9-16.7c3.2-22.3,16.8-45.5,33.1-54.9s29.9-1.9,33.1,16.7
		l21.6-12.4V500.3C1039.5,474.1,1011.1,457.7,988.4,470.8z"/>
	<polygon style="fill:#C92828;" points="971.3,481.6 967.1,484 967.1,614.7 971.3,609.6 	"/>
	<g>
		<path style="fill:#FFFFFF;" d="M984.8,599.6c-14.8,8.5-27.1,29.6-30,49.8l-3.1,1.8c3.2-22.3,16.8-45.5,33.1-54.9
			s29.9-1.9,33.1,16.7l-3.1,1.8C1011.9,597.8,999.6,591,984.8,599.6z"/>
	</g>
	<path style="fill:#D83232;" d="M924.1,501c0,0,38.7-23.6,52.6-31.7c7.8-4.5,16.5-8.3,16.5-8.3s-1.5-11.7-19.1-7.9
		c-19.3,4.2-50,17.4-50,17.4V501L924.1,501z"/>
	<g>
		<path style="fill:#3B3344;" d="M989.1,518.7c0-6.5,4-14.2,8.9-17.1l18.3-10.6c1.9-1.1,3.7-1.3,5.2-0.7c-1.5-3.1-4.5-4.1-8-2
			l-18.3,10.6c-4.9,2.8-8.9,10.5-8.9,17.1v42.3c0,4,1.5,6.6,3.7,7.5c-0.6-1.2-1-2.8-1-4.7L989.1,518.7L989.1,518.7z"/>
		<path style="fill:#504759;" d="M995.2,565l18.3-10.6c4.9-2.8,8.9-10.5,8.9-17.1V495c0-1.9-0.4-3.5-1-4.7c-1.5-0.6-3.3-0.4-5.2,0.7
			L998,501.6c-4.9,2.8-8.9,10.5-8.9,17.1V561c0,1.9,0.4,3.5,1,4.7C991.5,566.3,993.3,566.1,995.2,565z"/>
	</g>
	<polygon style="fill:#D7E2DC;" points="1050,590 1024.4,604.7 1024.4,618.1 1050,603.4 	"/>
	<polygon style="fill:#9AA89F;" points="1017.5,600.7 1017.5,614.1 1024.4,618.1 1024.4,604.7 	"/>
	<polygon style="fill:#EDEDED;" points="1017.5,600.7 1039.5,588.4 1039.5,583.9 1050,590 1024.4,604.7 	"/>
	<g>
		<polygon style="fill:#FFFFFF;" points="934.2,641.3 942.8,636.4 942.8,625 934.2,629.9 		"/>
		<polygon style="fill:#9AA89F;" points="932,628.6 934.2,629.9 934.2,641.3 932,640 		"/>
		<polygon style="fill:#CECECE;" points="932,628.6 940.5,623.7 942.8,625 934.2,629.9 		"/>
	</g>
	<g>
		<polygon style="fill:#DBA763;" points="518,726.3 475.1,701.5 475.1,771.3 518,796.2 		"/>
		<polygon style="fill:#FFE1C0;" points="513.6,679.2 475.1,701.5 518,726.3 518,682 		"/>
		<polygon style="fill:#504759;" points="492.2,728.3 502.6,734.3 502.6,717.4 492.2,711.4 		"/>
		<polygon style="fill:#6D6477;" points="518,696.5 492.2,711.4 502.6,717.4 518,708.4 		"/>
		<polygon style="fill:#504759;" points="485.7,724.8 485.7,735.2 478.3,730.9 478.3,720.5 		"/>
	</g>
	<g>
		<g>
			<polygon style="fill:#DBA763;" points="463.8,831.7 463.8,799.8 417.6,773.1 417.6,804.9 			"/>
			<polygon style="fill:#E8B679;" points="463.8,831.7 463.8,799.8 510.1,773.1 510.1,804.9 			"/>
			<polygon style="fill:#FFE1C0;" points="510.1,773.1 463.8,799.8 417.6,773.1 463.8,746.3 			"/>
			<g>
				<polygon style="fill:#504759;" points="434.8,799.8 445.1,805.8 445.1,789 434.8,783 				"/>
				<polygon style="fill:#6D6477;" points="434.8,783 481,756.2 491.3,762.2 445.1,789 				"/>
				<polygon style="fill:#504759;" points="457.7,823.4 457.7,820.4 442.2,811.4 442.2,814.5 				"/>
				<polygon style="fill:#504759;" points="457.7,818.1 457.7,815.1 442.2,806.1 442.2,809.1 				"/>
				<polygon style="fill:#504759;" points="428.2,796.4 428.2,806.7 420.8,802.4 420.8,792.1 				"/>
				<polygon style="fill:#504759;" points="500.8,797.1 500.8,807.8 508.2,803.5 508.2,792.8 				"/>
				<polygon style="fill:#504759;" points="490.6,803 490.6,813.7 498.1,809.4 498.1,798.7 				"/>
				<polygon style="fill:#FFFFFF;" points="465.9,801.1 465.9,816.6 481.1,807.8 481.1,792.3 				"/>
				<polygon style="fill:#504759;" points="467.7,804.3 467.7,801.8 479.7,794.9 479.7,797.3 				"/>
			</g>
		</g>
		<g>
			<polygon style="fill:#DBA763;" points="517.9,830.9 478.8,808.3 478.8,840.1 517.9,862.8 			"/>
			<polygon style="fill:#FFE1C0;" points="517.9,785.7 478.8,808.3 517.9,830.9 			"/>
			<g>
				<polygon style="fill:#504759;" points="496,835.1 506.3,841.1 506.3,824.2 496,818.2 				"/>
				<polygon style="fill:#6D6477;" points="517.9,805.5 496,818.2 506.3,824.2 517.9,817.5 				"/>
			</g>
		</g>
		<g>
			<polygon style="fill:#DBA763;" points="517.9,796.5 500.7,786.5 500.7,805.2 517.9,815.1 			"/>
			<polygon style="fill:#FFE1C0;" points="517.9,776.7 500.7,786.6 517.9,796.5 			"/>
			<polygon style="fill:#504759;" points="517.9,796.5 508.3,790.9 508.3,800.7 517.9,806.3 			"/>
		</g>
		<g>
			<polygon style="fill:#DBA763;" points="463.3,791.6 463.4,773 433.5,755.7 433.5,774.3 			"/>
			<polygon style="fill:#E8B679;" points="463.3,791.6 463.4,773 498.2,752.8 498.2,771.4 			"/>
			<polygon style="fill:#FFE1C0;" points="498.2,752.8 463.4,773 433.5,755.7 468.3,735.5 			"/>
			<g>
				<polygon style="fill:#504759;" points="461.1,788.2 461.1,786.3 451.1,780.4 451.1,782.4 				"/>
				<polygon style="fill:#504759;" points="461.1,784.7 461.1,782.8 451.1,777 451.1,779 				"/>
				<polygon style="fill:#504759;" points="490.8,760.4 490.8,769 496.7,765.6 496.7,756.9 				"/>
			</g>
			<polygon style="fill:#FFFFFF;" points="465.7,774.9 465.7,785.2 481,776.4 481,766.1 			"/>
			<polygon style="fill:#504759;" points="467.6,778.1 467.6,775.5 479.6,768.6 479.6,771.1 			"/>
			<polygon style="fill:#504759;" points="441,769.8 451.3,775.8 451.3,766 441,760 			"/>
			<polygon style="fill:#6D6477;" points="441,760 475.9,739.9 486.2,745.8 451.3,766 			"/>
		</g>
	</g>
	<g>
		<polygon style="fill:#D7E2DC;" points="512.6,681.4 578.3,719.3 578.3,913.6 512.6,875.7 		"/>
		<polygon style="fill:#859389;" points="578.3,913.6 582.2,910.6 582.2,716.4 578.3,719.3 		"/>
		<polygon style="fill:#EDEDED;" points="512.6,681.4 516.6,678.5 582.2,716.4 578.3,719.3 		"/>
		<polygon style="fill:#9AA89F;" points="571.4,902.9 547.4,889.5 547.4,708.8 571.4,722.2 		"/>
		<polygon style="fill:#9AA89F;" points="541.8,885.9 517.8,872.5 517.8,691.7 541.8,705.1 		"/>
	</g>
</g>
<g>
	<polygon style="fill:#FFFFFF;" points="931.5,732 1305,516.5 1174,440.8 800.5,656.3 	"/>
	<polygon style="fill:#D7E2DC;" points="820.1,660.1 1180.2,452.6 1172.8,448.8 812.7,656.3 	"/>
	<polygon style="fill:#D7E2DC;" points="932.2,724.5 1292.4,517 1284.9,513.2 924.8,720.7 	"/>
	<polygon style="fill:#3B3344;" points="986.9,857.1 1014.3,872.9 1014.3,901.1 986.9,885.2 	"/>
	<g>
		<path style="fill:#3B3344;" d="M1272.4,718.5c0,18.4-11.2,39.8-25,47.7c-13.8,8-25-0.5-25-18.9s11.2-39.8,25-47.7
			C1261.3,691.7,1272.4,700.1,1272.4,718.5z"/>
		<polygon style="fill:#3B3344;" points="1250.1,778 1232,767.9 1264.2,698.6 1281.5,708.2 		"/>
		<path style="fill:#504759;" d="M1291.2,729c0,18.4-11.2,39.8-25,47.7c-13.8,8-25-0.5-25-18.9s11.2-39.8,25-47.7
			C1280,702.1,1291.2,710.6,1291.2,729z"/>
		<path style="fill:#86808E;" d="M1282.4,734.6c0,11.9-7.2,25.8-16.2,30.9s-16.2-0.3-16.2-12.2s7.2-25.8,16.2-30.9
			C1275.2,717.2,1282.4,722.7,1282.4,734.6z"/>
		<path style="fill:#FFFFFF;" d="M1277.9,737.3c0,8.5-5.2,18.5-11.6,22.2s-11.6-0.2-11.6-8.8c0-8.5,5.2-18.5,11.6-22.2
			C1272.7,724.8,1277.9,728.7,1277.9,737.3z"/>
		<path style="fill:#3B3344;" d="M1271.9,740.7c0,4.1-2.5,8.9-5.6,10.7s-5.6-0.1-5.6-4.2c0-4.1,2.5-8.9,5.6-10.7
			C1269.3,734.7,1271.9,736.6,1271.9,740.7z"/>
		<path style="fill:#3B3344;" d="M1267.3,731.8c0,0.8-0.5,1.7-1.1,2.1c-0.6,0.3-1.1,0-1.1-0.8s0.5-1.7,1.1-2.1
			S1267.3,731,1267.3,731.8z"/>
		<path style="fill:#3B3344;" d="M1274.6,731.8c0,0.8-0.5,1.7-1.1,2.1c-0.6,0.3-1.1,0-1.1-0.8s0.5-1.7,1.1-2.1
			S1274.6,731,1274.6,731.8z"/>
		<path style="fill:#3B3344;" d="M1260.6,739.8c0,0.8-0.5,1.7-1.1,2.1c-0.6,0.3-1.1,0-1.1-0.8s0.5-1.7,1.1-2.1
			S1260.6,739,1260.6,739.8z"/>
		<path style="fill:#3B3344;" d="M1274.6,746.9c0,0.8-0.5,1.7-1.1,2.1c-0.6,0.3-1.1,0-1.1-0.8s0.5-1.7,1.1-2.1
			S1274.6,746.1,1274.6,746.9z"/>
		<path style="fill:#3B3344;" d="M1260.6,754.9c0,0.8-0.5,1.7-1.1,2.1c-0.6,0.3-1.1,0-1.1-0.8s0.5-1.7,1.1-2.1
			S1260.6,754.1,1260.6,754.9z"/>
		<path style="fill:#3B3344;" d="M1276.3,738.7c0,0.8-0.5,1.7-1.1,2.1c-0.6,0.3-1.1,0-1.1-0.8s0.5-1.7,1.1-2.1
			C1275.9,737.6,1276.3,737.9,1276.3,738.7z"/>
		<path style="fill:#3B3344;" d="M1258.5,749c0,0.8-0.5,1.7-1.1,2.1c-0.6,0.3-1.1,0-1.1-0.8s0.5-1.7,1.1-2.1
			C1258,747.9,1258.5,748.2,1258.5,749z"/>
		<path style="fill:#3B3344;" d="M1267.3,754.9c0,0.8-0.5,1.7-1.1,2.1c-0.6,0.3-1.1,0-1.1-0.8s0.5-1.7,1.1-2.1
			S1267.3,754.1,1267.3,754.9z"/>
	</g>
	<g>
		<path style="fill:#3B3344;" d="M1213.8,752.8c0,18.4-11.2,39.8-25,47.7c-13.8,8-25-0.5-25-18.9s11.2-39.8,25-47.7
			C1202.7,726,1213.8,734.4,1213.8,752.8z"/>
		<polygon style="fill:#3B3344;" points="1191.4,812.4 1173.4,802.2 1205.6,732.9 1222.9,742.6 		"/>
		<path style="fill:#504759;" d="M1232.6,763.3c0,18.4-11.2,39.8-25,47.7c-13.8,8-25-0.5-25-18.9s11.2-39.8,25-47.7
			C1221.4,736.4,1232.6,744.9,1232.6,763.3z"/>
		<path style="fill:#86808E;" d="M1223.8,768.9c0,11.9-7.2,25.8-16.2,30.9s-16.2-0.3-16.2-12.2s7.2-25.8,16.2-30.9
			C1216.6,751.5,1223.8,757,1223.8,768.9z"/>
		<path style="fill:#FFFFFF;" d="M1219.2,771.6c0,8.5-5.2,18.5-11.6,22.2s-11.6-0.2-11.6-8.8c0-8.5,5.2-18.5,11.6-22.2
			C1214.1,759.1,1219.2,763,1219.2,771.6z"/>
		<path style="fill:#3B3344;" d="M1213.2,775c0,4.1-2.5,8.9-5.6,10.7s-5.6-0.1-5.6-4.2c0-4.1,2.5-8.9,5.6-10.7
			S1213.2,770.9,1213.2,775z"/>
		<path style="fill:#3B3344;" d="M1208.7,766.1c0,0.8-0.5,1.7-1.1,2.1c-0.6,0.3-1.1,0-1.1-0.8s0.5-1.7,1.1-2.1
			S1208.7,765.3,1208.7,766.1z"/>
		<path style="fill:#3B3344;" d="M1216,766.1c0,0.8-0.5,1.7-1.1,2.1c-0.6,0.3-1.1,0-1.1-0.8s0.5-1.7,1.1-2.1S1216,765.3,1216,766.1z
			"/>
		<path style="fill:#3B3344;" d="M1202,774.1c0,0.8-0.5,1.7-1.1,2.1c-0.6,0.3-1.1,0-1.1-0.8s0.5-1.7,1.1-2.1
			C1201.5,773,1202,773.3,1202,774.1z"/>
		<path style="fill:#3B3344;" d="M1216,781.2c0,0.8-0.5,1.7-1.1,2.1c-0.6,0.3-1.1,0-1.1-0.8s0.5-1.7,1.1-2.1
			C1215.5,780,1216,780.4,1216,781.2z"/>
		<path style="fill:#3B3344;" d="M1202,789.2c0,0.8-0.5,1.7-1.1,2.1c-0.6,0.3-1.1,0-1.1-0.8s0.5-1.7,1.1-2.1S1202,788.5,1202,789.2z
			"/>
		<path style="fill:#3B3344;" d="M1217.7,773c0,0.8-0.5,1.7-1.1,2.1c-0.6,0.3-1.1,0-1.1-0.8s0.5-1.7,1.1-2.1
			C1217.2,771.9,1217.7,772.2,1217.7,773z"/>
		<path style="fill:#3B3344;" d="M1199.9,783.3c0,0.8-0.5,1.7-1.1,2.1c-0.6,0.3-1.1,0-1.1-0.8s0.5-1.7,1.1-2.1
			C1199.4,782.2,1199.9,782.5,1199.9,783.3z"/>
		<path style="fill:#3B3344;" d="M1208.7,789.2c0,0.8-0.5,1.7-1.1,2.1c-0.6,0.3-1.1,0-1.1-0.8s0.5-1.7,1.1-2.1
			S1208.7,788.5,1208.7,789.2z"/>
	</g>
	<g>
		<path style="fill:#3B3344;" d="M991.5,880.3c0,18.4-11.2,39.8-25,47.7s-25-0.5-25-18.9s11.2-39.8,25-47.7S991.5,861.9,991.5,880.3
			z"/>
		<polygon style="fill:#3B3344;" points="969.1,939.9 951,929.7 983.3,860.4 1000.6,870.1 		"/>
		<path style="fill:#504759;" d="M1010.3,890.8c0,18.4-11.2,39.8-25,47.7s-25-0.5-25-18.9s11.2-39.8,25-47.7
			C999.1,863.9,1010.3,872.4,1010.3,890.8z"/>
		<path style="fill:#86808E;" d="M1001.5,896.4c0,11.9-7.2,25.8-16.2,30.9s-16.2-0.3-16.2-12.2s7.2-25.8,16.2-30.9
			C994.3,879,1001.5,884.5,1001.5,896.4z"/>
		<path style="fill:#FFFFFF;" d="M996.9,899.1c0,8.5-5.2,18.5-11.6,22.2c-6.4,3.7-11.6-0.2-11.6-8.8s5.2-18.5,11.6-22.2
			S996.9,890.5,996.9,899.1z"/>
		<path style="fill:#3B3344;" d="M990.9,902.5c0,4.1-2.5,8.9-5.6,10.7s-5.6-0.1-5.6-4.2s2.5-8.9,5.6-10.7S990.9,898.4,990.9,902.5z"
			/>
		<path style="fill:#3B3344;" d="M986.4,893.6c0,0.8-0.5,1.7-1.1,2.1c-0.6,0.3-1.1,0-1.1-0.8s0.5-1.7,1.1-2.1
			S986.4,892.8,986.4,893.6z"/>
		<path style="fill:#3B3344;" d="M993.7,893.6c0,0.8-0.5,1.7-1.1,2.1c-0.6,0.3-1.1,0-1.1-0.8s0.5-1.7,1.1-2.1
			S993.7,892.8,993.7,893.6z"/>
		<path style="fill:#3B3344;" d="M979.7,901.6c0,0.8-0.5,1.7-1.1,2.1c-0.6,0.3-1.1,0-1.1-0.8s0.5-1.7,1.1-2.1
			C979.2,900.5,979.7,900.8,979.7,901.6z"/>
		<path style="fill:#3B3344;" d="M993.7,908.7c0,0.8-0.5,1.7-1.1,2.1c-0.6,0.3-1.1,0-1.1-0.8s0.5-1.7,1.1-2.1
			S993.7,907.9,993.7,908.7z"/>
		<path style="fill:#3B3344;" d="M979.7,916.7c0,0.8-0.5,1.7-1.1,2.1c-0.6,0.3-1.1,0-1.1-0.8s0.5-1.7,1.1-2.1
			C979.2,915.6,979.7,915.9,979.7,916.7z"/>
		<path style="fill:#3B3344;" d="M995.4,900.5c0,0.8-0.5,1.7-1.1,2.1c-0.6,0.3-1.1,0-1.1-0.8s0.5-1.7,1.1-2.1
			C994.9,899.4,995.4,899.7,995.4,900.5z"/>
		<path style="fill:#3B3344;" d="M977.5,910.8c0,0.8-0.5,1.7-1.1,2.1c-0.6,0.3-1.1,0-1.1-0.8s0.5-1.7,1.1-2.1
			C977.1,909.7,977.5,910,977.5,910.8z"/>
		<path style="fill:#3B3344;" d="M986.4,916.7c0,0.8-0.5,1.7-1.1,2.1c-0.6,0.3-1.1,0-1.1-0.8s0.5-1.7,1.1-2.1
			C985.9,915.6,986.4,915.9,986.4,916.7z"/>
	</g>
	<path style="fill:#262626;" d="M894.3,948.7l-19.2-11.6l-12.9-10.3c0,0,10.3-3.8,11.2-4.4C874.5,921.8,899.3,930.6,894.3,948.7z"/>
	<g>
		<polygon style="fill:#EF4F77;" points="789.1,733.2 789.1,859.2 803.2,850 694,787.1 		"/>
		<polygon style="fill:#EF4F77;" points="766.3,871.3 660.8,932.2 660.8,866.9 674.3,821.3 		"/>
		<path style="fill:#FFFFFF;" d="M678.8,806c2.3-7.8,7.6-14.5,14.7-18.6l0.5-0.3L803.2,850l33.7,19.4l-4.2,37.9l-66.4-36l-92-49.9
			L678.8,806z"/>
	</g>
	<path style="fill:#DDDDDD;" d="M683.7,796.2L818.1,872l-26.3,70.5l-131-75.6c0,0,13.4-47.5,19.4-64.7
		C680.8,800.6,683.7,796.2,683.7,796.2z"/>
	<g>
		<polygon style="fill:#86808E;" points="841.2,916.2 902.4,880.9 952.4,909.8 891.2,945.1 		"/>
		<polygon style="fill:#6D6477;" points="952.4,909.8 890.3,945.6 890.3,970 952.4,934.2 		"/>
		<polygon style="fill:#504759;" points="947.8,930.3 898.9,958.4 898.9,961.1 947.8,933.1 		"/>
		<polygon style="fill:#504759;" points="947.8,924.3 898.9,952.3 898.9,955.1 947.8,927 		"/>
	</g>
	<g>
		<polygon style="fill:#86808E;" points="964.3,847.9 1127,751.7 1177,780.5 1014.3,876.7 		"/>
		<polygon style="fill:#6D6477;" points="1177,780.5 1014.3,876.7 1014.3,901.1 1177,804.9 		"/>
		<polygon style="fill:#504759;" points="1172.4,801 1019.8,890.5 1019.8,893.3 1172.4,803.8 		"/>
		<polygon style="fill:#504759;" points="1172.4,795 1019.8,884.5 1019.8,887.2 1172.4,797.8 		"/>
	</g>
	<g>
		<polygon style="fill:#1D94DD;" points="800.5,656.3 800.5,833.7 931.5,909.3 931.5,732 		"/>
		<polygon style="fill:#D7E2DC;" points="800.5,656.3 800.5,712.3 931.5,787.9 931.5,732 		"/>
		<polygon style="fill:#D7E2DC;" points="800.5,820 800.5,842.4 931.5,918 931.5,895.7 		"/>
		<polygon style="fill:#0C76BF;" points="1305,516.5 1305,693.8 931.5,909.3 931.5,732 		"/>
		<polygon style="fill:#B1BCB5;" points="1305,516.1 1305,572.5 931.5,787.9 931.5,731.6 		"/>
		<polygon style="fill:#FFFFFF;" points="1144.8,642.1 1043.5,700.5 1028.3,720.5 1144.8,653.3 		"/>
		<polygon style="fill:#FFFFFF;" points="1144.8,622.4 1068,667.5 1052.8,687.5 1144.8,633.6 		"/>
		<polygon style="fill:#B1BCB5;" points="1305,680.2 1305,702.5 931.5,918 931.5,895.7 		"/>
	</g>
	<g>
		<path style="fill:#3B3344;" d="M874.1,946.7c0,18.4-11.2,39.8-25,47.7s-25-0.5-25-18.9s11.2-39.8,25-47.7
			C862.9,919.9,874.1,928.3,874.1,946.7z"/>
		<polygon style="fill:#3B3344;" points="851.7,1006.2 833.6,996.1 865.9,926.8 883.2,936.5 		"/>
		<path style="fill:#504759;" d="M892.8,957.2c0,18.4-11.2,39.8-25,47.7s-25-0.5-25-18.9s11.2-39.8,25-47.7
			C881.7,930.3,892.8,938.8,892.8,957.2z"/>
		<path style="fill:#86808E;" d="M884.1,962.8c0,11.9-7.2,25.8-16.2,30.9s-16.2-0.3-16.2-12.2s7.2-25.8,16.2-30.9
			C876.8,945.4,884.1,950.9,884.1,962.8z"/>
		
			<ellipse transform="matrix(0.3915 -0.9202 0.9202 0.3915 -366.3546 1390.1555)" style="fill:#FFFFFF;" cx="867.9" cy="972.1" rx="17.8" ry="10.1"/>
		<path style="fill:#3B3344;" d="M873.5,968.9c0,4.1-2.5,8.9-5.6,10.7s-5.6-0.1-5.6-4.2s2.5-8.9,5.6-10.7S873.5,964.8,873.5,968.9z"
			/>
		<path style="fill:#3B3344;" d="M869,960c0,0.8-0.5,1.7-1.1,2.1c-0.6,0.3-1.1,0-1.1-0.8s0.5-1.7,1.1-2.1
			C868.5,958.8,869,959.2,869,960z"/>
		<path style="fill:#3B3344;" d="M876.2,960c0,0.8-0.5,1.7-1.1,2.1c-0.6,0.3-1.1,0-1.1-0.8s0.5-1.7,1.1-2.1
			C875.8,958.8,876.2,959.2,876.2,960z"/>
		<path style="fill:#3B3344;" d="M862.3,968c0,0.8-0.5,1.7-1.1,2.1c-0.6,0.3-1.1,0-1.1-0.8s0.5-1.7,1.1-2.1
			C861.8,966.8,862.3,967.2,862.3,968z"/>
		<path style="fill:#3B3344;" d="M876.2,975.1c0,0.8-0.5,1.7-1.1,2.1c-0.6,0.3-1.1,0-1.1-0.8s0.5-1.7,1.1-2.1
			C875.8,973.9,876.2,974.3,876.2,975.1z"/>
		<path style="fill:#3B3344;" d="M862.3,983.1c0,0.8-0.5,1.7-1.1,2.1c-0.6,0.3-1.1,0-1.1-0.8s0.5-1.7,1.1-2.1
			C861.8,982,862.3,982.3,862.3,983.1z"/>
		<path style="fill:#3B3344;" d="M878,966.9c0,0.8-0.5,1.7-1.1,2.1c-0.6,0.3-1.1,0-1.1-0.8s0.5-1.7,1.1-2.1S878,966.1,878,966.9z"/>
		<path style="fill:#3B3344;" d="M860.1,977.2c0,0.8-0.5,1.7-1.1,2.1c-0.6,0.3-1.1,0-1.1-0.8s0.5-1.7,1.1-2.1
			C859.6,976.1,860.1,976.4,860.1,977.2z"/>
		<path style="fill:#3B3344;" d="M869,983.1c0,0.8-0.5,1.7-1.1,2.1c-0.6,0.3-1.1,0-1.1-0.8s0.5-1.7,1.1-2.1
			C868.5,982,869,982.3,869,983.1z"/>
	</g>
	<g>
		<path style="fill:#B1BCB5;" d="M919,808.5L824.5,863c-7.1,4.1-12.3,10.8-14.7,18.6l-18,60.9v65.3l39.3-22.7
			c3.2-22.3,16.8-45.5,33.1-54.9s29.9-1.9,33.1,16.7l21.5-12.4L919,808.5L919,808.5z"/>
		<polygon style="fill:#9AA89F;" points="852,940.2 852,847.3 854.7,845.7 854.7,940.2 		"/>
		<g>
			<path style="fill:#FFFFFF;" d="M864.3,933.6c-14.8,8.5-27.1,29.6-30,49.8l-3.1,1.8c3.2-22.3,16.8-45.5,33.1-54.9
				s29.9-1.9,33.1,16.7l-3.1,1.8C891.4,931.8,879.1,925,864.3,933.6z"/>
		</g>
	</g>
	<polygon style="fill:#D7E2DC;" points="660.8,866.9 791.8,942.5 791.8,1007.8 660.8,932.2 	"/>
	<g>
		<polygon style="fill:#FFFFFF;" points="1293.5,705.4 1302,700.5 1302,689.1 1293.5,694.1 		"/>
		<polygon style="fill:#9AA89F;" points="1291.2,692.7 1293.5,694.1 1293.5,705.4 1291.2,704.1 		"/>
		<polygon style="fill:#D7E2DC;" points="1291.2,692.7 1299.7,687.8 1302,689.2 1293.5,694.1 		"/>
	</g>
	<g>
		<polygon style="fill:#FFFFFF;" points="1014.4,867.2 1022.9,862.3 1022.9,851 1014.4,855.9 		"/>
		<polygon style="fill:#9AA89F;" points="1012.1,854.5 1014.4,855.9 1014.4,867.2 1012.1,865.9 		"/>
		<polygon style="fill:#D7E2DC;" points="1012.1,854.5 1020.6,849.7 1022.9,851 1014.4,855.9 		"/>
	</g>
	<polygon style="fill:#FFFFFF;" points="660.8,866.9 791.8,942.5 791.8,947.7 660.8,872.1 	"/>
	<polygon style="fill:#D7E2DC;" points="919,869.2 791.8,942.5 791.8,947.7 919,874.3 	"/>
	<g>
		<path style="fill:#3B3344;" d="M770.2,952.9v3.7L682.5,906v-3.7c0-0.2,0-0.3,0-0.5l87.7,50.6C770.2,952.6,770.2,952.8,770.2,952.9
			z"/>
		<path style="fill:#3B3344;" d="M770.2,971.2c0,0.4,0,0.7-0.1,1.1l-87.6-50.6c0-0.4-0.1-0.8-0.1-1.2v-3l87.7,50.7L770.2,971.2
			L770.2,971.2z"/>
		<path style="fill:#3B3344;" d="M688.8,897.5l75,43.3c2.3,1.3,4.3,4.2,5.5,7.3l-85.9-49.6C684.5,896.6,686.5,896.1,688.8,897.5z"/>
		<polygon style="fill:#3B3344;" points="770.2,964.4 682.5,913.7 682.5,909.8 770.2,960.5 		"/>
		<path style="fill:#3B3344;" d="M763.8,976.1l-75-43.3c-2.1-1.2-4-3.7-5.1-6.5l85.2,49.2C767.8,977,765.9,977.3,763.8,976.1z"/>
		<path style="fill:#86808E;" d="M769.3,948.1c0.5,1.4,0.8,2.9,0.9,4.4l-87.7-50.6c0.1-1.4,0.4-2.5,0.9-3.3L769.3,948.1z"/>
		<polygon style="fill:#86808E;" points="770.2,960.5 682.5,909.8 682.5,906 770.2,956.6 		"/>
		<polygon style="fill:#86808E;" points="770.2,968.2 682.5,917.6 682.5,913.7 770.2,964.4 		"/>
		<path style="fill:#86808E;" d="M769,975.5l-85.2-49.2c-0.6-1.5-1-3-1.2-4.5l87.6,50.6C770,973.7,769.6,974.8,769,975.5z"/>
	</g>
	<path style="fill:#FF9C00;" d="M660.6,881.1l11.3,7.2c3.5,2,6.4,7.7,6.4,12.3v18.3c0,4.7-2.9,6.8-6.4,4.8l-11.3-7.2V881.1z"/>
	<path style="fill:#FF9C00;" d="M780.6,950.5l11.2,6.5v35.3l-11.2-6.5c-3.5-2-6.4-7.5-6.4-12.2v-18.3
		C774.2,950.6,777.1,948.4,780.6,950.5z"/>
	<path style="fill:#FFFFFF;" d="M777,958.3c0,4.4,2.7,9.6,6,11.5s6-0.1,6-4.5s-2.7-9.6-6-11.5C779.7,951.8,777,953.8,777,958.3z"/>
	<path style="fill:#FFFFFF;" d="M779.7,976.7c0,3.5,2.1,7.5,4.7,8.9c2.6,1.5,4.7-0.1,4.7-3.5c0-3.5-2.1-7.5-4.7-8.9
		C781.8,971.7,779.7,973.3,779.7,976.7z"/>
	<path style="fill:#FFFFFF;" d="M663,892.1c0,4.4,2.7,9.6,6,11.5s6-0.1,6-4.5s-2.7-9.6-6-11.5C665.7,885.6,663,887.7,663,892.1z"/>
	<path style="fill:#FFFFFF;" d="M665.7,910.5c0,3.5,2.1,7.5,4.7,8.9c2.6,1.5,4.7-0.1,4.7-3.5c0-3.5-2.1-7.5-4.7-8.9
		C667.8,905.5,665.7,907.1,665.7,910.5z"/>
	<g>
		<path style="fill:#0C76BF;" d="M686.3,808.8l-14.6,46.1l-1.8-1l13.3-43.8c0.7-2.3,2.8-3.6,5-3.5
			C687.4,806.9,686.6,807.7,686.3,808.8z"/>
		<path style="fill:#3B3344;" d="M779.6,929.8l-104.2-59.9c-5.2-3-7.6-9.1-5.9-14.9l0.4-1.2l120.9,69.9l-0.5,1.8
			C789,930,783.8,932.1,779.6,929.8z"/>
		<path style="fill:#0C76BF;" d="M722.2,835.2c9.6,5.8,54.4,31,81.3,46.1c0,0.1,0,0.1,0,0.2L791,923.7l-107.3-62
			c1.6-5,3.2-10,4.8-14.8C694.8,826.7,708.3,826.8,722.2,835.2z"/>
		<path style="fill:#1D94DD;" d="M686.3,808.8c0.3-1,1.1-1.8,2-2.2c0.8,0,1.5,0.2,2.2,0.6l107.3,60.4c4.8,2.7,7.2,8.4,5.7,13.7
			c-26.9-15.1-71.7-40.3-81.3-46.1c-13.9-8.4-27.3-8.5-33.9,11.8c-1.5,4.8-3.2,9.8-4.8,14.8l-11.8-6.8L686.3,808.8z"/>
	</g>
	<path style="fill:#9AA89F;" d="M817,988.6c0,0,0,9.4,0,12.7c0,6.6-6.8,10.5-6.8,10.5l-1.8-14.9L817,988.6z"/>
	<g>
		<g>
			<polygon style="fill:#D7E2DC;" points="792.3,1008.9 792,1022.5 769.3,1009.3 769.5,995.8 			"/>
			<polygon style="fill:#D7E2DC;" points="652.4,928.3 675.1,941.4 675.1,954.8 652.4,941.7 			"/>
			<polygon style="fill:#3B3344;" points="769.5,995.8 769.3,1009.3 675.1,954.8 675.1,941.4 			"/>
			<polygon style="fill:#FFFFFF;" points="691,953.3 750.6,987.7 750.4,995.7 691,961.3 			"/>
		</g>
		<path style="fill:#9AA89F;" d="M792,1009.1v13.4l16.7-9.7c2-1.2,4.5-4,4.5-6.3v-9.6L792,1009.1z"/>
		<g>
			<path style="fill:#FFFFFF;" d="M817,988.6l-25,14.5l-131.1-75.7v-3.7l-8.4,4.7l139.6,80.8l17.3-10c2.6-1.5,5.5-3.4,6.8-6.1
				L817,988.6z"/>
		</g>
	</g>
	<path style="fill:#FFFFFF;" d="M755.8,994.8c0,2.6,1.6,5.6,3.5,6.7s3.5-0.1,3.5-2.7s-1.6-5.6-3.5-6.7S755.8,992.2,755.8,994.8z"/>
	<path style="fill:#FFFFFF;" d="M679,950.4c0,2.6,1.6,5.6,3.5,6.7s3.5-0.1,3.5-2.7s-1.6-5.6-3.5-6.7S679,947.8,679,950.4z"/>
	<polygon style="fill:#D7E2DC;" points="825,862.8 919,808.5 787.9,732.8 694,787.1 	"/>
	<path style="fill:#B1BCB5;" d="M831.5,839.2l73.8-38.8V784c0,0-24.4,11.9-45.6,21.6C838.5,815.2,831.5,839.2,831.5,839.2z"/>
	<path style="fill:#FFFFFF;" d="M831.5,839.2c0,0,3.3-12.4,19.8-24.6c13.5-10,54-30.6,54-30.6l-102.9-59.4c0,0-39.8,20.7-53.5,30.2
		c-18.2,12.6-20.3,25-20.3,25L831.5,839.2z"/>
	<g>
		<path style="fill:#0C76BF;" d="M824,873.2l17-9.8c1.9-1.1,3.6-0.5,4.3,1.2c-0.5,0-1,0.2-1.6,0.5l-17,9.8c-2.7,1.5-4.8,5.7-4.8,9.2
			v30.1c0,1,0.2,1.8,0.5,2.4c-1.8,0.2-3.2-1.4-3.2-4.2v-30.1C819.2,878.8,821.4,874.7,824,873.2z"/>
		<path style="fill:#1D94DD;" d="M822,884.1c0-3.5,2.2-7.7,4.8-9.2l17-9.8c0.6-0.3,1.1-0.5,1.6-0.5c0.3,0.7,0.5,1.5,0.5,2.4v30.1
			c0,3.5-2.2,7.7-4.8,9.2l-17,9.8c-0.6,0.3-1.1,0.5-1.6,0.5c-0.3-0.7-0.5-1.5-0.5-2.4V884.1z"/>
	</g>
	<g>
		<polygon style="fill:#FFFFFF;" points="819.9,981.4 828.4,976.5 828.4,965.1 819.9,970 		"/>
		<polygon style="fill:#9AA89F;" points="817.6,968.7 819.9,970 819.9,981.4 817.6,980.1 		"/>
		<polygon style="fill:#D7E2DC;" points="817.6,968.7 826.1,963.8 828.4,965.2 819.9,970 		"/>
	</g>
	<g>
		<polygon style="fill:#FFFFFF;" points="902.2,932.4 910.7,927.5 910.7,916.1 902.2,921 		"/>
		<polygon style="fill:#9AA89F;" points="899.9,919.7 902.2,921 902.2,932.4 899.9,931.1 		"/>
		<polygon style="fill:#D7E2DC;" points="899.9,919.7 908.4,914.8 910.7,916.2 902.2,921 		"/>
	</g>
	<g>
		<path style="fill:#FFFFFF;" d="M1149.6,619.6l6.5-3.8c7.1-4.1,11.6-2,11.6,8.6s-4.5,18.2-11.3,22.1l-6.8,4L1149.6,619.6
			L1149.6,619.6z M1155.9,641.2c3.9-2.2,6.6-6.3,6.6-13.7s-2.7-8.1-6.6-5.9l-1,0.6v19.6L1155.9,641.2z"/>
		<path style="fill:#FFFFFF;" d="M1172.1,606.6l14.5-8.4v5.9l-9.3,5.3v6.2l7.9-4.5v5.8l-7.9,4.5v7.1l9.6-5.5v5.9l-14.9,8.6
			L1172.1,606.6L1172.1,606.6z"/>
		<path style="fill:#FFFFFF;" d="M1191.5,595.4l5.2-3v25l9.1-5.3v5.9l-14.4,8.3L1191.5,595.4L1191.5,595.4z"/>
		<path style="fill:#FFFFFF;" d="M1209.8,584.8l5.2-3v30.9l-5.2,3V584.8z"/>
		<path style="fill:#FFFFFF;" d="M1217.5,580.4l5.5-3.2l2.8,12.8c0.7,3,1.1,5.8,1.8,8.8l0.1-0.1c0.7-3.8,1.2-7.2,1.8-11l2.7-16
			l5.4-3.1l-7,34.9l-6.3,3.6L1217.5,580.4z"/>
		<path style="fill:#FFFFFF;" d="M1240.1,567.3l14.5-8.4v5.9l-9.3,5.3v6.2l7.9-4.5v5.8l-7.9,4.5v7.1l9.6-5.5v5.9l-14.9,8.6
			L1240.1,567.3L1240.1,567.3z"/>
		<path style="fill:#FFFFFF;" d="M1272,579.8l-4.4-8.6l-2.8,1.6V584l-5.2,3v-30.9l8.3-4.8c4.9-2.8,8.9-2.9,8.9,4.5
			c0,4.5-1.7,8.4-4.1,11.3l5.2,9.3L1272,579.8z M1264.7,567.3l2.7-1.5c2.7-1.6,4.2-4,4.2-7s-1.5-3.2-4.2-1.6l-2.7,1.5V567.3z"/>
		<path style="fill:#FFFFFF;" d="M1284.7,561.5l-7-15.9l5.6-3.2l2.1,5.9c0.6,2,1.2,3.8,1.9,5.7l0.1-0.1c0.6-2.7,1.3-5.2,1.9-7.9
			l2.1-8.3l5.5-3.2l-7,23.9v11l-5.2,3V561.5z"/>
	</g>
</g>
<g>
	<path style="fill:#4D4D4D;" d="M480.1,937.1c0,0-1.9,2.1-4.4,4.5c-2.3,2.3-3.1,2.9-5.2,5.1c-1.3,1.2-0.2,2.4,2.2,2.3
		c2.1-0.1,7-1.1,9.6-2.1c1.9-0.7,5.4-2.6,7.2-3.8c1.8-1.1,2.1-2.7,2.1-2.7v-3.8L480.1,937.1z"/>
	<path style="fill:#4D4D4D;" d="M514.7,933.8c0,0-1.2,1.8-3.7,4.2c-2.3,2.3-3,3.2-5.1,5.9c-0.5,0.6-0.8,2.4,1.7,2.3
		c2.1-0.1,5.4-1,8.1-2c3.1-1.1,5.7-4.2,7.5-5.3s2.6-3.6,2.6-3.6l-1.2-3.8L514.7,933.8z"/>
	<path style="fill:#0E6989;" d="M513.7,871.9c0.9-14-6.8-21.3-6.8-21.3c0.6-4.7-21.2,1.9-21.2,1.9s-4.7,25.3-6.7,38.7
		c-2.2,15.2-0.9,46-0.9,46s0.3,3.3,5.9,3.3c4.3,0,7.5-3.8,7.5-3.8l0.5-35.1l5-24.9c0,0,4.8,20.2,6.4,27.5c1.6,7.7,7.9,30.6,7.9,30.6
		s4,4.7,9.1,2.1s4-5.3,4-5.3s-1-16.2-7.4-30.7C516.4,889.8,513.3,878.3,513.7,871.9z"/>
	<path style="fill:#DD1D35;" d="M488.7,815.8c0,0-3.1-0.2-6.4,5.9c-3.2,6.1-6.3,12.5-6.3,12.5s4.7,0.7,9.8,5.4
		C492.8,833.3,493.9,818.7,488.7,815.8z"/>
	<path style="fill:#FC2E3D;" d="M488.7,815.8c0,0-1.8,3.4-3.4,9.5s-1,34.9-1,34.9s6.7,4.7,17.8,3.8c6.6-0.5,10-4.7,10-4.7
		s4-28.2,3.4-32.2s-9-13.5-9-13.5S495.4,813.1,488.7,815.8z"/>
	<g>
		<path style="fill:#FFAD97;" d="M496.3,811.8l-1.3,7.5c0,0,3.9,4.3,7.6,1.1c3.8-3.2,4.3-4.7,4.3-4.7l-1.9-10.3L496.3,811.8z"/>
		<path style="fill:#FFC5B3;" d="M501.6,794.1c-3.2-2.5-10.8-3.2-13.6,4.6c-2.9,8.2,4.5,18.5,8.5,16.8c2.2-1,6.9-4.5,8.2-8.8
			C506.2,801.9,504.1,796,501.6,794.1z"/>
		<path style="fill:#4D4D4D;" d="M487.3,801.4c1.3,1.3,3.3,2.8,7.2,2.2c3.3-0.5,5.6-2.1,5.6-2.1l0.7,4.4c0,0,0.6-0.1,1.1-0.4
			c0.1-1.7,0.7-2.3,1.6-1.8c1.1,0.6,1.1,3,1.1,3s3.2-3.1,2.1-8.1c-0.7-3.1-4.8-9.1-10.6-8.6c-5.8,0.5-9.1,4.4-9.9,7.7
			C486.1,799.4,486.7,800.8,487.3,801.4z"/>
	</g>
	<g>
		<polygon style="fill:#DBA763;" points="470.9,885 470.9,855.1 495,843.1 495,871.3 		"/>
		<polygon style="fill:#E8B679;" points="470.9,885 470.9,855.1 446.8,843.1 446.8,871.3 		"/>
		<polygon style="fill:#DBA763;" points="470.9,885.3 470.9,855.1 495,841.2 495,871.3 		"/>
		<polygon style="fill:#E8B679;" points="470.9,885.3 470.9,855.1 446.8,841.2 446.8,871.3 		"/>
		<polygon style="fill:#FFE1C0;" points="446.8,841.2 470.9,855.1 495,841.2 470.9,827.2 		"/>
		<g>
			<polygon style="fill:#4D4D4D;" points="486,855.1 480.7,858.2 480.7,849.4 486,846.3 			"/>
			<polygon style="fill:#6D6D6D;" points="486,846.3 462,832.4 456.6,835.5 480.7,849.5 			"/>
			<polygon style="fill:#4D4D4D;" points="474.1,881 474.1,879.4 482.2,874.7 482.2,876.3 			"/>
			<polygon style="fill:#4D4D4D;" points="474.1,878.2 474.1,876.6 482.2,871.9 482.2,873.5 			"/>
			<polygon style="fill:#4D4D4D;" points="489.5,866.9 489.5,872.3 493.3,870 493.3,864.6 			"/>
			<polygon style="fill:#4D4D4D;" points="452.1,866.3 452.1,871.9 448.2,869.7 448.2,864.1 			"/>
			<polygon style="fill:#4D4D4D;" points="457.4,869.4 457.4,875 453.5,872.8 453.5,867.2 			"/>
			<polygon style="fill:#FFFFFF;" points="456.2,849.9 456.2,858 448.2,853.4 448.2,845.3 			"/>
			<polygon style="fill:#4D4D4D;" points="455.2,851.6 455.2,850.3 448.9,846.7 448.9,847.9 			"/>
		</g>
	</g>
	<path style="fill:#FFC5B3;" d="M501,841.8c0,0-4.6,9.6-6.5,12.3s-9.6,8.8-11.1,9.7s-5.2,2-7.1,1.8s-3.2,0.8-1.3,1.4
		c1.8,0.7,3.6,0.8,3.6,0.8s-3.3,2.5-4.6,4.5c-1.1,1.7-2,4.8,2.1,3.9c3.3-0.7,7.9-5.8,9.1-6.9c2.3-2.1,11.3-7,13.3-8.4
		c2.9-2,11-14,11-14S506.9,840.5,501,841.8z"/>
	<path style="fill:#DD1D35;" d="M514.1,823.7c-2.4-1.9-7.4,4.5-10.1,8.6s-4.8,10.1-4.8,10.1s3.2,2.3,6.1,4.2c2.4,1.5,5,2.7,5,2.7
		S522.2,830.3,514.1,823.7z"/>
</g>
</svg>
