<?xml version="1.0" encoding="utf-8"?>
<!-- Generator: Adobe Illustrator 23.1.1, SVG Export Plug-In . SVG Version: 6.00 Build 0)  -->
<svg version="1.1" id="Layer_1" xmlns="http://www.w3.org/2000/svg" xmlns:xlink="http://www.w3.org/1999/xlink" x="0px" y="0px"
	 viewBox="0 0 1606.63 1202.41" enable-background="new 0 0 1606.63 1202.41" xml:space="preserve">
<linearGradient id="SVGID_1_" gradientUnits="userSpaceOnUse" x1="0.01" y1="2324.7927" x2="1606.5901" y2="2324.7927" gradientTransform="matrix(1 0 0 -1 0 2926)">
	<stop  offset="0.0721" style="stop-color:#FF2E63;stop-opacity:0.6"/>
	<stop  offset="0.7394" style="stop-color:#FF2E63"/>
</linearGradient>
<path opacity="0.71" fill="url(#SVGID_1_)" enable-background="new    " d="M1606.59,0v779.86c0,0-85.25,123.58-238.83,237.08
	c-45.14,33.36-96.19,65.86-152.71,94.08c-187.29,93.52-434.68,140.2-726.56,16.55c-0.93-0.4-1.87-0.79-2.8-1.2
	c-2.86-1.22-5.73-2.46-8.6-3.72C328.74,1057.81,169.04,948.88,0.01,779.86V0H1606.59z"/>
<g>
	<g>
		<defs>
			<path id="SVGID_2_" d="M1606.62,0v779.86c0,0-85.25,123.58-238.83,237.08c-45.14,33.36-96.19,65.86-152.71,94.08
				c-187.29,93.52-434.68,140.2-726.56,16.55c-0.93-0.4-1.87-0.79-2.8-1.2c-2.86-1.22-5.73-2.46-8.6-3.72
				C328.77,1057.81,169.07,948.88,0.04,779.86V0H1606.62z"/>
		</defs>
		<clipPath id="SVGID_3_">
			<use xlink:href="#SVGID_2_"  overflow="visible"/>
		</clipPath>
		<path opacity="0.12" clip-path="url(#SVGID_3_)" enable-background="new    " d="M1507.93,1097.95
			c-60.79,71.15-118.17-47.79-194.28,12.4c-252.23,199.47-585.4,299.04-978.48,35.3c-1.25-0.85-2.52-1.69-3.77-2.56
			c-3.85-2.6-7.72-5.25-11.58-7.93L121.31,502.53l1320.54,385.95L1507.93,1097.95z"/>
	</g>
	<g>
		<defs>
			<path id="SVGID_4_" d="M1606.62,0v779.86c0,0-85.25,123.58-238.83,237.08c-45.14,33.36-96.19,65.86-152.71,94.08
				c-187.29,93.52-434.68,140.2-726.56,16.55c-0.93-0.4-1.87-0.79-2.8-1.2c-2.86-1.22-5.73-2.46-8.6-3.72
				C328.77,1057.81,169.07,948.88,0.04,779.86V0H1606.62z"/>
		</defs>
		<clipPath id="SVGID_5_">
			<use xlink:href="#SVGID_4_"  overflow="visible"/>
		</clipPath>
		<g clip-path="url(#SVGID_5_)">
			<g>
				<polygon fill="#CC2756" points="452.11,697.89 782.12,507.23 782.12,238.54 452.11,417.65 				"/>
				<polygon fill="#FF2E63" points="452.11,417.65 279.89,277.57 122.29,238.8 122.29,507.34 166.35,532.75 182.07,521.82 
					383.45,638.29 383.45,658.3 452.11,697.89 				"/>
				<polygon fill="#707070" points="122.29,226.95 276.97,269.19 606.88,78.62 452.11,36.37 				"/>
				<polygon fill="#4D4D4D" points="276.97,269.19 606.88,78.62 782.12,227.13 452.11,417.65 				"/>
				<polygon fill="#D3D3D3" points="182.07,521.82 383.45,638.29 383.45,452.3 182.06,335.99 				"/>
				<g>
					<polygon fill="#B7B7B7" points="685.58,325.45 617.11,364.98 617.11,398.74 685.58,359.18 					"/>
					<polygon fill="#E2E2E2" points="685.58,363.47 673.23,358.12 617.11,390.6 617.11,403.18 					"/>
					<polygon fill="#919191" points="685.58,363.47 673.23,358.12 673.23,332.59 685.58,325.45 					"/>
				</g>
				<g>
					<polygon fill="#B7B7B7" points="767.27,278.19 698.81,317.73 698.81,351.48 767.27,311.92 					"/>
					<polygon fill="#E2E2E2" points="767.27,316.22 754.92,310.86 698.81,343.34 698.81,355.92 					"/>
					<polygon fill="#919191" points="767.27,316.22 754.92,310.86 754.92,285.33 767.27,278.19 					"/>
				</g>
				<polygon fill="#CC2756" points="183.63,336.79 166.35,326.81 166.35,532.75 183.63,522.8 				"/>
				<g>
					<path fill="#4D4D4D" d="M270.04,353.8c0.8-0.38-14.86,7.86-16.4,27.01c14.97,10.03,32.21,7.96,33.17,6.86
						C288.92,375.08,283.16,359.25,270.04,353.8z"/>
					<path fill="#707070" d="M270.04,353.8c-18.05-8.76-23.51,10.7-23.51,10.7s-3.09,8.93,6.3,15.74
						C258.43,359.11,270.04,353.8,270.04,353.8z"/>
				</g>
				<polygon fill="#D3D3D3" points="122.29,226.95 122.29,239.24 276.73,284.3 452.11,429.79 452.11,417.65 276.97,269.19 				"/>
				<polygon fill="#AAAAAA" points="452.11,417.65 452.11,429.79 782.12,239.16 782.12,227.13 				"/>
				<polygon fill="#AAAAAA" points="452.11,697.89 452.11,678 782.12,487.42 782.12,507.23 				"/>
				<polygon fill="#D3D3D3" points="452.11,678 452.11,697.89 383.45,658.3 383.45,638.29 				"/>
				<polygon fill="#D3D3D3" points="166.35,532.75 166.35,512.84 122.29,487.38 122.29,507.34 				"/>
				<polygon fill="#AAAAAA" points="183.63,502.9 166.35,512.84 166.35,532.75 183.63,522.8 				"/>
				<g>
					<polygon fill="#AAAAAA" points="183.63,358.39 183.63,365.32 383.45,480.8 383.45,473.83 					"/>
					<polygon fill="#AAAAAA" points="183.63,381.04 183.63,387.96 383.45,503.44 383.45,496.48 					"/>
					<polygon fill="#AAAAAA" points="183.63,403.68 183.63,410.61 383.45,526.09 383.45,519.11 					"/>
					<polygon fill="#AAAAAA" points="183.63,426.33 183.63,433.25 383.45,548.73 383.45,541.76 					"/>
					<polygon fill="#AAAAAA" points="183.63,448.97 183.63,455.9 383.45,571.38 383.45,564.41 					"/>
					<polygon fill="#AAAAAA" points="183.63,471.62 183.63,478.54 383.45,594.02 383.45,587.06 					"/>
					<polygon fill="#AAAAAA" points="183.63,494.27 183.63,501.19 383.45,616.67 383.45,609.71 					"/>
				</g>
				<g>
					<polygon fill="#AAAAAA" points="287.58,263.07 132.91,220.82 137.42,218.21 292.03,260.49 					"/>
					<polygon fill="#AAAAAA" points="303.46,253.88 148.79,211.64 153.3,209.02 307.92,251.3 					"/>
					<polygon fill="#AAAAAA" points="319.34,244.7 164.66,202.45 169.18,199.84 323.8,242.12 					"/>
					<polygon fill="#AAAAAA" points="335.13,235.59 180.45,193.34 184.98,190.73 339.59,233.01 					"/>
					<polygon fill="#AAAAAA" points="351.02,226.42 196.34,184.17 200.85,181.57 355.46,223.85 					"/>
					<polygon fill="#AAAAAA" points="366.86,217.25 212.18,175 216.69,172.39 371.32,214.68 					"/>
					<polygon fill="#AAAAAA" points="382.72,208.11 228.04,165.86 232.55,163.25 387.17,205.53 					"/>
					<polygon fill="#AAAAAA" points="398.56,198.94 243.88,156.69 248.41,154.09 403.02,196.37 					"/>
					<polygon fill="#AAAAAA" points="414.42,189.77 259.75,147.53 264.26,144.91 418.88,187.2 					"/>
					<polygon fill="#AAAAAA" points="430.27,180.63 275.6,138.38 280.11,135.77 434.73,178.05 					"/>
					<polygon fill="#AAAAAA" points="446.11,171.46 291.44,129.21 295.95,126.61 450.57,168.89 					"/>
					<polygon fill="#AAAAAA" points="461.99,162.32 307.31,120.07 311.84,117.46 466.45,159.74 					"/>
					<polygon fill="#AAAAAA" points="477.83,153.15 323.17,110.91 327.68,108.29 482.29,150.57 					"/>
					<polygon fill="#AAAAAA" points="493.72,143.98 339.04,101.73 343.55,99.13 498.17,141.41 					"/>
					<polygon fill="#AAAAAA" points="509.54,134.84 354.87,92.59 359.38,89.98 514,132.26 					"/>
					<polygon fill="#AAAAAA" points="525.4,125.69 370.73,83.44 375.25,80.84 529.86,123.12 					"/>
					<polygon fill="#AAAAAA" points="541.25,116.52 386.57,74.27 391.09,71.66 545.7,113.95 					"/>
					<polygon fill="#AAAAAA" points="557.11,107.36 402.44,65.11 406.95,62.5 561.57,104.78 					"/>
					<polygon fill="#AAAAAA" points="572.94,98.21 418.26,55.96 422.77,53.36 577.4,95.64 					"/>
					<polygon fill="#AAAAAA" points="588.8,89.04 434.12,46.8 438.63,44.18 593.25,86.47 					"/>
				</g>
				<g>
					<polygon fill="#707070" points="287.58,263.06 462.72,411.51 467.17,408.96 292.04,260.48 					"/>
					<polygon fill="#707070" points="303.44,253.89 478.59,402.35 483.03,399.79 307.9,251.32 					"/>
					<polygon fill="#707070" points="319.3,244.74 494.44,393.2 498.88,390.64 323.75,242.17 					"/>
					<polygon fill="#707070" points="335.15,235.59 510.29,384.04 514.73,381.48 339.6,233.01 					"/>
					<polygon fill="#707070" points="351,226.43 526.14,374.88 530.59,372.32 355.46,223.86 					"/>
					<polygon fill="#707070" points="366.86,217.27 542.01,365.73 546.45,363.17 371.32,214.69 					"/>
					<polygon fill="#707070" points="382.72,208.11 557.86,356.57 562.3,354.01 387.17,205.54 					"/>
					<polygon fill="#707070" points="398.57,198.96 573.71,347.42 578.16,344.86 403.03,196.39 					"/>
					<polygon fill="#707070" points="414.42,189.81 589.57,338.25 594.01,335.69 418.88,187.23 					"/>
					<polygon fill="#707070" points="430.29,180.64 605.43,329.1 609.87,326.54 434.74,178.07 					"/>
					<polygon fill="#707070" points="446.14,171.49 621.28,319.95 625.72,317.39 450.59,168.91 					"/>
					<polygon fill="#707070" points="461.99,162.33 637.13,310.78 641.58,308.23 466.45,159.76 					"/>
					<polygon fill="#707070" points="477.84,153.17 652.99,301.63 657.43,299.07 482.3,150.6 					"/>
					<polygon fill="#707070" points="493.71,144.02 668.85,292.47 673.28,289.91 498.16,141.44 					"/>
					<polygon fill="#707070" points="509.56,134.86 684.7,283.32 689.14,280.76 514.01,132.29 					"/>
					<polygon fill="#707070" points="525.41,125.71 700.55,274.16 705,271.6 529.87,123.14 					"/>
					<polygon fill="#707070" points="541.26,116.54 716.41,265 720.85,262.44 545.72,113.97 					"/>
					<polygon fill="#707070" points="557.13,107.39 732.31,255.85 736.75,253.29 561.58,104.82 					"/>
					<polygon fill="#707070" points="572.98,98.19 748.18,246.7 752.63,244.14 577.43,95.61 					"/>
					<polygon fill="#707070" points="588.83,89.04 764.03,237.55 768.47,234.99 593.29,86.47 					"/>
				</g>
			</g>
			<g>
				<polygon fill="#CC2756" points="781.92,888.35 1111.93,697.69 1111.93,429 781.92,608.11 				"/>
				<polygon fill="#FF2E63" points="781.92,608.11 609.7,468.03 452.1,429.26 452.1,697.8 496.17,723.21 511.88,712.28 
					713.27,828.75 713.27,848.76 781.92,888.35 				"/>
				<polygon fill="#707070" points="452.1,417.41 606.78,459.66 936.7,269.08 781.92,226.83 				"/>
				<polygon fill="#4D4D4D" points="606.78,459.66 936.7,269.08 1111.93,417.59 781.92,608.11 				"/>
				<polygon fill="#EAEAEA" points="511.88,712.28 713.27,828.75 713.27,642.76 511.87,526.45 				"/>
				<g>
					<polygon fill="#B7B7B7" points="1015.4,515.91 946.92,555.44 946.92,589.2 1015.4,549.64 					"/>
					<polygon fill="#E2E2E2" points="1015.4,553.93 1003.05,548.58 946.92,581.06 946.92,593.64 					"/>
					<polygon fill="#919191" points="1015.4,553.93 1003.05,548.58 1003.05,523.05 1015.4,515.91 					"/>
				</g>
				<g>
					<polygon fill="#B7B7B7" points="1097.09,468.65 1028.62,508.19 1028.62,541.94 1097.09,502.38 					"/>
					<polygon fill="#E2E2E2" points="1097.09,506.68 1084.74,501.32 1028.62,533.8 1028.62,546.38 					"/>
					<polygon fill="#919191" points="1097.09,506.68 1084.74,501.32 1084.74,475.79 1097.09,468.65 					"/>
				</g>
				<polygon fill="#CC2756" points="513.44,527.25 496.17,517.27 496.17,723.21 513.44,713.26 				"/>
				<g>
					<path fill="#4D4D4D" d="M599.86,544.26c0.8-0.38-14.86,7.86-16.4,27.01c14.97,10.03,32.21,7.96,33.17,6.86
						C618.74,565.54,612.98,549.71,599.86,544.26z"/>
					<path fill="#707070" d="M599.86,544.26c-18.05-8.76-23.51,10.7-23.51,10.7s-3.09,8.93,6.3,15.74
						C588.24,549.57,599.86,544.26,599.86,544.26z"/>
				</g>
				<polygon fill="#D3D3D3" points="452.1,417.41 452.1,429.7 606.55,474.76 781.92,620.25 781.92,608.11 606.78,459.66 				"/>
				<polygon fill="#AAAAAA" points="781.92,608.11 781.92,620.25 1111.93,429.62 1111.93,417.59 				"/>
				<polygon fill="#AAAAAA" points="781.92,888.35 781.92,868.46 1111.93,677.88 1111.93,697.69 				"/>
				<polygon fill="#D3D3D3" points="781.92,868.46 781.92,888.35 713.27,848.76 713.27,828.75 				"/>
				<polygon fill="#D3D3D3" points="496.17,723.21 496.17,703.3 452.1,677.84 452.1,697.8 				"/>
				<polygon fill="#AAAAAA" points="513.44,693.36 496.17,703.3 496.17,723.21 513.44,713.26 				"/>
				<g>
					<polygon fill="#AAAAAA" points="617.4,453.53 462.72,411.28 467.23,408.67 621.85,450.95 					"/>
					<polygon fill="#AAAAAA" points="633.27,444.34 478.61,402.1 483.12,399.48 637.73,441.76 					"/>
					<polygon fill="#AAAAAA" points="649.16,435.16 494.48,392.91 498.99,390.3 653.62,432.58 					"/>
					<polygon fill="#AAAAAA" points="664.95,426.05 510.27,383.8 514.79,381.19 669.41,423.47 					"/>
					<polygon fill="#AAAAAA" points="680.83,416.88 526.15,374.63 530.66,372.03 685.28,414.31 					"/>
					<polygon fill="#AAAAAA" points="696.67,407.71 541.99,365.47 546.51,362.85 701.13,405.14 					"/>
					<polygon fill="#AAAAAA" points="712.54,398.57 557.86,356.32 562.37,353.71 716.98,395.99 					"/>
					<polygon fill="#AAAAAA" points="728.38,389.4 573.7,347.15 578.22,344.55 732.84,386.83 					"/>
					<polygon fill="#AAAAAA" points="744.24,380.23 589.56,337.99 594.07,335.37 748.7,377.67 					"/>
					<polygon fill="#AAAAAA" points="760.08,371.09 605.41,328.84 609.93,326.23 764.54,368.51 					"/>
					<polygon fill="#AAAAAA" points="775.92,361.92 621.25,319.67 625.77,317.07 780.38,359.35 					"/>
					<polygon fill="#AAAAAA" points="791.81,352.78 637.13,310.53 641.65,307.92 796.27,350.2 					"/>
					<polygon fill="#AAAAAA" points="807.65,343.61 652.98,301.37 657.49,298.75 812.11,341.03 					"/>
					<polygon fill="#AAAAAA" points="823.53,334.44 668.85,292.19 673.37,289.59 827.98,331.87 					"/>
					<polygon fill="#AAAAAA" points="839.35,325.3 684.68,283.05 689.2,280.44 843.81,322.72 					"/>
					<polygon fill="#AAAAAA" points="855.22,316.15 700.55,273.9 705.06,271.3 859.68,313.58 					"/>
					<polygon fill="#AAAAAA" points="871.07,306.98 716.39,264.73 720.9,262.12 875.52,304.41 					"/>
					<polygon fill="#AAAAAA" points="886.92,297.82 732.25,255.57 736.76,252.96 891.38,295.24 					"/>
					<polygon fill="#AAAAAA" points="902.75,288.67 748.07,246.42 752.59,243.82 907.21,286.1 					"/>
					<polygon fill="#AAAAAA" points="918.61,279.5 763.94,237.26 768.45,234.64 923.06,276.93 					"/>
				</g>
				<g>
					<polygon fill="#707070" points="617.4,453.52 792.54,601.98 796.99,599.42 621.86,450.94 					"/>
					<polygon fill="#707070" points="633.25,444.36 808.4,592.81 812.84,590.25 637.71,441.79 					"/>
					<polygon fill="#707070" points="649.12,435.2 824.25,583.66 828.69,581.1 653.56,432.63 					"/>
					<polygon fill="#707070" points="664.97,426.05 840.11,574.5 844.55,571.94 669.42,423.47 					"/>
					<polygon fill="#707070" points="680.82,416.89 855.96,565.34 860.41,562.79 685.28,414.32 					"/>
					<polygon fill="#707070" points="696.67,407.73 871.82,556.19 876.26,553.63 701.13,405.15 					"/>
					<polygon fill="#707070" points="712.54,398.57 887.67,547.03 892.11,544.47 716.98,396 					"/>
					<polygon fill="#707070" points="728.39,389.42 903.53,537.88 907.98,535.32 732.85,386.85 					"/>
					<polygon fill="#707070" points="744.24,380.27 919.39,528.71 923.83,526.15 748.7,377.69 					"/>
					<polygon fill="#707070" points="760.1,371.1 935.24,519.56 939.68,517 764.55,368.53 					"/>
					<polygon fill="#707070" points="775.95,361.95 951.09,510.41 955.53,507.85 780.4,359.37 					"/>
					<polygon fill="#707070" points="791.81,352.79 966.95,501.24 971.4,498.69 796.27,350.22 					"/>
					<polygon fill="#707070" points="807.66,343.64 982.81,492.09 987.25,489.53 812.12,341.07 					"/>
					<polygon fill="#707070" points="823.52,334.48 998.66,482.93 1003.1,480.37 827.97,331.9 					"/>
					<polygon fill="#707070" points="839.37,325.32 1014.51,473.78 1018.95,471.22 843.82,322.75 					"/>
					<polygon fill="#707070" points="855.23,316.17 1030.37,464.62 1034.82,462.07 859.69,313.6 					"/>
					<polygon fill="#707070" points="871.08,307 1046.23,455.46 1050.67,452.9 875.54,304.43 					"/>
					<polygon fill="#707070" points="886.94,297.85 1062.12,446.31 1066.56,443.75 891.39,295.28 					"/>
					<polygon fill="#707070" points="902.79,288.65 1078,437.16 1082.45,434.6 907.24,286.07 					"/>
					<polygon fill="#707070" points="918.65,279.5 1093.85,428.01 1098.29,425.46 923.11,276.93 					"/>
				</g>
			</g>
			<g>
				<polygon fill="#CC2756" points="1111.84,1079.13 1441.85,888.47 1441.85,619.78 1111.84,798.89 				"/>
				<polygon fill="#FF2E63" points="1111.84,798.89 939.62,658.81 782.02,620.04 782.02,888.58 826.08,913.99 841.8,903.06 
					1043.18,1019.53 1043.18,1039.54 1111.84,1079.13 				"/>
				<polygon fill="#707070" points="782.02,608.19 936.7,650.43 1266.61,459.86 1111.84,417.61 				"/>
				<polygon fill="#4D4D4D" points="936.7,650.43 1266.61,459.86 1441.85,608.37 1111.84,798.89 				"/>
				<polygon fill="#D3D3D3" points="841.8,903.06 1043.18,1019.53 1043.18,833.54 841.78,717.23 				"/>
				<g>
					<polygon fill="#B7B7B7" points="1345.31,706.69 1276.84,746.22 1276.84,779.98 1345.31,740.42 					"/>
					<polygon fill="#E2E2E2" points="1345.31,744.71 1332.96,739.36 1276.84,771.84 1276.84,784.42 					"/>
					<polygon fill="#919191" points="1345.31,744.71 1332.96,739.36 1332.96,713.83 1345.31,706.69 					"/>
				</g>
				<g>
					<polygon fill="#B7B7B7" points="1427,659.43 1358.54,698.97 1358.54,732.72 1427,693.16 					"/>
					<polygon fill="#E2E2E2" points="1427,697.46 1414.65,692.1 1358.54,724.58 1358.54,737.16 					"/>
					<polygon fill="#919191" points="1427,697.46 1414.65,692.1 1414.65,666.57 1427,659.43 					"/>
				</g>
				<polygon fill="#CC2756" points="843.36,718.03 826.08,708.05 826.08,913.99 843.36,904.04 				"/>
				<g>
					<path fill="#4D4D4D" d="M929.77,735.04c0.8-0.38-14.86,7.86-16.4,27.01c14.97,10.03,32.21,7.96,33.17,6.86
						C948.65,756.32,942.89,740.49,929.77,735.04z"/>
					<path fill="#707070" d="M929.77,735.04c-18.05-8.76-23.51,10.7-23.51,10.7s-3.09,8.93,6.3,15.74
						C918.16,740.35,929.77,735.04,929.77,735.04z"/>
				</g>
				<polygon fill="#D3D3D3" points="782.02,608.19 782.02,620.48 936.46,665.54 1111.84,811.03 1111.84,798.89 936.7,650.43 				"/>
				<polygon fill="#AAAAAA" points="1111.84,798.89 1111.84,811.03 1441.85,620.4 1441.85,608.37 				"/>
				<polygon fill="#AAAAAA" points="1111.84,1079.13 1111.84,1059.24 1441.85,868.66 1441.85,888.47 				"/>
				<polygon fill="#D3D3D3" points="1111.84,1059.24 1111.84,1079.13 1043.18,1039.54 1043.18,1019.53 				"/>
				<polygon fill="#D3D3D3" points="826.08,913.99 826.08,894.08 782.02,868.62 782.02,888.58 				"/>
				<polygon fill="#AAAAAA" points="843.36,884.14 826.08,894.08 826.08,913.99 843.36,904.04 				"/>
				<g>
					<polygon fill="#AAAAAA" points="843.36,739.63 843.36,746.56 1043.18,862.04 1043.18,855.07 					"/>
					<polygon fill="#AAAAAA" points="843.36,762.28 843.36,769.2 1043.18,884.68 1043.18,877.72 					"/>
					<polygon fill="#AAAAAA" points="843.36,784.92 843.36,791.85 1043.18,907.33 1043.18,900.35 					"/>
					<polygon fill="#AAAAAA" points="843.36,807.57 843.36,814.49 1043.18,929.97 1043.18,923 					"/>
					<polygon fill="#AAAAAA" points="843.36,830.21 843.36,837.14 1043.18,952.62 1043.18,945.65 					"/>
					<polygon fill="#AAAAAA" points="843.36,852.86 843.36,859.78 1043.18,975.26 1043.18,968.3 					"/>
					<polygon fill="#AAAAAA" points="843.36,875.51 843.36,882.43 1043.18,997.91 1043.18,990.95 					"/>
				</g>
				<g>
					<polygon fill="#AAAAAA" points="947.31,644.31 792.64,602.06 797.15,599.45 951.76,641.73 					"/>
					<polygon fill="#AAAAAA" points="963.19,635.12 808.52,592.88 813.03,590.26 967.65,632.54 					"/>
					<polygon fill="#AAAAAA" points="979.07,625.94 824.39,583.69 828.91,581.08 983.53,623.36 					"/>
					<polygon fill="#AAAAAA" points="994.86,616.83 840.18,574.58 844.7,571.97 999.32,614.25 					"/>
					<polygon fill="#AAAAAA" points="1010.74,607.66 856.07,565.41 860.58,562.81 1015.19,605.09 					"/>
					<polygon fill="#AAAAAA" points="1026.59,598.49 871.91,556.24 876.42,553.63 1031.05,595.92 					"/>
					<polygon fill="#AAAAAA" points="1042.45,589.35 887.77,547.1 892.28,544.49 1046.9,586.77 					"/>
					<polygon fill="#AAAAAA" points="1058.29,580.18 903.61,537.93 908.13,535.33 1062.75,577.61 					"/>
					<polygon fill="#AAAAAA" points="1074.15,571.01 919.47,528.77 923.99,526.15 1078.61,568.44 					"/>
					<polygon fill="#AAAAAA" points="1090,561.87 935.33,519.62 939.84,517.01 1094.46,559.29 					"/>
					<polygon fill="#AAAAAA" points="1105.84,552.7 951.17,510.45 955.68,507.85 1110.3,550.13 					"/>
					<polygon fill="#AAAAAA" points="1121.72,543.56 967.04,501.31 971.57,498.7 1126.18,540.98 					"/>
					<polygon fill="#AAAAAA" points="1137.56,534.39 982.89,492.15 987.41,489.53 1142.02,531.81 					"/>
					<polygon fill="#AAAAAA" points="1153.45,525.22 998.77,482.97 1003.28,480.37 1157.9,522.65 					"/>
					<polygon fill="#AAAAAA" points="1169.27,516.08 1014.6,473.83 1019.11,471.22 1173.73,513.5 					"/>
					<polygon fill="#AAAAAA" points="1185.13,506.93 1030.46,464.68 1034.97,462.08 1189.59,504.36 					"/>
					<polygon fill="#AAAAAA" points="1200.98,497.76 1046.3,455.51 1050.82,452.9 1205.43,495.19 					"/>
					<polygon fill="#AAAAAA" points="1216.84,488.6 1062.17,446.35 1066.68,443.74 1221.29,486.02 					"/>
					<polygon fill="#AAAAAA" points="1232.67,479.45 1077.99,437.2 1082.5,434.6 1237.13,476.88 					"/>
					<polygon fill="#AAAAAA" points="1248.53,470.28 1093.85,428.04 1098.36,425.42 1252.98,467.71 					"/>
				</g>
				<g>
					<polygon fill="#707070" points="947.31,644.3 1122.45,792.75 1126.9,790.2 951.77,641.72 					"/>
					<polygon fill="#707070" points="963.17,635.13 1138.32,783.59 1142.76,781.03 967.63,632.57 					"/>
					<polygon fill="#707070" points="979.03,625.98 1154.17,774.44 1158.61,771.88 983.48,623.41 					"/>
					<polygon fill="#707070" points="994.88,616.83 1170.02,765.28 1174.46,762.72 999.33,614.25 					"/>
					<polygon fill="#707070" points="1010.73,607.67 1185.87,756.12 1190.32,753.56 1015.19,605.1 					"/>
					<polygon fill="#707070" points="1026.59,598.51 1201.74,746.97 1206.17,744.41 1031.05,595.93 					"/>
					<polygon fill="#707070" points="1042.45,589.35 1217.59,737.81 1222.03,735.25 1046.9,586.78 					"/>
					<polygon fill="#707070" points="1058.3,580.2 1233.44,728.66 1237.89,726.1 1062.76,577.63 					"/>
					<polygon fill="#707070" points="1074.15,571.05 1249.3,719.49 1253.74,716.93 1078.61,568.47 					"/>
					<polygon fill="#707070" points="1090.02,561.88 1265.16,710.34 1269.59,707.78 1094.47,559.31 					"/>
					<polygon fill="#707070" points="1105.87,552.73 1281.01,701.19 1285.45,698.63 1110.32,550.15 					"/>
					<polygon fill="#707070" points="1121.72,543.57 1296.86,692.02 1301.31,689.47 1126.18,541 					"/>
					<polygon fill="#707070" points="1137.57,534.41 1312.72,682.87 1317.16,680.31 1142.03,531.85 					"/>
					<polygon fill="#707070" points="1153.44,525.26 1328.58,673.71 1333.01,671.15 1157.89,522.68 					"/>
					<polygon fill="#707070" points="1169.29,516.1 1344.43,664.56 1348.87,662 1173.74,513.53 					"/>
					<polygon fill="#707070" points="1185.14,506.95 1360.28,655.4 1364.73,652.84 1189.6,504.38 					"/>
					<polygon fill="#707070" points="1200.99,497.78 1376.14,646.24 1380.58,643.68 1205.45,495.21 					"/>
					<polygon fill="#707070" points="1216.86,488.63 1392.04,637.09 1396.48,634.53 1221.31,486.06 					"/>
					<polygon fill="#707070" points="1232.71,479.43 1407.91,627.94 1412.36,625.38 1237.16,476.85 					"/>
					<polygon fill="#707070" points="1248.56,470.28 1423.76,618.79 1428.2,616.23 1253.02,467.71 					"/>
				</g>
			</g>
			<g>
				<rect x="1064.98" y="941.47" fill="#4D4D4D" width="3.58" height="92.11"/>
				<rect x="1058.9" y="941.47" fill="#3A3A3A" width="6.07" height="92.11"/>
				<path fill="#4D4D4D" d="M1065.54,943.81c-11.84-6.17-28.7-49.11-1.23-32.37C1096.78,924.57,1086.68,937.09,1065.54,943.81z
					 M1063.36,937.01c1.46,6.12,24.47-9.16,15.29-12.78C1044.27,904.2,1051.28,911.59,1063.36,937.01z"/>
				<path fill="#4D4D4D" d="M1066.76,945.15c-0.04-0.08,4.88-2.27,3.73-3.06C1069.22,943.14,1063.68,944.17,1066.76,945.15z"/>
				<path fill="#4D4D4D" d="M1049.23,909.88c3.21-2.46,4.53-1.43,1.04,1.64L1049.23,909.88z"/>
				<path fill="#3A3A3A" d="M1062.48,945.53c-11.84-6.17-28.7-49.11-1.23-32.37C1093.72,926.29,1083.62,938.81,1062.48,945.53z
					 M1060.29,938.73c1.46,6.12,24.47-9.16,15.29-12.78C1041.2,905.92,1048.21,913.31,1060.29,938.73z"/>
				<g>
					<path fill="#4D4D4D" d="M1089.1,1072.18c-19.16,8.6-113.59,73.63-120.85,60.13c-21.44-7.33,87.99-57.17,101.76-68.93
						C1070.63,1059.98,1083.17,1069.17,1089.1,1072.18z"/>
					<path fill="#4D4D4D" d="M1089.1,1067.72c1.35,8.1-10.36,7.27-9.02-1.3L1089.1,1067.72z"/>
					<path fill="#4D4D4D" d="M965.05,1123.19c0.06,1.69-0.62,4.89,1.69,6.49C966.88,1127.42,968.89,1123.59,965.05,1123.19z"/>
					<path fill="#707070" d="M1089.1,1067.72c-19.16,8.6-113.59,73.63-120.85,60.13c-21.44-7.33,87.99-57.17,101.76-68.93
						C1070.63,1055.52,1083.17,1064.71,1089.1,1067.72z"/>
					<path fill="#FF9003" d="M984.59,1119.63c1.12,3.65-13.06,6.62-10.42,0.04C976.3,1117.02,982.47,1116.08,984.59,1119.63z"/>
					<path fill="#FFA543" d="M983.79,1118.83c1,3.26-11.68,5.92-9.31,0.04C976.39,1116.48,981.89,1115.65,983.79,1118.83z"/>
				</g>
				<g>
					<path fill="#4D4D4D" d="M1046.19,1047.42c-19.16,8.6-113.59,73.63-120.85,60.13c-21.44-7.33,87.99-57.17,101.76-68.93
						C1027.73,1035.22,1040.27,1044.41,1046.19,1047.42z"/>
					<path fill="#4D4D4D" d="M1046.19,1042.96c1.35,8.1-10.36,7.27-9.02-1.3L1046.19,1042.96z"/>
					<path fill="#4D4D4D" d="M922.15,1098.42c0.06,1.69-0.62,4.9,1.69,6.5C923.97,1102.66,925.98,1098.84,922.15,1098.42z"/>
					<path fill="#707070" d="M1046.19,1042.96c-19.16,8.6-113.59,73.63-120.85,60.13c-21.44-7.33,87.99-57.17,101.76-68.93
						C1027.73,1030.76,1040.27,1039.95,1046.19,1042.96z"/>
					<path fill="#FF9003" d="M941.68,1094.87c1.12,3.65-13.06,6.62-10.42,0.04C933.4,1092.26,939.57,1091.31,941.68,1094.87z"/>
					<path fill="#FFA543" d="M940.89,1094.07c1,3.26-11.68,5.92-9.31,0.04C933.48,1091.72,938.98,1090.89,940.89,1094.07z"/>
				</g>
				<path fill="#E57700" d="M1022.44,1036.87l12.83-33.76c59.06,35.16,40.9,13.56,47.22,68.45L1022.44,1036.87z"/>
				<path fill="#FF9003" d="M1082.49,1071.56c12.68,0.4,1.88-41.08,3.43-46.66C1073.48,1024.39,1084.04,1066.14,1082.49,1071.56z"/>
				<path fill="#FFA543" d="M1035.27,1003.11c39.07,22.07,43.88,28.67,50.65,21.78C1046.96,1002.86,1042.07,996.21,1035.27,1003.11z
					"/>
				<g>
					<path fill="#DBA763" d="M1020.17,1125.24c-1.13-58.62-3.17-32.46,56.86-72.09C1078.15,1111.65,1080.07,1085.58,1020.17,1125.24
						z"/>
					<path fill="#E8B679" d="M1020.17,1125.24c-0.22-59.32,10.61-28.13-81.89-86.51C938.46,1097.92,927.68,1066.79,1020.17,1125.24z
						"/>
					<path fill="#FFE1C0" d="M938.28,1038.73c110.33,60.34,59.56,55.34,138.75,14.42C966.6,992.76,1017.41,997.87,938.28,1038.73z"
						/>
					<g>
						<path fill="#4D4D4D" d="M1055.89,1086.07l-12.69,7.37c-1.13-26.74,0.44-20.15,12.69-28.15V1086.07z"/>
						<path fill="#6D6D6D" d="M1055.89,1065.29c-94.58-54.14-77.21-49.54-94.54-39.9
							C1055.86,1079.48,1038.58,1075.01,1055.89,1065.29z"/>
						<path fill="#4D4D4D" d="M1024.41,1118.74c-3.28-4.91,17.51-12.7,19.1-14.73C1046.8,1109,1026.04,1116.68,1024.41,1118.74z"/>
						<path fill="#4D4D4D" d="M1024.41,1112.2c-3.28-4.92,17.5-12.7,19.1-14.74C1046.81,1102.47,1026.05,1110.14,1024.41,1112.2z"/>
						<path fill="#4D4D4D" d="M949.77,1066.7v13.24c-13.97-5.38-7.96-11.98-9.13-18.52L949.77,1066.7z"/>
						<path fill="#4D4D4D" d="M962.24,1073.93v13.23c-13.98-5.36-7.96-11.97-9.13-18.51L962.24,1073.93z"/>
						<path fill="#4D4D4D" d="M974.86,1081.19v13.23c-13.98-5.36-7.96-11.97-9.13-18.51L974.86,1081.19z"/>
						<path fill="#FFFFFF" d="M1017.67,1087.65v19.02c-26.59-13.51-17.22-12.24-18.76-29.89L1017.67,1087.65z"/>
						<path fill="#4D4D4D" d="M1015.38,1091.54c2.7-4.1-13.44-9.96-14.77-11.61C997.93,1083.97,1014.08,1089.91,1015.38,1091.54z"/>
					</g>
				</g>
				<g>
					<polygon fill="#DBA763" points="1013.29,1070.59 1013.27,1047.63 1050.01,1026.4 1050.01,1049.3 					"/>
					<polygon fill="#E8B679" points="1013.29,1070.59 1013.27,1047.63 960.41,1017.09 960.41,1039.99 					"/>
					<path fill="#FFE1C0" d="M960.41,1017.13c70.48,39.09,39.73,35.19,89.59,9.31C979.51,987.39,1010.25,991.25,960.41,1017.13z"/>
					<g>
						<path fill="#4D4D4D" d="M1016.02,1066.4c-2.32-2.79,11.51-8.49,12.34-9.51C1030.69,1059.72,1016.87,1065.36,1016.02,1066.4z"
							/>
						<path fill="#4D4D4D" d="M1016.02,1062.17c-2.32-2.79,11.51-8.49,12.34-9.51C1030.69,1055.49,1016.87,1061.13,1016.02,1062.17z
							"/>
						<path fill="#4D4D4D" d="M969.54,1026.37v10.65c-11.16-3.98-6.47-10.37-7.36-14.91L969.54,1026.37z"/>
						<path fill="#4D4D4D" d="M979.58,1032.19v10.66c-11.15-4-6.48-10.36-7.36-14.91L979.58,1032.19z"/>
					</g>
					<path fill="#FFFFFF" d="M1010.39,1050.07v12.72c-23.43-12.35-18.45-10.8-18.76-23.59L1010.39,1050.07z"/>
					<path fill="#4D4D4D" d="M1008.1,1053.95c2.71-4.11-13.43-9.96-14.77-11.62C990.64,1046.37,1006.8,1052.32,1008.1,1053.95z"/>
					<path fill="#4D4D4D" d="M1040.71,1043.83l-12.68,7.37c-2.29-17.08,5.96-14.01,12.68-19.44V1043.83z"/>
					<path fill="#6D6D6D" d="M1040.71,1031.76c-60.91-35.11-49.29-32.57-65.55-23.16
						C1036.09,1043.66,1024.51,1041.25,1040.71,1031.76z"/>
				</g>
			</g>
			<g>
				<g>
					<g>
						<path fill="#AFAFAF" d="M408.58,715.93c2.97,12.95,9.73,5.7,8.44-4.81C416.84,711.49,409.36,715.29,408.58,715.93z"/>
						<g>
							<path fill="#3A3A3A" d="M418.91,720.92c1.32,5.18-10.07,10.58-9.3,1.32C410.39,718.26,417.03,715.12,418.91,720.92z"/>
							<path fill="#3A3A3A" d="M413.47,728.18l-2.24-1.28c1.59-1.33,4.73-11.84,7.81-7.64L413.47,728.18z"/>
							<path fill="#4D4D4D" d="M420.96,722.1c1.32,5.18-10.07,10.58-9.3,1.32C412.44,719.44,419.1,716.3,420.96,722.1z"/>
						</g>
						<path fill="#AFAFAF" d="M411.52,716.94c4,19.59,9.06,3.83,7.79-5.55L411.52,716.94z"/>
						<path fill="#FFFFFF" d="M417.06,723.9C416.51,723.15,416.03,723.32,417.06,723.9C417.78,724.55,413.9,726.28,417.06,723.9z"/>
					</g>
					<g>
						<path fill="#AFAFAF" d="M347.73,680.97c2.97,12.95,9.73,5.7,8.44-4.81C355.99,676.53,348.51,680.33,347.73,680.97z"/>
						<g>
							<path fill="#3A3A3A" d="M358.06,685.96c1.32,5.18-10.07,10.58-9.3,1.32C349.54,683.29,356.18,680.16,358.06,685.96z"/>
							<path fill="#3A3A3A" d="M352.62,693.23l-2.24-1.3c1.59-1.33,4.73-11.82,7.81-7.64L352.62,693.23z"/>
							<path fill="#4D4D4D" d="M360.11,687.13c1.32,5.18-10.07,10.58-9.3,1.32C351.59,684.47,358.25,681.34,360.11,687.13z"/>
						</g>
						<path fill="#AFAFAF" d="M350.67,681.97c4,19.59,9.06,3.83,7.79-5.55L350.67,681.97z"/>
						<path fill="#FFFFFF" d="M356.21,688.94C355.66,688.19,355.18,688.36,356.21,688.94C356.93,689.58,353.05,691.33,356.21,688.94
							z"/>
					</g>
					<g>
						<path fill="#AFAFAF" d="M443.31,695.86c2.97,12.95,9.73,5.7,8.44-4.81C451.57,691.42,444.09,695.23,443.31,695.86z"/>
						<g>
							<path fill="#3A3A3A" d="M453.66,700.85c1.32,5.18-10.07,10.58-9.3,1.32C445.14,698.19,451.77,695.05,453.66,700.85z"/>
							<path fill="#3A3A3A" d="M448.21,708.13l-2.24-1.3c1.59-1.33,4.73-11.82,7.81-7.64L448.21,708.13z"/>
							<path fill="#4D4D4D" d="M455.7,702.04c1.32,5.18-10.07,10.58-9.3,1.32C447.18,699.38,453.84,696.24,455.7,702.04z"/>
						</g>
						<path fill="#AFAFAF" d="M446.27,696.87c4,19.59,9.06,3.83,7.79-5.55L446.27,696.87z"/>
						<path fill="#FFFFFF" d="M451.8,703.84C451.26,703.08,450.77,703.25,451.8,703.84C452.52,704.47,448.64,706.23,451.8,703.84z"
							/>
					</g>
					<g>
						<path fill="#AFAFAF" d="M406.44,584.3c-0.64-2.46,15.82-34.85,7.27-33.38c-18.23,37.46-9.35,81.13-11.22,110.11
							C411.04,664.18,404.52,586.01,406.44,584.3z"/>
						<path fill="#AFAFAF" d="M455.16,573.81c-19.03,39.82-9.85,81.07-11.78,111.66c8.4,2.83,2.13-65.38,3.95-75.83
							C444.98,608.99,464.13,572.79,455.16,573.81z"/>
					</g>
					<g>
						<path fill="#D3D3D3" d="M458.79,685.16c-77.65,43.53-36.04,36.06-118.55-6.12C417.91,635.53,376.3,643,458.79,685.16z"/>
						<path fill="#7C7C7C" d="M404.82,716.36v4.66c2.49-3.13,60.3-30.29,53.97-35.87L404.82,716.36z"/>
						<path fill="#AFAFAF" d="M404.82,721.03c6.52-6.2-63.74-39.32-64.58-41.98C333.72,685.26,403.98,718.35,404.82,721.03z"/>
					</g>
					<path fill="#AFAFAF" d="M444.95,637.34l-40.12-23.13c-5.16,6.08,38.81,25.07,40.12,27.61V637.34z"/>
					<path fill="#AFAFAF" d="M444.95,624.95l-40.12-23.13c-5.16,6.08,38.81,25.07,40.12,27.61V624.95z"/>
					<path fill="#7C7C7C" d="M465.23,576.72c-4.38-0.78-65.76-42.51-56.27-27.88C413.33,549.62,474.71,591.35,465.23,576.72z"/>
				</g>
				<g>
					<polygon fill="#DBA763" points="399.32,706.04 399.31,677.72 440.4,653.96 440.4,682.23 					"/>
					<polygon fill="#E8B679" points="399.32,706.04 399.31,677.72 358.21,653.96 358.21,682.23 					"/>
					<path fill="#FFE1C0" d="M358.21,653.95c58.07,33.73,31.66,25.1,82.19,0C382.36,620.23,408.73,628.88,358.21,653.95z"/>
					<g>
						<path fill="#4D4D4D" d="M425.13,677.75l-9.16,5.32c-1.68-18.95,2.67-15.94,9.16-20.33V677.75z"/>
						<polygon fill="#6D6D6D" points="425.13,662.73 384.09,639 374.9,644.31 415.96,668.08 						"/>
						<path fill="#4D4D4D" d="M404.75,698.69c-2.43-3.5,12.76-9.25,13.8-10.65C421,691.6,405.83,697.27,404.75,698.69z"/>
						<path fill="#4D4D4D" d="M404.75,693.96c-2.43-3.5,12.76-9.25,13.8-10.65C421,686.87,405.83,692.54,404.75,693.96z"/>
						<path fill="#4D4D4D" d="M430.93,674.7v9.17c9.73-3.44,5.95-8.87,6.6-13L430.93,674.7z"/>
						<path fill="#4D4D4D" d="M366.49,675.27c0.21,7.85,1.11,13.66-6.27,4.8C358.14,667.24,361.37,672.88,366.49,675.27z"/>
						<path fill="#4D4D4D" d="M375.5,680.5c0.21,7.85,1.11,13.66-6.27,4.8C367.15,672.47,370.37,678.1,375.5,680.5z"/>
						<path fill="#FFFFFF" d="M397.53,678.89v13.74c-19.56-9.19-12.34-11.18-13.57-21.6L397.53,678.89z"/>
						<path fill="#4D4D4D" d="M395.86,681.7c2.09-2.62-9.84-7.43-10.67-8.39C383.12,675.89,395.05,680.75,395.86,681.7z"/>
					</g>
				</g>
				<g>
					<path fill="#DBA763" d="M400.03,672.75c0.01-58.5-5.64-35.8,33.71-61.7C433.73,669.5,439.29,646.82,400.03,672.75z"/>
					<path fill="#E8B679" d="M400.03,672.75c-0.04-58.49,5.61-35.81-33.73-61.7C366.3,669.51,360.75,646.82,400.03,672.75z"/>
					<path fill="#FFE1C0" d="M366.29,611.05c47.33,28.3,28.03,19.28,67.44,0C386.41,582.74,405.71,591.78,366.29,611.05z"/>
					<g>
						<path fill="#4D4D4D" d="M421.21,630.56l-7.53,4.36c-1.57-15.75,2.79-13.31,7.53-16.68V630.56z"/>
						<path fill="#6D6D6D" d="M421.21,618.25c-6.5-2.16-35.24-26.11-41.22-15.12C386.5,605.29,415.24,629.3,421.21,618.25z"/>
						<path fill="#4D4D4D" d="M404.48,666.71c-2.12-2.55,10.58-7.81,11.32-8.74C417.94,660.56,405.25,665.76,404.48,666.71z"/>
						<path fill="#4D4D4D" d="M404.48,662.82c-2.12-2.55,10.57-7.8,11.32-8.73C417.94,656.69,405.25,661.87,404.48,662.82z"/>
						<path fill="#4D4D4D" d="M425.97,647.02c0.08,5.63-1.45,10.82,4.9,4.13C433.47,640.39,429.66,645.19,425.97,647.02z"/>
						<path fill="#4D4D4D" d="M373.71,646.23c-0.1,5.49,1.53,11.45-4.94,4.34C366.24,639.29,370.15,644.6,373.71,646.23z"/>
						<path fill="#4D4D4D" d="M381.1,650.51c-0.1,5.49,1.53,11.45-4.94,4.35C373.63,643.58,377.54,648.88,381.1,650.51z"/>
						<path fill="#FFFFFF" d="M379.43,623.3v11.28c-15.77-7.01-10.26-10.12-11.13-17.72L379.43,623.3z"/>
						<path fill="#4D4D4D" d="M378.07,625.6c1.7-2.16-8.07-6.09-8.76-6.88C367.62,620.85,377.39,624.82,378.07,625.6z"/>
					</g>
				</g>
				<g>
					<path fill="#DBA763" d="M401.44,626.49c-4.02-23.45,14.23-21.12,25.21-30.31C430.7,619.6,412.21,617.42,401.44,626.49z"/>
					<path fill="#E8B679" d="M401.44,626.49c4.74-23.45-18.33-23.27-29.46-32.77C367.22,617.2,390.29,616.98,401.44,626.49z"/>
					<path fill="#FFE1C0" d="M371.97,593.72c39.93,23.43,23.95,17.97,54.67,2.45C386.73,572.73,402.69,578.24,371.97,593.72z"/>
					<g>
						<path fill="#4D4D4D" d="M403.32,623.61c-1.57-1.92,7.89-5.83,8.46-6.54C413.36,619.02,403.91,622.89,403.32,623.61z"/>
						<path fill="#4D4D4D" d="M403.32,620.7c-1.56-1.91,7.9-5.83,8.46-6.53C413.36,616.12,403.91,619.98,403.32,620.7z"/>
						<path fill="#4D4D4D" d="M378.28,600.11c0.01,5.64,1.21,10.5-4.63,3.98C371.43,593.9,374.74,598.38,378.28,600.11z"/>
					</g>
					<path fill="#FFFFFF" d="M399.45,612.39v8.74c-6.64-3.29-15.7-7.58-12.89-16.2L399.45,612.39z"/>
					<path fill="#4D4D4D" d="M397.87,615.06c1.98-2.5-9.34-7.06-10.14-7.97C385.77,609.54,397.1,614.16,397.87,615.06z"/>
					<path fill="#4D4D4D" d="M420.27,608.12l-8.71,5.05c-1.94-11.62,5.19-10.21,8.71-13.35V608.12z"/>
					<path fill="#6D6D6D" d="M420.27,599.82c-7.54-3.08-30.86-23.43-38.15-11.97C389.66,590.92,413.01,611.35,420.27,599.82z"/>
				</g>
			</g>
		</g>
	</g>
</g>
<g>
	<g>
		<path fill="#504759" d="M611.75,939.99c0,0-2.12,2.3-4.95,5.06c-2.62,2.55-3.43,3.29-5.86,5.66c-1.42,1.38-0.25,2.66,2.45,2.55
			c2.38-0.09,7.76-1.25,10.77-2.33c2.14-0.77,6.06-2.94,8.06-4.2c2-1.27,2.39-3.03,2.39-3.03v-4.26L611.75,939.99z"/>
		<path fill="#504759" d="M650.44,936.21c0,0-1.35,1.98-4.18,4.74c-2.62,2.55-3.39,3.56-5.71,6.61c-0.53,0.7-0.84,2.68,1.87,2.58
			c2.38-0.09,6-1.1,9.01-2.18c3.44-1.22,6.34-4.69,8.35-5.96c2-1.27,2.89-4.07,2.89-4.07l-1.38-4.2L650.44,936.21z"/>
		<path fill="#0C76BF" d="M649.36,867.15c1-15.62-7.61-23.83-7.61-23.83c0.69-5.26-23.73,2.1-23.73,2.1s-5.23,28.3-7.44,43.2
			c-2.51,16.94-0.99,51.43-0.99,51.43s0.32,3.68,6.62,3.66c4.84-0.02,8.41-4.26,8.41-4.26l0.5-39.25l5.61-27.84
			c0,0,5.4,22.62,7.11,30.74c1.82,8.64,8.8,34.19,8.8,34.19s4.52,5.19,10.12,2.39c5.61-2.8,4.51-5.94,4.51-5.94
			s-1.1-18.12-8.31-34.35C652.37,887.07,648.9,874.32,649.36,867.15z"/>
		<path fill="#D83232" d="M621.36,804.41c0,0-3.49-0.17-7.1,6.6c-3.6,6.77-7.05,13.98-7.05,13.98s5.25,0.75,10.96,6.01
			C625.98,823.94,627.26,807.71,621.36,804.41z"/>
		<path fill="#EF5454" d="M621.36,804.41c0,0-1.97,3.76-3.77,10.67s-1.16,39.03-1.16,39.03s7.44,5.26,19.91,4.23
			c7.41-0.61,11.19-5.2,11.19-5.2s4.43-31.46,3.83-35.97c-0.6-4.51-10.03-15.09-10.03-15.09S628.87,801.45,621.36,804.41z"/>
		<path fill="#FFAD97" d="M629.89,800.02l-1.45,8.44c0,0,4.3,4.82,8.5,1.22c4.21-3.6,4.81-5.26,4.81-5.26l-2.07-11.5L629.89,800.02z
			"/>
		<g>
			<path fill="#0C76BF" d="M631.74,823.91c0,0,5.43-8.17,9.73-10.46c4.3-2.29,6.61-2.72,6.61-2.72s-1.56-3.23-2.61-3.6
				c-1.82,0.27-3,0.77-6.86,2.78c-3.87,2-8.1,6.87-9.79,9.85C625.41,825.77,629.24,827.38,631.74,823.91z"/>
			<path fill="#0C76BF" d="M623.02,803.67c0,0-3.54,8.44-3.97,12.49c-0.43,4.06,0.38,5.3,2.02,5.45s1.72-2.75,2.2-5.98
				c0.46-3.05,3.44-13.07,3.44-13.07L623.02,803.67z"/>
			<path fill="#0C76BF" d="M648.15,848.7c0,0-3.96,3.13-7.89,2.7c-3.44-0.38-8.39-3.72-8.13-14.61c0.26-10.88,1.27-15.89,1.27-15.89
				l-13.15-5.76c0,0-3.57,8.27-4.28,24.48c-0.7,16.22-1,21.8-1,21.8s14.03,0.86,22.34,0c8.3-0.86,11.78-1.89,11.78-1.89
				L648.15,848.7z"/>
			<path fill="#FFFFFF" d="M621.7,818.11c0,0.67-0.37,1.21-0.83,1.21s-0.83-0.54-0.83-1.21c0-0.67,0.37-1.21,0.83-1.21
				C621.33,816.91,621.7,817.45,621.7,818.11z"/>
			<path fill="#FFFFFF" d="M629.58,821.79c-0.39,0.54-0.4,1.2-0.03,1.47s0.99,0.05,1.38-0.5c0.39-0.54,0.4-1.2,0.03-1.47
				S629.97,821.25,629.58,821.79z"/>
			<path fill="#1D94DD" d="M619.12,823.37c-0.54,2.72-0.27,11.28,4.58,12.57c4.4,1.17,5.54-4.02,6.55-8.03
				C624.56,826.62,619.12,823.37,619.12,823.37z"/>
		</g>
		<path fill="#FFC5B3" d="M635.82,780.24c-3.59-2.74-12.1-3.61-15.2,5.18c-3.26,9.22,5.08,20.73,9.53,18.77
			c2.49-1.1,7.72-4.99,9.2-9.84C641.01,788.89,638.61,782.36,635.82,780.24z"/>
		<g>
			<polygon fill="#DBA763" points="601.5,880.57 601.5,847.14 628.44,833.71 628.44,865.24 			"/>
			<polygon fill="#E8B679" points="601.5,880.57 601.5,847.14 574.56,833.71 574.56,865.24 			"/>
			<polygon fill="#DBA763" points="601.51,880.85 601.5,847.14 628.44,831.56 628.44,865.24 			"/>
			<polygon fill="#E8B679" points="601.51,880.85 601.5,847.14 574.56,831.56 574.56,865.24 			"/>
			<polygon fill="#FFE1C0" points="574.56,831.56 601.5,847.14 628.44,831.56 601.51,815.99 			"/>
			<g>
				<polygon fill="#504759" points="618.43,847.16 612.42,850.65 612.42,840.81 618.43,837.32 				"/>
				<polygon fill="#6D6477" points="618.43,837.32 591.52,821.76 585.5,825.24 612.42,840.82 				"/>
				<polygon fill="#504759" points="605.07,876.03 605.07,874.3 614.11,869.05 614.11,870.81 				"/>
				<polygon fill="#504759" points="605.07,872.93 605.07,871.2 614.11,865.95 614.11,867.71 				"/>
				<polygon fill="#504759" points="622.23,860.3 622.23,866.32 626.56,863.81 626.56,857.8 				"/>
				<polygon fill="#504759" points="580.49,859.68 580.49,865.94 576.16,863.44 576.16,857.18 				"/>
				<polygon fill="#504759" points="586.39,863.1 586.39,869.37 582.06,866.87 582.06,860.6 				"/>
				<polygon fill="#FFFFFF" points="585.05,841.36 585.05,850.36 576.16,845.23 576.16,836.21 				"/>
				<polygon fill="#504759" points="583.96,843.2 583.96,841.73 576.97,837.7 576.97,839.14 				"/>
			</g>
		</g>
		<path fill="#FFC5B3" d="M635.1,833.5c0,0-5.1,10.73-7.21,13.72c-2.11,2.99-10.7,9.82-12.46,10.81s-5.81,2.25-7.92,2.05
			c-2.11-0.2-3.54,0.83-1.5,1.6c2.04,0.77,4.01,0.95,4.01,0.95s-3.71,2.74-5.18,5.08c-1.18,1.88-2.18,5.33,2.38,4.33
			c3.69-0.81,8.81-6.46,10.15-7.72c2.53-2.38,12.6-7.82,14.87-9.43c3.22-2.28,12.32-15.7,12.32-15.7S641.75,832.09,635.1,833.5z"/>
		<path fill="#D83232" d="M649.76,813.3c-2.64-2.13-8.3,5.08-11.31,9.59c-3,4.51-5.41,11.25-5.41,11.25s3.62,2.63,6.86,4.67
			c2.71,1.71,5.58,3.01,5.58,3.01S658.83,820.61,649.76,813.3z"/>
		<path fill="#504759" d="M619.89,788.34c1.48,1.51,3.64,3.19,8.1,2.45c3.65-0.6,6.26-2.3,6.26-2.3l0.75,4.88
			c0,0,0.73-0.13,1.28-0.47c0.08-1.93,0.77-2.53,1.83-1.96c1.2,0.65,1.25,3.4,1.25,3.4s3.63-3.5,2.4-9.01
			c-0.76-3.43-5.4-10.21-11.86-9.61c-6.46,0.6-10.22,4.87-11.02,8.57C618.47,786.15,619.22,787.66,619.89,788.34z"/>
		<g>
			<path fill="#0C76BF" d="M618.58,784.11c0,0-8.3,5.85-9.73,7.08c-1.43,1.24,6.56,6.63,12.22,4.83s14.18-8.1,14.18-8.1
				L618.58,784.11z"/>
			<path fill="#1D94DD" d="M618.58,784.11c0,0,9.47,5.88,15.37,4.2c5.91-1.69,7.51-3.15,7.51-3.15s-0.51-12.35-11.37-12.35
				C619.23,772.8,618.58,784.11,618.58,784.11z"/>
			<path fill="#0C76BF" d="M630.58,773.2c0,0.5-0.73,0.9-1.63,0.9s-1.63-0.4-1.63-0.9s0.73-0.9,1.63-0.9S630.58,772.7,630.58,773.2z
				"/>
		</g>
	</g>
	<g>
		<g>
			<g>
				<polygon fill="#FFAC33" points="619.55,963.58 555.32,1000.69 557.32,1001.95 621.74,964.75 				"/>
				<polygon fill="#E88900" points="621.74,964.74 557.32,1001.94 557.32,1011.1 621.74,973.91 				"/>
				<polygon fill="#FF9C00" points="555.32,1009.95 555.32,1000.69 557.32,1001.94 557.32,1011.1 				"/>
			</g>
			<g>
				<polygon fill="#FFAC33" points="547.85,921.99 483.62,959.1 485.63,960.36 550.04,923.16 				"/>
				<polygon fill="#E88900" points="550.04,923.16 485.63,960.35 485.63,969.52 550.04,932.32 				"/>
				<polygon fill="#FF9C00" points="483.62,968.37 483.62,959.1 485.63,960.35 485.63,969.52 				"/>
			</g>
			<g>
				<polygon fill="#FFAC33" points="582.66,941.76 518.43,978.87 520.44,980.13 584.85,942.93 				"/>
				<polygon fill="#E88900" points="584.85,942.93 520.44,980.12 520.44,989.28 584.85,952.09 				"/>
				<polygon fill="#FF9C00" points="518.43,988.14 518.43,978.87 520.44,980.12 520.44,989.28 				"/>
			</g>
			<g>
				<polygon fill="#FF9C00" points="557.32,999.14 483.62,956.58 483.62,959.55 557.32,1002.1 				"/>
				<polygon fill="#FFAC33" points="565.05,994.82 557.32,999.14 483.62,956.58 491.31,952.26 				"/>
				<polygon fill="#E88900" points="565.05,994.82 557.32,999.14 557.32,1004.66 565.05,1000.16 				"/>
			</g>
			<g>
				<polygon fill="#FF9C00" points="571.7,990.67 497.79,947.93 497.79,950.9 571.7,993.63 				"/>
				<polygon fill="#FFAC33" points="579.42,986.35 571.7,990.67 497.79,947.93 505.48,943.61 				"/>
				<polygon fill="#E88900" points="579.42,986.35 571.7,990.67 571.7,996.19 579.42,991.69 				"/>
			</g>
			<g>
				<polygon fill="#FF9C00" points="586.41,982.33 512.33,939.5 512.33,942.47 586.41,985.29 				"/>
				<polygon fill="#FFAC33" points="594.14,978.01 586.41,982.33 512.33,939.5 520.02,935.18 				"/>
				<polygon fill="#E88900" points="594.14,978.01 586.41,982.33 586.41,987.85 594.14,983.35 				"/>
			</g>
			<g>
				<polygon fill="#FF9C00" points="600.79,973.86 526.88,931.3 526.88,934.27 600.79,976.82 				"/>
				<polygon fill="#FFAC33" points="608.51,969.54 600.79,973.86 526.88,931.3 534.57,926.98 				"/>
				<polygon fill="#E88900" points="608.51,969.54 600.79,973.86 600.79,979.38 608.51,974.88 				"/>
			</g>
			<g>
				<polygon fill="#FF9C00" points="614.01,966.43 539.93,923.69 539.93,926.65 614.01,969.39 				"/>
				<polygon fill="#FFAC33" points="621.74,962.11 614.01,966.43 539.93,923.69 547.61,919.37 				"/>
				<polygon fill="#E88900" points="621.74,962.11 614.01,966.43 614.01,971.95 621.74,967.45 				"/>
			</g>
		</g>
		<g>
			<polygon fill="#DBA763" points="524.44,974.64 524.45,951.69 491.15,932.44 491.15,955.34 			"/>
			<polygon fill="#E8B679" points="524.44,974.64 524.45,951.69 572.37,924 572.37,946.9 			"/>
			<polygon fill="#FFE1C0" points="572.37,924 524.45,951.69 491.15,932.44 539.09,904.76 			"/>
			<g>
				<polygon fill="#504759" points="503.53,951.71 510.95,956.03 510.95,943.86 503.53,939.55 				"/>
				<polygon fill="#6D6477" points="503.53,939.55 551.42,911.89 558.87,916.19 510.95,943.88 				"/>
				<polygon fill="#504759" points="521.95,970.84 521.95,968.7 510.77,962.22 510.77,964.39 				"/>
				<polygon fill="#504759" points="521.95,967.01 521.95,964.87 510.77,958.38 510.77,960.56 				"/>
				<polygon fill="#504759" points="565.64,940.38 565.64,948.12 570.99,945.03 570.99,937.29 				"/>
				<polygon fill="#504759" points="558.35,944.61 558.35,952.35 563.69,949.27 563.69,941.52 				"/>
				<polygon fill="#504759" points="550.96,948.85 550.96,956.6 556.3,953.51 556.3,945.77 				"/>
				<polygon fill="#FFFFFF" points="525.89,952.64 525.89,963.77 536.88,957.42 536.88,946.28 				"/>
				<polygon fill="#504759" points="527.24,954.92 527.24,953.1 535.88,948.12 535.88,949.9 				"/>
			</g>
		</g>
		<g>
			<polygon fill="#DBA763" points="560.99,996.08 561,973.13 527.7,953.88 527.7,976.79 			"/>
			<polygon fill="#E8B679" points="560.99,996.08 561,973.13 608.93,945.44 608.93,968.34 			"/>
			<polygon fill="#FFE1C0" points="608.93,945.44 561,973.13 527.7,953.88 575.64,926.2 			"/>
			<g>
				<polygon fill="#504759" points="540.08,973.16 547.51,977.47 547.51,965.31 540.08,960.99 				"/>
				<polygon fill="#6D6477" points="540.08,960.99 587.98,933.33 595.42,937.63 547.51,965.32 				"/>
				<polygon fill="#504759" points="558.51,992.28 558.51,990.14 547.33,983.66 547.33,985.83 				"/>
				<polygon fill="#504759" points="558.51,988.45 558.51,986.31 547.33,979.83 547.33,982 				"/>
				<polygon fill="#504759" points="602.2,961.82 602.2,969.57 607.54,966.48 607.54,958.73 				"/>
				<polygon fill="#504759" points="594.9,966.05 594.9,973.8 600.25,970.71 600.25,962.96 				"/>
				<polygon fill="#504759" points="587.51,970.3 587.51,978.04 592.86,974.95 592.86,967.21 				"/>
				<polygon fill="#FFFFFF" points="562.45,974.08 562.45,985.21 573.44,978.86 573.44,967.72 				"/>
				<polygon fill="#504759" points="563.79,976.36 563.79,974.55 572.44,969.56 572.44,971.34 				"/>
			</g>
		</g>
		<g>
			<polygon fill="#DBA763" points="524.44,949.32 524.45,926.37 491.15,907.12 491.15,930.02 			"/>
			<polygon fill="#E8B679" points="524.44,949.32 524.45,926.37 572.37,898.68 572.37,921.58 			"/>
			<polygon fill="#FFE1C0" points="572.37,898.68 524.45,926.37 491.15,907.12 539.09,879.44 			"/>
			<g>
				<polygon fill="#504759" points="503.53,926.39 510.95,930.7 510.95,918.54 503.53,914.23 				"/>
				<polygon fill="#6D6477" points="503.53,914.23 551.42,886.57 558.87,890.87 510.95,918.56 				"/>
				<polygon fill="#504759" points="521.95,945.52 521.95,943.38 510.77,936.89 510.77,939.07 				"/>
				<polygon fill="#504759" points="521.95,941.69 521.95,939.55 510.77,933.06 510.77,935.24 				"/>
				<polygon fill="#504759" points="565.64,915.06 565.64,922.8 570.99,919.71 570.99,911.97 				"/>
				<polygon fill="#504759" points="558.35,919.29 558.35,927.03 563.69,923.94 563.69,916.2 				"/>
				<polygon fill="#504759" points="550.96,923.53 550.96,931.28 556.3,928.19 556.3,920.44 				"/>
				<polygon fill="#FFFFFF" points="525.89,927.32 525.89,938.45 536.88,932.1 536.88,920.96 				"/>
				<polygon fill="#504759" points="527.24,929.59 527.24,927.78 535.88,922.8 535.88,924.58 				"/>
			</g>
		</g>
		<g>
			<polygon fill="#DBA763" points="560.99,970.76 561,947.81 527.7,928.56 527.7,951.46 			"/>
			<polygon fill="#E8B679" points="560.99,970.76 561,947.81 608.93,920.12 608.93,943.02 			"/>
			<polygon fill="#FFE1C0" points="608.93,920.12 561,947.81 527.7,928.56 575.64,900.88 			"/>
			<g>
				<polygon fill="#504759" points="540.08,947.84 547.51,952.15 547.51,939.98 540.08,935.67 				"/>
				<polygon fill="#6D6477" points="540.08,935.67 587.98,908.01 595.42,912.31 547.51,940 				"/>
				<polygon fill="#504759" points="558.51,966.96 558.51,964.82 547.33,958.34 547.33,960.51 				"/>
				<polygon fill="#504759" points="558.51,963.13 558.51,960.99 547.33,954.5 547.33,956.68 				"/>
				<polygon fill="#504759" points="602.2,936.5 602.2,944.24 607.54,941.16 607.54,933.41 				"/>
				<polygon fill="#504759" points="594.9,940.73 594.9,948.48 600.25,945.39 600.25,937.64 				"/>
				<polygon fill="#504759" points="587.51,944.97 587.51,952.72 592.86,949.63 592.86,941.89 				"/>
				<polygon fill="#FFFFFF" points="562.45,948.76 562.45,959.89 573.44,953.54 573.44,942.4 				"/>
				<polygon fill="#504759" points="563.79,951.04 563.79,949.22 572.44,944.24 572.44,946.02 				"/>
			</g>
		</g>
	</g>
	<g>
		<polygon fill="#DBA763" points="559.82,943.31 559.8,914.52 601.57,890.38 601.57,919.11 		"/>
		<polygon fill="#E8B679" points="559.82,943.31 559.8,914.52 499.69,879.79 499.69,908.52 		"/>
		<polygon fill="#FFE1C0" points="499.69,879.79 559.8,914.52 601.57,890.37 541.44,855.66 		"/>
		<g>
			<polygon fill="#504759" points="586.04,914.55 576.73,919.96 576.73,904.71 586.04,899.3 			"/>
			<polygon fill="#6D6477" points="586.04,899.3 525.97,864.6 516.63,870 576.73,904.72 			"/>
			<polygon fill="#504759" points="562.93,938.54 562.93,935.86 576.95,927.72 576.95,930.45 			"/>
			<polygon fill="#504759" points="562.93,933.74 562.93,931.05 576.95,922.92 576.95,925.65 			"/>
			<polygon fill="#504759" points="508.13,900.33 508.13,910.05 501.43,906.18 501.43,896.46 			"/>
			<polygon fill="#504759" points="517.28,905.64 517.28,915.36 510.58,911.48 510.58,901.77 			"/>
			<polygon fill="#504759" points="526.55,910.97 526.55,920.68 519.85,916.81 519.85,907.09 			"/>
			<polygon fill="#FFFFFF" points="557.99,915.71 557.99,929.68 544.21,921.71 544.21,907.73 			"/>
			<polygon fill="#504759" points="556.3,918.57 556.3,916.3 545.46,910.04 545.46,912.28 			"/>
		</g>
	</g>
	<g>
		<polygon fill="#DBA763" points="513.17,912.08 513.17,895.22 540.13,879.63 540.13,896.45 		"/>
		<polygon fill="#E8B679" points="513.17,912.08 513.17,895.22 474.35,872.8 474.35,889.61 		"/>
		<polygon fill="#FFE1C0" points="474.35,872.83 513.17,895.25 540.13,879.66 501.31,857.25 		"/>
		<g>
			<polygon fill="#504759" points="515.19,909 515.19,907.26 524.24,902.01 524.24,903.77 			"/>
			<polygon fill="#504759" points="515.19,905.9 515.19,904.16 524.24,898.91 524.24,900.67 			"/>
			<polygon fill="#504759" points="481.05,879.61 481.05,887.43 475.65,884.31 475.65,876.49 			"/>
			<polygon fill="#504759" points="488.42,883.88 488.42,891.71 483.02,888.59 483.02,880.76 			"/>
		</g>
		<polygon fill="#FFFFFF" points="511.05,897.01 511.05,906.35 497.27,898.38 497.27,889.03 		"/>
		<polygon fill="#504759" points="509.37,899.86 509.37,897.59 498.52,891.34 498.52,893.57 		"/>
		<polygon fill="#504759" points="533.32,892.44 524,897.84 524,888.98 533.32,883.57 		"/>
		<polygon fill="#6D6477" points="533.32,883.57 494.55,861.15 485.19,866.56 524,889 		"/>
	</g>
	<g>
		<path fill="#FFC5B3" d="M471.77,899.45c2.24-7.59,3.38-15.95-0.4-22.1l-8.21,0.19c0,0-3.31,7.21-4.16,12.59
			c-0.85,5.38,0.39,7.94,2.53,10.49c2.14,2.55,9.77-0.85,10.05-1.04C471.59,899.58,471.69,899.51,471.77,899.45z"/>
		<path fill="#504759" d="M494.25,1017.33c0,0,8.82-3.93,13.18-4.12c4.36-0.19,4.78,4.94,0,8.91s-8.45,4.5-12.36,6.11
			c-3.53,1.45-4.8,1.56-7.61-0.26c-3.76-2.44-0.75-8.88-0.75-8.88L494.25,1017.33z"/>
		<path fill="#504759" d="M468.75,1002.22c0,0,7-2.93,11.37-3.12c4.36-0.19,5.93,3.58,1.14,7.55c-4.78,3.97-7.78,4.85-11.69,6.46
			c-3.53,1.45-4.78,1.54-7.61-0.26c-3.86-2.45-0.84-8.89-0.75-8.88L468.75,1002.22z"/>
		<path fill="#0C76BF" d="M494.8,915.35c0,0,7.7,41.58,7.7,54.64c0,23.02-0.2,47.27-0.2,47.27s-3.82,4.01-7.53,4.02
			c-8.36,0.02-9.2-4.18-9.2-4.18s-0.12-27.44-0.84-39.9c-0.51-8.67-1.01-20.89-4.5-30.96c-0.1,10.35-0.07,13.67-0.92,24.94
			c-0.63,8.31-4.09,30.63-4.28,32.08c-2.65,3.2-10.86,5.41-15.03,0.72c0.33-3.67,2.64-29.45,2.33-42.82
			c-0.28-12.28-3.41-41.36,3.61-47.02C472.01,909.23,494.8,915.35,494.8,915.35z"/>
		<path fill="#FFAC33" d="M473.54,888.85c-0.38-6.12-1.32-9.7-1.32-9.7l4.09-13.02c0,0-5.74-2.91-9.61,1.71
			c-1.61,1.92-4.57,7.7-7.15,13.09C461.53,884.39,466.93,889.07,473.54,888.85z"/>
		<path fill="#FFC5B3" d="M484.97,840.62c-3.07-2.13-8.96-1.46-11.52,3.94c-1.42,2.99,0.58,11.04,0.9,16.69
			c0.26,4.56-1.27,7.19-1.27,7.19s0,0,3.91,1.61s7.98,0,7.98,0l-0.13-6.95c0,0,4.21-0.63,4.95-1.3c1.77-1.63,2.71-6.46,1.89-12.7
			C490.46,839.82,486.1,841.4,484.97,840.62z"/>
		<path fill="#E88900" d="M495.52,890.5c2.31-4.92-2.92-13.86-4.39-17.07s-6.16-5.17-6.16-5.17s-6.42-2.33-8.66-2.66
			c-0.98-0.15-4.36-0.36-4.36-0.36s-7.47,11.75-8.29,18.22c-0.58,4.53,1.89,19.34,0.06,33.93c-0.97,7.72,28.16,5.54,30.72,2.4
			C492.94,912.47,490.81,900.56,495.52,890.5z"/>
		<path fill="#0C76BF" d="M463.99,893.67c0.01,0.76,0.51,9.72-0.42,15.53c-0.93,5.81-1.49,14.81-1.49,14.81s8.28,6.44,17.85,5.32
			s16.19-6.69,16.19-6.69s-3.18-16.37-3-18.38s0.18-2.01,0.18-2.01s-3.67,1.74-5.99,0.76c-2.32-0.97-6.2-2.75-7.38-8.68
			c-0.83-4.21-0.29-14-0.09-16.61c-0.47-0.07-12.35-3.56-12.35-3.56S463.85,885.77,463.99,893.67z"/>
		<path fill="#504759" d="M488.76,851.56c0.47-1.56,1.53-5.17,1.8-6.63c0.31-1.69,0.4-4.21-1.91-6.61
			c-2.31-2.4-10.33-3.18-13.23-1.5s-9.07,4.74-6.91,14.74c1.74,8.08,3.43,8.99,5.87,10.89c2.13,1.66,5.89,2.07,5.89,2.07
			s2.09-1.51,2.47-4.57c0.12-0.96,0-3.89,0-3.89s-2.14-4.23-0.48-5.73c1.76-1.6,3.56,0.95,3.98,1.98
			C487.68,855.91,489.11,857.6,488.76,851.56z"/>
		<path fill="#FFC5B3" d="M527.82,902.63c0,0-8.46,0.53-16.96-1.77c-5.64-1.52-8.65-3.4-10.64-4.38c-1.09-1.92-3.08-7.96-3.08-7.96
			l-10.69,4.36c0,0,2.7,7.22,4.28,10.51c1.27,2.65,2.86,3.18,5.39,4.11c3.7,1.36,14.56,1.74,18.88,2.3
			c4.32,0.56,7.07,0.08,9.53-0.51C529.76,908.02,528.02,904.08,527.82,902.63z"/>
		<path fill="#FFAC33" d="M486.42,896.14c5.08,1.09,10.56-0.49,13.4-4.36c-2.07-9.35-5.36-19.52-9.86-21.01
			c-2.42-0.8-6.76,7.59-6.02,13.54C484.14,885.99,485.15,890.67,486.42,896.14z"/>
		<path fill="#1D94DD" d="M462.75,915.97l-0.38,4.11c0,0,5.56,4.78,17.56,5.05c12,0.27,15.92-3.83,15.92-3.83l-0.71-4.23
			c0,0-6.18,3.9-15.54,4.04C470.22,921.25,462.75,915.97,462.75,915.97z"/>
		<path fill="#0C76BF" d="M476.31,878.99c0,0,1.33-5.35,3.82-7.92c2.33-2.4,4.83-2.82,4.83-2.82s2.45,0.68,2.42,1.38
			c-1.34,0.8-3.79,1.7-5.24,4.17c-1.45,2.46-2.53,7.63-2.53,7.63L476.31,878.99z"/>
		<path fill="#0C76BF" d="M471.49,865.23c-0.13,0.05-2.31,3.32-3.9,8.57c-0.71,2.34-1.48,7.63-1.48,7.63l2.32,0.29
			c0,0,2.22-8.6,3.48-11.7c1.26-3.1,2.18-4.64,2.18-4.64L471.49,865.23z"/>
		<path fill="#FFC5B3" d="M521.79,903.86c0.25-0.12,3.02-2.63,4.03-3.81c1.01-1.17,1.85-0.88,1.51,0.44s-2.1,3.59-2.1,3.59
			s-2.56-0.22-3-0.22L521.79,903.86L521.79,903.86z"/>
		<path fill="#1D94DD" d="M484.89,838.56c5.85,0.61,8.17,4.46,5.18,8.58c-3,4.13-10.17,6.97-16.03,6.36
			c-5.85-0.61-8.17-4.46-5.18-8.58C471.86,840.79,479.03,837.94,484.89,838.56z"/>
		<path fill="#1D94DD" d="M467.73,849.59c0,0-3.48-11.88,7.07-15.46c7.58-2.58,13.29,0.43,16.36,8.21
			C493.05,847.09,467.73,849.59,467.73,849.59z"/>
		<path fill="#0C76BF" d="M487.03,850.02c0.77-0.43,4.35-4.92,3.35-9.01c-0.14-0.58-1.47-2.9-1.47-2.9s1.06-0.56,5.4,0.36
			c4.34,0.92,5.15,4.82,1.78,7.55C491.82,849.5,487.03,850.02,487.03,850.02z"/>
	</g>
</g>
<polygon fill="#AEAEAF" points="713.24,828.75 713.24,642.76 669.42,617.45 513.41,713.26 "/>
<g>
	<g>
		<defs>
			<polygon id="SVGID_6_" points="713.24,828.75 713.24,642.76 669.42,617.45 513.41,713.26 			"/>
		</defs>
		<clipPath id="SVGID_7_">
			<use xlink:href="#SVGID_6_"  overflow="visible"/>
		</clipPath>
		<g id="_x31_1_10_" clip-path="url(#SVGID_7_)">
			<g id="_x35__10_">
				<polygon id="XMLID_4615_" fill="#CC4728" points="695.11,668.41 652.13,642.97 652.13,687.52 695.11,713.19 				"/>
				<polygon id="XMLID_4614_" fill="#911C1D" points="695.11,713.19 695.11,668.41 728.86,648.61 728.86,693.84 				"/>
				<polygon id="XMLID_4613_" fill="#F47A4F" points="652.13,642.97 687.23,623.4 728.86,648.61 695.11,668.41 				"/>
				<path id="XMLID_4612_" fill="#F79762" d="M688.71,680.67L657.28,662c-1-0.6-1.8-2.17-1.78-3.52l0.07-5.23
					c0.02-1.36,0.85-1.96,1.85-1.36l31.43,18.67c1,0.6,1.8,2.17,1.78,3.52l-0.07,5.23C690.55,680.65,689.72,681.25,688.71,680.67z"
					/>
				<path id="XMLID_4611_" fill="#911C1D" d="M674.32,669.22l-6.08-3.7c-0.85-0.51-1.13-1.64-0.6-2.48l0,0
					c0.53-0.85,1.64-1.13,2.48-0.6l6.08,3.7c0.85,0.53,1.13,1.64,0.6,2.48l0,0C676.3,669.47,675.19,669.73,674.32,669.22z"/>
			</g>
			<path id="XMLID_4610_" fill="#F79762" d="M688.71,695.29l-31.43-18.67c-1-0.6-1.8-2.17-1.78-3.52l0.07-5.23
				c0.02-1.36,0.85-1.96,1.85-1.36l31.43,18.67c1,0.6,1.8,2.17,1.78,3.52l-0.07,5.23C690.55,695.27,689.72,695.87,688.71,695.29z"/>
			<path id="XMLID_4609_" fill="#911C1D" d="M674.32,683.84l-6.08-3.7c-0.85-0.53-1.13-1.64-0.6-2.48l0,0
				c0.53-0.85,1.64-1.13,2.48-0.6l6.08,3.7c0.85,0.53,1.13,1.64,0.6,2.48l0,0C676.3,684.09,675.19,684.35,674.32,683.84z"/>
		</g>
	</g>
</g>
<g id="_x31_4">
	
		<linearGradient id="XMLID_2_" gradientUnits="userSpaceOnUse" x1="651.7935" y1="1794.0631" x2="669.4736" y2="1831.2657" gradientTransform="matrix(1 0 0 1 0 -1076.1624)">
		<stop  offset="0" style="stop-color:#FFBA22"/>
		<stop  offset="1" style="stop-color:#AF2F02"/>
	</linearGradient>
	<path id="XMLID_2039_" fill="url(#XMLID_2_)" d="M664.22,725.13c11.86,7.16-5.26,13.98-13.4,9.63
		C638.94,727.59,656.08,720.78,664.22,725.13z"/>
	<path id="XMLID_2038_" fill="#911703" d="M657.53,729.5c-3.88,0.16-5.51-21.23,0-21.81C661.41,707.52,663.04,728.92,657.53,729.5z"
		/>
	
		<linearGradient id="XMLID_3_" gradientUnits="userSpaceOnUse" x1="652.5186" y1="1761.8701" x2="699.3585" y2="1870.1875" gradientTransform="matrix(1 0 0 1 0 -1076.1624)">
		<stop  offset="0" style="stop-color:#FFBA22"/>
		<stop  offset="1" style="stop-color:#AF2F02"/>
	</linearGradient>
	<path id="XMLID_2037_" fill="url(#XMLID_3_)" d="M677.94,705.06c-0.05-0.23-8.67-34.63-9.44-37.65c0.56-0.49-3.26,0.05-9.16-0.12
		c-7.86,0.23-13.84-0.56-12.91,0.44c-1.58,6.19-8.7,33.75-9.28,36.05l0,0C637.45,720.29,676.53,721.01,677.94,705.06L677.94,705.06z
		"/>
	
		<linearGradient id="XMLID_4_" gradientUnits="userSpaceOnUse" x1="643.7096" y1="1738.5526" x2="692.7179" y2="1756.0286" gradientTransform="matrix(1 0 0 1 0 -1076.1624)">
		<stop  offset="0" style="stop-color:#FFBA22"/>
		<stop  offset="1" style="stop-color:#AF2F02"/>
	</linearGradient>
	<path id="XMLID_2036_" fill="url(#XMLID_4_)" d="M664.22,662.5c11.86,7.16-5.26,13.98-13.4,9.63
		C638.94,664.96,656.08,658.15,664.22,662.5z"/>
	<path id="XMLID_2033_" fill="#FFEFAE" d="M664.22,662.5c-6.79-4-25.77,1.53-13.4,9.63C657.62,676.12,676.6,670.59,664.22,662.5z
		 M663.99,670.22c-3.63,4.14-21.93-0.51-11.02-6.81C657.13,661.31,669.25,663.75,663.99,670.22z"/>
</g>
<g>
	<polygon fill="#DBA763" points="713.75,712.59 682.82,694.71 682.82,744.98 713.75,762.91 	"/>
	<polygon fill="#FFE1C0" points="710.55,678.68 682.82,694.71 713.75,712.59 713.75,680.65 	"/>
	<polygon fill="#404A5B" points="695.2,713.99 702.62,718.3 702.62,706.14 695.2,701.82 	"/>
	<polygon fill="#596475" points="713.75,691.1 695.2,701.82 702.62,706.15 713.75,699.71 	"/>
	<polygon fill="#404A5B" points="690.49,711.51 690.49,718.95 685.15,715.85 685.15,708.42 	"/>
</g>
<g>
	<g>
		<polygon fill="#DBA763" points="674.74,788.42 674.75,765.48 641.46,746.23 641.46,769.13 		"/>
		<polygon fill="#E8B679" points="674.74,788.42 674.75,765.48 708.04,746.23 708.04,769.13 		"/>
		<polygon fill="#FFE1C0" points="708.04,746.23 674.75,765.47 641.46,746.23 674.74,726.98 		"/>
		<g>
			<polygon fill="#404A5B" points="653.83,765.5 661.26,769.81 661.26,757.65 653.83,753.34 			"/>
			<polygon fill="#596475" points="653.83,753.34 687.08,734.12 694.52,738.41 661.26,757.67 			"/>
			<polygon fill="#404A5B" points="670.34,782.46 670.34,780.32 659.16,773.84 659.16,776.01 			"/>
			<polygon fill="#404A5B" points="670.34,778.63 670.34,776.49 659.16,770.01 659.16,772.18 			"/>
			<polygon fill="#404A5B" points="649.13,763.03 649.13,770.46 643.78,767.37 643.78,759.93 			"/>
			<polygon fill="#404A5B" points="701.34,763.5 701.34,771.24 706.68,768.16 706.68,760.41 			"/>
			<polygon fill="#404A5B" points="694.04,767.73 694.04,775.47 699.39,772.39 699.39,764.64 			"/>
			<polygon fill="#FFFFFF" points="676.2,766.43 676.2,777.56 687.18,771.21 687.18,760.06 			"/>
			<polygon fill="#404A5B" points="677.54,768.7 677.54,766.89 686.19,761.91 686.19,763.69 			"/>
		</g>
	</g>
	<g>
		<polygon fill="#DBA763" points="713.67,787.88 685.48,771.58 685.48,794.48 713.67,810.82 		"/>
		<polygon fill="#FFE1C0" points="713.67,755.3 685.48,771.58 713.67,787.87 		"/>
		<g>
			<polygon fill="#404A5B" points="697.86,790.85 705.28,795.16 705.28,783 697.86,778.69 			"/>
			<polygon fill="#596475" points="713.67,769.55 697.86,778.69 705.28,783.02 713.67,778.17 			"/>
		</g>
	</g>
	<g>
		<polygon fill="#DBA763" points="713.67,763.08 701.3,755.92 701.3,769.33 713.67,776.5 		"/>
		<polygon fill="#FFE1C0" points="713.67,748.8 701.3,755.95 713.67,763.1 		"/>
		<polygon fill="#404A5B" points="713.67,763.09 706.73,759.06 706.73,766.13 713.67,770.16 		"/>
	</g>
	<g>
		<polygon fill="#DBA763" points="674.39,759.55 674.39,746.14 652.9,733.72 652.9,747.14 		"/>
		<polygon fill="#E8B679" points="674.39,759.55 674.39,746.14 699.5,731.63 699.5,745.05 		"/>
		<polygon fill="#FFE1C0" points="699.5,731.63 674.39,746.14 652.9,733.72 677.98,719.21 		"/>
		<g>
			<polygon fill="#404A5B" points="672.78,757.1 672.78,755.72 665.57,751.53 665.57,752.94 			"/>
			<polygon fill="#404A5B" points="672.78,754.63 672.78,753.24 665.57,749.06 665.57,750.46 			"/>
			<polygon fill="#404A5B" points="694.12,737.08 694.12,743.32 698.42,740.83 698.42,734.59 			"/>
		</g>
		<polygon fill="#FFFFFF" points="676.08,747.54 676.08,754.99 687.06,748.64 687.06,741.18 		"/>
		<polygon fill="#404A5B" points="677.42,749.82 677.42,748.01 686.07,743.02 686.07,744.8 		"/>
		<polygon fill="#404A5B" points="658.33,743.9 665.75,748.21 665.75,741.14 658.33,736.83 		"/>
		<polygon fill="#596475" points="658.33,736.83 683.4,722.34 690.84,726.64 665.75,741.16 		"/>
	</g>
</g>
<g id="_x32_9">
	<g id="XMLID_124_">
		
			<linearGradient id="XMLID_5_" gradientUnits="userSpaceOnUse" x1="750.7051" y1="2044.0551" x2="723.8601" y2="2044.0551" gradientTransform="matrix(1 0 0 -1 0 2926)">
			<stop  offset="0" style="stop-color:#CC451B"/>
			<stop  offset="1" style="stop-color:#911703"/>
		</linearGradient>
		<path id="XMLID_131_" fill="url(#XMLID_5_)" d="M722.7,870.86l3.05,15.31c0,3.79,5.53,6.86,12.35,6.86s12.35-3.07,12.35-6.86
			l3.05-15.31H722.7z"/>
		
			<linearGradient id="XMLID_6_" gradientUnits="userSpaceOnUse" x1="756.9875" y1="2059.7449" x2="719.2917" y2="2059.7449" gradientTransform="matrix(1 0 0 -1 0 2926)">
			<stop  offset="0" style="stop-color:#E55E1B"/>
			<stop  offset="1" style="stop-color:#BF3103"/>
		</linearGradient>
		<path id="XMLID_130_" fill="url(#XMLID_6_)" d="M755.53,857.89l-8.05,0.18c-2.71-0.96-5.92-1.52-9.38-1.52
			c-3.95,0-7.58,0.74-10.51,1.96l-6.98,0.15v7.59c0,5.36,7.83,9.71,17.49,9.71s17.49-4.35,17.49-9.71L755.53,857.89z"/>
		<path id="XMLID_129_" fill="#768730" d="M755.59,858.66c0,5.36-7.83,9.71-17.49,9.71s-17.49-4.35-17.49-9.71
			c0-5.36,7.83-9.71,17.49-9.71C747.76,848.95,755.59,853.3,755.59,858.66z"/>
		
			<linearGradient id="XMLID_7_" gradientUnits="userSpaceOnUse" x1="720.6101" y1="2070.2949" x2="755.5901" y2="2070.2949" gradientTransform="matrix(1 0 0 -1 0 2926)">
			<stop  offset="0" style="stop-color:#AD4618"/>
			<stop  offset="1" style="stop-color:#662109"/>
		</linearGradient>
		<path id="XMLID_128_" fill="url(#XMLID_7_)" d="M738.1,856.55c7.23,0,13.44,2.44,16.1,5.91c0.89-1.17,1.39-2.45,1.39-3.8
			c0-5.36-7.83-9.71-17.49-9.71s-17.49,4.35-17.49,9.71c0,1.35,0.5,2.63,1.39,3.8C724.67,858.99,730.87,856.55,738.1,856.55z"/>
		<path id="XMLID_125_" fill="#941D0A" d="M738.1,848.95c-9.66,0-17.49,4.35-17.49,9.71c0,5.36,7.83,9.71,17.49,9.71
			s17.49-4.35,17.49-9.71S747.76,848.95,738.1,848.95z M738.1,866.26c-7.56,0-13.68-3.4-13.68-7.59s6.13-7.59,13.68-7.59
			c7.56,0,13.68,3.4,13.68,7.59S745.66,866.26,738.1,866.26z"/>
	</g>
	<g id="XMLID_122_">
		
			<radialGradient id="XMLID_8_" cx="761.5569" cy="2189.3708" r="109.3294" gradientTransform="matrix(1 0 0 -1 0 2926)" gradientUnits="userSpaceOnUse">
			<stop  offset="0" style="stop-color:#B6F644"/>
			<stop  offset="1" style="stop-color:#4BA700"/>
		</radialGradient>
		<path id="XMLID_123_" fill="url(#XMLID_8_)" d="M762.58,834.44h0.07l-14.18-76.27h-0.04c-0.77-5-5.05-8.84-10.27-8.84
			c-5.23,0-9.53,3.87-10.27,8.89h-0.15l-13.19,76.21h0.07c-0.5,1.97-0.85,4-0.85,6.13c0,13.72,11.12,24.84,24.84,24.84
			s24.84-11.12,24.84-24.84C763.44,838.44,763.09,836.41,762.58,834.44z"/>
	</g>
</g>
<g>
	<path fill="#FFFFFF" d="M1258.28,176.01l5.82-6.94l5.26-6.3l5.97-7.13v7.13h55.25c0.63,4.33,1.04,8.51,1.04,12.61
		c0,39.4-29.73,64.88-66.56,64.88c-41.15,0-72.27-30.7-72.27-67.68c0-36.97,31.19-68.09,71.41-68.09
		c16.45,0.26,35.52,7.24,46.19,17.12l-19.03,26.12c-7.24-6.75-17.61-11.08-27.16-11.08c-19.29,0-36.26,15.82-36.26,35.85
		c0,18.17,14.55,35.85,38.5,35.85c15.67,0,26.86-7.57,27.31-19.96h-18.43v7.93"/>
	<path fill="#FFFFFF" d="M1313.04,172.58c0-38.9,30.87-68.4,71.14-68.4s71.14,29.5,71.14,68.4c0,38.58-30.87,67.92-71.22,67.92
		C1343.83,240.5,1313.04,211.16,1313.04,172.58z M1420.52,172.34c0-20.02-15.75-35.45-36.33-35.45s-36.33,15.43-36.33,35.45
		c0,19.93,15.75,35.29,36.33,35.29C1404.76,207.63,1420.52,192.28,1420.52,172.34z"/>
	<path fill="#FFFFFF" d="M1462.58,105.18h39.87l-5.55,84.32h-28.54L1462.58,105.18z M1462.58,220.37c0-10.29,9.16-18.57,19.93-18.57
		c11.09,0,20.26,8.76,20.26,18.97c0,10.37-9.16,18.57-20.1,18.57C1471.66,239.34,1462.58,230.9,1462.58,220.37z"/>
</g>
<g>
	<path fill="#FFFFFF" d="M1212.48,297.12l3.53-2.59c1.84,3.48,5.99,5.79,10.3,5.79c5.31,0,9.64-2.87,9.64-6.87
		c0-4.56-5.82-6.75-11-8.71c-4.99-1.94-10.55-4.38-10.55-10.65c0-6.25,5.62-10.9,12.74-10.9c6.02,0,10.12,3.3,11.63,7.3l-3.45,2.32
		c-1.31-3.05-4.58-5.11-8.23-5.11c-4.36,0-8.08,2.87-8.08,6.5c0,3.93,4.46,5.36,9.7,7.38c6.09,2.47,11.86,5.29,11.86,11.81
		c0,7-6.47,11.56-14.28,11.56C1219.61,304.92,1214.42,301.45,1212.48,297.12z"/>
	<path fill="#FFFFFF" d="M1271.71,268.31h-11.76v36.06h-4.58v-36.06h-11.81v-4.53h28.15V268.31z"/>
	<path fill="#FFFFFF" d="M1273.12,284.1c0-11.51,9.39-20.9,20.85-20.9c11.48,0,20.88,9.39,20.88,20.9c0,11.43-9.39,20.8-20.9,20.8
		C1282.51,304.9,1273.12,295.53,1273.12,284.1z M1310.21,284.07c0-8.94-7.3-16.27-16.27-16.27c-8.91,0-16.19,7.33-16.19,16.27
		c0,8.91,7.28,16.19,16.19,16.19C1302.91,300.26,1310.21,292.99,1310.21,284.07z"/>
	<path fill="#FFFFFF" d="M1344.79,304.37l-11.33-15.84h-7.58v15.84h-4.58l-0.03-40.59h11.99c7.53,0,13.67,5.79,13.67,12.94
		c0,5.26-3.6,9.8-8.54,11.28l12.06,16.37H1344.79z M1333.41,284.68c4.83,0,8.81-3.68,8.81-8.06c0-4.68-4.03-8.31-8.81-8.31h-7.55
		v16.34L1333.41,284.68z"/>
	<path fill="#FFFFFF" d="M1381.63,297.7h-22.16l-2.97,6.67h-4.96l18.76-41.22h0.5l18.79,41.22h-4.99L1381.63,297.7z M1379.87,293.72
		l-9.29-20.88l-9.32,20.88H1379.87z"/>
	<path fill="#FFFFFF" d="M1428.85,285.76c0,11.38-8.76,19.16-19.24,19.16c-11.66,0-21.03-9.37-21.03-20.83s9.39-20.88,20.85-20.88
		c4.99,0.03,11.05,2.54,14.71,6.09l-2.57,3.8c-3.15-3.12-8.08-5.31-12.16-5.31c-8.56,0-16.17,7.1-16.17,16.29
		c0,8.91,7.18,16.19,16.54,16.19c7.93,0,14.18-5.31,14.18-12.49c0-0.3,0-0.58-0.03-0.81h-14.56v-4.13h19.29
		C1428.75,283.52,1428.85,284.6,1428.85,285.76z"/>
	<path fill="#FFFFFF" d="M1439.85,268.28v12.84h16.7v4.58h-16.7v14.1h19.26v4.56h-23.85v-40.59h23.85v4.51H1439.85z"/>
	<path fill="#FFFFFF" d="M1463.82,297.12l3.53-2.59c1.84,3.48,5.99,5.79,10.3,5.79c5.31,0,9.64-2.87,9.64-6.87
		c0-4.56-5.82-6.75-11-8.71c-4.99-1.94-10.55-4.38-10.55-10.65c0-6.25,5.62-10.9,12.74-10.9c6.02,0,10.12,3.3,11.63,7.3l-3.45,2.32
		c-1.31-3.05-4.58-5.11-8.23-5.11c-4.36,0-8.08,2.87-8.08,6.5c0,3.93,4.46,5.36,9.7,7.38c6.09,2.47,11.86,5.29,11.86,11.81
		c0,7-6.47,11.56-14.28,11.56C1470.95,304.92,1465.76,301.45,1463.82,297.12z"/>
</g>
</svg>
