<?xml version="1.0" encoding="utf-8"?>
<!-- Generator: Adobe Illustrator 23.1.1, SVG Export Plug-In . SVG Version: 6.00 Build 0)  -->
<svg version="1.1" id="Layer_1" xmlns="http://www.w3.org/2000/svg" xmlns:xlink="http://www.w3.org/1999/xlink" x="0px" y="0px"
	 viewBox="0 0 1606.6 1202.4" style="enable-background:new 0 0 1606.6 1202.4;" xml:space="preserve">
<linearGradient id="SVGID_1_" gradientUnits="userSpaceOnUse" x1="0" y1="111.2488" x2="1606.6" y2="111.2488" gradientTransform="matrix(1 0 0 1 0 490)">
	<stop  offset="7.210000e-02" style="stop-color:#FF2E63;stop-opacity:0.6"/>
	<stop  offset="0.7394" style="stop-color:#FF2E63"/>
</linearGradient>
<path style="opacity:0.71;fill:url(#SVGID_1_);enable-background:new    ;" d="M1606.6,0v779.9c0,0-85.2,123.6-238.8,237.1
	c-45.1,33.4-96.2,65.9-152.7,94.1c-187.3,93.5-434.7,140.2-726.6,16.6c-0.9-0.4-1.9-0.8-2.8-1.2c-2.9-1.2-5.7-2.5-8.6-3.7
	c-148.3-65-308-173.9-477.1-342.9V0H1606.6z"/>
<g>
	<path style="fill:#FFFFFF;" d="M1258.3,176l5.8-6.9l5.3-6.3l6-7.1v7.1h55.2c0.6,4.3,1,8.5,1,12.6c0,39.4-29.7,64.9-66.6,64.9
		c-41.2,0-72.3-30.7-72.3-67.7s31.2-68.1,71.4-68.1c16.4,0.3,35.5,7.2,46.2,17.1l-19,26.1c-7.2-6.8-17.6-11.1-27.2-11.1
		c-19.3,0-36.3,15.8-36.3,35.9c0,18.2,14.6,35.9,38.5,35.9c15.7,0,26.9-7.6,27.3-20h-18.4v7.9"/>
	<path style="fill:#FFFFFF;" d="M1313,172.6c0-38.9,30.9-68.4,71.1-68.4s71.1,29.5,71.1,68.4c0,38.6-30.9,67.9-71.2,67.9
		C1343.8,240.5,1313,211.2,1313,172.6z M1420.5,172.3c0-20-15.8-35.4-36.3-35.4s-36.3,15.4-36.3,35.4c0,19.9,15.8,35.3,36.3,35.3
		C1404.7,207.6,1420.5,192.3,1420.5,172.3z"/>
	<path style="fill:#FFFFFF;" d="M1462.6,105.2h39.9l-5.6,84.3h-28.5L1462.6,105.2z M1462.6,220.4c0-10.3,9.2-18.6,19.9-18.6
		c11.1,0,20.3,8.8,20.3,19c0,10.4-9.2,18.6-20.1,18.6C1471.7,239.3,1462.6,230.9,1462.6,220.4z"/>
</g>
<g>
	<path style="fill:#FFFFFF;" d="M1212.5,297.1l3.5-2.6c1.8,3.5,6,5.8,10.3,5.8c5.3,0,9.6-2.9,9.6-6.9c0-4.6-5.8-6.8-11-8.7
		c-5-1.9-10.6-4.4-10.6-10.6s5.6-10.9,12.7-10.9c6,0,10.1,3.3,11.6,7.3l-3.4,2.3c-1.3-3-4.6-5.1-8.2-5.1c-4.4,0-8.1,2.9-8.1,6.5
		c0,3.9,4.5,5.4,9.7,7.4c6.1,2.5,11.9,5.3,11.9,11.8c0,7-6.5,11.6-14.3,11.6C1219.6,304.9,1214.4,301.5,1212.5,297.1z"/>
	<path style="fill:#FFFFFF;" d="M1271.7,268.3h-11.8v36.1h-4.6v-36.1h-11.8v-4.5h28.2L1271.7,268.3L1271.7,268.3z"/>
	<path style="fill:#FFFFFF;" d="M1273.1,284.1c0-11.5,9.4-20.9,20.8-20.9c11.5,0,20.9,9.4,20.9,20.9c0,11.4-9.4,20.8-20.9,20.8
		C1282.5,304.9,1273.1,295.5,1273.1,284.1z M1310.2,284.1c0-8.9-7.3-16.3-16.3-16.3c-8.9,0-16.2,7.3-16.2,16.3
		c0,8.9,7.3,16.2,16.2,16.2C1302.9,300.3,1310.2,293,1310.2,284.1z"/>
	<path style="fill:#FFFFFF;" d="M1344.8,304.4l-11.3-15.8h-7.6v15.8h-4.6v-40.6h12c7.5,0,13.7,5.8,13.7,12.9c0,5.3-3.6,9.8-8.5,11.3
		l12.1,16.4L1344.8,304.4L1344.8,304.4z M1333.4,284.7c4.8,0,8.8-3.7,8.8-8.1c0-4.7-4-8.3-8.8-8.3h-7.6v16.3L1333.4,284.7z"/>
	<path style="fill:#FFFFFF;" d="M1381.6,297.7h-22.2l-3,6.7h-5l18.8-41.2h0.5l18.8,41.2h-5L1381.6,297.7z M1379.8,293.7l-9.3-20.9
		l-9.3,20.9H1379.8z"/>
	<path style="fill:#FFFFFF;" d="M1428.8,285.8c0,11.4-8.8,19.2-19.2,19.2c-11.7,0-21-9.4-21-20.8s9.4-20.9,20.8-20.9
		c5,0,11.1,2.5,14.7,6.1l-2.6,3.8c-3.2-3.1-8.1-5.3-12.2-5.3c-8.6,0-16.2,7.1-16.2,16.3c0,8.9,7.2,16.2,16.5,16.2
		c7.9,0,14.2-5.3,14.2-12.5c0-0.3,0-0.6,0-0.8h-14.6V283h19.3C1428.7,283.5,1428.8,284.6,1428.8,285.8z"/>
	<path style="fill:#FFFFFF;" d="M1439.8,268.3v12.8h16.7v4.6h-16.7v14.1h19.3v4.6h-23.8v-40.6h23.8v4.5H1439.8z"/>
	<path style="fill:#FFFFFF;" d="M1463.8,297.1l3.5-2.6c1.8,3.5,6,5.8,10.3,5.8c5.3,0,9.6-2.9,9.6-6.9c0-4.6-5.8-6.8-11-8.7
		c-5-1.9-10.6-4.4-10.6-10.6s5.6-10.9,12.7-10.9c6,0,10.1,3.3,11.6,7.3l-3.4,2.3c-1.3-3-4.6-5.1-8.2-5.1c-4.4,0-8.1,2.9-8.1,6.5
		c0,3.9,4.5,5.4,9.7,7.4c6.1,2.5,11.9,5.3,11.9,11.8c0,7-6.5,11.6-14.3,11.6C1470.9,304.9,1465.8,301.5,1463.8,297.1z"/>
</g>
<g>
	<g>
		<g>
			<g>
				<path style="fill:#F9B028;" d="M654.2,651.5v90.8c0,8.7-12.9,15.7-28.8,15.7c-15.9,0-28.8-7-28.8-15.7v-90.8H654.2z"/>
				<path style="fill:#F9DC32;" d="M596.6,651.5c0,8.7,12.9,15.7,28.8,15.7c15.9,0,28.8-7,28.8-15.7s-12.9-15.7-28.8-15.7
					S596.6,642.9,596.6,651.5z"/>
				<path style="fill:#F9C32A;" d="M625.4,667.2c-15.9,0-28.8-7-28.8-15.7v90.8c0,8.7,12.9,15.7,28.8,15.7c3.4,0,6.7-0.3,9.7-0.9
					v-90.8C632.1,666.9,628.8,667.2,625.4,667.2z"/>
			</g>
			<g>
				<path style="fill:#C64453;" d="M654.2,541.6v109.9c0,8.7-12.9,15.7-28.8,15.7c-15.9,0-28.8-7-28.8-15.7V541.6H654.2z"/>
				<path style="fill:#ED5561;" d="M596.6,541.6c0,8.7,12.9,15.7,28.8,15.7c15.9,0,28.8-7,28.8-15.7S641.3,526,625.4,526
					S596.6,533,596.6,541.6z"/>
				<path style="fill:#DE495A;" d="M625.4,557.3c-15.9,0-28.8-7-28.8-15.7v109.9c0,8.7,12.9,15.7,28.8,15.7c3.4,0,6.7-0.3,9.7-0.9
					V556.4C632.1,557,628.8,557.3,625.4,557.3z"/>
			</g>
			<g>
				<path style="fill:#F9B028;" d="M608.2,697.1v71.7c0,8.7-12.9,15.7-28.8,15.7c-15.9,0-28.8-7-28.8-15.7v-71.7H608.2z"/>
				<path style="fill:#F9DC32;" d="M550.5,697.1c0,8.7,12.9,15.7,28.8,15.7c15.9,0,28.8-7,28.8-15.7s-12.9-15.7-28.8-15.7
					S550.5,688.5,550.5,697.1z"/>
				<path style="fill:#F9C32A;" d="M579.3,712.8c-15.9,0-28.8-7-28.8-15.7v71.7c0,8.7,12.9,15.7,28.8,15.7c3.4,0,6.7-0.3,9.7-0.9
					v-71.7C586,712.5,582.8,712.8,579.3,712.8z"/>
			</g>
			<g>
				<path style="fill:#C64453;" d="M608.2,625.4v71.7c0,8.7-12.9,15.7-28.8,15.7c-15.9,0-28.8-7-28.8-15.7v-71.7H608.2z"/>
				<path style="fill:#ED5561;" d="M550.5,625.4c0,8.7,12.9,15.7,28.8,15.7c15.9,0,28.8-7,28.8-15.7s-12.9-15.7-28.8-15.7
					S550.5,616.8,550.5,625.4z"/>
				<path style="fill:#DE495A;" d="M579.3,641.1c-15.9,0-28.8-7-28.8-15.7v71.7c0,8.7,12.9,15.7,28.8,15.7c3.4,0,6.7-0.3,9.7-0.9
					v-71.7C586,640.8,582.8,641.1,579.3,641.1z"/>
			</g>
			<g>
				<path style="fill:#F9B028;" d="M562.1,733.8v61.6c0,8.7-12.9,15.7-28.8,15.7c-15.9,0-28.8-7-28.8-15.7v-61.6H562.1z"/>
				<path style="fill:#F9DC32;" d="M504.5,733.8c0,8.7,12.9,15.7,28.8,15.7c15.9,0,28.8-7,28.8-15.7s-12.9-15.7-28.8-15.7
					C517.4,718.2,504.5,725.2,504.5,733.8z"/>
				<path style="fill:#F9C32A;" d="M533.3,749.5c-15.9,0-28.8-7-28.8-15.7v61.6c0,8.7,12.9,15.7,28.8,15.7c3.4,0,6.7-0.3,9.7-0.9
					v-61.6C539.9,749.2,536.7,749.5,533.3,749.5z"/>
			</g>
			<g>
				<path style="fill:#C64453;" d="M562.1,710.9v23c0,8.7-12.9,15.7-28.8,15.7c-15.9,0-28.8-7-28.8-15.7v-23H562.1z"/>
				<path style="fill:#ED5561;" d="M504.5,710.9c0,8.7,12.9,15.7,28.8,15.7c15.9,0,28.8-7,28.8-15.7s-12.9-15.7-28.8-15.7
					S504.5,702.2,504.5,710.9z"/>
				<path style="fill:#DE495A;" d="M533.3,726.6c-15.9,0-28.8-7-28.8-15.7v23c0,8.7,12.9,15.7,28.8,15.7c3.4,0,6.7-0.3,9.7-0.9v-23
					C539.9,726.2,536.7,726.6,533.3,726.6z"/>
			</g>
			<g>
				<path style="fill:#F9B028;" d="M516.1,784.5V822c0,8.7-12.9,15.7-28.8,15.7s-28.8-7-28.8-15.7v-37.4L516.1,784.5L516.1,784.5z"
					/>
				<path style="fill:#F9DC32;" d="M458.4,784.5c0,8.7,12.9,15.7,28.8,15.7s28.8-7,28.8-15.7s-12.9-15.7-28.8-15.7
					C471.3,768.9,458.4,775.9,458.4,784.5z"/>
				<path style="fill:#F9C32A;" d="M487.2,800.2c-15.9,0-28.8-7-28.8-15.7V822c0,8.7,12.9,15.7,28.8,15.7c3.4,0,6.6-0.3,9.7-0.9
					v-37.4C493.9,799.9,490.6,800.2,487.2,800.2z"/>
			</g>
			<g>
				<path style="fill:#C64453;" d="M516.1,747.1v37.4c0,8.7-12.9,15.7-28.8,15.7s-28.8-7-28.8-15.7v-37.4H516.1z"/>
				<path style="fill:#ED5561;" d="M458.4,747.1c0,8.7,12.9,15.7,28.8,15.7s28.8-7,28.8-15.7s-12.9-15.7-28.8-15.7
					C471.3,731.4,458.4,738.4,458.4,747.1z"/>
				<path style="fill:#DE495A;" d="M487.2,762.8c-15.9,0-28.8-7-28.8-15.7v37.4c0,8.7,12.9,15.7,28.8,15.7c3.4,0,6.6-0.3,9.7-0.9
					v-37.4C493.9,762.5,490.6,762.8,487.2,762.8z"/>
			</g>
		</g>
		<g>
			<path style="fill:#F9DC32;" d="M478.9,658.8c4.3-1.1,9.9-3,9.9,4.3c0,5-3.5,11.5-9.9,15.5v3.8l-2.6,1.5v-3.8
				c-5.5,2.6-9.6,1.6-9.8-4.3l7.4-4.3c0.1,1.8,1,2.5,2.4,2.2v-7.4c-4.4,1.2-9.8,3-9.8-4.4c0-5.8,4.2-11.8,9.8-15.4v-3.8l2.6-1.5v3.8
				c5.6-2.7,9.1-1.5,9.5,4.2l-7.5,4.3c-0.2-1.6-1-2.3-2.1-2.1L478.9,658.8z M478.9,672.4c1.6-1.3,2.6-3.1,2.6-4.8s-1-2-2.6-1.8
				V672.4 M476.3,659.3v-6.5c-1.5,1.1-2.4,2.7-2.4,4.5C473.8,659,474.8,659.5,476.3,659.3"/>
		</g>
		<g>
			<path style="fill:#F9DC32;" d="M609.4,484.4c4.3-1.1,9.9-3,9.9,4.3c0,5-3.5,11.5-9.9,15.5v3.8l-2.6,1.5v-3.8
				c-5.5,2.6-9.6,1.6-9.8-4.3l7.4-4.3c0.2,1.8,1,2.5,2.4,2.2v-7.4c-4.4,1.2-9.8,3-9.8-4.4c0-5.9,4.2-11.8,9.8-15.4v-3.8l2.6-1.5v3.8
				c5.6-2.7,9.1-1.5,9.5,4.2l-7.5,4.3c-0.2-1.6-1-2.3-2.1-2.1L609.4,484.4z M609.5,498c1.6-1.3,2.6-3.1,2.6-4.9c0-1.7-1-2-2.6-1.8
				V498 M606.8,484.9v-6.5c-1.5,1.1-2.4,2.7-2.4,4.5C604.4,484.6,605.4,485,606.8,484.9"/>
		</g>
		<g>
			<path style="fill:#F9DC32;" d="M534.2,563.1c3.4-0.9,7.7-2.3,7.7,3.3c0,3.9-2.7,8.9-7.7,12.1v2.9l-2,1.2v-3
				c-4.3,2-7.4,1.3-7.6-3.3l5.8-3.3c0.1,1.4,0.8,2,1.8,1.7V569c-3.4,0.9-7.6,2.3-7.6-3.4c0-4.5,3.3-9.1,7.6-12v-2.9l2-1.2v2.9
				c4.3-2.1,7.1-1.2,7.4,3.3l-5.8,3.3c-0.1-1.3-0.7-1.8-1.6-1.6L534.2,563.1z M534.3,573.6c1.3-1,2-2.4,2-3.8c0-1.3-0.8-1.6-2-1.4
				V573.6 M532.2,563.5v-5c-1.2,0.9-1.9,2.1-1.9,3.5C530.3,563.2,531.1,563.5,532.2,563.5"/>
		</g>
		<g>
			<path style="fill:#F9DC32;" d="M489.8,475.5c3.4-0.9,7.7-2.3,7.7,3.3c0,3.9-2.7,8.9-7.7,12.1v2.9l-2,1.2v-3
				c-4.3,2-7.4,1.3-7.6-3.3l5.8-3.3c0.1,1.4,0.8,2,1.8,1.7v-5.7c-3.4,0.9-7.6,2.3-7.6-3.4c0-4.5,3.3-9.1,7.6-12v-2.9l2-1.2v2.9
				c4.3-2.1,7.1-1.2,7.4,3.3l-5.8,3.3c-0.1-1.3-0.7-1.8-1.6-1.6L489.8,475.5L489.8,475.5z M489.8,486c1.3-1,2-2.4,2-3.8
				c0-1.3-0.8-1.6-2-1.4V486 M487.8,475.9v-5c-1.2,0.9-1.9,2.1-1.9,3.5C485.9,475.6,486.6,476,487.8,475.9"/>
		</g>
		<g>
			<path style="fill:#FFFFFF;" d="M832.1,757.7l56.1-32.6c2.4-1.4,5.3-1.4,7.7,0L1029,802c2.2,1.3,2.3,4.5,0,5.9l-54.9,31.8
				c-2.8,1.6-6.3,1.7-9.1,0L832,763C830,761.8,830,758.9,832.1,757.7z"/>
			<path style="fill:#A7BCCE;" d="M832.1,763l133,76.7c2.8,1.6,6.3,1.6,9.1,0l54.9-31.8c1.1-0.7,1.7-1.8,1.7-2.9v6.8l0,0l0,0l0,0
				c0,1.1-0.6,2.2-1.7,2.9l-54.9,31.9c-2.8,1.6-6.3,1.7-9.1,0l-133-76.8c-1-0.6-1.5-1.6-1.5-2.6l0,0v-6.8
				C830.6,761.4,831.1,762.4,832.1,763z"/>
			<path style="fill:#BBCEE1;" d="M832.1,763l133,76.7c1.3,0.8,2.7,1.1,4.2,1.2v6.8c-1.5-0.1-2.9-0.5-4.2-1.2l-133-76.8
				c-1-0.6-1.5-1.6-1.5-2.6l0,0v-6.8C830.6,761.4,831.1,762.4,832.1,763z"/>
		</g>
		<g>
			<g>
				
					<linearGradient id="SVGID_2_" gradientUnits="userSpaceOnUse" x1="767.2" y1="176.1" x2="1081.8" y2="176.1" gradientTransform="matrix(1 0 0 1 0 490)">
					<stop  offset="0" style="stop-color:#1C75BC"/>
					<stop  offset="0.2787" style="stop-color:#2077BC"/>
					<stop  offset="0.5411" style="stop-color:#2B7EBC"/>
					<stop  offset="0.7962" style="stop-color:#3E88BC"/>
					<stop  offset="1" style="stop-color:#5394BC"/>
				</linearGradient>
				<polygon style="fill:url(#SVGID_2_);" points="767.2,459.1 1081.8,641.6 1081.8,873.1 767.2,689.9 				"/>
				<polygon style="fill:#A7BCCE;" points="1081.8,641.6 1092.2,635.2 1092.2,866.7 1081.8,873.1 				"/>
				<polygon style="fill:#FFFFFF;" points="767.2,459.1 777.9,452.9 1092.2,635.2 1081.8,641.6 				"/>
			</g>
			<path style="fill:#BBCEE1;" d="M767.2,459.1v230.8l314.6,183.2V641.6L767.2,459.1z M1074.3,860.1L774.6,685.6V472l299.7,173.8
				V860.1z"/>
		</g>
		<g>
			<g>
				<g>
					<polygon style="fill:#BBCEE1;" points="1123.5,519.3 1242,587.4 1242,729.1 1123.5,660.5 					"/>
					<polygon style="fill:#A7BCCE;" points="1242,587.4 1250.9,582.1 1250.9,723.8 1242,729.1 					"/>
					<polygon style="fill:#FFFFFF;" points="1123.5,519.3 1132.6,514.1 1250.9,582.1 1242,587.4 					"/>
				</g>
			</g>
			<polygon style="fill:#F4F7FF;" points="1133.5,537.1 1232,593.7 1232,711.3 1133.5,654.4 			"/>
			<polygon style="fill:#F9AE40;" points="1140.7,617 1140.7,648.8 1158.6,659.2 1158.6,627.2 			"/>
			<g>
				<polygon style="fill:#BBCEE1;" points="1131.7,640.8 1131.7,643.9 1137.3,647.1 1137.3,644 				"/>
				<polygon style="fill:#BBCEE1;" points="1131.7,628.9 1131.7,632 1137.3,635.3 1137.3,632.2 				"/>
				<polygon style="fill:#BBCEE1;" points="1131.7,617.1 1131.7,620.2 1137.3,623.4 1137.3,620.3 				"/>
				<polygon style="fill:#BBCEE1;" points="1131.7,605.2 1131.7,608.3 1137.3,611.6 1137.3,608.5 				"/>
				<polygon style="fill:#BBCEE1;" points="1131.7,593.4 1131.7,596.5 1137.3,599.7 1137.3,596.6 				"/>
				<polygon style="fill:#BBCEE1;" points="1131.7,581.6 1131.7,584.7 1137.3,587.9 1137.3,584.8 				"/>
				<polygon style="fill:#BBCEE1;" points="1131.7,569.7 1131.7,572.8 1137.3,576.1 1137.3,573 				"/>
				<polygon style="fill:#BBCEE1;" points="1131.7,557.9 1131.7,561 1137.3,564.2 1137.3,561.1 				"/>
			</g>
			<polygon style="fill:#F9AE40;" points="1162.8,603.1 1162.8,661.6 1180.7,672 1180.7,613.3 			"/>
			<polygon style="fill:#F9AE40;" points="1184.9,623.9 1184.9,674.4 1202.7,684.8 1202.7,634.1 			"/>
			<polygon style="fill:#F9AE40;" points="1207,606 1207,687.2 1224.8,697.6 1224.8,616.2 			"/>
		</g>
		<g>
			<g>
				<g>
					<polygon style="fill:#BBCEE1;" points="978.7,392.5 1097.2,460.6 1097.2,602.2 978.7,533.7 					"/>
					<polygon style="fill:#A7BCCE;" points="1097.2,460.6 1106.1,455.3 1106.1,596.9 1097.2,602.2 					"/>
					<polygon style="fill:#FFFFFF;" points="978.7,392.5 987.7,387.2 1106.1,455.3 1097.2,460.6 					"/>
				</g>
			</g>
			<polygon style="fill:#F4F7FF;" points="988.7,410.2 1087.1,466.8 1087.1,584.5 988.7,527.5 			"/>
			<g>
				<polygon style="fill:#BBCEE1;" points="986.8,513.9 986.8,517 992.4,520.2 992.4,517.1 				"/>
				<polygon style="fill:#BBCEE1;" points="986.8,502.1 986.8,505.2 992.4,508.4 992.4,505.3 				"/>
				<polygon style="fill:#BBCEE1;" points="986.8,490.2 986.8,493.3 992.4,496.6 992.4,493.5 				"/>
				<polygon style="fill:#BBCEE1;" points="986.8,478.4 986.8,481.5 992.4,484.7 992.4,481.6 				"/>
				<polygon style="fill:#BBCEE1;" points="986.8,466.5 986.8,469.6 992.4,472.9 992.4,469.8 				"/>
				<polygon style="fill:#BBCEE1;" points="986.8,454.7 986.8,457.8 992.4,461 992.4,457.9 				"/>
				<polygon style="fill:#BBCEE1;" points="986.8,442.9 986.8,446 992.4,449.2 992.4,446.1 				"/>
				<polygon style="fill:#BBCEE1;" points="986.8,431 986.8,434.1 992.4,437.4 992.4,434.2 				"/>
			</g>
		</g>
		<g>
			<polygon style="fill:#ED5561;" points="1035.2,961.9 846.7,1068.7 726.6,999.2 915.1,892.5 			"/>
			<g>
				<polygon style="fill:#F0CEC9;" points="883.6,1066.1 883.6,1070.3 1072.1,962.4 1072.1,959.4 				"/>
				<polygon style="fill:#FFFBF0;" points="1072.1,959.4 883.6,1066.1 763.5,996.7 952,889.9 				"/>
				<polygon style="fill:#F5DDD8;" points="883.6,1066.1 883.6,1070.3 763.5,1000.8 763.5,996.7 				"/>
			</g>
			<polygon style="fill:#DFBAB8;" points="950.7,901.3 1023.3,943.2 1020.1,945 947.5,903.1 			"/>
			<polygon style="fill:#DFBAB8;" points="943.1,905.6 1015.7,947.4 1012.5,949.2 940,907.4 			"/>
			<polygon style="fill:#DFBAB8;" points="925.6,915.5 1025.5,973.2 1022.3,975 922.4,917.3 			"/>
			<polygon style="fill:#DFBAB8;" points="918.7,919.4 1018.6,977.1 1015.4,978.9 915.5,921.2 			"/>
			<polygon style="fill:#DFBAB8;" points="911.8,923.4 1011.7,981 1008.5,982.8 908.6,925.2 			"/>
			<polygon style="fill:#DFBAB8;" points="904.8,927.3 1004.8,985 1001.6,986.8 901.7,929.1 			"/>
			<polygon style="fill:#DFBAB8;" points="897.9,931.2 997.9,988.9 994.7,990.7 894.7,933 			"/>
			<polygon style="fill:#DFBAB8;" points="891,935.1 990.9,992.8 987.8,994.6 887.8,936.9 			"/>
			<polygon style="fill:#DFBAB8;" points="884.1,939.1 984,996.7 980.8,998.5 880.9,940.9 			"/>
			<polygon style="fill:#DFBAB8;" points="870.3,946.9 970.2,1004.6 967,1006.4 867.1,948.7 			"/>
			<polygon style="fill:#DFBAB8;" points="863.3,950.8 963.3,1008.5 960.1,1010.3 860.2,952.6 			"/>
			<polygon style="fill:#DFBAB8;" points="856.4,954.8 956.4,1012.5 953.2,1014.2 853.2,956.6 			"/>
			<polygon style="fill:#DFBAB8;" points="849.5,958.7 949.4,1016.4 946.3,1018.2 846.3,960.5 			"/>
			<polygon style="fill:#DFBAB8;" points="842.6,962.6 942.5,1020.3 939.3,1022.1 839.4,964.4 			"/>
			<polygon style="fill:#DFBAB8;" points="835.7,966.5 935.6,1024.2 932.4,1026 832.5,968.3 			"/>
			<polygon style="fill:#DFBAB8;" points="828.8,970.5 928.7,1028.2 925.5,1030 825.6,972.3 			"/>
		</g>
		<g>
			<g>
				<path style="fill:#EF9D26;" d="M882.3,887.2v6.2c0,8.4-12.5,15.1-27.8,15.1c-15.4,0-27.8-6.8-27.8-15.1v-6.2H882.3z"/>
				<path style="fill:#F9C32A;" d="M865.9,907.2c2.4-0.6,4.7-1.4,6.7-2.3v-13.3h-6.7V907.2z"/>
				<path style="fill:#F9C32A;" d="M875.9,903.1c2.1-1.4,3.8-3,4.8-4.7V888h-4.8V903.1z"/>
				<path style="fill:#F9DC32;" d="M826.7,887.2c0,8.4,12.5,15.1,27.8,15.1s27.8-6.8,27.8-15.1s-12.5-15.1-27.8-15.1
					C839.1,872.1,826.7,878.8,826.7,887.2z"/>
				<path style="fill:#F9C32A;" d="M833.1,887c0,6.3,9.6,11.4,21.4,11.4s21.4-5.1,21.4-11.4c0-6.3-9.6-11.4-21.4-11.4
					C842.7,875.6,833.1,880.7,833.1,887z"/>
				<path style="fill:#EF9D26;" d="M864,882.4l2-1.1l-1.5-0.9l-2,1.1c-3.5-1.8-7.9-2.2-10.9-0.5c-3.8,2.2-1.3,4.5,0.7,6.4l-3.8,2.2
					c-0.6-0.6-0.4-1.3,0.5-1.9l-4.4-2.6c-3,1.9-2.3,4.3,0.7,6.4l-2,1.2l1.5,0.9l2-1.1c4,2.1,8.4,2,11,0.5c3.8-2.2,1.1-4.5-0.8-6.5
					l3.8-2.2c0.5,0.5,0.3,1.1-0.4,1.7l4.5,2.6C867.5,886.7,867.1,884.5,864,882.4z M853.1,890.5c-0.9,0.5-2.2,0.5-3.3,0.1l3.4-2
					C853.9,889.4,854,890,853.1,890.5z M855.8,885.3c-0.5-0.7-0.6-1.4,0.3-1.9c0.9-0.5,2-0.5,3.1-0.1L855.8,885.3z"/>
			</g>
			<g>
				<path style="fill:#EF9D26;" d="M882.3,879.2v6.2c0,8.4-12.5,15.1-27.8,15.1c-15.4,0-27.8-6.8-27.8-15.1v-6.2H882.3z"/>
				<path style="fill:#F9C32A;" d="M865.9,899.2c2.4-0.6,4.7-1.4,6.7-2.3v-13.3h-6.7V899.2z"/>
				<path style="fill:#F9C32A;" d="M875.9,895.1c2.1-1.4,3.8-3,4.8-4.7V880h-4.8V895.1z"/>
				<path style="fill:#F9DC32;" d="M826.7,879.2c0,8.4,12.5,15.1,27.8,15.1s27.8-6.8,27.8-15.1s-12.5-15.1-27.8-15.1
					C839.1,864.1,826.7,870.9,826.7,879.2z"/>
				<path style="fill:#F9C32A;" d="M833.1,879.1c0,6.3,9.6,11.4,21.4,11.4s21.4-5.1,21.4-11.4s-9.6-11.4-21.4-11.4
					C842.7,867.7,833.1,872.8,833.1,879.1z"/>
				<path style="fill:#EF9D26;" d="M864,874.5l2-1.1l-1.5-0.9l-2,1.1c-3.5-1.8-7.9-2.2-10.9-0.5c-3.8,2.2-1.3,4.5,0.7,6.4l-3.8,2.2
					c-0.6-0.6-0.4-1.3,0.5-1.9l-4.4-2.6c-3,1.9-2.3,4.3,0.7,6.4l-2,1.2l1.5,0.9l2-1.1c4,2.1,8.4,2,11,0.5c3.8-2.2,1.1-4.5-0.8-6.5
					l3.8-2.2c0.5,0.5,0.3,1.1-0.4,1.7l4.5,2.6C867.5,878.8,867.1,876.5,864,874.5z M853.1,882.6c-0.9,0.5-2.2,0.5-3.3,0.1l3.4-2
					C853.9,881.4,854,882.1,853.1,882.6z M855.8,877.4c-0.5-0.7-0.6-1.4,0.3-1.9c0.9-0.5,2-0.5,3.1-0.1L855.8,877.4z"/>
			</g>
			<g>
				<path style="fill:#EF9D26;" d="M882.3,871.3v6.2c0,8.4-12.5,15.1-27.8,15.1c-15.4,0-27.8-6.8-27.8-15.1v-6.2H882.3z"/>
				<path style="fill:#F9C32A;" d="M865.9,891.3c2.4-0.6,4.7-1.4,6.7-2.3v-13.3h-6.7V891.3z"/>
				<path style="fill:#F9C32A;" d="M875.9,887.1c2.1-1.4,3.8-3,4.8-4.7V872h-4.8V887.1z"/>
				<path style="fill:#F9DC32;" d="M826.7,871.3c0,8.4,12.5,15.1,27.8,15.1s27.8-6.8,27.8-15.1s-12.5-15.1-27.8-15.1
					C839.1,856.2,826.7,862.9,826.7,871.3z"/>
				<path style="fill:#F9C32A;" d="M833.1,871.1c0,6.3,9.6,11.4,21.4,11.4s21.4-5.1,21.4-11.4c0-6.3-9.6-11.4-21.4-11.4
					C842.7,859.7,833.1,864.8,833.1,871.1z"/>
				<path style="fill:#EF9D26;" d="M864,866.5l2-1.1l-1.5-0.9l-2,1.1c-3.5-1.8-7.9-2.2-10.9-0.5c-3.8,2.2-1.3,4.5,0.7,6.4l-3.8,2.2
					c-0.6-0.6-0.4-1.3,0.5-1.9l-4.4-2.6c-3,1.9-2.3,4.3,0.7,6.4l-2,1.2l1.5,0.9l2-1.1c4,2.1,8.4,2,11,0.5c3.8-2.2,1.1-4.5-0.8-6.5
					l3.8-2.2c0.5,0.5,0.3,1.1-0.4,1.7l4.5,2.6C867.5,870.8,867.1,868.6,864,866.5z M853.1,874.6c-0.9,0.5-2.2,0.5-3.3,0.1l3.4-2
					C853.9,873.5,854,874.1,853.1,874.6z M855.8,869.4c-0.5-0.7-0.6-1.4,0.3-1.9c0.9-0.5,2-0.5,3.1-0.1L855.8,869.4z"/>
			</g>
			<g>
				<path style="fill:#EF9D26;" d="M882.3,863.3v6.2c0,8.4-12.5,15.1-27.8,15.1c-15.4,0-27.8-6.8-27.8-15.1v-6.2H882.3z"/>
				<path style="fill:#F9C32A;" d="M865.9,883.3c2.4-0.6,4.7-1.4,6.7-2.3v-13.3h-6.7V883.3z"/>
				<path style="fill:#F9C32A;" d="M875.9,879.2c2.1-1.4,3.8-3,4.8-4.7V864h-4.8V879.2z"/>
				<path style="fill:#F9DC32;" d="M826.7,863.3c0,8.4,12.5,15.1,27.8,15.1s27.8-6.8,27.8-15.1s-12.5-15.1-27.8-15.1
					C839.1,848.2,826.7,855,826.7,863.3z"/>
				<path style="fill:#F9C32A;" d="M833.1,863.1c0,6.3,9.6,11.4,21.4,11.4s21.4-5.1,21.4-11.4s-9.6-11.4-21.4-11.4
					C842.7,851.8,833.1,856.8,833.1,863.1z"/>
				<path style="fill:#EF9D26;" d="M864,858.5l2-1.1l-1.5-0.9l-2,1.1c-3.5-1.8-7.9-2.2-10.9-0.5c-3.8,2.2-1.3,4.5,0.7,6.4l-3.8,2.2
					c-0.6-0.6-0.4-1.3,0.5-1.9l-4.4-2.6c-3,1.9-2.3,4.3,0.7,6.4l-2,1.2l1.5,0.9l2-1.1c4,2.1,8.4,2,11,0.5c3.8-2.2,1.1-4.5-0.8-6.5
					l3.8-2.2c0.5,0.5,0.3,1.1-0.4,1.7l4.5,2.6C867.5,862.8,867.1,860.6,864,858.5z M853.1,866.7c-0.9,0.5-2.2,0.5-3.3,0.1l3.4-2
					C853.9,865.5,854,866.2,853.1,866.7z M855.8,861.5c-0.5-0.7-0.6-1.4,0.3-1.9c0.9-0.5,2-0.5,3.1-0.1L855.8,861.5z"/>
			</g>
		</g>
		<g>
			<g>
				<path style="fill:#EF9D26;" d="M841,910.5v6.2c0,8.4-12.5,15.1-27.8,15.1s-27.8-6.8-27.8-15.1v-6.2H841z"/>
				<path style="fill:#F9C32A;" d="M824.6,930.5c2.4-0.6,4.7-1.4,6.7-2.3V915h-6.7V930.5z"/>
				<path style="fill:#F9C32A;" d="M834.6,926.4c2.1-1.4,3.8-3,4.8-4.7v-10.4h-4.8V926.4z"/>
				<path style="fill:#F9DC32;" d="M785.3,910.5c0,8.4,12.5,15.1,27.8,15.1c15.4,0,27.8-6.8,27.8-15.1s-12.5-15.1-27.8-15.1
					S785.3,902.2,785.3,910.5z"/>
				<ellipse style="fill:#F9C32A;" cx="813.2" cy="910.4" rx="21.4" ry="11.4"/>
				<path style="fill:#EF9D26;" d="M822.7,905.8l2-1.1l-1.5-0.9l-2,1.1c-3.5-1.8-7.9-2.2-10.9-0.5c-3.8,2.2-1.3,4.5,0.7,6.4l-4,2.2
					c-0.6-0.6-0.4-1.3,0.5-1.9l-4.4-2.6c-3,1.9-2.3,4.3,0.7,6.4l-2,1.2l1.5,0.9l2-1.1c4,2.1,8.4,2,11,0.5c3.8-2.2,1.1-4.5-0.8-6.5
					l3.8-2.2c0.5,0.5,0.4,1.1-0.4,1.7l4.5,2.6C826.2,910.1,825.8,907.8,822.7,905.8z M811.8,913.9c-0.9,0.5-2.2,0.5-3.3,0.1l3.4-2
					C812.5,912.7,812.7,913.4,811.8,913.9z M814.5,908.7c-0.5-0.7-0.6-1.4,0.3-1.9c0.9-0.5,2-0.5,3.1-0.1L814.5,908.7z"/>
			</g>
			<g>
				<path style="fill:#EF9D26;" d="M841,902.6v6.2c0,8.4-12.5,15.1-27.8,15.1s-27.8-6.8-27.8-15.1v-6.2H841z"/>
				<path style="fill:#F9C32A;" d="M824.6,922.6c2.4-0.6,4.7-1.4,6.7-2.3V907h-6.7V922.6z"/>
				<path style="fill:#F9C32A;" d="M834.6,918.4c2.1-1.4,3.8-3,4.8-4.7v-10.4h-4.8V918.4z"/>
				<path style="fill:#F9DC32;" d="M785.3,902.6c0,8.4,12.5,15.1,27.8,15.1c15.4,0,27.8-6.8,27.8-15.1s-12.5-15.1-27.8-15.1
					S785.3,894.2,785.3,902.6z"/>
				<ellipse style="fill:#F9C32A;" cx="813.2" cy="902.4" rx="21.4" ry="11.4"/>
				<path style="fill:#EF9D26;" d="M822.7,897.8l2-1.1l-1.5-0.9l-2,1.1c-3.5-1.8-7.9-2.2-10.9-0.5c-3.8,2.2-1.3,4.5,0.7,6.4
					l-3.8,2.2c-0.6-0.6-0.4-1.3,0.5-1.9l-4.4-2.6c-3,1.9-2.3,4.3,0.7,6.4l-2,1.2l1.5,0.9l2-1.1c4,2.1,8.4,2,11,0.5
					c3.8-2.2,1.1-4.5-0.8-6.5l3.8-2.2c0.5,0.5,0.4,1.1-0.4,1.7l4.5,2.6C826.2,902.1,825.8,899.9,822.7,897.8z M811.8,905.9
					c-0.9,0.5-2.2,0.5-3.3,0.1l3.4-2C812.5,904.8,812.7,905.4,811.8,905.9z M814.5,900.7c-0.5-0.7-0.6-1.4,0.3-1.9
					c0.9-0.5,2-0.5,3.1-0.1L814.5,900.7z"/>
			</g>
			<g>
				<path style="fill:#EF9D26;" d="M841,894.6v6.2c0,8.4-12.5,15.1-27.8,15.1s-27.8-6.8-27.8-15.1v-6.2H841z"/>
				<path style="fill:#F9C32A;" d="M824.6,914.6c2.4-0.6,4.7-1.4,6.7-2.3V899h-6.7V914.6z"/>
				<path style="fill:#F9C32A;" d="M834.6,910.5c2.1-1.4,3.8-3,4.8-4.7v-10.4h-4.8V910.5z"/>
				<path style="fill:#F9DC32;" d="M785.3,894.6c0,8.4,12.5,15.1,27.8,15.1c15.4,0,27.8-6.8,27.8-15.1s-12.5-15.1-27.8-15.1
					S785.3,886.3,785.3,894.6z"/>
				<ellipse style="fill:#F9C32A;" cx="813.2" cy="894.4" rx="21.4" ry="11.4"/>
				<path style="fill:#EF9D26;" d="M822.7,889.8l2-1.1l-1.5-0.9l-2,1.1c-3.5-1.8-7.9-2.2-10.9-0.5c-3.8,2.2-1.3,4.5,0.7,6.4
					l-3.8,2.2c-0.6-0.6-0.4-1.3,0.5-1.9l-4.4-2.6c-3,1.9-2.3,4.3,0.7,6.4l-2,1.2l1.5,0.9l2-1.1c4,2.1,8.4,2,11,0.5
					c3.8-2.2,1.1-4.5-0.8-6.5l3.8-2.2c0.5,0.5,0.4,1.1-0.4,1.7l4.5,2.6C826.2,894.1,825.8,891.9,822.7,889.8z M811.8,898
					c-0.9,0.5-2.2,0.5-3.3,0.1l3.4-2C812.5,896.8,812.7,897.5,811.8,898z M814.5,892.8c-0.5-0.7-0.6-1.4,0.3-1.9
					c0.9-0.5,2-0.5,3.1-0.1L814.5,892.8z"/>
			</g>
		</g>
		<g>
			<g>
				<path style="fill:#EF9D26;" d="M799.7,933.9v6.2c0,8.4-12.5,15.1-27.8,15.1c-15.4,0-27.8-6.8-27.8-15.1v-6.2H799.7z"/>
				<path style="fill:#F9C32A;" d="M783.3,953.9c2.5-0.6,4.7-1.4,6.7-2.3v-13.3h-6.7V953.9z"/>
				<path style="fill:#F9C32A;" d="M793.3,949.7c2.1-1.4,3.8-3,4.8-4.7v-10.4h-4.8V949.7z"/>
				<path style="fill:#F9DC32;" d="M744,933.9c0,8.4,12.5,15.1,27.8,15.1s27.8-6.8,27.8-15.1s-12.5-15.1-27.8-15.1
					C756.5,918.8,744,925.5,744,933.9z"/>
				<path style="fill:#F9C32A;" d="M750.4,933.7c0,6.3,9.6,11.4,21.4,11.4s21.4-5.1,21.4-11.4s-9.6-11.4-21.4-11.4
					S750.4,927.4,750.4,933.7z"/>
				<path style="fill:#EF9D26;" d="M781.3,929.1l2-1.1l-1.5-0.9l-2,1.1c-3.5-1.8-7.9-2.2-10.9-0.5c-3.8,2.2-1.3,4.5,0.7,6.4
					l-3.8,2.2c-0.6-0.6-0.4-1.3,0.5-1.9l-4.4-2.6c-3,1.9-2.3,4.3,0.7,6.4l-2,1.2l1.5,0.9l2-1.1c4,2.1,8.4,2,11,0.5
					c3.8-2.2,1.1-4.5-0.8-6.5l3.8-2.2c0.5,0.5,0.3,1.1-0.4,1.7l4.5,2.6C784.9,933.4,784.5,931.2,781.3,929.1z M770.5,937.2
					c-0.9,0.5-2.2,0.5-3.3,0.1l3.4-2C771.2,936.1,771.4,936.7,770.5,937.2z M773.2,932c-0.5-0.7-0.6-1.4,0.3-1.9
					c0.9-0.5,2-0.5,3.1-0.1L773.2,932z"/>
			</g>
			<g>
				<path style="fill:#EF9D26;" d="M799.7,925.9v6.2c0,8.4-12.5,15.1-27.8,15.1c-15.4,0-27.8-6.8-27.8-15.1v-6.2H799.7z"/>
				<path style="fill:#F9C32A;" d="M783.3,945.9c2.5-0.6,4.7-1.4,6.7-2.3v-13.3h-6.7V945.9z"/>
				<path style="fill:#F9C32A;" d="M793.3,941.8c2.1-1.4,3.8-3,4.8-4.7v-10.4h-4.8V941.8z"/>
				<path style="fill:#F9DC32;" d="M744,925.9c0,8.4,12.5,15.1,27.8,15.1s27.8-6.8,27.8-15.1s-12.5-15.1-27.8-15.1
					C756.5,910.8,744,917.6,744,925.9z"/>
				<path style="fill:#F9C32A;" d="M750.4,925.7c0,6.3,9.6,11.4,21.4,11.4s21.4-5.1,21.4-11.4c0-6.3-9.6-11.4-21.4-11.4
					C760,914.4,750.4,919.5,750.4,925.7z"/>
				<path style="fill:#EF9D26;" d="M781.3,921.1l2-1.1l-1.5-0.9l-2,1.1c-3.5-1.8-7.9-2.2-10.9-0.5c-3.8,2.2-1.3,4.5,0.7,6.4
					l-3.8,2.2c-0.6-0.6-0.4-1.3,0.5-1.9l-4.4-2.6c-3,1.9-2.3,4.3,0.7,6.4l-2,1.2l1.5,0.9l2-1.1c4,2.1,8.4,2,11,0.5
					c3.8-2.2,1.1-4.5-0.8-6.5l3.8-2.2c0.5,0.5,0.3,1.1-0.4,1.7l4.5,2.6C784.9,925.4,784.5,923.2,781.3,921.1z M770.5,929.3
					c-0.9,0.5-2.2,0.5-3.3,0.1l3.4-2C771.2,928.1,771.4,928.8,770.5,929.3z M773.2,924.1c-0.5-0.7-0.6-1.4,0.3-1.9
					c0.9-0.5,2-0.5,3.1-0.1L773.2,924.1z"/>
			</g>
		</g>
		<g>
			<g>
				<path style="fill:#EF9D26;" d="M758.4,957.2v6.2c0,8.4-12.5,15.1-27.8,15.1s-27.8-6.8-27.8-15.1v-6.2H758.4z"/>
				<path style="fill:#F9C32A;" d="M742,977.2c2.4-0.6,4.7-1.4,6.7-2.3v-13.3H742V977.2z"/>
				<path style="fill:#F9C32A;" d="M752,973.1c2.1-1.4,3.8-3,4.8-4.7V958H752V973.1z"/>
				<path style="fill:#F9DC32;" d="M702.7,957.2c0,8.4,12.5,15.1,27.8,15.1c15.4,0,27.8-6.8,27.8-15.1s-12.5-15.1-27.8-15.1
					C715.2,942.1,702.7,948.9,702.7,957.2z"/>
				<path style="fill:#F9C32A;" d="M709.1,957c0,6.3,9.6,11.4,21.4,11.4c11.8,0,21.4-5.1,21.4-11.4s-9.6-11.4-21.4-11.4
					C718.7,945.7,709.1,950.8,709.1,957z"/>
				<path style="fill:#EF9D26;" d="M740,952.4l2-1.1l-1.5-0.9l-2,1.1c-3.5-1.8-7.9-2.2-10.9-0.5c-3.8,2.2-1.3,4.5,0.7,6.4l-3.8,2.2
					c-0.6-0.6-0.4-1.3,0.5-1.9l-4.4-2.6c-3,1.9-2.3,4.3,0.7,6.4l-2,1.2l1.5,0.9l2-1.1c4,2.1,8.4,2,11,0.5c3.8-2.2,1.1-4.5-0.8-6.5
					l3.8-2.2c0.5,0.5,0.4,1.1-0.4,1.7l4.5,2.6C743.6,956.7,743.1,954.5,740,952.4z M729.2,960.6c-0.9,0.5-2.2,0.5-3.3,0.1l3.4-2
					C729.9,959.4,730.1,960.1,729.2,960.6z M731.9,955.4c-0.5-0.7-0.6-1.4,0.3-1.9c0.9-0.5,2-0.5,3.1-0.1L731.9,955.4z"/>
			</g>
		</g>
		<g>
			<polygon style="fill:#BBCEE1;" points="1158.9,842.1 1123.2,821.4 1123.2,863.1 1158.9,883.8 			"/>
			<polygon style="fill:#FFFFFF;" points="1160.1,800.1 1123.2,821.4 1158.9,842.1 1195.9,820.9 			"/>
			<polygon style="fill:#A7BCCE;" points="1195.9,820.9 1158.9,842.1 1158.9,883.8 1195.9,862.3 			"/>
		</g>
		<path style="fill:#ED5561;" d="M1069.9,485c-3.8-2.2-6.8-0.4-6.8,3.9c0,2,0.7,4.3,1.8,6.3l-27.4,26.1c-1-1.3-2.2-2.5-3.5-3.2
			c-2-1.1-3.7-1.2-5-0.4l-14.9-19.6c0.2-0.5,0.2-1.1,0.2-1.8c0-4.3-3-9.6-6.8-11.7c-3.8-2.2-6.8-0.4-6.8,3.9s3,9.6,6.8,11.7
			c1.7,1,3.2,1.1,4.3,0.7l15.4,20.2c0,0.3-0.1,0.6-0.1,0.9c0,4.3,3,9.6,6.8,11.7c3.8,2.2,6.8,0.4,6.8-3.9c0-1.8-0.5-3.7-1.4-5.5
			l27.6-26.2c0.9,1,1.9,2,3,2.6c3.8,2.2,6.8,0.4,6.8-3.9C1076.7,492.4,1073.7,487.1,1069.9,485z"/>
		<g>
			<g>
				<g>
					<g>
						<polygon style="fill:#BBCEE1;" points="715.9,540.6 626.2,592.2 626.2,699.4 715.9,647.5 						"/>
						<polygon style="fill:#A7BCCE;" points="626.2,592.2 619.4,588.2 619.4,695.4 626.2,699.4 						"/>
						<polygon style="fill:#FFFFFF;" points="715.9,540.6 709,536.7 619.4,588.2 626.2,592.2 						"/>
					</g>
				</g>
				<polygon style="fill:#F4F7FF;" points="708.3,554.1 633.8,596.9 633.8,686 708.3,642.9 				"/>
				<g>
					<polygon style="fill:#BBCEE1;" points="636.7,674 636.7,676.4 632.5,678.8 632.5,676.5 					"/>
					<polygon style="fill:#BBCEE1;" points="636.7,665.1 636.7,667.4 632.5,669.9 632.5,667.5 					"/>
					<polygon style="fill:#BBCEE1;" points="636.7,656.1 636.7,658.5 632.5,660.9 632.5,658.5 					"/>
					<polygon style="fill:#BBCEE1;" points="636.7,647.2 636.7,649.5 632.5,651.9 632.5,649.6 					"/>
					<polygon style="fill:#BBCEE1;" points="636.7,638.2 636.7,640.5 632.5,643 632.5,640.6 					"/>
					<polygon style="fill:#BBCEE1;" points="636.7,629.2 636.7,631.6 632.5,634 632.5,631.7 					"/>
					<polygon style="fill:#BBCEE1;" points="636.7,620.3 636.7,622.6 632.5,625 632.5,622.7 					"/>
					<polygon style="fill:#BBCEE1;" points="636.7,611.3 636.7,613.6 632.5,616.1 632.5,613.7 					"/>
				</g>
			</g>
			<polygon style="fill:#F9AE40;" points="640.8,674.2 703,638.3 703,586.1 			"/>
			<polygon style="fill:#F9AE40;" points="650.7,594.7 650.7,612.3 640.8,618 640.8,600.3 			"/>
			<polygon style="fill:#ED5561;" points="640.8,674.2 703,586.1 703,564.4 			"/>
		</g>
		<g>
			<g>
				<path style="fill:#BBCEE1;" d="M711.7,1017.1L711.7,1017.1v-3.9l-1.3,0.1c-0.5-0.7-1.2-1.4-2-1.9l-76.3-44.3
					c-4.1-2.4-9.2-2.4-13.3,0l-115.4,66.6c-0.5,0.3-1,0.7-1.4,1.1l-1.7,0.2v4.1l0,0c0,2.1,1,4.3,3.1,5.5l76,44.1
					c4.7,2.7,10.4,2.7,15,0l113.9-65.8C710.7,1021.7,711.8,1019.4,711.7,1017.1z"/>
				<path style="fill:#E2F7E8;" d="M708.4,1007.3L632.1,963c-4.1-2.4-9.2-2.4-13.3,0l-115.4,66.6c-4.2,2.4-4.2,8.5,0,10.9l76,44.1
					c4.7,2.7,10.4,2.7,15,0l113.9-65.8C712.9,1016.4,712.9,1009.9,708.4,1007.3z"/>
				<path style="fill:#A7BCCE;" d="M708.4,1018.9l-113.9,65.8c-2.3,1.3-5,2-7.6,2v4.1c2.6,0,5.2-0.7,7.6-2l113.9-65.8
					c2.3-1.3,3.4-3.6,3.3-6l0,0v-3.9l0,0C711.7,1015.4,710.6,1017.7,708.4,1018.9z"/>
			</g>
			<path style="fill:#1C75BC;" d="M676,1013.6c0,3.7,5.5,6.7,12.3,6.7s12.3-3,12.3-6.7s-5.5-6.7-12.3-6.7S676,1009.9,676,1013.6z"/>
			<path style="fill:#F9AE40;" d="M662.6,1021.4c0,3.7,5.5,6.7,12.3,6.7s12.3-3,12.3-6.7s-5.5-6.7-12.3-6.7
				C668,1014.7,662.6,1017.7,662.6,1021.4z"/>
			<path style="fill:#F9AE40;" d="M551.8,1029.3l-14.5-8.4c-0.8-0.5-1.8-0.5-2.5,0l-21.9,12.7c-0.8,0.5-0.8,1.6,0,2.1l14.5,8.4
				c0.9,0.5,2,0.5,2.9,0l21.7-12.5C552.7,1031,552.7,1029.8,551.8,1029.3z"/>
			<polygon style="fill:#A7BCCE;" points="658.4,988 543.9,1054 548.9,1056.9 663.4,990.8 			"/>
			<polygon style="fill:#A7BCCE;" points="667.7,993.3 553.1,1059.3 558.1,1062.2 672.6,996.1 			"/>
		</g>
		<polygon style="fill:#F4F7FF;" points="830.3,514.4 782.3,486.6 782.3,491.3 830.3,519.1 		"/>
		<polygon style="fill:#F4F7FF;" points="830.3,522.3 782.3,494.5 782.3,499.1 830.3,526.9 		"/>
		<g>
			<polygon style="fill:#F4F7FF;" points="1066.4,830.4 1018.4,802.6 1018.4,807.2 1066.4,835 			"/>
			<polygon style="fill:#F4F7FF;" points="1066.4,838.2 1018.4,810.5 1018.4,815.1 1066.4,842.9 			"/>
		</g>
		<g>
			<polygon style="fill:#F4F7FF;" points="1011.2,798.4 963.2,770.6 963.2,775.3 1011.2,803.1 			"/>
			<polygon style="fill:#F4F7FF;" points="1011.2,806.3 963.2,778.5 963.2,783.2 1011.2,811 			"/>
		</g>
		<g>
			<polygon style="fill:#F4F7FF;" points="955.9,766.5 908,738.7 908,743.4 955.9,771.1 			"/>
			<polygon style="fill:#F4F7FF;" points="955.9,774.3 908,746.5 908,751.2 955.9,779 			"/>
		</g>
		<g>
			<polygon style="fill:#F4F7FF;" points="900.7,734.5 852.7,706.7 852.7,711.4 900.7,739.2 			"/>
			<polygon style="fill:#F4F7FF;" points="900.7,742.4 852.7,714.6 852.7,719.3 900.7,747.1 			"/>
		</g>
		<polygon style="fill:#F4F7FF;" points="830.3,530.1 782.3,502.3 782.3,507 830.3,534.8 		"/>
		<polygon style="fill:#F4F7FF;" points="830.3,538 782.3,510.2 782.3,514.9 830.3,542.7 		"/>
		<polygon style="fill:#F4F7FF;" points="830.3,545.8 782.3,518.1 782.3,522.7 830.3,550.5 		"/>
		<polygon style="fill:#F4F7FF;" points="830.3,553.7 782.3,525.9 782.3,530.6 830.3,558.4 		"/>
		<polygon style="fill:#F4F7FF;" points="830.3,561.6 782.3,533.8 782.3,538.4 830.3,566.2 		"/>
		<polygon style="fill:#F4F7FF;" points="830.3,569.4 782.3,541.6 782.3,546.3 830.3,574.1 		"/>
		<polygon style="fill:#F4F7FF;" points="830.3,577.3 782.3,549.5 782.3,554.2 830.3,582 		"/>
		<polygon style="fill:#F4F7FF;" points="830.3,585.1 782.3,557.4 782.3,562 830.3,589.8 		"/>
		<polygon style="fill:#F4F7FF;" points="830.3,593 782.3,565.2 782.3,569.9 830.3,597.7 		"/>
		<polygon style="fill:#F4F7FF;" points="830.3,600.9 782.3,573.1 782.3,577.7 830.3,605.5 		"/>
		<polygon style="fill:#F4F7FF;" points="830.3,608.7 782.3,580.9 782.3,585.6 830.3,613.4 		"/>
		<polygon style="fill:#F4F7FF;" points="830.3,616.6 782.3,588.8 782.3,593.5 830.3,621.2 		"/>
		<polygon style="fill:#F4F7FF;" points="830.3,624.4 782.3,596.7 782.3,601.3 830.3,629.1 		"/>
		<polygon style="fill:#F4F7FF;" points="830.3,632.3 782.3,604.5 782.3,609.2 830.3,637 		"/>
		<polygon style="fill:#F4F7FF;" points="830.3,640.2 782.3,612.4 782.3,617 830.3,644.8 		"/>
		<g>
			<polygon style="fill:#F4F7FF;" points="839.2,519.5 1066.4,651.3 1066.4,818.5 839.2,686.2 			"/>
			<polygon style="fill:#BBCEE1;" points="844.8,677 844.8,678.8 1059.1,803.6 1059.1,801.8 			"/>
			<polygon style="fill:#BBCEE1;" points="844.8,657.4 844.8,659.3 1059.1,784.1 1059.1,782.2 			"/>
			<polygon style="fill:#BBCEE1;" points="844.8,637.8 844.8,639.7 1059.1,764.5 1059.1,762.7 			"/>
			<polygon style="fill:#BBCEE1;" points="844.8,618.3 844.8,620.2 1059.1,745 1059.1,743.1 			"/>
			<polygon style="fill:#BBCEE1;" points="844.8,598.8 844.8,600.6 1059.1,725.4 1059.1,723.5 			"/>
			<polygon style="fill:#BBCEE1;" points="844.8,579.2 844.8,581.1 1059.1,705.9 1059.1,704 			"/>
			<polygon style="fill:#BBCEE1;" points="844.8,559.6 844.8,561.5 1059.1,686.3 1059.1,684.4 			"/>
			<polygon style="fill:#BBCEE1;" points="844.8,541.2 844.8,677 846.5,678 846.5,542.1 			"/>
			<polygon style="fill:#BBCEE1;" points="865.4,553.2 865.4,689 867.1,690 867.1,554.2 			"/>
			<polygon style="fill:#BBCEE1;" points="886,565.2 886,701.1 887.7,702 887.7,566.2 			"/>
			<polygon style="fill:#BBCEE1;" points="906.7,577.3 906.7,713.1 908.4,714.1 908.4,578.3 			"/>
			<polygon style="fill:#BBCEE1;" points="927.3,589.3 927.3,725.2 929,726.1 929,590.3 			"/>
			<polygon style="fill:#BBCEE1;" points="947.9,601.4 947.9,737.2 949.6,738.2 949.6,602.4 			"/>
			<polygon style="fill:#BBCEE1;" points="968.5,613.4 968.5,749.2 970.2,750.2 970.2,614.4 			"/>
			<polygon style="fill:#BBCEE1;" points="989.1,625.5 989.1,761.3 990.8,762.3 990.8,626.5 			"/>
			<polygon style="fill:#BBCEE1;" points="1009.8,637.5 1009.8,773.3 1011.5,774.3 1011.5,638.5 			"/>
			<polygon style="fill:#BBCEE1;" points="1030.4,649.6 1030.4,785.4 1032.1,786.3 1032.1,650.5 			"/>
			<polygon style="fill:#BBCEE1;" points="1051,661.6 1051,797.4 1052.7,798.4 1052.7,662.6 			"/>
			<g>
				<path style="fill:#ED5561;" d="M886.9,658.3c2.3,1.3,4.2,4.6,4.2,7.2s-1.9,3.7-4.2,2.4s-4.2-4.6-4.2-7.2
					C882.7,658,884.6,657,886.9,658.3z"/>
			</g>
			<g>
				<path style="fill:#F9AE40;" d="M886.9,638.4c2.3,1.3,4.2,4.6,4.2,7.2s-1.9,3.7-4.2,2.4s-4.2-4.6-4.2-7.2
					S884.6,637.1,886.9,638.4z"/>
			</g>
			<g>
				<path style="fill:#F9AE40;" d="M928.1,683.2c2.3,1.3,4.2,4.6,4.2,7.2c0,2.7-1.9,3.7-4.2,2.4s-4.2-4.6-4.2-7.2
					C924,682.9,925.8,681.8,928.1,683.2z"/>
			</g>
			<g>
				<path style="fill:#F9AE40;" d="M948.8,655.3c2.3,1.3,4.2,4.6,4.2,7.2c0,2.7-1.9,3.7-4.2,2.4s-4.2-4.6-4.2-7.2
					C944.6,655,946.5,653.9,948.8,655.3z"/>
			</g>
			<g>
				<path style="fill:#F9AE40;" d="M969.2,647.5c2.3,1.3,4.2,4.6,4.2,7.2c0,2.7-1.9,3.7-4.2,2.4s-4.2-4.6-4.2-7.2
					S966.9,646.2,969.2,647.5z"/>
			</g>
			<g>
				<path style="fill:#F9AE40;" d="M1010.6,691.5c2.3,1.3,4.2,4.6,4.2,7.2c0,2.7-1.9,3.7-4.2,2.4s-4.2-4.6-4.2-7.2
					C1006.4,691.3,1008.3,690.2,1010.6,691.5z"/>
			</g>
			<g>
				<path style="fill:#F9AE40;" d="M990,718.7c2.3,1.3,4.2,4.6,4.2,7.2c0,2.7-1.9,3.7-4.2,2.4s-4.2-4.6-4.2-7.2
					C985.8,718.4,987.7,717.4,990,718.7z"/>
			</g>
			<g>
				<path style="fill:#F9AE40;" d="M1031.2,682.4c2.3,1.3,4.2,4.6,4.2,7.2c0,2.7-1.9,3.7-4.2,2.4c-2.3-1.3-4.2-4.6-4.2-7.2
					C1027,682.1,1028.9,681.1,1031.2,682.4z"/>
			</g>
			<g>
				<path style="fill:#ED5561;" d="M907.5,681.5c2.3,1.3,4.2,4.6,4.2,7.2c0,2.7-1.9,3.7-4.2,2.4s-4.2-4.6-4.2-7.2
					C903.3,681.2,905.2,680.2,907.5,681.5z"/>
			</g>
			<g>
				<path style="fill:#ED5561;" d="M928.1,663.7c2.3,1.3,4.2,4.6,4.2,7.2c0,2.7-1.9,3.7-4.2,2.4s-4.2-4.6-4.2-7.2
					C924,663.4,925.8,662.4,928.1,663.7z"/>
			</g>
			<g>
				<path style="fill:#ED5561;" d="M969.2,697.2c2.3,1.3,4.2,4.6,4.2,7.2c0,2.7-1.9,3.7-4.2,2.4s-4.2-4.6-4.2-7.2
					S966.9,695.9,969.2,697.2z"/>
			</g>
			<g>
				<path style="fill:#ED5561;" d="M990,673.1c2.3,1.3,4.2,4.6,4.2,7.2c0,2.7-1.9,3.7-4.2,2.4s-4.2-4.6-4.2-7.2
					C985.8,672.9,987.7,671.8,990,673.1z"/>
			</g>
			<g>
				<path style="fill:#ED5561;" d="M1031.2,665c2.3,1.3,4.2,4.6,4.2,7.2c0,2.7-1.9,3.7-4.2,2.4c-2.3-1.3-4.2-4.6-4.2-7.2
					C1027,664.7,1028.9,663.6,1031.2,665z"/>
			</g>
			<polygon style="fill:#ED5561;" points="1031.1,669 989.5,677.2 969.1,700.9 928.1,667.5 907.6,685.2 887.1,662.2 866,670.3 
				866.6,671.9 886.7,664.1 907.4,687.5 928.2,669.6 969.3,703.2 990.4,678.7 1031.4,670.6 			"/>
			<polygon style="fill:#F9AE40;" points="1030.9,687 1010.1,695.7 990.3,721.7 970,652.1 969.7,651.3 948.2,659.4 928.1,686.7 
				886.8,642 864.9,670.9 866.2,671.9 887,644.5 927.5,688.5 928.2,689.2 949.3,660.8 968.7,653.4 989.7,725.3 1011.1,697 
				1031.5,688.5 			"/>
			<g>
				<path style="fill:#ED5561;" d="M866.3,666.3c2.3,1.3,4.2,4.6,4.2,7.2c0,2.7-1.9,3.7-4.2,2.4s-4.2-4.6-4.2-7.2
					C862.1,666,864,665,866.3,666.3z"/>
			</g>
		</g>
		<g>
			<path style="fill:#F4C5A2;" d="M650.2,713c0,0-4.4,0.5-5.9,0.9s-7.2,1.2-9.1,2.7c-1.9,1.5,2.8,1.5,4.1,1.9s-1.7,1.8-3.6,3.3
				c-1.9,1.5-3.1,2.8-4,6.5c-0.7,2.7,8.2,9.4,10.5,5.4c2.2-3.9,2.3-3.9,6.2-6c4.7-2.6,7.3-5.6,8.7-6.9L650.2,713z"/>
			<path style="fill:#E6E7E8;" d="M650.3,710.5l-3.6,2.3c0,0,4.2,7.1,7.5,11.3l3.9-2.3L650.3,710.5z"/>
			<polygon style="fill:#0F4463;" points="682.1,690.7 649.2,710.7 657,722.9 694.7,702.1 704.5,687.9 705.6,648 			"/>
			<path style="fill:#9D4D36;" d="M721.6,862.3l-14.7-0.9c0,0-1.4,2.7-6.5,4s-15.2,7.3-13.1,12.3c2.1,5,10.6,4.9,15.2,2.8
				c4.7-2.1,10.7-3.2,10.7-3.2l1.2,2l9.4-2.4l0.3-13.5L721.6,862.3z"/>
			<path style="fill:#9D4D36;" d="M730.7,868.6c0,0-2.2,5.2-4.6,6.9s-9,12.2-7,15.7s6.5,4.7,9.1,4.1c2.7-0.6,9.3-4,11.4-8.4l1.9-3.7
				c0,0,0.9,1.6,1.1,1.6c0.2-0.1,6.3-3.4,7.3-4.3c0,0-0.5-10.4-1-15L730.7,868.6z"/>
			<path style="fill:#072944;" d="M722.7,731.8h-19.6c-0.4,0.6-0.8,48.3-0.6,56.1s2.7,73.8,2.7,73.8s8,6.2,19.8,2.7l2.1-83
				L722.7,731.8z"/>
			<path style="fill:#07304B;" d="M747.5,726.4c0,0,0.4,24.7,0.1,32.8c-0.3,8.2,2.5,43,2.7,43.8c0.3,0.8,1,63.9,1,63.9
				s-8.2,7.1-23.4,3.8c0,0-4.6-85.7-6.2-99c-1.6-13.3-3.5-40.8-3.5-40.8L747.5,726.4z"/>
			<path style="fill:#0B3B56;" d="M739.6,643.2L715,644l-9.5,4c0,0-3.7,7.8-5.8,22.7c-2,14.9,2,60.3,2,60.3
				c9.2,4.6,40.3,3.4,40.3,3.4c5.7-14.7,11.3-81.7,11.3-81.7L739.6,643.2z"/>
			<path style="fill:#D4D6D8;" d="M721.3,643.8l-8.6,7.3c-3.7,21.7-3.4,64-3,82c3.2,0.5,6.7,0.8,10.3,1c0.9-45,15.8-87.8,16.8-90.8
				L721.3,643.8z"/>
			<path style="fill:#0B3B56;" d="M713.7,654.4l1.6,6.7c0,0-3.3,41.6-4.4,59.3l3.5,7.3l4.5-6.3l0.8-57.8l4.4-8.3
				C724.2,655.4,719.7,652,713.7,654.4z"/>
			<polygon style="fill:#E6E7E8;" points="718.7,653.8 710.9,657 714,644 718,641.2 			"/>
			<polygon style="fill:#F4C5A2;" points="735.8,637.6 716.9,640.5 718.7,653.8 737,643.1 			"/>
			<path style="fill:#FED4BD;" d="M740.3,625.3c0,10.3-7.5,18.7-16.8,18.7s-14.8-8.3-14.8-18.7c0-10.3,5.6-18.6,14.8-18.6
				S740.3,615,740.3,625.3z"/>
			<path style="fill:#07304B;" d="M725,624c0,0-2.5,10.5,3,10.4s3.4,1.9,4.8,4.1c1.4,2.2,5.5,0.7,8-4.5s5.2-16.8,1.1-22.5
				c-4.4-6.1-13.1-8.4-18.7-7.9c-6.9,0.6-15.6,6-16.4,10.9C705.4,623.5,725,624,725,624z"/>
			<polygon style="fill:#0B3B56;" points="744,730.5 720.2,730 719.7,743.7 745.4,747.2 			"/>
			<path style="fill:#F4C5A2;" d="M740.3,744.2c0,0-3.3,3-4.2,4.2c-1,1.2-5.1,5.2-5.7,7.6c-0.6,2.3,3.1-0.4,4.4-0.9s3.1,0.8,2.5,3.1
				c-0.6,2.4-3.8,6.6-4.9,9.2c-1.2,2.6,9.5,2.8,12.7-0.6c3.2-3.4,4.8-6.9,5.2-11.4c0.4-4.4-1.4-8-1-9.9L740.3,744.2z"/>
			<polygon style="fill:#E6E7E8;" points="737.6,741.5 736.3,746.5 751.3,751.1 752.8,745.6 			"/>
			<path style="fill:#0F4463;" d="M753.4,652.7c0,0-10.5,0.9-9,18.6s1.2,29.9,1.2,29.9L737,743l15.9,4.3c0,0,11-42.6,11-44
				s-2.7-37.6-2.7-37.6S760.2,655.9,753.4,652.7z"/>
			<path style="fill:#0B3B56;" d="M701,721.5l-0.2,16.3c0,1.2,0.8,2.3,2,2.6l6.7,1.7l0.2-10.7L701,721.5z"/>
			<polygon style="fill:#E6E7E8;" points="737.4,640.3 718.7,653.8 726.9,661.8 739.6,643.2 			"/>
		</g>
		<g>
			<path style="fill:#F4C5A2;" d="M638.7,751c0,0,3.1-3.1,4.2-4s5.3-4.8,7.6-5.3s-0.5,3-1,4.3c-0.5,1.2,0.6,3,3,2.5
				c2.3-0.5,6.6-3.5,9.1-4.5s2.3,9.4-1,12.4c-3.4,3-6.9,4.5-11.3,4.7c-4.3,0.2-7.7-1.7-9.6-1.3L638.7,751z"/>
			<path style="fill:#933E31;" d="M547.9,926.2c0,0-0.6,1.8,7,2.2s15.6,0.4,16.6,5.4s-5.9,10.8-14.2,11.9c-7.1,1-19.4,0.2-26.3-1.1
				c-1.2-0.2-2.2-0.8-2.3-1.9c-0.3-2.4-0.6-6.8,1-11.5C531.9,924.4,547.9,926.2,547.9,926.2z"/>
			<path style="fill:#9D4D36;" d="M568.5,931.8c0,0-0.6,1.8,7,2.2s15.6,0.4,16.6,5.4s-4.8,8.9-13.1,10c-7.1,1-21.3,1.7-27,1.9
				c-1.2,0-2.2-0.8-2.3-1.9c-0.3-2.4-0.8-6.8-0.4-11.4C549.9,930.9,568.5,931.8,568.5,931.8z"/>
			<path style="fill:#072944;" d="M531.1,809.2c0,0-0.8,60.8-1.4,68.2c-0.5,7.4-2.2,52.2-2.2,52.2s12.7,6.4,22.6,2l5.7-115.6
				L531.1,809.2z"/>
			<path style="fill:#07304B;" d="M548.9,813.1V874c-0.5,17.8-1.5,64.5-1.5,64.5c14.5,1.7,23.7-6.3,23.7-6.3c-0.8-8,0-52.9,0-52.9
				c3-23.3,4.8-60.8,5.1-67.7c0-0.7,0-1.1,0-1.1L548.9,813.1z"/>
			<path style="fill:#0F4463;" d="M522.4,723.3c0,0-9.3,29-7.3,44.3c0,0,7.5,6.4,16.1,10.4L522.4,723.3z"/>
			<path style="fill:#FED4BD;" d="M576.5,699.3c-1.1,11.1-9.3,19.4-18.3,18.5s-15.4-10.6-14.3-21.7c1.1-11.1,9.3-19.4,18.3-18.5
				C571.1,678.5,577.6,688.2,576.5,699.3z"/>
			<path style="fill:#F99840;" d="M546.1,708.8c0,0,5.6,1.5,12.3-2.1c0,0,4.1-2.8,6.6-8c0,0,5,2.1,6.5-2.1s7.7-4,8-7.7
				c0,0-1.7-18.3-21.3-15.1C558.1,673.7,530.2,679.3,546.1,708.8z"/>
			<path style="fill:#0B3B56;" d="M544.9,712.2c0,0,11.8-0.8,21.1,5.7c0,0,0.7,2,2.5,3.2c1.9,1.2,15.6,6.5,15.6,6.5
				s-8.6,57.9-3.9,84.2c0,0-20,15.6-51.2,0c0,0-4.6-71.7-6.6-88.3C522.4,723.3,527.6,716.9,544.9,712.2z"/>
			<path style="fill:#0F4463;" d="M584.1,727.5l23.4,25.4l33.2-6.2c0,0,3.8,8.8,2.7,15.2l-40.5,9.9l-26.3-23.4
				C576.6,748.3,567.8,730,584.1,727.5z"/>
		</g>
		<g>
			<path style="fill:#F4C5A2;" d="M1202.2,721c0,0,0.5-4.3,0.8-5.7c0.4-1.4,1.2-7,2.6-8.8c1.5-1.8,1.5,2.7,1.9,4s2.4,2,3.9,0.1
				s3-6.8,4.3-9.2s7.7,5.9,6.9,10.3c-0.8,4.4-2.6,7.8-5.9,10.7c-3.2,2.8-7.1,3.5-8.3,4.9L1202.2,721z"/>
			<path style="fill:#933E31;" d="M1117.5,936.2c0,0-0.6,1.8,7,2.2s15.6,0.4,16.6,5.4s-5.9,10.8-14.2,11.9c-7.1,1-19.4,0.2-26.3-1.1
				c-1.2-0.2-2.2-0.8-2.3-1.9c-0.3-2.4-0.6-6.8,1-11.5C1101.5,934.4,1117.5,936.2,1117.5,936.2z"/>
			<path style="fill:#9D4D36;" d="M1138.2,941.8c0,0-0.6,1.8,7,2.2s15.6,0.4,16.6,5.4s-4.8,8.9-13.1,10c-7.1,1-21.3,1.7-27,1.9
				c-1.2,0-2.2-0.8-2.3-1.9c-0.3-2.4-0.8-6.8-0.4-11.4C1119.5,940.9,1138.2,941.8,1138.2,941.8z"/>
			<path style="fill:#072944;" d="M1100.8,819.2c0,0-0.8,60.8-1.4,68.2s-2.2,52.2-2.2,52.2s12.7,6.4,22.6,2l5.7-115.6L1100.8,819.2z
				"/>
			<path style="fill:#07304B;" d="M1118.6,823.1V884c-0.6,17.8-1.6,64.5-1.6,64.5c14.5,1.7,23.7-6.3,23.7-6.3c-0.8-8,0-52.9,0-52.9
				c3-23.3,4.8-60.8,5.1-67.7c0-0.7,0.1-1.1,0.1-1.1L1118.6,823.1z"/>
			<path style="fill:#0F4463;" d="M1092,733.3c0,0-9.3,29-7.3,44.3c0,0,7.5,6.4,16.1,10.4L1092,733.3z"/>
			<path style="fill:#FED4BD;" d="M1142.7,706.5c0,11.2-7.4,20.2-16.4,20.2c-9.1,0-16.4-9.1-16.3-20.2s7.4-20.2,16.4-20.2
				C1135.4,686.3,1142.7,695.4,1142.7,706.5z"/>
			<path style="fill:#0B3B56;" d="M1114.5,722.2c0,0,11.8-0.8,21.1,5.7c0,0,0.7,2,2.6,3.2s15.6,6.5,15.6,6.5s-8.6,57.9-3.9,84.2
				c0,0-20,15.6-51.2,0c0,0-4.6-71.7-6.6-88.3C1092,733.3,1097.2,726.9,1114.5,722.2z"/>
			<path style="fill:#0F4463;" d="M1153.7,737.5l23.3,5.4l24.9-25.4c0,0,8.8,2.7,10.5,10.2l-29.7,33.8l-36.6-3.2
				C1146.2,758.3,1137.5,740.1,1153.7,737.5z"/>
			<path style="fill:#0B3B56;" d="M1132.2,685.4c0,0,12.8,2.5,12.9,13.2l-11.9,3.9c0,0,1.9,9.1-4.8,11.4c0,0-1.9,8.2-14.1,7.5
				c0,0-18.3-23.8,4.1-35.1C1118.3,686.3,1124.6,684,1132.2,685.4z"/>
		</g>
	</g>
</g>
<g>
	<g>
		<g>
			<defs>
				<path id="SVGID_3_" d="M1606.6,0v779.9c0,0-85.2,123.6-238.8,237.1c-45.1,33.4-96.2,65.9-152.7,94.1
					c-187.3,93.5-434.7,140.2-726.6,16.6c-0.9-0.4-1.9-0.8-2.8-1.2c-2.9-1.2-5.7-2.5-8.6-3.7c-148.3-65-308-173.9-477.1-342.9V0
					H1606.6z"/>
			</defs>
			<clipPath id="SVGID_4_">
				<use xlink:href="#SVGID_3_"  style="overflow:visible;"/>
			</clipPath>
			<polyline style="opacity:0.12;clip-path:url(#SVGID_4_);enable-background:new    ;" points="461.7,829.3 531.1,891 528.7,942.5 
				598.5,989.7 500.3,1035.1 582.8,1090.2 915.5,1301 1560.8,1129 1195.9,862.3 1119.7,901.5 1092.2,866.7 767.2,689.9 730.6,808.9 
				719.7,798.4 654.2,742.3 			"/>
		</g>
	</g>
</g>
</svg>
