<svg data-name="Layer 1" xmlns="http://www.w3.org/2000/svg" viewBox="0 0 197.78 199.54"><path d="M98.42 199.42a98.85 98.85 0 0 1-46.88-12.12 4.45 4.45 0 0 0-3.94-.37c-12.19 4-24.41 7.88-36.63 11.78-4.2 1.34-7.36.44-9.58-2.69-1.72-2.42-1.62-5-.73-7.71 4-12.26 7.88-24.55 11.87-36.8a3.83 3.83 0 0 0-.31-3.41A93.16 93.16 0 0 1 .84 113.57C-2.5 86.13 4.08 61.24 21.18 39.42c14.75-18.82 34-30.91 57.43-35.61 29.88-6 57.24.31 81.36 19.08 18.87 14.69 30.92 34 35.62 57.41 6 29.88-.31 57.23-19.08 81.34-14.69 18.87-34 30.7-57.42 35.62-6.75 1.42-13.73 1.8-20.6 2.66ZM19.67 179.7c8.83-2.84 17.31-5.37 25.64-8.32A12.78 12.78 0 0 1 57 172.55a80.78 80.78 0 0 0 55.3 10.25c24.07-4 42.86-16.47 56.31-36.65 11.93-17.91 16.06-37.78 12.55-59-4-24.07-16.49-42.83-36.66-56.3C127 19.17 107.62 15 86.91 18c-22.32 3.26-40.51 14-54.2 32-15.54 20.27-20.41 43.17-15.37 68.18a78.5 78.5 0 0 0 10.21 25.62 9.32 9.32 0 0 1 .94 8.62c-.63 1.68-1.14 3.41-1.69 5.11-2.34 7.26-4.67 14.47-7.13 22.17Z"/><path d="M69.87 100.6a9.65 9.65 0 1 1-9.49-9.71 9.76 9.76 0 0 1 9.49 9.71ZM108.5 100.47a9.65 9.65 0 1 1-9.62-9.58 9.75 9.75 0 0 1 9.62 9.58ZM147.13 100.56a9.65 9.65 0 1 1-9.53-9.67 9.75 9.75 0 0 1 9.53 9.67Z"/></svg>