<svg xmlns="http://www.w3.org/2000/svg" viewBox="0 0 383.5 383.4" xml:space="preserve"><path fill="#478BB5" d="M157.3 226.7c5.5 5.3 10.9 10.7 16.4 16l35.2 35.2c2.6 2.7 5.2 5.3 7.8 8.1 4.4 4.7 4.8 10.9.3 15.5-10.1 10.3-20 20.9-31 30.3-23.4 20-57.1 21.9-83.2 5.6-1.4-.9-3.1-1.3-4.7-2-.2-.5-.2-1.1-.5-1.4-7.2-7-14.6-13.9-21.6-21.1-2.4-2.4-3.7-2.1-5.9.1-14.7 14.9-29.5 29.6-44.3 44.4-1.8 1.8-3.4 4-5 6-2.9-2.9-5.9-5.7-8.7-8.7-4.1-4.6-8-9.3-12-14v-5.2c2-2.6 3.7-5.6 6-7.9 14.1-14.2 28.3-28.3 42.5-42.5 7.2 7.4 14.5 14.7 21.6 22.2 2.2 2.3 3.3 2.5 5.7.1 24.2-24.4 48.5-48.7 72.9-73 2.6-2.7 5.6-5.1 8.5-7.7z"/><path fill="#3A7193" d="M20.7 363.4c1.7-2 3.2-4.1 5-6C40.4 342.6 55.3 327.9 70 313c2.2-2.3 3.6-2.5 5.9-.1 7.1 7.2 14.4 14 21.6 21.1.3.3.3.9.5 1.4-14.6 14.6-29.2 29.3-43.9 43.8-1.6 1.6-3.6 2.8-5.5 4.2h-6c-1.9-1.2-4-2-5.5-3.5-5.6-5.4-11-11-16.4-16.5z"/><path fill="#4E98C6" d="M226.6 157.4c-19.7-19.7-39.4-39.3-59-59-5.7-5.7-5.7-12 0-17.7 11-10.7 21.7-21.7 33.3-31.6 9.2-7.9 20.7-11.6 32.8-13.1 18.3-2.3 35 2.1 50.2 12.4.3.2.7.2 1.1.3 4.2 4 8.4 8.1 12.7 12.1 4.2 4 8.4 8.1 12.7 12.1.1.4.1.9.2 1.3-1.3.9-2.7 1.7-3.8 2.8l-77.1 77.1c-1.2 1.1-2.1 2.2-3.1 3.3z"/><path fill="#478BB5" d="M226.6 157.4c1-1.1 1.9-2.3 3-3.3L306.7 77c1.1-1.1 2.5-1.9 3.8-2.8 7.5 7.4 15 14.9 22.5 22.3.7.6 1.5 1.1 2.2 1.7.5 1.3.8 2.8 1.6 4 18.1 28.6 14.2 64.9-9.6 89-8.3 8.4-16.7 16.8-25.1 25.1-5.1 5-11.5 5.2-16.3.4-19.8-19.7-39.5-39.5-59.2-59.3z"/><path fill="#4E98C6" d="M157.3 226.7c-2.9 2.6-5.8 5-8.6 7.8-24.3 24.3-48.7 48.5-72.9 73-2.4 2.4-3.6 2.2-5.7-.1-7.1-7.5-14.4-14.8-21.6-22.2-3.4-7-7.7-13.8-9.9-21.1-7.5-24.5-3.1-47.2 13.4-66.7 9.1-10.8 19.6-20.5 29.7-30.5 4.6-4.5 11-4.3 15.8.1 2.7 2.5 5.4 5.2 8.1 7.7l35.2 35.2c5.4 5.5 11 11.1 16.5 16.8z"/><path fill="#7FB0BF" d="m208.8 277.9-35.2-35.2c1.2-.8 2.6-1.5 3.6-2.5 10.3-10.2 20.5-20.4 30.7-30.7 7.5-7.5 18-9.4 27.5-4.9 15.1 7.2 18.4 26.9 6.6 38.9-10.2 10.3-20.5 20.5-30.6 30.7-1.1 1.1-1.7 2.5-2.6 3.7z"/><path fill="#3A7193" d="M335.2 98.2c-.7-.6-1.6-1-2.2-1.7-7.5-7.4-15-14.8-22.5-22.3-.1-.4-.1-.9-.2-1.3C326.6 56.6 342.8 40.3 359 24c1.2-1.2 2.2-2.5 3.3-3.8 6.4 6.3 13 12.3 19 18.9 3.8 4.2 2.5 10.3-2 14.8-14.6 14.9-29.4 29.6-44.1 44.3z"/><path fill="#478BB5" d="M362.3 20.3c-1.1 1.3-2.1 2.6-3.3 3.8-16.2 16.3-32.5 32.6-48.7 48.9-4.2-4-8.4-8.1-12.7-12.1-4.2-4-8.4-8.1-12.7-12.1 15-15.1 30.1-30.2 45.2-45.3 4.1-4.1 10.5-4.7 14.6-.9 6.1 5.6 11.8 11.8 17.6 17.7z"/><path fill="#F16622" d="M262.9 342c0 2.2.1 4.5 0 6.7-.3 5.7-4.6 10-10.2 10.6-5.4.5-11-3.2-11.6-8.8-.7-5.6-.7-11.5.1-17.1.7-5.6 6.1-9 11.8-8.5 5.3.5 9.6 4.8 10 10.3 0 2.3-.1 4.6-.1 6.8zM342 263.1c-2.1 0-4.2.1-6.4 0-5.8-.3-10.3-4.5-10.8-9.9-.5-5.8 3-11.3 8.8-12 5.5-.7 11.2-.6 16.7 0 5.6.7 9.4 6.2 8.9 11.6-.5 5.8-5 10-10.9 10.3-2.1 0-4.2-.1-6.3 0zM40.9 143.1c-2.6-.2-5.6-.1-8.5-.8-5.3-1.2-8.9-6.5-8.3-11.7.6-5.5 4.9-9.8 10.3-10.1 4.5-.2 9-.2 13.4 0 5.7.2 10.2 4.6 10.6 10.1.5 5.9-3.1 10.8-9 11.9-2.6.5-5.4.4-8.5.6zM142.9 41.9c-.1 2.3 0 5-.5 7.7-1.1 5.9-6.1 9.4-11.9 8.9-5.5-.4-9.8-4.9-10.1-10.6-.2-4.2-.1-8.5 0-12.7.2-6.1 4.6-10.7 10.5-11.1 5.5-.4 10.7 3.7 11.6 9.5.4 2.6.3 5.2.4 8.3zM331 319c-.3 5.3-2 8.7-5.9 10.7-4.1 2.2-8.4 2.1-11.9-.9-4-3.3-7.7-7.1-11-11.1-3.4-4.1-2.7-10.2.9-14 3.5-3.7 9.5-5.1 13.6-1.9 4.6 3.6 8.7 8.1 12.6 12.5 1.2 1.4 1.4 3.7 1.7 4.7zM52.3 64.6c.2-5.5 2.2-9.1 6.4-11.1s8.4-1.6 11.9 1.4c3.6 3.2 7.1 6.6 10.2 10.3 3.5 4.2 3.1 10.4-.5 14.4-3.5 3.9-9.7 5.2-13.9 1.9-4.7-3.5-8.6-8.1-12.6-12.5-1.1-1.3-1.2-3.4-1.5-4.4z"/><path fill="#7FB0BF" d="m143.6 212.9-35.2-35.2c1.2-.8 2.6-1.5 3.6-2.5 10.3-10.2 20.5-20.4 30.7-30.7 7.5-7.5 18-9.4 27.5-4.9 15.1 7.2 18.4 26.9 6.6 38.9-10.2 10.3-20.5 20.5-30.6 30.7-1.1 1.1-1.8 2.5-2.6 3.7z"/></svg>