<?xml version="1.0" encoding="utf-8"?>
<!-- Generator: Adobe Illustrator 23.1.1, SVG Export Plug-In . SVG Version: 6.00 Build 0)  -->
<svg version="1.1" id="Layer_1" xmlns="http://www.w3.org/2000/svg" xmlns:xlink="http://www.w3.org/1999/xlink" x="0px" y="0px"
	 viewBox="0 0 625 603" enable-background="new 0 0 625 603" xml:space="preserve">
<linearGradient id="SVGID_1_" gradientUnits="userSpaceOnUse" x1="18.84" y1="294.6634" x2="625" y2="294.6634">
	<stop  offset="0.0721" style="stop-color:#FF2E63;stop-opacity:0.6"/>
	<stop  offset="0.7394" style="stop-color:#FF2E63"/>
</linearGradient>
<path fill="url(#SVGID_1_)" d="M24,0c0,0-102,666,601,582V0H24z"/>
<polyline opacity="0.27" fill="#231F20" points="135,374 187.52,407.32 204.36,394.11 152,364 "/>
<g>
	<defs>
		<path id="SVGID_2_" d="M24,0c0,0-102,666,601,582V0H24z"/>
	</defs>
	<clipPath id="SVGID_3_">
		<use xlink:href="#SVGID_2_"  overflow="visible"/>
	</clipPath>
	<polyline opacity="0.27" clip-path="url(#SVGID_3_)" fill="#231F20" points="136,356 577,637 767,488 555,338 	"/>
</g>
<g id="XMLID_150_">
	<g id="XMLID_66_">
		<g id="XMLID_95_">
			<polygon fill="#010A43" points="555,153.91 385.7,245.78 385.7,429.49 385.66,429.49 385.66,245.78 216.41,153.91 385.62,62.17 
				385.7,62.08 			"/>
			<polygon fill="#FFE1E1" points="385.66,245.79 385.66,429.48 268.01,365.63 216.38,337.66 216.38,153.92 			"/>
			<polygon fill="#C6C6C6" points="242.29,182.27 372.6,251.08 372.29,394.5 242.29,323.64 			"/>
			<polyline id="XMLID_55_" fill="#878787" points="229.51,330.56 372.6,251.08 372.6,408.16 			"/>
			<polyline fill="#010A43" points="372.6,408.16 372.55,408.16 372.55,408.12 273.16,354.22 229.51,330.56 229.51,175.24 
				242.23,182.16 242.23,323.6 242.27,323.6 278.09,343.11 372.55,394.62 			"/>
		</g>
	</g>
	<g>
		<path fill="#F58B1F" d="M242.29,323.62"/>
		<polygon fill="#2D2C2C" points="372.55,408.12 372.55,408.16 273.16,354.22 		"/>
		<polygon id="XMLID_8_" fill="#FFE1E1" points="554.98,153.91 554.98,337.66 503.37,365.66 385.72,429.48 385.72,429.46 
			385.72,245.79 		"/>
		<polyline fill="#FF2E63" points="398.84,394.61 398.81,251.06 529.18,182.16 529.11,323.62 		"/>
		<polyline fill="#010A43" points="398.85,394.62 493.32,343.11 529.09,323.6 529.18,323.6 529.18,182.16 541.89,175.24 
			541.89,330.56 498.25,354.22 398.81,408.16 		"/>
		<polygon fill="#010A43" points="398.84,394.61 398.84,408.16 541.89,330.56 529.18,323.62 529.11,323.62 493.33,343.1 		"/>
		<polygon fill="#010A43" points="399.11,266.97 523.65,199.1 523.65,192.99 399.11,260.85 		"/>
		<polygon fill="#010A43" points="399.11,277.51 523.65,209.65 523.65,203.53 399.11,271.39 		"/>
		<polygon fill="#010A43" points="399.11,288.05 523.65,220.19 523.65,214.07 399.11,281.93 		"/>
		<polygon fill="#010A43" points="399.11,298.6 523.65,230.73 523.65,224.62 399.11,292.48 		"/>
		<polygon fill="#010A43" points="399.11,309.14 523.65,241.28 523.65,235.16 399.11,303.02 		"/>
		<polygon fill="#010A43" points="399.11,319.68 523.65,251.82 523.65,245.7 399.11,313.56 		"/>
		<polygon fill="#010A43" points="399.11,330.23 523.65,262.36 523.65,256.25 399.11,324.11 		"/>
		<polygon fill="#010A43" points="399.11,340.77 523.65,272.91 523.65,266.79 399.11,334.65 		"/>
		<polygon fill="#010A43" points="399.11,351.31 523.65,283.45 523.65,277.33 399.11,345.19 		"/>
		<polygon fill="#010A43" points="399.11,361.86 523.65,293.99 523.65,287.88 399.11,355.74 		"/>
		<polygon fill="#010A43" points="399.11,372.4 523.65,304.54 523.65,298.42 399.11,366.28 		"/>
		<polygon fill="#010A43" points="399.11,382.94 523.65,315.08 523.65,308.96 399.11,376.82 		"/>
		<polygon fill="#FF2E63" points="555,153.91 385.7,245.69 216.41,153.91 385.7,234.09 		"/>
		<polygon fill="#FF2E63" points="216.41,153.91 385.73,62.1 554.98,153.91 385.73,73.7 		"/>
	</g>
	<g>
		<g>
			<g>
				<path fill="#DCDCDC" d="M368.79,123.68c17.56-9.74,43.41-9.67,59.75,0.26c16.21,9.84,15.07,24.79-2.52,34.55
					c-11.47,6.36-26.44,8.55-39.96,6.56c-7.17-1.06-13.93-3.29-19.54-6.7c-1.4-0.85-2.68-1.74-3.83-2.67
					C350.48,145.87,352.75,132.58,368.79,123.68z M412.25,150.08c8.98-4.98,9.39-12.71,1.01-17.79c-8.41-5.11-21.75-5.24-30.73-0.26
					c-8.97,4.98-9.35,12.72-0.94,17.83C389.97,154.94,403.28,155.05,412.25,150.08"/>
			</g>
			<g>
				<path fill="#DCDCDC" d="M316.64,152.77c7.27-3.91,18.52-6.74,27.33-6.8l2.67,11.26c-5.99,0.03-12.33,1.43-16.49,3.74
					c-8.41,4.67-9.17,12.81-0.75,17.92c7.63,4.64,21.4,5.63,31.84-0.16c6.83-3.79,8.53-8.43,3.52-11.7l-8.04,4.46l3.33,2.02
					l-15.96-1.06l-0.38-3.18l-0.35-2.88l-0.4-3.26l3,1.82l16.73-9.28c1.15,0.92,2.42,1.81,3.83,2.67c5.62,3.41,12.38,5.64,19.54,6.7
					c3.43,7.84-1.11,16.11-12.03,22.17c-17.94,9.95-44.4,9.64-59.93,0.21C298.58,177.98,299.1,162.5,316.64,152.77z"/>
			</g>
			<g>
				<polygon fill="#DCDCDC" points="453.78,118.2 441.34,125.1 403.4,104.98 420.77,95.34 				"/>
			</g>
			<g>
				<path fill="#DCDCDC" d="M452.67,124.81c4.83-2.68,12.5-2.66,16.8-0.06c4.36,2.65,3.81,6.95-0.96,9.6
					c-4.8,2.66-12.3,2.7-16.72,0.02C447.46,131.74,447.97,127.42,452.67,124.81z"/>
			</g>
		</g>
	</g>
	<g>
		<polygon fill="#DBA763" points="372.86,282 341.93,264.12 341.93,314.39 372.86,332.32 		"/>
		<polygon fill="#FFE1C0" points="369.66,248.09 341.93,264.12 372.86,282 372.86,250.06 		"/>
		<polygon fill="#404A5B" points="354.31,283.4 361.73,287.71 361.73,275.55 354.31,271.23 		"/>
		<polygon fill="#596475" points="372.86,260.51 354.31,271.23 361.73,275.56 372.86,269.12 		"/>
		<polygon fill="#404A5B" points="349.6,280.92 349.6,288.36 344.26,285.26 344.26,277.83 		"/>
	</g>
	<g>
		<g>
			<polygon fill="#DBA763" points="333.85,357.83 333.86,334.89 300.57,315.64 300.57,338.54 			"/>
			<polygon fill="#E8B679" points="333.85,357.83 333.86,334.89 367.15,315.64 367.15,338.54 			"/>
			<polygon fill="#FFE1C0" points="367.15,315.64 333.86,334.88 300.57,315.64 333.85,296.39 			"/>
			<g>
				<polygon fill="#404A5B" points="312.94,334.91 320.37,339.22 320.37,327.06 312.94,322.75 				"/>
				<polygon fill="#596475" points="312.94,322.75 346.19,303.53 353.63,307.82 320.37,327.08 				"/>
				<polygon fill="#404A5B" points="329.45,351.87 329.45,349.73 318.27,343.25 318.27,345.42 				"/>
				<polygon fill="#404A5B" points="329.45,348.04 329.45,345.9 318.27,339.42 318.27,341.59 				"/>
				<polygon fill="#404A5B" points="308.24,332.44 308.24,339.87 302.89,336.78 302.89,329.34 				"/>
				<polygon fill="#404A5B" points="360.45,332.91 360.45,340.65 365.79,337.57 365.79,329.82 				"/>
				<polygon fill="#404A5B" points="353.15,337.14 353.15,344.88 358.5,341.8 358.5,334.05 				"/>
				<polygon fill="#FFFFFF" points="335.31,335.84 335.31,346.97 346.29,340.62 346.29,329.47 				"/>
				<polygon fill="#404A5B" points="336.65,338.11 336.65,336.3 345.3,331.32 345.3,333.1 				"/>
			</g>
		</g>
		<g>
			<polygon fill="#DBA763" points="372.78,357.29 344.59,340.99 344.59,363.89 372.78,380.23 			"/>
			<polygon fill="#FFE1C0" points="372.78,324.71 344.59,340.99 372.78,357.28 			"/>
			<g>
				<polygon fill="#404A5B" points="356.97,360.26 364.39,364.57 364.39,352.41 356.97,348.1 				"/>
				<polygon fill="#596475" points="372.78,338.96 356.97,348.1 364.39,352.43 372.78,347.58 				"/>
			</g>
		</g>
		<g>
			<polygon fill="#DBA763" points="372.78,332.49 360.41,325.33 360.41,338.74 372.78,345.91 			"/>
			<polygon fill="#FFE1C0" points="372.78,318.21 360.41,325.36 372.78,332.51 			"/>
			<polygon fill="#404A5B" points="372.78,332.5 365.84,328.47 365.84,335.54 372.78,339.57 			"/>
		</g>
		<g>
			<polygon fill="#DBA763" points="333.5,328.96 333.5,315.55 312.01,303.13 312.01,316.55 			"/>
			<polygon fill="#E8B679" points="333.5,328.96 333.5,315.55 358.61,301.04 358.61,314.46 			"/>
			<polygon fill="#FFE1C0" points="358.61,301.04 333.5,315.55 312.01,303.13 337.09,288.62 			"/>
			<g>
				<polygon fill="#404A5B" points="331.89,326.51 331.89,325.13 324.68,320.94 324.68,322.35 				"/>
				<polygon fill="#404A5B" points="331.89,324.04 331.89,322.65 324.68,318.47 324.68,319.87 				"/>
				<polygon fill="#404A5B" points="353.23,306.49 353.23,312.73 357.53,310.24 357.53,304 				"/>
			</g>
			<polygon fill="#FFFFFF" points="335.19,316.95 335.19,324.4 346.17,318.05 346.17,310.59 			"/>
			<polygon fill="#404A5B" points="336.53,319.23 336.53,317.42 345.18,312.43 345.18,314.21 			"/>
			<polygon fill="#404A5B" points="317.44,313.31 324.86,317.62 324.86,310.55 317.44,306.24 			"/>
			<polygon fill="#596475" points="317.44,306.24 342.51,291.75 349.95,296.05 324.86,310.57 			"/>
		</g>
	</g>
</g>
<g>
	<rect x="151.44" y="264.26" fill="#404A5B" width="2.6" height="66.99"/>
	<rect x="154.04" y="264.26" fill="#353E4C" width="4.42" height="66.99"/>
	<path fill="#404A5B" d="M153.63,265.97c0.21-0.05,0.41-0.11,0.62-0.18c1.6-0.57,2.98-1.84,3.79-3.48l7.15-14.56
		c1.16-2.35,0.94-4.96-0.55-6.65c-1.49-1.69-3.87-2.02-6.06-0.84l-15.65,8.39c-1.9,1.02-3.25,2.94-3.6,5.12
		c-0.35,2.19,0.37,4.17,1.93,5.3l8.5,6.17C150.84,266.04,152.23,266.29,153.63,265.97z M155.21,261.02c-0.33,0.68-0.9,1.2-1.55,1.43
		c-0.67,0.24-1.33,0.15-1.85-0.22l-8.5-6.17c-0.64-0.46-0.94-1.28-0.79-2.18c0.15-0.9,0.7-1.69,1.48-2.1l15.65-8.39
		c1.37-0.74,2.25,0.08,2.49,0.34c0.24,0.27,0.95,1.25,0.23,2.73L155.21,261.02z"/>
	<polygon fill="#404A5B" points="152.74,266.94 149.93,265.37 149.93,264.67 153.53,266.39 	"/>
	<polygon fill="#404A5B" points="165.49,241.29 163.32,240.07 162.84,240.59 164.74,242.48 	"/>
	<path fill="#353E4C" d="M155.86,267.22c0.21-0.05,0.41-0.11,0.62-0.18c1.6-0.57,2.98-1.84,3.79-3.48l7.15-14.56
		c1.16-2.35,0.94-4.96-0.55-6.65c-1.49-1.69-3.87-2.02-6.06-0.84l-15.65,8.39c-1.9,1.02-3.25,2.94-3.6,5.13
		c-0.35,2.19,0.37,4.17,1.93,5.3l8.5,6.17C153.07,267.29,154.46,267.55,155.86,267.22z M157.44,262.27c-0.33,0.68-0.9,1.2-1.56,1.43
		c-0.67,0.24-1.33,0.15-1.85-0.22l-8.5-6.17c-0.64-0.46-0.94-1.28-0.79-2.18c0.15-0.9,0.7-1.69,1.48-2.1l15.65-8.39
		c1.37-0.74,2.25,0.08,2.49,0.34c0.24,0.27,0.95,1.25,0.23,2.73L157.44,262.27z"/>
	<g>
		<path fill="#404A5B" d="M136.49,359.34l74.43,43.15c3.97,2.3,10.02,2.56,13.46,0.58l0,0c3.44-1.98,3.01-5.48-0.95-7.77
			l-74.47-43.17L136.49,359.34z"/>
		<polygon fill="#404A5B" points="136.49,356.09 136.49,359.34 141.96,360.4 143.05,355.15 		"/>
		<polygon fill="#404A5B" points="226.72,396.43 226.72,399.71 225.48,401.15 224.88,397.24 		"/>
		<path fill="#596475" d="M136.49,356.09l74.43,43.15c3.97,2.3,10.02,2.56,13.46,0.58l0,0c3.44-1.98,3.01-5.48-0.95-7.78
			l-74.47-43.17L136.49,356.09z"/>
		<path fill="#FFD543" d="M212.5,393.84c-0.21,1.27,1.4,2.59,3.59,2.94c2.19,0.35,4.13-0.39,4.34-1.66c0.21-1.27-1.4-2.59-3.59-2.94
			C214.65,391.82,212.71,392.57,212.5,393.84z"/>
		<path fill="#F9B741" d="M213.09,393.26c-0.18,1.14,1.25,2.32,3.21,2.63c1.96,0.32,3.7-0.35,3.88-1.49
			c0.18-1.14-1.26-2.32-3.21-2.63C215.01,391.46,213.27,392.12,213.09,393.26z"/>
	</g>
	<g>
		<path fill="#404A5B" d="M167.7,341.33l74.44,43.15c3.96,2.3,10.02,2.56,13.46,0.58l0,0c3.44-1.98,3.01-5.48-0.95-7.78
			l-74.47-43.17L167.7,341.33z"/>
		<polygon fill="#404A5B" points="167.7,338.08 167.7,341.33 173.17,342.39 174.26,337.14 		"/>
		<polygon fill="#404A5B" points="257.92,378.42 257.92,381.7 256.69,383.14 256.09,379.23 		"/>
		<path fill="#596475" d="M167.7,338.08l74.44,43.15c3.96,2.3,10.02,2.56,13.46,0.58l0,0c3.44-1.98,3.01-5.48-0.95-7.78
			l-74.47-43.17L167.7,338.08z"/>
		<path fill="#FFD543" d="M243.71,375.83c-0.21,1.27,1.4,2.59,3.59,2.94c2.19,0.35,4.13-0.39,4.34-1.66
			c0.21-1.27-1.4-2.59-3.59-2.94C245.85,373.81,243.91,374.56,243.71,375.83z"/>
		<path fill="#F9B741" d="M244.29,375.25c-0.18,1.14,1.26,2.32,3.21,2.63c1.96,0.32,3.7-0.35,3.88-1.49
			c0.18-1.14-1.25-2.32-3.21-2.63C246.21,373.44,244.47,374.11,244.29,375.25z"/>
	</g>
	<polygon fill="#FFD543" points="184.97,333.65 175.65,309.09 143.52,327.65 141.31,358.88 	"/>
	<polygon fill="#F9B741" points="141.31,358.88 136.49,356.09 138.81,324.94 143.52,327.65 	"/>
	<polygon fill="#FFE183" points="175.65,309.1 143.52,327.65 138.81,324.94 170.9,306.38 	"/>
	<g>
		<polygon fill="#DBA763" points="186.63,397.92 186.64,369.4 145.27,345.49 145.27,373.94 		"/>
		<polygon fill="#E8B679" points="186.63,397.92 186.64,369.4 246.19,335 246.19,363.46 		"/>
		<polygon fill="#FFE1C0" points="246.19,335 186.64,369.4 145.27,345.48 204.83,311.09 		"/>
		<g>
			<polygon fill="#404A5B" points="160.65,369.43 169.88,374.79 169.88,359.68 160.65,354.32 			"/>
			<polygon fill="#596475" points="160.65,354.32 220.16,319.95 229.41,325.3 169.88,359.7 			"/>
			<polygon fill="#404A5B" points="183.54,393.2 183.54,390.53 169.65,382.48 169.65,385.18 			"/>
			<polygon fill="#404A5B" points="183.54,388.44 183.54,385.78 169.65,377.72 169.65,380.42 			"/>
			<polygon fill="#404A5B" points="237.82,355.35 237.82,364.97 244.47,361.14 244.47,351.51 			"/>
			<polygon fill="#404A5B" points="228.76,360.61 228.76,370.23 235.4,366.39 235.4,356.77 			"/>
			<polygon fill="#404A5B" points="219.58,365.88 219.58,375.5 226.22,371.67 226.22,362.04 			"/>
			<polygon fill="#FFFFFF" points="188.44,370.58 188.44,384.41 202.09,376.53 202.09,362.68 			"/>
			<polygon fill="#404A5B" points="190.11,373.41 190.11,371.16 200.85,364.97 200.85,367.18 			"/>
		</g>
	</g>
	<g>
		<polygon fill="#DBA763" points="191.63,358.17 191.64,341.48 164.93,326.03 164.93,342.69 		"/>
		<polygon fill="#E8B679" points="191.63,358.17 191.64,341.48 230.09,319.26 230.09,335.92 		"/>
		<polygon fill="#FFE1C0" points="230.09,319.29 191.64,341.51 164.93,326.06 203.39,303.86 		"/>
		<g>
			<polygon fill="#404A5B" points="189.64,355.12 189.64,353.4 180.67,348.2 180.67,349.95 			"/>
			<polygon fill="#404A5B" points="189.64,352.05 189.64,350.33 180.67,345.13 180.67,346.87 			"/>
			<polygon fill="#404A5B" points="223.45,326.01 223.45,333.76 228.8,330.67 228.8,322.92 			"/>
			<polygon fill="#404A5B" points="216.15,330.24 216.15,337.99 221.5,334.9 221.5,327.15 			"/>
		</g>
		<polygon fill="#FFFFFF" points="193.73,343.24 193.73,352.5 207.39,344.61 207.39,335.34 		"/>
		<polygon fill="#404A5B" points="195.41,346.07 195.41,343.82 206.15,337.63 206.15,339.84 		"/>
		<polygon fill="#404A5B" points="171.68,338.72 180.91,344.07 180.91,335.29 171.68,329.93 		"/>
		<polygon fill="#596475" points="171.68,329.93 210.08,307.72 219.36,313.09 180.91,335.31 		"/>
	</g>
</g>
<g>
	<path fill="#404A5B" d="M298.66,367.69c0,0-1.55,1.69-3.63,3.72c-1.92,1.87-2.52,2.41-4.3,4.15c-1.04,1.02-0.18,1.95,1.8,1.88
		c1.75-0.07,5.7-0.92,7.91-1.71c1.57-0.56,4.45-2.16,5.92-3.09c1.47-0.93,1.76-2.22,1.76-2.22v-3.13L298.66,367.69z"/>
	<path fill="#404A5B" d="M327.07,364.92c0,0-0.99,1.45-3.07,3.48c-1.92,1.87-2.49,2.61-4.19,4.85c-0.39,0.51-0.61,1.97,1.37,1.89
		c1.75-0.07,4.4-0.81,6.62-1.6c2.53-0.9,4.66-3.44,6.13-4.37c1.47-0.93,2.12-2.99,2.12-2.99l-1.02-3.08L327.07,364.92z"/>
	<path fill="#0C4CA3" d="M326.28,314.2c0.74-11.47-5.59-17.5-5.59-17.5c0.5-3.87-17.43,1.54-17.43,1.54s-3.84,20.78-5.46,31.73
		c-1.84,12.44-0.73,37.77-0.73,37.77s0.23,2.7,4.87,2.69c3.55-0.01,6.18-3.13,6.18-3.13l0.37-28.83l4.12-20.44
		c0,0,3.96,16.61,5.22,22.58c1.34,6.34,6.46,25.11,6.46,25.11s3.32,3.81,7.44,1.75c4.12-2.06,3.31-4.36,3.31-4.36
		s-0.81-13.31-6.1-25.22C328.48,328.83,325.94,319.47,326.28,314.2z"/>
	<path fill="#DD3931" d="M305.71,268.12c0,0-2.56-0.13-5.21,4.85c-2.65,4.97-5.18,10.27-5.18,10.27s3.85,0.55,8.05,4.41
		C309.11,282.47,310.04,270.55,305.71,268.12z"/>
	<path fill="#F24E3D" d="M305.71,268.12c0,0-1.44,2.76-2.77,7.84c-1.32,5.07-0.85,28.67-0.85,28.67s5.47,3.87,14.62,3.11
		c5.44-0.45,8.22-3.82,8.22-3.82s3.25-23.1,2.81-26.41c-0.44-3.31-7.37-11.08-7.37-11.08S311.23,265.95,305.71,268.12z"/>
	<g>
		<path fill="#FFAD97" d="M311.98,264.9l-1.06,6.2c0,0,3.16,3.54,6.24,0.89c3.09-2.65,3.53-3.87,3.53-3.87l-1.52-8.45L311.98,264.9z
			"/>
		<path fill="#FFC5B3" d="M316.34,250.37c-2.64-2.01-8.88-2.65-11.16,3.8c-2.39,6.77,3.73,15.22,7,13.79
			c1.83-0.8,5.67-3.66,6.75-7.22C320.14,256.73,318.38,251.93,316.34,250.37z"/>
		<path fill="#404A5B" d="M304.63,256.32c1.09,1.11,2.67,2.34,5.95,1.8c2.68-0.44,4.6-1.69,4.6-1.69l0.55,3.59
			c0,0,0.54-0.1,0.94-0.35c0.06-1.42,0.56-1.86,1.34-1.44c0.88,0.48,0.92,2.5,0.92,2.5s2.66-2.57,1.76-6.62
			c-0.56-2.52-3.96-7.5-8.71-7.06c-4.75,0.44-7.51,3.58-8.09,6.29C303.59,254.71,304.14,255.82,304.63,256.32z"/>
	</g>
	<g>
		<polygon fill="#DBA763" points="291.13,324.94 291.13,300.39 310.91,290.53 310.91,313.69 		"/>
		<polygon fill="#E8B679" points="291.13,324.94 291.13,300.39 271.34,290.53 271.34,313.69 		"/>
		<polygon fill="#DBA763" points="291.13,325.15 291.13,300.39 310.91,288.95 310.91,313.69 		"/>
		<polygon fill="#E8B679" points="291.13,325.15 291.13,300.39 271.34,288.95 271.34,313.69 		"/>
		<polygon fill="#FFE1C0" points="271.34,288.95 291.13,300.39 310.91,288.95 291.13,277.52 		"/>
		<g>
			<polygon fill="#404A5B" points="303.56,300.41 299.15,302.97 299.15,295.74 303.56,293.18 			"/>
			<polygon fill="#596475" points="303.56,293.18 283.8,281.75 279.38,284.31 299.15,295.75 			"/>
			<polygon fill="#404A5B" points="293.75,321.61 293.75,320.34 300.39,316.48 300.39,317.78 			"/>
			<polygon fill="#404A5B" points="293.75,319.33 293.75,318.06 300.39,314.21 300.39,315.5 			"/>
			<polygon fill="#404A5B" points="306.36,310.06 306.36,314.48 309.53,312.64 309.53,308.22 			"/>
			<polygon fill="#404A5B" points="275.7,309.6 275.7,314.2 272.52,312.37 272.52,307.76 			"/>
			<polygon fill="#404A5B" points="280.03,312.11 280.03,316.71 276.85,314.88 276.85,310.28 			"/>
			<polygon fill="#FFFFFF" points="279.05,296.15 279.05,302.76 272.52,298.99 272.52,292.36 			"/>
			<polygon fill="#404A5B" points="278.25,297.5 278.25,296.42 273.11,293.46 273.11,294.52 			"/>
		</g>
	</g>
	<path fill="#FFC5B3" d="M315.8,289.49c0,0-3.75,7.88-5.3,10.07c-1.55,2.2-7.86,7.21-9.15,7.94c-1.3,0.73-4.26,1.65-5.81,1.51
		c-1.55-0.15-2.6,0.61-1.1,1.18c1.49,0.56,2.94,0.7,2.94,0.7s-2.72,2.01-3.8,3.73c-0.87,1.38-1.6,3.92,1.75,3.18
		c2.71-0.59,6.47-4.75,7.45-5.67c1.86-1.74,9.25-5.74,10.92-6.92c2.36-1.67,9.05-11.53,9.05-11.53S320.69,288.45,315.8,289.49z"/>
	<path fill="#DD3931" d="M326.57,274.65c-1.94-1.56-6.1,3.73-8.31,7.04c-2.21,3.31-3.97,8.26-3.97,8.26s2.66,1.93,5.04,3.43
		c1.99,1.26,4.1,2.21,4.1,2.21S333.23,280.02,326.57,274.65z"/>
</g>
</svg>
