<?xml version="1.0" encoding="utf-8"?>
<!-- Generator: Adobe Illustrator 23.1.1, SVG Export Plug-In . SVG Version: 6.00 Build 0)  -->
<svg version="1.1" id="Layer_1" xmlns="http://www.w3.org/2000/svg" xmlns:xlink="http://www.w3.org/1999/xlink" x="0px" y="0px"
	 viewBox="0 0 625 603" enable-background="new 0 0 625 603" xml:space="preserve">
<linearGradient id="SVGID_1_" gradientUnits="userSpaceOnUse" x1="18.84" y1="294.6634" x2="625" y2="294.6634">
	<stop  offset="0.0721" style="stop-color:#FF2E63;stop-opacity:0.6"/>
	<stop  offset="0.7394" style="stop-color:#FF2E63"/>
</linearGradient>
<path fill="url(#SVGID_1_)" d="M24,0c0,0-102,666,601,582V0H24z"/>
<g>
	<defs>
		<path id="SVGID_2_" d="M24,0c0,0-102,666,601,582V0H24z"/>
	</defs>
	<clipPath id="SVGID_3_">
		<use xlink:href="#SVGID_2_"  overflow="visible"/>
	</clipPath>
	<polyline opacity="0.27" clip-path="url(#SVGID_3_)" fill="#231F20" points="216,338 524,645 745,529 555,338 	"/>
</g>
<g id="XMLID_150_">
	<g id="XMLID_66_">
		<g id="XMLID_95_">
			<polygon fill="#010A43" points="555,153.91 385.7,245.78 385.7,429.49 385.66,429.49 385.66,245.78 216.41,153.91 385.62,62.17 
				385.7,62.08 			"/>
			<polygon fill="#FFE1E1" points="385.66,245.79 385.66,429.48 268.01,365.63 216.38,337.66 216.38,153.92 			"/>
			<polygon fill="#C6C6C6" points="242.29,182.27 372.6,251.08 372.29,394.5 242.29,323.64 			"/>
			<polyline id="XMLID_55_" fill="#878787" points="229.51,330.56 372.6,251.08 372.6,408.16 			"/>
			<polyline fill="#010A43" points="372.6,408.16 372.55,408.16 372.55,408.12 273.16,354.22 229.51,330.56 229.51,175.24 
				242.23,182.16 242.23,323.6 242.27,323.6 278.09,343.11 372.55,394.62 			"/>
		</g>
	</g>
	<g>
		<path fill="#F58B1F" d="M242.29,323.62"/>
		<polygon fill="#2D2C2C" points="372.55,408.12 372.55,408.16 273.16,354.22 		"/>
		<polygon id="XMLID_8_" fill="#FFE1E1" points="554.98,153.91 554.98,337.66 503.37,365.66 385.72,429.48 385.72,429.46 
			385.72,245.79 		"/>
		<polyline fill="#FF2E63" points="398.84,394.61 398.81,251.06 529.18,182.16 529.11,323.62 		"/>
		<polyline fill="#010A43" points="398.85,394.62 493.32,343.11 529.09,323.6 529.18,323.6 529.18,182.16 541.89,175.24 
			541.89,330.56 498.25,354.22 398.81,408.16 		"/>
		<polygon fill="#010A43" points="398.84,394.61 398.84,408.16 541.89,330.56 529.18,323.62 529.11,323.62 493.33,343.1 		"/>
		<polygon fill="#010A43" points="399.11,266.97 523.65,199.1 523.65,192.99 399.11,260.85 		"/>
		<polygon fill="#010A43" points="399.11,277.51 523.65,209.65 523.65,203.53 399.11,271.39 		"/>
		<polygon fill="#010A43" points="399.11,288.05 523.65,220.19 523.65,214.07 399.11,281.93 		"/>
		<polygon fill="#010A43" points="399.11,298.6 523.65,230.73 523.65,224.62 399.11,292.48 		"/>
		<polygon fill="#010A43" points="399.11,309.14 523.65,241.28 523.65,235.16 399.11,303.02 		"/>
		<polygon fill="#010A43" points="399.11,319.68 523.65,251.82 523.65,245.7 399.11,313.56 		"/>
		<polygon fill="#010A43" points="399.11,330.23 523.65,262.36 523.65,256.25 399.11,324.11 		"/>
		<polygon fill="#010A43" points="399.11,340.77 523.65,272.91 523.65,266.79 399.11,334.65 		"/>
		<polygon fill="#010A43" points="399.11,351.31 523.65,283.45 523.65,277.33 399.11,345.19 		"/>
		<polygon fill="#010A43" points="399.11,361.86 523.65,293.99 523.65,287.88 399.11,355.74 		"/>
		<polygon fill="#010A43" points="399.11,372.4 523.65,304.54 523.65,298.42 399.11,366.28 		"/>
		<polygon fill="#010A43" points="399.11,382.94 523.65,315.08 523.65,308.96 399.11,376.82 		"/>
		<polygon fill="#FF2E63" points="555,153.91 385.7,245.69 216.41,153.91 385.7,234.09 		"/>
		<polygon fill="#FF2E63" points="216.41,153.91 385.73,62.1 554.98,153.91 385.73,73.7 		"/>
	</g>
	<g>
		<g>
			<g>
				<path fill="#DCDCDC" d="M368.79,123.68c17.56-9.74,43.41-9.67,59.75,0.26c16.21,9.84,15.07,24.79-2.52,34.55
					c-11.47,6.36-26.44,8.55-39.96,6.56c-7.17-1.06-13.93-3.29-19.54-6.7c-1.4-0.85-2.68-1.74-3.83-2.67
					C350.48,145.87,352.75,132.58,368.79,123.68z M412.25,150.08c8.98-4.98,9.39-12.71,1.01-17.79c-8.41-5.11-21.75-5.24-30.73-0.26
					c-8.97,4.98-9.35,12.72-0.94,17.83C389.97,154.94,403.28,155.05,412.25,150.08"/>
			</g>
			<g>
				<path fill="#DCDCDC" d="M316.64,152.77c7.27-3.91,18.52-6.74,27.33-6.8l2.67,11.26c-5.99,0.03-12.33,1.43-16.49,3.74
					c-8.41,4.67-9.17,12.81-0.75,17.92c7.63,4.64,21.4,5.63,31.84-0.16c6.83-3.79,8.53-8.43,3.52-11.7l-8.04,4.46l3.33,2.02
					l-15.96-1.06l-0.38-3.18l-0.35-2.88l-0.4-3.26l3,1.82l16.73-9.28c1.15,0.92,2.42,1.81,3.83,2.67c5.62,3.41,12.38,5.64,19.54,6.7
					c3.43,7.84-1.11,16.11-12.03,22.17c-17.94,9.95-44.4,9.64-59.93,0.21C298.58,177.98,299.1,162.5,316.64,152.77z"/>
			</g>
			<g>
				<polygon fill="#DCDCDC" points="453.78,118.2 441.34,125.1 403.4,104.98 420.77,95.34 				"/>
			</g>
			<g>
				<path fill="#DCDCDC" d="M452.67,124.81c4.83-2.68,12.5-2.66,16.8-0.06c4.36,2.65,3.81,6.95-0.96,9.6
					c-4.8,2.66-12.3,2.7-16.72,0.02C447.46,131.74,447.97,127.42,452.67,124.81z"/>
			</g>
		</g>
	</g>
</g>
<g>
	<g>
		<g enable-background="new    ">
			<g enable-background="new    ">
				<g enable-background="new    ">
					<path fill="#292929" d="M199.94,401.97c0-0.14-0.01-0.27-0.01-0.41"/>
					<path fill="#292929" d="M199.93,401.56"/>
					<path fill="#2B2B2B" d="M199.96,402.41c-0.01-0.15-0.02-0.29-0.02-0.44"/>
					<path fill="#2B2B2B" d="M199.94,401.97"/>
					<path fill="#2C2C2C" d="M200,402.85c-0.01-0.15-0.03-0.3-0.04-0.44"/>
					<path fill="#2C2C2C" d="M199.96,402.41"/>
					<path fill="#2D2D2D" d="M200.05,403.3c-0.02-0.15-0.04-0.3-0.05-0.45"/>
					<path fill="#2D2D2D" d="M200,402.85"/>
					<path fill="#2E2E2E" d="M200.11,403.76c-0.02-0.15-0.05-0.31-0.07-0.46"/>
					<path fill="#2E2E2E" d="M200.05,403.3"/>
					<path fill="#313131" d="M200.19,404.22c-0.03-0.15-0.06-0.31-0.08-0.46"/>
					<path fill="#313131" d="M200.11,403.76"/>
					<path fill="#323232" d="M200.29,404.7c-0.03-0.16-0.07-0.32-0.1-0.48"/>
					<path fill="#323232" d="M200.19,404.22"/>
					<path fill="#333333" d="M200.29,404.7"/>
				</g>
			</g>
			<g enable-background="new    ">
				<defs>
					<path id="SVGID_4_" enable-background="new    " d="M283.52,454.65l-3.66,2.13c2.01-1.17,3.26-3.66,3.27-7.19l3.66-2.13
						C286.78,451,285.53,453.48,283.52,454.65z"/>
				</defs>
				<clipPath id="SVGID_5_">
					<use xlink:href="#SVGID_4_"  overflow="visible"/>
				</clipPath>
				<path clip-path="url(#SVGID_5_)" fill="#292929" d="M283.13,449.59l3.66-2.13c0,0.01,0,0.02,0,0.03l-3.66,2.13
					C283.13,449.61,283.13,449.6,283.13,449.59"/>
			</g>
			<path fill="#2E2E2E" d="M212.94,213.54c-0.15-0.08-0.31-0.16-0.46-0.24c-0.15-0.08-0.3-0.15-0.45-0.21
				c-0.15-0.07-0.3-0.13-0.45-0.19c-0.15-0.06-0.3-0.12-0.45-0.17c-0.15-0.05-0.3-0.1-0.45-0.15c-0.16-0.05-0.31-0.09-0.46-0.13
				c-0.15-0.04-0.31-0.07-0.46-0.1c-0.17-0.03-0.33-0.06-0.49-0.08c-0.17-0.02-0.33-0.04-0.5-0.05c-0.18-0.01-0.35-0.02-0.53-0.02
				c-0.2,0-0.39,0.01-0.58,0.03c-0.22,0.02-0.44,0.05-0.65,0.09c-0.27,0.05-0.53,0.13-0.78,0.22c-0.32,0.11-0.62,0.25-0.91,0.42
				l-3.66,2.13c0.29-0.17,0.59-0.31,0.91-0.42c0.25-0.09,0.51-0.16,0.78-0.22c0.21-0.04,0.43-0.07,0.65-0.09
				c0.19-0.02,0.38-0.03,0.58-0.03c0.17,0,0.35,0.01,0.53,0.02c0.16,0.01,0.33,0.03,0.5,0.05c0.16,0.02,0.33,0.05,0.49,0.08
				c0.15,0.03,0.3,0.06,0.46,0.1c0.15,0.04,0.31,0.08,0.46,0.13c0.15,0.04,0.3,0.09,0.45,0.15c0.15,0.05,0.3,0.11,0.45,0.17
				c0.15,0.06,0.3,0.12,0.45,0.19c0.15,0.07,0.3,0.14,0.45,0.21c0.15,0.08,0.31,0.15,0.46,0.24c0.12,0.06,0.24,0.13,0.36,0.2
				l3.66-2.13C213.18,213.67,213.06,213.6,212.94,213.54z"/>
			<g>
				<path fill="#FFFFFF" d="M272.45,256.84c3.93,2.27,7.11,7.77,7.09,12.29l-0.5,178.1c-0.01,4.51-3.21,6.33-7.14,4.06l-62.82-36.27
					c-3.93-2.27-7.1-7.76-7.09-12.28l0.5-178.1c0.01-4.51,3.21-6.34,7.13-4.07l7.82,4.52c1.03,0.6,1.87,2.05,1.87,3.23l-0.01,1.92
					c-0.01,2.69,1.88,5.97,4.23,7.32l34.96,20.18c2.34,1.35,4.25,0.27,4.25-2.42l0.01-1.92c0-1.19,0.84-1.67,1.88-1.07
					L272.45,256.84z"/>
				<g enable-background="new    ">
					<defs>
						<path id="SVGID_6_" enable-background="new    " d="M272.45,256.84c3.93,2.27,7.11,7.77,7.09,12.29l-0.5,178.1
							c-0.01,4.51-3.21,6.33-7.14,4.06l-62.82-36.27c-3.93-2.27-7.1-7.76-7.09-12.28l0.5-178.1c0.01-4.51,3.21-6.34,7.13-4.07
							l7.82,4.52c1.03,0.6,1.87,2.05,1.87,3.23l-0.01,1.92c-0.01,2.69,1.88,5.97,4.23,7.32l34.96,20.18
							c2.34,1.35,4.25,0.27,4.25-2.42l0.01-1.92c0-1.19,0.84-1.67,1.88-1.07L272.45,256.84z"/>
					</defs>
					<clipPath id="SVGID_7_">
						<use xlink:href="#SVGID_6_"  overflow="visible"/>
					</clipPath>
					<g clip-path="url(#SVGID_7_)">
						<g>
							<defs>
								<polyline id="SVGID_8_" points="279.03,447.23 278.89,448.79 278.47,450.08 277.81,451.09 276.93,451.8 275.88,452.19 
									274.67,452.25 273.33,451.95 271.9,451.29 209.07,415.02 209.07,415.02 207.64,414.03 206.31,412.78 205.1,411.33 
									204.05,409.72 203.19,408.01 202.54,406.25 202.13,404.47 201.99,402.74 202.49,224.64 202.64,223.07 203.06,221.78 
									203.72,220.77 204.59,220.06 205.65,219.67 206.86,219.61 208.19,219.91 209.63,220.57 217.45,225.08 217.82,225.34 
									218.17,225.67 218.49,226.06 218.77,226.48 219,226.93 219.17,227.4 219.28,227.86 219.31,228.32 219.31,230.24 
									219.39,231.27 219.64,232.33 220.02,233.38 220.54,234.4 221.17,235.36 221.88,236.23 222.68,236.97 223.53,237.56 
									258.49,257.74 259.35,258.14 260.14,258.31 260.86,258.28 261.49,258.05 262.01,257.63 262.41,257.02 262.66,256.25 
									262.75,255.32 262.75,253.4 262.79,252.98 262.9,252.64 263.07,252.38 263.3,252.19 263.58,252.09 263.9,252.07 
									264.25,252.15 264.63,252.33 272.45,256.84 273.88,257.83 275.21,259.08 276.42,260.53 277.47,262.14 278.34,263.85 
									278.99,265.62 279.4,267.39 279.54,269.12 279.03,447.23 								"/>
							</defs>
							<clipPath id="SVGID_9_">
								<use xlink:href="#SVGID_8_"  overflow="visible"/>
							</clipPath>
						</g>
					</g>
				</g>
			</g>
			<g>
				<polygon fill="#333333" points="209.64,215.86 213.3,213.74 276.12,250.01 272.46,252.13 				"/>
			</g>
			<g>
				<path d="M272.45,254.49c5.05,2.92,9.15,10.01,9.13,15.82l-0.5,178.1c-0.02,5.81-4.14,8.16-9.19,5.24l-62.82-36.27
					c-5.05-2.92-9.15-10.01-9.13-15.82l0.5-178.1c0.02-5.81,4.14-8.16,9.19-5.24L272.45,254.49z M279.03,447.23l0.5-178.1
					c0.01-4.51-3.16-10.02-7.09-12.29l-7.82-4.51c-1.04-0.6-1.88-0.11-1.88,1.07l-0.01,1.92c-0.01,2.69-1.91,3.78-4.25,2.42
					l-34.96-20.18c-2.34-1.35-4.23-4.63-4.23-7.32l0.01-1.92c0-1.19-0.84-2.64-1.87-3.23l-7.82-4.52c-3.93-2.27-7.12-0.44-7.14,4.07
					l-0.5,178.1c-0.01,4.51,3.16,10.01,7.09,12.28l62.82,36.27C275.82,453.56,279.02,451.74,279.03,447.23"/>
			</g>
			<g>
				<path fill="#1C1C1C" d="M272.46,252.13c6.19,3.57,11.19,12.24,11.17,19.35l-0.5,178.1c-0.02,7.11-5.06,9.98-11.25,6.41
					l-62.82-36.27c-6.19-3.57-11.19-12.24-11.17-19.35l0.5-178.1c0.02-7.11,5.06-9.98,11.25-6.41L272.46,252.13z M281.08,448.41
					l0.51-178.1c0.02-5.8-4.08-12.9-9.13-15.82l-62.82-36.27c-5.05-2.92-9.18-0.57-9.19,5.24l-0.5,178.1
					c-0.02,5.81,4.08,12.9,9.13,15.82l62.82,36.27C276.94,456.56,281.07,454.21,281.08,448.41"/>
			</g>
			<path fill="#292929" d="M287.29,269.36c0-0.17,0-0.34-0.01-0.51c-0.01-0.18-0.01-0.36-0.03-0.54c-0.01-0.18-0.03-0.36-0.04-0.55
				c-0.02-0.18-0.04-0.37-0.06-0.55c-0.02-0.19-0.05-0.37-0.08-0.56c-0.03-0.19-0.06-0.38-0.1-0.57c-0.04-0.19-0.08-0.39-0.12-0.58
				c-0.04-0.2-0.09-0.39-0.14-0.59c-0.05-0.2-0.1-0.4-0.16-0.59c-0.05-0.2-0.11-0.39-0.17-0.59c-0.06-0.19-0.12-0.39-0.19-0.58
				c-0.06-0.19-0.13-0.38-0.2-0.57c-0.07-0.18-0.14-0.37-0.21-0.55c-0.07-0.18-0.14-0.36-0.22-0.54c-0.07-0.18-0.15-0.36-0.23-0.53
				c-0.08-0.18-0.16-0.36-0.25-0.54c-0.09-0.2-0.19-0.4-0.29-0.59c-0.11-0.23-0.23-0.45-0.35-0.67c-0.18-0.33-0.36-0.66-0.55-0.99
				c-0.26-0.45-0.54-0.89-0.83-1.32c-0.23-0.34-0.47-0.68-0.71-1.01c-0.16-0.22-0.33-0.44-0.5-0.65c-0.14-0.18-0.29-0.36-0.43-0.53
				c-0.14-0.17-0.29-0.34-0.43-0.51c-0.14-0.16-0.29-0.32-0.44-0.48c-0.15-0.16-0.3-0.32-0.46-0.48c-0.16-0.16-0.31-0.31-0.47-0.47
				c-0.16-0.16-0.33-0.31-0.49-0.46c-0.16-0.15-0.33-0.29-0.5-0.43c-0.17-0.14-0.33-0.28-0.5-0.41c-0.16-0.13-0.33-0.25-0.49-0.38
				c-0.16-0.12-0.32-0.23-0.49-0.35c-0.16-0.11-0.32-0.21-0.48-0.31c-0.16-0.1-0.32-0.2-0.47-0.29c-0.04-0.02-0.07-0.04-0.11-0.06
				l-3.66,2.13c0.04,0.02,0.07,0.04,0.11,0.06c0.16,0.09,0.32,0.19,0.47,0.29c0.16,0.1,0.32,0.21,0.48,0.31
				c0.16,0.11,0.33,0.23,0.49,0.35c0.17,0.12,0.33,0.25,0.49,0.38c0.17,0.13,0.33,0.27,0.5,0.41c0.17,0.14,0.33,0.29,0.5,0.43
				c0.17,0.15,0.33,0.3,0.49,0.46c0.16,0.15,0.32,0.31,0.47,0.47c0.15,0.16,0.31,0.32,0.46,0.48c0.15,0.16,0.29,0.32,0.44,0.48
				c0.15,0.17,0.29,0.34,0.43,0.51c0.15,0.18,0.29,0.35,0.43,0.53c0.17,0.21,0.34,0.43,0.5,0.65c0.24,0.33,0.48,0.67,0.71,1.01
				c0.29,0.43,0.57,0.87,0.83,1.32c0.19,0.32,0.38,0.65,0.55,0.99c0.12,0.22,0.24,0.45,0.35,0.67c0.1,0.2,0.19,0.39,0.29,0.59
				c0.08,0.18,0.17,0.36,0.25,0.54c0.08,0.18,0.15,0.36,0.23,0.53c0.08,0.18,0.15,0.36,0.22,0.54c0.07,0.18,0.14,0.37,0.21,0.55
				c0.07,0.19,0.14,0.38,0.2,0.57c0.06,0.19,0.13,0.39,0.19,0.58c0.06,0.2,0.12,0.39,0.17,0.59c0.06,0.2,0.11,0.4,0.16,0.59
				c0.05,0.2,0.09,0.39,0.14,0.59c0.04,0.2,0.08,0.39,0.12,0.58c0.04,0.19,0.07,0.38,0.1,0.57c0.03,0.19,0.06,0.38,0.08,0.56
				c0.02,0.18,0.04,0.37,0.06,0.55c0.02,0.18,0.03,0.36,0.04,0.55c0.01,0.18,0.02,0.36,0.03,0.54c0,0.17,0.01,0.34,0.01,0.51
				l-0.5,177.94l0,0c0,0.18-0.01,0.56-0.01,0.74c-0.01,0.18-0.02,0.36-0.03,0.53c-0.01,0.18-0.03,0.36-0.06,0.54
				c-0.02,0.18-0.05,0.36-0.08,0.54c-0.03,0.19-0.07,0.37-0.11,0.55c-0.04,0.2-0.09,0.39-0.15,0.57c-0.06,0.2-0.12,0.4-0.2,0.59
				c-0.08,0.22-0.17,0.43-0.27,0.64c-0.13,0.27-0.27,0.53-0.42,0.77c-0.52,0.81-1.17,1.45-1.94,1.9l3.66-2.13
				c0.77-0.45,1.42-1.08,1.94-1.9c0.15-0.24,0.29-0.5,0.42-0.77c0.1-0.2,0.19-0.42,0.27-0.64c0.07-0.19,0.14-0.39,0.2-0.59
				c0.05-0.19,0.1-0.38,0.15-0.57c0.04-0.18,0.08-0.36,0.11-0.55c0.03-0.17,0.06-0.35,0.08-0.54c0.02-0.18,0.04-0.36,0.06-0.54
				l0.03-0.53c0.01-0.15,0.01-0.39,0.01-0.57l0,0L287.29,269.36z"/>
		</g>
	</g>
</g>
<g>
	<g>
		<g>
			<path fill="#FF2E63" d="M213.85,328.58c0-0.05,0-0.11,0-0.16c0-0.19,0-0.38,0-0.57c0-0.19,0-0.38,0.01-0.57c0-0.05,0-0.11,0-0.16
				c0-0.15,0.01-0.29,0.01-0.44c0-0.05,0-0.1,0-0.15c0.01-0.19,0.01-0.37,0.02-0.56c0-0.03,0-0.06,0-0.09
				c0.01-0.16,0.01-0.31,0.02-0.47c0-0.05,0.01-0.1,0.01-0.16c0.01-0.16,0.02-0.31,0.03-0.47c0-0.03,0-0.06,0.01-0.09
				c0.01-0.18,0.03-0.37,0.04-0.55c0-0.04,0.01-0.08,0.01-0.12c0.01-0.15,0.03-0.29,0.04-0.44c0-0.05,0.01-0.09,0.01-0.14
				c0.04-0.36,0.07-0.73,0.12-1.08c0-0.04,0.01-0.08,0.02-0.12c0.02-0.15,0.04-0.3,0.06-0.45c0-0.03,0.01-0.07,0.01-0.1
				c0.03-0.18,0.05-0.36,0.08-0.54c0.03-0.2,0.06-0.36,0.08-0.53c0.01-0.04,0.01-0.08,0.02-0.12c0.03-0.16,0.05-0.31,0.08-0.47
				c0.04-0.23,0.08-0.41,0.11-0.59c0.04-0.22,0.07-0.37,0.11-0.52c0.01-0.03,0.01-0.07,0.02-0.1c0.07-0.35,0.15-0.69,0.23-1.03
				c0.01-0.03,0.01-0.05,0.02-0.08c0.04-0.15,0.07-0.3,0.11-0.44c0.11-0.41,0.2-0.74,0.29-1.07c0.01-0.03,0.02-0.06,0.02-0.08
				c0.04-0.15,0.09-0.3,0.13-0.45c0.06-0.21,0.12-0.37,0.17-0.54c0.06-0.18,0.11-0.33,0.16-0.47c0.01-0.03,0.02-0.06,0.03-0.08
				c0.11-0.31,0.22-0.63,0.34-0.93c0.01-0.02,0.02-0.05,0.03-0.07c0.05-0.13,0.1-0.27,0.15-0.4c0.01-0.02,0.02-0.05,0.03-0.07
				c0.12-0.3,0.24-0.6,0.37-0.89c0.01-0.03,0.02-0.06,0.04-0.08c0.06-0.13,0.11-0.26,0.17-0.38c0.09-0.2,0.16-0.34,0.23-0.49
				c0.08-0.17,0.14-0.29,0.2-0.42c0.01-0.03,0.03-0.06,0.04-0.09c0.06-0.13,0.13-0.26,0.2-0.39l-0.08,37.15
				c-0.07-0.18-0.14-0.35-0.21-0.53c-0.01-0.03-0.03-0.07-0.04-0.1c-0.06-0.17-0.13-0.33-0.19-0.5c-0.08-0.22-0.15-0.41-0.22-0.59
				c-0.08-0.22-0.14-0.38-0.19-0.55c-0.01-0.03-0.02-0.06-0.03-0.09c-0.13-0.37-0.25-0.74-0.37-1.12c-0.08-0.24-0.13-0.41-0.18-0.58
				c-0.14-0.44-0.25-0.82-0.36-1.2c-0.01-0.03-0.02-0.06-0.03-0.09c-0.05-0.18-0.1-0.36-0.15-0.54c-0.06-0.22-0.11-0.42-0.16-0.62
				c-0.05-0.21-0.1-0.39-0.14-0.57c-0.01-0.03-0.01-0.06-0.02-0.09c-0.09-0.39-0.18-0.77-0.27-1.16c-0.05-0.25-0.09-0.42-0.13-0.59
				c-0.1-0.47-0.17-0.86-0.25-1.24c-0.01-0.04-0.01-0.07-0.02-0.11c-0.03-0.17-0.06-0.34-0.09-0.51c-0.05-0.27-0.08-0.47-0.11-0.66
				c-0.04-0.23-0.06-0.4-0.09-0.58c-0.01-0.04-0.01-0.08-0.02-0.12c-0.03-0.18-0.05-0.36-0.08-0.55c-0.03-0.23-0.06-0.42-0.08-0.62
				c0-0.04-0.01-0.07-0.01-0.11c-0.02-0.16-0.04-0.32-0.06-0.48c0-0.04-0.01-0.08-0.01-0.13c-0.04-0.38-0.08-0.77-0.11-1.15
				c0-0.05-0.01-0.1-0.01-0.15c-0.01-0.15-0.03-0.31-0.04-0.46c0-0.04-0.01-0.08-0.01-0.12c-0.01-0.19-0.03-0.38-0.04-0.57
				c0-0.03,0-0.06-0.01-0.09c-0.01-0.16-0.02-0.32-0.03-0.48c0-0.05-0.01-0.11-0.01-0.16c-0.01-0.16-0.01-0.32-0.02-0.48
				c0-0.03,0-0.06,0-0.1c-0.01-0.19-0.01-0.38-0.02-0.57c0-0.05,0-0.1,0-0.15C213.85,328.87,213.85,328.72,213.85,328.58z"/>
		</g>
		<g>
			<path fill="#FF2E63" d="M267.15,342.43c0,0.05,0,0.11,0,0.16c0,0.19,0,0.38,0,0.57c0,0.19,0,0.38-0.01,0.57c0,0.05,0,0.11,0,0.16
				c0,0.15-0.01,0.29-0.01,0.44c-0.01,0.33-0.02,0.51-0.02,0.7c-0.01,0.25-0.02,0.41-0.03,0.56c0,0.05-0.01,0.11-0.01,0.16
				c-0.01,0.15-0.02,0.3-0.03,0.46c-0.02,0.28-0.03,0.47-0.05,0.65c-0.02,0.27-0.04,0.41-0.05,0.56c-0.03,0.32-0.05,0.5-0.07,0.68
				c-0.02,0.19-0.04,0.37-0.06,0.55c-0.03,0.27-0.05,0.42-0.07,0.56c-0.04,0.29-0.07,0.47-0.09,0.65c-0.03,0.2-0.06,0.36-0.08,0.52
				c-0.05,0.28-0.07,0.43-0.1,0.58c-0.04,0.24-0.08,0.42-0.11,0.59c-0.04,0.22-0.07,0.37-0.11,0.52c-0.1,0.45-0.17,0.79-0.25,1.13
				c-0.06,0.23-0.09,0.38-0.13,0.52c-0.11,0.41-0.2,0.74-0.29,1.07c-0.07,0.23-0.11,0.39-0.16,0.54c-0.06,0.19-0.11,0.36-0.17,0.53
				c-0.05,0.17-0.11,0.32-0.16,0.48c-0.13,0.38-0.25,0.7-0.37,1.02c-0.07,0.18-0.13,0.33-0.18,0.48c-0.14,0.35-0.27,0.66-0.4,0.96
				c-0.21,0.49-0.42,0.94-0.64,1.38c-2.39,4.81-5.82,8.38-9.92,10.33c-0.14,0.07-0.27,0.12-0.39,0.18l0.04-15.93l4.29-1.9
				l0.06-24.88l-4.28-4.37l0.04-15.97c0.12,0.13,0.25,0.25,0.37,0.38c0.28,0.3,0.53,0.56,0.77,0.84c0.13,0.15,0.26,0.29,0.38,0.42
				c0.25,0.29,0.49,0.57,0.73,0.86c0.37,0.45,0.73,0.9,1.07,1.35c2.21,2.91,4.15,6.19,5.74,9.72c0.42,0.93,0.81,1.87,1.18,2.83
				c0.23,0.59,0.43,1.16,0.63,1.74c0.14,0.42,0.27,0.8,0.39,1.19c0.07,0.22,0.13,0.4,0.18,0.59c0.13,0.42,0.24,0.81,0.35,1.2
				c0.07,0.25,0.12,0.44,0.17,0.63c0.06,0.21,0.11,0.41,0.16,0.61c0.05,0.21,0.1,0.39,0.14,0.57c0.12,0.47,0.2,0.86,0.29,1.24
				c0.06,0.25,0.09,0.42,0.13,0.59c0.1,0.47,0.17,0.86,0.25,1.24c0.05,0.29,0.08,0.45,0.11,0.62c0.05,0.27,0.08,0.47,0.11,0.66
				c0.04,0.24,0.06,0.41,0.09,0.57c0.05,0.31,0.07,0.49,0.1,0.67c0.03,0.23,0.06,0.42,0.08,0.62c0.03,0.28,0.05,0.43,0.07,0.59
				c0.04,0.33,0.06,0.52,0.08,0.72c0.02,0.19,0.04,0.38,0.05,0.57c0.03,0.3,0.04,0.45,0.05,0.61c0.02,0.32,0.04,0.51,0.05,0.7
				c0.02,0.26,0.02,0.42,0.03,0.58c0,0.05,0.01,0.11,0.01,0.16c0.01,0.16,0.01,0.32,0.02,0.48c0.01,0.29,0.02,0.48,0.02,0.67
				C267.15,342.13,267.15,342.28,267.15,342.43z"/>
		</g>
		<g enable-background="new    ">
			<g>
				<polygon fill="#010A43" points="226.64,340.11 239.14,352.9 239.14,353.73 226.64,340.94 				"/>
			</g>
			<g>
				<polygon fill="#010A43" points="226.65,338.68 239.14,351.47 239.14,352.3 226.64,339.51 				"/>
			</g>
			<g>
				<polygon fill="#010A43" points="226.66,332.97 239.16,345.76 239.16,346.59 226.66,333.79 				"/>
			</g>
			<g>
				<polygon fill="#010A43" points="226.65,337.25 239.15,350.04 239.14,350.87 226.65,338.09 				"/>
			</g>
			<g>
				<polygon fill="#010A43" points="226.66,328.68 239.17,341.48 239.17,342.3 226.66,329.51 				"/>
			</g>
			<g>
				<polygon fill="#010A43" points="226.67,324.4 239.18,337.18 239.18,338.02 226.67,325.23 				"/>
			</g>
			<g>
				<polygon fill="#878787" points="239.16,355.32 239.21,335.87 239.16,357.15 				"/>
			</g>
			<g>
				<path fill="#FFE1E1" d="M223.53,318.2l16.99,17.33l-0.06,24.89l-11.81-12.05l-5.19-5.28L223.53,318.2z M239.16,357.15
					l0.06-21.28l-13.08-13.09l-0.05,19.13l0.04-19.15l-1.28-1.3l-0.05,21.04l6.31,6.43L239.16,357.15"/>
			</g>
			<g>
				<polygon fill="#2D2C2C" points="229.18,346.97 239.16,357.14 231.11,348.94 				"/>
			</g>
			<g>
				<polygon fill="#878787" points="224.8,342.5 229.18,346.97 231.11,348.94 				"/>
			</g>
			<g>
				<polygon fill="#010A43" points="226.66,330.94 239.16,343.73 239.16,342.9 226.67,330.1 				"/>
			</g>
			<g>
				<path fill="#FF2E63" d="M226.09,341.93l13.05,13.35l0.08-19.41l-13.08-13.09L226.09,341.93z M239.16,343.73l-12.5-12.79l0-0.84
					l12.5,12.79L239.16,343.73 M226.67,324.4l12.5,12.79l0,0.84l-12.5-12.79L226.67,324.4 M226.67,325.83l12.5,12.79l0,0.83
					l-12.5-12.79L226.67,325.83 M226.67,327.25l12.5,12.79l0,0.83l-12.5-12.79L226.67,327.25 M226.66,328.68l12.5,12.79l0,0.83
					l-12.5-12.79L226.66,328.68 M226.66,331.54l12.5,12.79l0,0.83l-12.5-12.78L226.66,331.54 M226.66,332.97l12.5,12.79l0,0.83
					l-12.5-12.79L226.66,332.97 M226.66,334.4l12.5,12.79l0,0.83l-12.5-12.79L226.66,334.4 M226.65,335.82l12.5,12.79l0,0.84
					l-12.5-12.79L226.65,335.82 M226.65,337.25L226.65,337.25L226.65,337.25l12.5,12.79l0,0.83l0,0l-12.5-12.78L226.65,337.25
					 M226.65,338.68l12.5,12.79l0,0.83l-12.5-12.79L226.65,338.68 M226.64,340.11l12.5,12.79l0,0.83l-12.5-12.79L226.64,340.11"/>
			</g>
			<g>
				<path fill="#010A43" d="M224.8,342.5L224.8,342.5l0.14,0.14L224.8,342.5z M229.18,346.97l0.04,0.04l9.94,10.13l-6.55-6.68
					l6.56,6.69l-0.03-1.86l-13.05-13.38l0.05-19.15l-1.28-1.3l-0.05,21.04L229.18,346.97z"/>
			</g>
			<g>
				<polygon fill="#878787" points="226.09,341.93 226.09,341.91 226.08,341.92 226.08,341.92 				"/>
			</g>
			<g>
				<polygon fill="#010A43" points="226.65,335.82 239.15,348.61 239.15,349.45 226.65,336.65 				"/>
			</g>
			<g>
				<polygon fill="#010A43" points="226.66,334.4 239.15,347.19 239.15,348.02 226.65,335.22 				"/>
			</g>
			<g>
				<polygon fill="#010A43" points="226.66,331.54 239.16,344.33 239.16,345.16 226.66,332.37 				"/>
			</g>
			<g>
				<polygon fill="#010A43" points="226.67,327.25 239.17,340.05 239.17,340.87 226.66,328.08 				"/>
			</g>
			<g>
				<polygon fill="#010A43" points="226.67,325.83 239.17,338.61 239.17,339.44 226.67,326.66 				"/>
			</g>
			<g>
				<path fill="#DCDCDC" d="M248.17,321.06c0.3,0.09,0.6,0.26,0.82,0.5c0.43,0.49,0.38,1.06-0.1,1.27
					c-0.24,0.11-0.56,0.12-0.86,0.03c-0.3-0.09-0.6-0.26-0.82-0.51c-0.43-0.48-0.38-1.05,0.1-1.27
					C247.55,320.97,247.87,320.97,248.17,321.06z"/>
			</g>
			<g>
				<path fill="#010A43" d="M257.58,327.97l-17.04,5.98l-17-15.76l17.05-5.97L257.58,327.97z M239.38,327.26
					c1.1-0.5,1.55-1.49,1.21-2.66c0.33,0.16,0.66,0.29,1,0.39c1.07,0.31,2.15,0.28,3.02-0.12c1.78-0.81,1.9-2.8,0.27-4.61
					c-0.83-0.92-1.9-1.56-2.98-1.87c-1.07-0.31-2.15-0.29-3.03,0.11c-1.62,0.74-1.85,2.48-0.62,4.16l-1.69,0.77l-0.3-0.33l0.03,0.45
					l0.04,0.4l0.04,0.44l1.61,0.61l-0.34-0.37l0.81-0.38c0.5,0.59,0.32,1.17-0.36,1.48c-0.51,0.23-1.09,0.23-1.65,0.07
					c-0.6-0.17-1.16-0.53-1.56-0.97c-0.84-0.93-0.76-2.01,0.09-2.41c0.42-0.19,1.05-0.2,1.66-0.02l-0.27-1.6
					c-0.89-0.25-2.02-0.19-2.75,0.12c-1.76,0.81-1.83,2.9-0.27,4.62c0.78,0.87,1.84,1.5,2.93,1.81
					C237.36,327.68,238.48,327.68,239.38,327.26 M244.1,316.17l-1.75,0.8l3.81,3.83l1.26-0.58L244.1,316.17 M248.99,321.56
					c-0.22-0.24-0.51-0.41-0.82-0.5c-0.31-0.09-0.62-0.09-0.86,0.02c-0.47,0.22-0.53,0.79-0.1,1.27c0.22,0.25,0.52,0.42,0.82,0.51
					c0.31,0.09,0.62,0.08,0.86-0.03C249.37,322.61,249.43,322.04,248.99,321.56"/>
			</g>
			<g>
				<path fill="#DCDCDC" d="M236.37,320.81l0.27,1.6c-0.61-0.17-1.24-0.17-1.66,0.02c-0.85,0.39-0.93,1.47-0.09,2.41
					c0.4,0.44,0.96,0.79,1.56,0.97c0.56,0.16,1.14,0.16,1.65-0.07c0.69-0.31,0.86-0.89,0.36-1.48l-0.81,0.38l0.34,0.37l-1.61-0.61
					l-0.04-0.44l-0.04-0.4l-0.03-0.45l0.3,0.33l1.69-0.77c0.11,0.15,0.24,0.32,0.38,0.47c0.56,0.63,1.25,1.13,1.96,1.47
					c0.34,1.17-0.11,2.16-1.21,2.66c-0.91,0.41-2.02,0.42-3.1,0.11c-1.09-0.31-2.14-0.95-2.93-1.81c-1.56-1.72-1.5-3.81,0.27-4.62
					C234.35,320.62,235.48,320.56,236.37,320.81z"/>
			</g>
			<g>
				<path fill="#DCDCDC" d="M244.88,320.26c1.63,1.8,1.51,3.8-0.27,4.61c-0.88,0.4-1.96,0.43-3.02,0.12c-0.34-0.1-0.67-0.23-1-0.39
					c-0.72-0.34-1.4-0.84-1.96-1.47c-0.14-0.15-0.27-0.32-0.38-0.47c-1.23-1.68-0.99-3.42,0.62-4.16c0.88-0.4,1.96-0.42,3.03-0.11
					C242.98,318.7,244.05,319.35,244.88,320.26z M243.23,323.33c0.9-0.41,0.95-1.45,0.11-2.38c-0.43-0.47-0.99-0.81-1.55-0.97
					c-0.54-0.16-1.09-0.15-1.54,0.05c-0.9,0.42-0.94,1.46-0.1,2.39c0.42,0.47,0.98,0.8,1.54,0.97
					C242.23,323.54,242.79,323.54,243.23,323.33"/>
			</g>
			<g>
				<path fill="#010A43" d="M243.23,323.33c-0.45,0.2-1,0.21-1.55,0.05c-0.56-0.16-1.11-0.49-1.54-0.97
					c-0.84-0.93-0.8-1.97,0.1-2.39c0.44-0.2,0.99-0.21,1.54-0.05c0.56,0.16,1.12,0.5,1.55,0.97
					C244.18,321.88,244.14,322.92,243.23,323.33z"/>
			</g>
			<g>
				<polygon fill="#010A43" points="254.38,348.07 254.38,348.91 241.83,354.5 241.83,353.67 				"/>
			</g>
			<g>
				<polygon fill="#010A43" points="254.39,346.65 254.38,347.48 241.83,353.07 241.84,352.24 				"/>
			</g>
			<g>
				<polygon fill="#010A43" points="254.93,350.22 256.21,351.53 241.8,357.9 241.8,356.07 251.32,351.82 				"/>
			</g>
			<g>
				<polygon fill="#010A43" points="241.8,357.91 251.81,353.47 256.21,351.53 				"/>
			</g>
			<g>
				<polygon fill="#010A43" points="254.39,345.22 254.39,346.05 241.84,351.64 241.84,350.82 				"/>
			</g>
			<g>
				<polygon fill="#DCDCDC" points="244.1,316.17 247.42,320.22 246.16,320.8 242.35,316.97 				"/>
			</g>
			<g>
				<polygon fill="#010A43" points="254.39,343.79 254.39,344.62 241.84,350.21 241.84,349.39 				"/>
			</g>
			<g>
				<polygon fill="#010A43" points="254.4,342.37 254.39,343.19 241.85,348.78 241.85,347.95 				"/>
			</g>
			<g>
				<polygon fill="#010A43" points="254.4,340.94 254.4,341.76 241.85,347.36 241.85,346.52 				"/>
			</g>
			<g>
				<polygon fill="#010A43" points="254.4,339.51 254.4,340.33 241.85,345.93 241.85,345.1 				"/>
			</g>
			<g>
				<polygon fill="#010A43" points="254.41,338.07 254.4,338.91 241.86,344.5 241.86,343.67 				"/>
			</g>
			<g>
				<polygon fill="#010A43" points="254.41,336.65 254.41,337.48 241.86,343.07 241.86,342.24 				"/>
			</g>
			<g>
				<polygon fill="#010A43" points="254.41,335.22 254.41,336.05 241.86,341.65 241.86,340.82 				"/>
			</g>
			<g>
				<polygon fill="#010A43" points="254.42,333.79 254.41,334.62 241.87,340.22 241.87,339.39 				"/>
			</g>
			<g>
				<polygon fill="#010A43" points="254.42,332.36 254.42,333.2 241.87,338.79 241.87,337.96 				"/>
			</g>
			<g>
				<path fill="#FF2E63" d="M241.85,336.62l13.13-5.57l-0.05,19.16l-3.61,1.61l-9.52,4.25L241.85,336.62z M254.41,334.62l0-0.83
					l-12.55,5.6l0,0.83L254.41,334.62 M254.4,340.33l0-0.83l-12.55,5.6l0,0.83L254.4,340.33 M254.42,333.2l0-0.84l-12.55,5.6l0,0.83
					L254.42,333.2 M254.39,344.62l0-0.83l-12.55,5.6l0,0.83L254.39,344.62 M254.41,336.05l0-0.83l-12.55,5.6l0,0.83L254.41,336.05
					 M254.4,341.76l0-0.83l-12.55,5.59l0,0.84L254.4,341.76 M254.4,338.91l0-0.84l-12.55,5.6l0,0.83L254.4,338.91 M254.38,348.91
					l0-0.84l-12.55,5.6l0,0.83L254.38,348.91 M254.39,346.05l0-0.83l-12.55,5.6l0,0.83L254.39,346.05 M254.41,337.48l0-0.83
					l-12.55,5.59l0,0.83L254.41,337.48 M254.39,343.19l0-0.83l-12.55,5.59l0,0.83L254.39,343.19 M254.38,347.48l0-0.83l-12.55,5.59
					l0,0.83L254.38,347.48"/>
			</g>
			<g>
				<polygon fill="#010A43" points="254.98,331.06 256.26,330.49 256.21,351.53 254.93,350.22 251.32,351.82 254.92,350.21 				"/>
			</g>
			<g>
				<path fill="#FFE1E1" d="M240.53,335.53l11.05-4.9l5.99-2.65l-0.06,24.88l-4.29,1.9l-0.9,0.4l-11.85,5.25L240.53,335.53z
					 M256.26,330.49l-1.28,0.56l-13.13,5.57l-0.05,19.45l0,1.84l10.02-4.44l4.4-1.95L256.26,330.49"/>
			</g>
			<g>
				<polygon fill="#FF2E63" points="257.54,327.99 251.59,330.63 240.53,335.52 223.54,318.19 240.54,333.95 				"/>
			</g>
			<g>
				<polygon fill="#010A43" points="240.47,360.42 240.53,335.53 223.54,318.19 240.53,335.52 251.59,330.63 240.53,335.53 				"/>
			</g>
			<g>
				<polygon fill="#FFE1E1" points="257.54,327.99 257.58,327.97 257.58,327.98 				"/>
			</g>
			<g>
				<polygon fill="#FF2E63" points="240.59,310.65 257.58,327.97 240.59,312.23 223.54,318.19 				"/>
			</g>
			<g>
				<polygon fill="#010A43" points="257.59,327.98 253.3,323.61 240.59,310.65 				"/>
			</g>
		</g>
		<g>
			<path fill="#FF2E63" d="M240.93,371.55c-0.25-0.07-0.38-0.1-0.52-0.14c-0.14-0.04-0.27-0.08-0.41-0.12
				c-0.22-0.07-0.32-0.1-0.42-0.13c-0.24-0.08-0.36-0.12-0.48-0.16c-0.19-0.07-0.32-0.11-0.45-0.16c-0.22-0.08-0.31-0.12-0.41-0.16
				c-0.24-0.09-0.34-0.14-0.45-0.18c-0.22-0.09-0.35-0.15-0.48-0.21c-0.2-0.09-0.3-0.14-0.4-0.18c-0.23-0.11-0.33-0.15-0.43-0.2
				c-0.23-0.11-0.36-0.18-0.49-0.24c-0.2-0.1-0.29-0.15-0.39-0.2c-0.23-0.12-0.32-0.17-0.41-0.22c-0.24-0.14-0.37-0.21-0.49-0.28
				c-0.18-0.11-0.28-0.17-0.38-0.23c-0.22-0.13-0.31-0.19-0.39-0.24c-0.24-0.15-0.36-0.23-0.48-0.31c-0.18-0.12-0.28-0.19-0.39-0.26
				c-0.21-0.15-0.3-0.2-0.38-0.26c-0.23-0.16-0.33-0.23-0.43-0.31c-0.19-0.13-0.3-0.22-0.42-0.31c-0.21-0.16-0.29-0.22-0.37-0.28
				c-0.05-0.04-0.09-0.07-0.14-0.11c-0.09-0.07-0.17-0.14-0.26-0.2c-0.22-0.17-0.33-0.26-0.44-0.36c-0.2-0.17-0.28-0.23-0.36-0.3
				c-0.05-0.04-0.09-0.08-0.14-0.12c-0.08-0.07-0.16-0.14-0.24-0.2c-0.23-0.2-0.34-0.3-0.45-0.4c-0.19-0.17-0.27-0.25-0.35-0.32
				c-0.05-0.04-0.09-0.08-0.14-0.13c-0.07-0.07-0.15-0.14-0.22-0.21c-0.23-0.22-0.34-0.33-0.45-0.43c-0.18-0.18-0.26-0.26-0.34-0.34
				c-0.04-0.04-0.09-0.09-0.13-0.13c-0.07-0.07-0.14-0.14-0.21-0.22c-0.04-0.04-0.08-0.09-0.13-0.13c-0.11-0.11-0.21-0.22-0.31-0.33
				c-0.16-0.17-0.24-0.26-0.33-0.35c-0.04-0.05-0.09-0.09-0.13-0.14c-0.07-0.08-0.14-0.15-0.21-0.23c-0.04-0.05-0.08-0.09-0.12-0.14
				c-0.09-0.1-0.17-0.19-0.26-0.29c-0.19-0.22-0.28-0.32-0.37-0.43c-0.04-0.05-0.08-0.09-0.12-0.14c-0.07-0.08-0.13-0.16-0.2-0.24
				c-0.04-0.05-0.08-0.1-0.12-0.15c-0.08-0.09-0.15-0.19-0.23-0.28c-0.18-0.22-0.28-0.35-0.38-0.47c-0.17-0.22-0.24-0.31-0.31-0.4
				c-0.04-0.05-0.08-0.1-0.12-0.15c-0.07-0.09-0.14-0.19-0.21-0.28c-0.18-0.24-0.28-0.37-0.37-0.5c-0.16-0.22-0.23-0.32-0.29-0.41
				c-0.17-0.25-0.24-0.34-0.31-0.44c-0.18-0.27-0.28-0.4-0.37-0.54c-0.14-0.21-0.21-0.32-0.28-0.42c-0.16-0.25-0.23-0.35-0.29-0.45
				c-0.17-0.27-0.26-0.41-0.35-0.56c-0.12-0.2-0.2-0.32-0.27-0.44c-0.15-0.25-0.21-0.35-0.28-0.46c-0.17-0.29-0.25-0.43-0.34-0.58
				c-0.09-0.16-0.17-0.31-0.26-0.45c-0.14-0.25-0.2-0.36-0.26-0.47c-0.15-0.28-0.23-0.42-0.3-0.56c-0.1-0.19-0.18-0.35-0.26-0.5
				c-0.12-0.24-0.18-0.36-0.25-0.48c-0.14-0.27-0.21-0.41-0.27-0.55c-0.11-0.22-0.18-0.38-0.26-0.54c-0.11-0.23-0.17-0.36-0.23-0.49
				c-0.12-0.26-0.18-0.4-0.25-0.54c-0.11-0.24-0.18-0.41-0.26-0.58c-0.09-0.2-0.15-0.35-0.21-0.5c-0.11-0.26-0.17-0.4-0.23-0.54
				c-0.1-0.25-0.17-0.43-0.24-0.6l0.09-37.17c0.07-0.14,0.14-0.27,0.21-0.4c0.1-0.18,0.15-0.28,0.21-0.38
				c0.12-0.2,0.18-0.31,0.24-0.41c0.11-0.19,0.18-0.31,0.26-0.43c0.1-0.17,0.16-0.26,0.22-0.36c0.12-0.19,0.18-0.28,0.24-0.37
				c0.13-0.2,0.21-0.32,0.29-0.43c0.1-0.15,0.17-0.25,0.24-0.34c0.13-0.19,0.19-0.27,0.25-0.35c0.15-0.2,0.23-0.31,0.31-0.42
				c0.11-0.14,0.18-0.23,0.25-0.32c0.14-0.18,0.2-0.25,0.26-0.32c0.16-0.19,0.23-0.28,0.31-0.37c0.13-0.15,0.21-0.24,0.29-0.33
				c0.15-0.17,0.21-0.23,0.27-0.29c0.17-0.18,0.23-0.25,0.3-0.32c0.15-0.16,0.24-0.25,0.33-0.33c0.16-0.16,0.22-0.21,0.28-0.27
				c0.04-0.03,0.07-0.07,0.11-0.1c0.06-0.06,0.13-0.12,0.19-0.18c0.18-0.16,0.27-0.24,0.36-0.32c0.17-0.15,0.23-0.2,0.29-0.25
				c0.04-0.03,0.08-0.07,0.12-0.1c0.06-0.05,0.12-0.1,0.19-0.15c0.2-0.16,0.29-0.23,0.39-0.31c0.17-0.13,0.23-0.18,0.3-0.23
				c0.04-0.03,0.08-0.06,0.13-0.09c0.06-0.04,0.12-0.09,0.18-0.13c0.04-0.03,0.08-0.06,0.12-0.09c0.09-0.07,0.19-0.13,0.29-0.2
				c0.17-0.11,0.24-0.16,0.31-0.2c0.05-0.03,0.09-0.06,0.14-0.09c0.06-0.04,0.12-0.08,0.18-0.11c0.04-0.03,0.09-0.05,0.13-0.08
				c0.08-0.05,0.16-0.1,0.24-0.14c0.05-0.03,0.09-0.05,0.14-0.08c0.08-0.04,0.16-0.09,0.23-0.13c0.05-0.02,0.09-0.05,0.14-0.07
				c0.06-0.03,0.13-0.07,0.19-0.1c0.05-0.02,0.09-0.05,0.14-0.07c0.07-0.04,0.15-0.07,0.22-0.11c0.05-0.02,0.09-0.05,0.14-0.07
				c0.09-0.04,0.18-0.09,0.27-0.13c0.05-0.02,0.09-0.04,0.14-0.06c0.07-0.03,0.13-0.06,0.2-0.09c0.05-0.02,0.1-0.04,0.14-0.06
				c0.07-0.03,0.15-0.06,0.22-0.09c0.22-0.09,0.33-0.13,0.44-0.17c0.04-0.02,0.09-0.03,0.13-0.05c0.07-0.03,0.14-0.05,0.21-0.08
				c0.05-0.02,0.1-0.03,0.15-0.05c0.07-0.03,0.15-0.05,0.22-0.07c0.23-0.08,0.35-0.11,0.46-0.14c0.2-0.06,0.28-0.08,0.35-0.1
				c0.05-0.01,0.1-0.03,0.15-0.04c0.07-0.02,0.15-0.04,0.23-0.06c0.25-0.06,0.36-0.09,0.47-0.11c0.19-0.04,0.28-0.06,0.36-0.08
				c0.05-0.01,0.1-0.02,0.14-0.03c0.08-0.01,0.15-0.03,0.23-0.04c0.05-0.01,0.09-0.02,0.14-0.02c0.11-0.02,0.23-0.04,0.34-0.06
				c0.18-0.03,0.28-0.04,0.37-0.05c0.05-0.01,0.09-0.01,0.14-0.02c0.08-0.01,0.16-0.02,0.25-0.03c0.24-0.02,0.34-0.03,0.44-0.04
				c0.2-0.02,0.31-0.02,0.43-0.03c0.22-0.01,0.3-0.01,0.39-0.02c0.23-0.01,0.33-0.01,0.43-0.01c0.22,0,0.34,0,0.47,0
				c0.21,0,0.3,0.01,0.39,0.01c0.23,0.01,0.33,0.01,0.43,0.02c0.23,0.01,0.35,0.02,0.48,0.03c0.2,0.02,0.3,0.03,0.4,0.04
				c0.23,0.03,0.33,0.04,0.42,0.05c0.24,0.03,0.37,0.05,0.51,0.07c0.19,0.03,0.3,0.05,0.4,0.07c0.23,0.04,0.32,0.06,0.42,0.08
				c0.25,0.05,0.38,0.08,0.52,0.11c0.17,0.04,0.29,0.07,0.41,0.09c0.23,0.06,0.33,0.08,0.43,0.11c0.25,0.07,0.39,0.1,0.53,0.14
				c0.13,0.04,0.26,0.08,0.4,0.12c0.21,0.07,0.31,0.1,0.4,0.13c0.23,0.08,0.32,0.11,0.41,0.14c0.25,0.09,0.38,0.13,0.51,0.18
				c0.16,0.06,0.27,0.1,0.39,0.15c0.21,0.09,0.3,0.12,0.39,0.16c0.23,0.09,0.32,0.13,0.41,0.17c0.24,0.11,0.37,0.16,0.5,0.22
				c0.17,0.08,0.28,0.13,0.38,0.18c0.22,0.11,0.3,0.15,0.39,0.19c0.23,0.11,0.32,0.16,0.41,0.21c0.23,0.12,0.36,0.19,0.48,0.26
				c0.17,0.09,0.27,0.15,0.37,0.21c0.21,0.12,0.29,0.17,0.38,0.22c0.22,0.13,0.31,0.19,0.4,0.24c0.22,0.13,0.34,0.21,0.46,0.29
				c0.17,0.11,0.27,0.17,0.37,0.24c0.2,0.13,0.29,0.19,0.37,0.25c0.21,0.14,0.31,0.21,0.41,0.28c0.19,0.13,0.31,0.22,0.43,0.31
				c0.16,0.11,0.26,0.19,0.36,0.27c0.19,0.14,0.28,0.21,0.37,0.28c0.2,0.15,0.31,0.24,0.42,0.33c0.15,0.12,0.27,0.22,0.39,0.32
				c0.14,0.12,0.25,0.21,0.35,0.3c0.17,0.15,0.27,0.23,0.37,0.31c0.31,0.27,0.54,0.48,0.78,0.7c0.12,0.12,0.24,0.22,0.35,0.32
				c0.16,0.15,0.26,0.25,0.36,0.35c0.27,0.27,0.51,0.5,0.74,0.74l-0.04,15.97l-12.71-12.96l-17.05,7.55l16.99,17.33l-16.99-17.33
				l-0.06,24.89l5.19,5.28l11.81,12.05l11.86-5.25l0.9-0.4l-0.04,15.93c-0.24,0.11-0.47,0.21-0.71,0.3
				c-0.12,0.05-0.24,0.09-0.35,0.13c-0.39,0.14-0.75,0.26-1.11,0.37c-0.15,0.04-0.25,0.07-0.36,0.1c-0.17,0.05-0.29,0.08-0.4,0.1
				c-0.26,0.06-0.5,0.12-0.75,0.17c-0.17,0.03-0.27,0.05-0.37,0.07c-0.19,0.03-0.3,0.05-0.41,0.07c-0.16,0.02-0.28,0.04-0.41,0.06
				c-0.15,0.02-0.26,0.03-0.36,0.04c-0.19,0.02-0.28,0.03-0.38,0.04c-0.21,0.02-0.31,0.02-0.42,0.03c-0.18,0.01-0.31,0.02-0.43,0.02
				c-0.17,0.01-0.27,0.01-0.37,0.01c-0.21,0-0.29,0-0.38,0c-0.22,0-0.33,0-0.44-0.01c-0.18,0-0.31-0.01-0.43-0.02
				c-0.2-0.01-0.29-0.02-0.38-0.02c-0.22-0.02-0.31-0.02-0.39-0.03c-0.24-0.02-0.35-0.03-0.46-0.05c-0.18-0.02-0.31-0.04-0.43-0.05
				c-0.2-0.03-0.29-0.04-0.39-0.06c-0.23-0.04-0.31-0.05-0.4-0.07c-0.24-0.04-0.36-0.07-0.47-0.09c-0.17-0.03-0.3-0.06-0.43-0.09
				c-0.21-0.05-0.3-0.07-0.4-0.09C241.12,371.6,241.02,371.57,240.93,371.55z"/>
		</g>
		<g>
			<path fill="#FFFFFF" d="M217.73,310.36l-0.09,37.17c4.65,11.73,13.1,21.1,22.77,23.87c4.62,1.33,8.98,0.99,12.77-0.71l0.04-15.93
				l-0.04,15.93c8.29-3.71,13.93-13.94,13.97-27.54c-0.05,19.83-12.02,32.48-26.74,28.25c-14.72-4.23-26.62-23.73-26.57-43.56
				c-0.02,6.8,1.37,13.57,3.8,19.69L217.73,310.36z"/>
		</g>
	</g>
</g>
<g>
	<g>
		<g>
			<path fill="#002A72" d="M152.86,365.07l0.29,37.86c-1.02,2.99-1.5,6.14-1.42,9.29l0.73,28.27c0.01,0.53,0.35,1,0.85,1.19
				c1.75,0.65,5.85,2.44,8.76-0.93c0.25-0.29,0.38-0.67,0.39-1.05c0.17-4.17,1.3-29.51,4.39-43.24c3.38-15,5-25.62,1.88-32.75
				L152.86,365.07z"/>
			<path fill="#000314" d="M153.93,446.06l1,0.59c1.35,0.8,3.03,0.74,4.32-0.15l0.44-0.31c0.97-0.67,1.54-1.8,1.49-2.99l0,0
				l7.45-1.98c0,0,3.8-1.11,4.99,0.48c1.19,1.59-1.98,7.69-10.38,8.88c0,0-1.42,0.2-3.88,3.01c-1.66,1.9-6.26,1.19-6.5-1.51
				c-0.15-1.74-0.11-4.02-0.06-5.41C152.82,446.1,153.44,445.77,153.93,446.06z"/>
			<path fill="#00225F" d="M151.21,440.68c0.01-0.3,0.37-0.44,0.57-0.22c0.63,0.72,1.92,1.63,4.34,1.55c3.08-0.1,5.2-1,6.19-1.98
				c0.21-0.21,0.56-0.04,0.56,0.25v4.53c0,0.14-0.02,0.29-0.07,0.42c-0.29,0.83-1.66,3.7-6.75,3.21c0,0-3.03,0.28-4.73-1.87
				c-0.18-0.23-0.26-0.54-0.25-0.84L151.21,440.68z"/>
		</g>
		<g>
			<path fill="#003B9A" d="M164.36,374.32l0.29,37.86c-1.02,2.99-1.5,6.14-1.42,9.29l0.73,28.27c0.01,0.53,0.35,1,0.85,1.19
				c1.75,0.65,5.85,2.44,8.76-0.93c0.25-0.29,0.38-0.67,0.39-1.05c0.17-4.17,1.3-29.51,4.39-43.24c3.38-15,5-25.62,1.88-32.75
				L164.36,374.32z"/>
			<path fill="#000314" d="M165.49,454.87l1.05,0.62c1.42,0.84,3.19,0.78,4.54-0.16l0.47-0.32c1.02-0.71,1.61-1.89,1.56-3.14l0,0
				l7.83-2.08c0,0,4-1.17,5.25,0.5c1.25,1.67-2.08,8.08-10.92,9.33c0,0-1.49,0.21-4.08,3.17c-1.75,2-6.58,1.25-6.83-1.58
				c-0.16-1.83-0.11-4.23-0.06-5.69C164.33,454.91,164.98,454.56,165.49,454.87z"/>
			<path fill="#003690" d="M163.33,448.93c0.01-0.3,0.37-0.44,0.57-0.22c0.63,0.72,1.92,1.63,4.34,1.55c3.08-0.1,5.2-1,6.19-1.98
				c0.21-0.21,0.56-0.04,0.56,0.25v4.53c0,0.14-0.02,0.29-0.07,0.42c-0.29,0.83-1.66,3.7-6.75,3.21c0,0-3.03,0.28-4.73-1.87
				c-0.18-0.23-0.26-0.54-0.25-0.84L163.33,448.93z"/>
		</g>
		<g>
			<path fill="#E3E5E9" d="M181.62,369.88c0,0-1.42-17.3-0.45-20.76l0,0c0.79-2.8,0.91-5.74,0.36-8.6l-1.49-8.41
				c-2-7.25-7.86-10.2-7.86-10.2c-4.76-2.36-10.21-7.26-15.83-4.98c-9.44,3.84-6.12,18.25-2.66,25.07c1.77,3.5,2.18,7.53,0.95,11.26
				c-1.26,3.83-2.66,7.65-3.33,11.63c-0.5,2.91-0.39,5.76-0.19,8.63c0.16,2.35,1.58,4.43,3.73,5.39l15.74,6.48
				c0.9,0.37,1.9,0.53,2.94,0.51c1.79-0.03,3.37-1.14,4-2.81c0.58-1.52,1.11-3.41,1.38-5.61c0.81-0.18,0.18-0.04,0.99-0.22
				c0.48,0.79,1.05,2.04,1.46,3.8c0.34-0.83,0.54-1.73,0.56-2.65l0.04-1.88C182,374.31,181.89,372.09,181.62,369.88z"/>
		</g>
		<path fill="#FFB587" d="M170.95,322.5c-2.09,0.18-6.14,0.05-7.96-3.31c0,0-0.24-12.46-0.24-12.47c-0.05-2.53,1.22-5.03,3.3-6.47
			c1.53-1.06,3.52-1.33,5.34-1.4c1.44-0.06,4.04-0.37,5.1,0.84c0.53,0.6,1.12,2.94,1.12,3.75v12.62c0,0.97-0.93,1.67-1.86,1.4
			c0,0-3.47-0.44-3.51,1.39v2.22C172.24,321.83,171.68,322.44,170.95,322.5z"/>
		<path fill="#001748" d="M174.7,301.36c0,0,2.75,7.08-3.92,9c0,0-3.08,6.5-7,5.83c0,0-7-6.25-5.08-11.25c0,0-1.42-9.83,11.42-10.5
			c0,0,3-1.83,5.17-0.17C177.45,295.95,177.78,299.7,174.7,301.36z"/>
		<path fill="#001748" d="M173.68,312.67l-0.63-0.3c-0.45-0.22-0.74-0.68-0.74-1.18v-2.86h1.38V312.67z"/>
		<path fill="#FFB587" d="M177.11,305.51l1.34,3.62c0.19,0.52-0.08,1.09-0.6,1.27l-0.87,0.3L177.11,305.51z"/>
		<g>
			<path fill="#B3B3B7" d="M181.17,349.12L181.17,349.12c0.79-2.8,0.91-5.74,0.36-8.6l-1.49-8.41c-0.52-1.9-1.31-3.49-2.19-4.82
				c-1.47,0.99-2.87,2.08-4.16,3.29c1.5,1.9,2.46,4.48,2.55,8.24c0.36,14.88,1.83,40.38-5.11,46.76c0.72,0.22,1.5,0.33,2.3,0.33
				c1.84-0.01,3.48-1.17,4.13-2.89c0.57-1.51,1.09-3.37,1.35-5.54c0.81-0.18,0.17-0.04,0.98-0.22c0.48,0.79,1.05,2.04,1.46,3.81
				c0.34-0.83,0.54-1.73,0.56-2.65l0.04-1.88c0.05-2.22-0.06-4.45-0.33-6.66C181.62,369.88,180.2,352.58,181.17,349.12z"/>
		</g>
		<path fill="#FFB587" d="M191.8,344.89l23.62-13.71c0.13-0.07,0.26-0.13,0.39-0.18l6.49-2.55c0.5-0.2,1.06,0.08,1.21,0.6l0,0
			c0.13,0.45-0.1,0.92-0.54,1.09l-3.57,1.43c-0.37,0.15-0.56,0.55-0.45,0.94c0.36,1.23,0.87,3.83-0.72,4.96
			c-1.09,0.77-2.18,1.44-2.99,1.91c-0.8,0.47-1.69,0.76-2.61,0.86l-2.15,0.24c-1.3,0.15-2.53,0.71-3.49,1.6l-10.27,9.81
			L191.8,344.89z"/>
		<path fill="#E3E5E9" d="M173.36,322.7c0,0,6.75,1,9.62,5.5c2.54,3.98,9.5,16.12,9.5,16.12l1.19-0.5c0,0,3.81,4.44,3.75,7.88
			l-6.19,3.25c0,0-2.5,2.12-7-5s-10.5-17.62-10.5-17.62S168.61,325.45,173.36,322.7z"/>
		<path fill="#FAFBFF" d="M192.78,343.28c0,0,4.08,4.42,4.75,9l4.25-3c0,0-0.33-6.5-5-8.42L192.78,343.28z"/>
		<path fill="#00205D" d="M172.83,301.78c-0.01-0.23-0.2-0.41-0.43-0.41c-1.31,0-5.8,0.28-12.42,3.83
			c-0.86,0.46,0.38,4.12,2.38,5.75s6.12-4.5,6.12-4.5S173.03,306.04,172.83,301.78z"/>
		<path fill="#00205D" d="M160.39,301.17c0.22-0.73,1.98-5.49,9.6-5.78c0,0,2.73-1.98,5.17-0.34c0.28,0.19,0.23,0.61-0.08,0.73
			c-0.87,0.32-2.45,0.83-3.68,0.79c-0.69-0.03-1.37,0.17-1.94,0.56c-2.03,1.39-6.54,4.26-8.99,4.15
			C160.41,301.26,160.38,301.22,160.39,301.17z"/>
	</g>
</g>
</svg>
