<svg xmlns="http://www.w3.org/2000/svg" viewBox="0 0 141.45 119.62"><g ><path d="M0,59.43V7.51c0-5,3.09-8.08,8.08-8.14,1.61,0,3.23,0,4.84,0,4.88.08,8,3.21,8,8.09q0,21.27,0,42.54c0,2.9,0,5.8,0,8.7,0,1.83-1,2.86-2.52,2.75a2.08,2.08,0,0,1-2.11-2,12.94,12.94,0,0,1,0-1.65V8.26c0-3.38-.84-4.2-4.27-4.21-1.24,0-2.48,0-3.72,0-2.6,0-3.59,1-3.59,3.61V111.25c0,2.66,1,3.64,3.67,3.67,1.33,0,2.67,0,4,0,2.94,0,3.91-1,3.91-3.87V78.45c0-2.71.59-3.3,3.33-3.31,2.4,0,4.79,0,7.19,0A8.28,8.28,0,0,0,28,75a10.2,10.2,0,0,0-.57-1A14,14,0,0,1,35,52.51a13.53,13.53,0,0,1,11.71,1.92c.65.44.95.5,1.55-.12a2.85,2.85,0,0,1,1.86-.63c17.73,0,35.46-.07,53.19,0a12.5,12.5,0,0,1,12.41,12,2.48,2.48,0,0,1-2.11,2.89c-1.42.14-2.37-.77-2.54-2.43-.52-5-3.59-7.82-8.58-7.82q-24.45,0-48.9,0c-1,0-1.43.2-1.41,1.34q.11,7,0,14.08c0,1.2.38,1.44,1.49,1.43q32.67,0,65.34,0c1.33,0,1.59-.43,1.57-1.64-.07-3.73,0-7.46,0-11.19,0-5,3.1-8.09,8.08-8.11,1.84,0,3.69,0,5.53,0a7.38,7.38,0,0,1,7.3,7.32q0,25.35,0,50.69a7.2,7.2,0,0,1-6.52,7.18,43,43,0,0,1-7.44.06,7.35,7.35,0,0,1-7-7.54,48.26,48.26,0,0,1,0-5c.12-1.48-.27-1.94-1.85-1.93-14,.07-28.09,0-42.13,0h-42c-.5,0-1,0-1.52,0A2.13,2.13,0,0,1,31,103a2.1,2.1,0,0,1,1.62-2.41,7.09,7.09,0,0,1,1.9-.19q42.07,0,84.13,0c1.64,0,2-.46,1.91-2-.13-1.83-.05-3.68,0-5.52s.94-2.8,2.37-2.8,2.29,1,2.3,2.81q0,9,0,18.09c0,2.84,1,3.83,3.79,3.85,1.52,0,3,0,4.56,0,2.18-.07,3.23-1.13,3.23-3.27V62.2c0-2.23-1.08-3.28-3.31-3.29h-4.84c-2.38,0-3.41,1-3.42,3.47,0,4.6,0,9.21,0,13.81,0,3.07-.55,3.63-3.61,3.63q-49.31,0-98.63,0c-1.75,0-2.08.48-2.06,2.13.08,9.71,0,19.42,0,29.14,0,5.51-3,8.55-8.53,8.55-1.84,0-3.69.08-5.52-.1A7.36,7.36,0,0,1,0,111.78Zm47.49,9.29c0-1.66.06-3.32,0-5a5.71,5.71,0,0,0-.6-2.34,9.23,9.23,0,0,0-11-4.3A9.34,9.34,0,0,0,29.57,67a9.25,9.25,0,0,0,8.61,8.09c2.75.13,5.52.06,8.28,0a1.44,1.44,0,0,0,1-1C47.54,72.31,47.49,70.52,47.49,68.72Z"/><path d="M75.1.91a48.35,48.35,0,0,1,5.25,0,3.12,3.12,0,0,1,2.27,1.29A3.21,3.21,0,0,1,82.14,5c-2.14,2.71-4.48,5.25-6.73,7.87a4.55,4.55,0,0,0-.48.9,5.65,5.65,0,0,0,.92.12c1.61,0,3.22,0,4.83,0a2.18,2.18,0,0,1,2.38,2.18,2.13,2.13,0,0,1-2.13,2.42c-3.91.1-7.83.15-11.74,0-2-.08-2.77-2.36-1.45-3.93C70,11.91,72.25,9.32,74.5,6.7a8.32,8.32,0,0,0,.63-1c-.4,0-.8-.12-1.2-.12-1.29,0-2.58,0-3.87,0-1.73,0-2.85-.94-2.88-2.33S68.27.92,70,.91,73.4.91,75.1.91Z"/><path d="M57.37,24.71a28,28,0,0,1,4.4.06,3.52,3.52,0,0,1,2.36,1.45,3.09,3.09,0,0,1-.53,2.59C62,31,60.09,32.94,58.32,35a5.45,5.45,0,0,0-.45.78,4.53,4.53,0,0,0,.89.18c1.1,0,2.21,0,3.31,0a2.16,2.16,0,0,1,2.39,2.14,2,2,0,0,1-1.94,2.42c-3.49.13-7,.19-10.47,0-2-.11-2.64-2.37-1.29-4,1.71-2,3.49-4,5.22-6.06a7.1,7.1,0,0,0,.61-1c-.4-.05-.8-.12-1.2-.13-1,0-1.93,0-2.89,0a2.24,2.24,0,0,1-2.37-2.2,2.28,2.28,0,0,1,2.27-2.44c1.65-.08,3.31,0,5,0Z"/></g></svg>