<?xml version="1.0" encoding="utf-8"?>
<!-- Generator: Adobe Illustrator 23.1.1, SVG Export Plug-In . SVG Version: 6.00 Build 0)  -->
<svg version="1.1" id="Layer_1" xmlns="http://www.w3.org/2000/svg" xmlns:xlink="http://www.w3.org/1999/xlink" x="0px" y="0px"
	 viewBox="0 0 272 264" enable-background="new 0 0 272 264" xml:space="preserve">
<rect x="-1150.5" y="-83.5" fill="#FFFFFF" width="732" height="732"/>
<linearGradient id="SVGID_1_" gradientUnits="userSpaceOnUse" x1="-1056.8744" y1="23.7657" x2="-308.1186" y2="735.025">
	<stop  offset="0.0721" style="stop-color:#FF2E63;stop-opacity:0.6"/>
	<stop  offset="0.7394" style="stop-color:#FF2E63"/>
</linearGradient>
<rect x="-1151" y="-84" fill="url(#SVGID_1_)" width="733" height="733"/>
<g id="XMLID_150_">
	<g id="XMLID_66_">
		<g id="XMLID_95_">
			<polygon opacity="0.27" fill="#231F20" points="-856.79,649 -1031.69,415 -530.33,415 -417,586 -418,649 			"/>
			<polygon fill="#010A43" points="-530.27,143.1 -780.97,279.15 -780.97,551.18 -781.03,551.18 -781.03,279.15 -1031.67,143.1 
				-781.1,7.24 -780.97,7.12 			"/>
			<polygon fill="#FFE1E1" points="-781.03,279.16 -781.03,551.16 -955.26,456.62 -1031.71,415.2 -1031.71,143.11 			"/>
			<polygon fill="#C6C6C6" points="-993.34,185.09 -800.38,286.99 -800.84,499.37 -993.34,394.44 			"/>
			<polyline id="XMLID_55_" fill="#878787" points="-1012.26,404.69 -800.38,286.99 -800.38,519.6 			"/>
			<polyline fill="#010A43" points="-800.38,519.6 -800.44,519.6 -800.44,519.53 -947.63,439.72 -1012.26,404.69 -1012.26,174.68 
				-993.43,184.92 -993.43,394.38 -993.37,394.38 -940.33,423.26 -800.44,499.55 			"/>
		</g>
	</g>
</g>
<path fill="#F58B1F" d="M-993.34,394.41"/>
<polygon fill="#2D2C2C" points="-800.44,519.53 -800.44,519.6 -947.63,439.72 "/>
<polygon id="XMLID_8_" fill="#FFE1E1" points="-530.3,143.09 -530.3,415.2 -606.72,456.66 -780.94,551.16 -780.94,551.14 
	-780.94,279.15 "/>
<polyline fill="#FF2E63" points="-761.52,499.53 -761.56,286.96 -568.51,184.92 -568.61,394.41 "/>
<polyline fill="#010A43" points="-761.5,499.55 -621.61,423.26 -568.64,394.38 -568.51,394.38 -568.51,184.92 -549.68,174.68 
	-549.68,404.69 -614.31,439.72 -761.56,519.6 "/>
<polygon fill="#010A43" points="-761.52,499.53 -761.52,519.59 -549.69,404.68 -568.51,394.41 -568.61,394.41 -621.6,423.26 "/>
<polygon fill="#010A43" points="-761.11,310.51 -576.69,210.02 -576.69,200.96 -761.11,301.45 "/>
<polygon fill="#010A43" points="-761.11,326.12 -576.69,225.63 -576.69,216.57 -761.11,317.06 "/>
<polygon fill="#010A43" points="-761.11,341.74 -576.69,241.24 -576.69,232.18 -761.11,332.68 "/>
<polygon fill="#010A43" points="-761.11,357.35 -576.69,256.86 -576.69,247.8 -761.11,348.29 "/>
<polygon fill="#010A43" points="-761.11,372.96 -576.69,272.47 -576.69,263.41 -761.11,363.9 "/>
<polygon fill="#010A43" points="-761.11,388.58 -576.69,288.08 -576.69,279.02 -761.11,379.52 "/>
<polygon fill="#010A43" points="-761.11,404.19 -576.69,303.7 -576.69,294.64 -761.11,395.13 "/>
<polygon fill="#010A43" points="-761.11,419.8 -576.69,319.31 -576.69,310.25 -761.11,410.74 "/>
<polygon fill="#010A43" points="-761.11,435.41 -576.69,334.92 -576.69,325.86 -761.11,426.35 "/>
<polygon fill="#010A43" points="-761.11,451.03 -576.69,350.54 -576.69,341.48 -761.11,441.97 "/>
<polygon fill="#010A43" points="-761.11,466.64 -576.69,366.15 -576.69,357.09 -761.11,457.58 "/>
<polygon fill="#010A43" points="-761.11,482.25 -576.69,381.76 -576.69,372.7 -761.11,473.19 "/>
<polygon fill="#FF2E63" points="-530.27,143.1 -780.98,279.01 -1031.67,143.1 -780.98,261.83 "/>
<polygon fill="#FF2E63" points="-1031.67,143.09 -780.93,7.13 -530.3,143.09 -780.93,24.31 "/>
<g>
	<g>
		<g>
			<path fill="#DCDCDC" d="M-883.25,141.41c10.78-5.79,27.42-9.98,40.46-10.07l3.96,16.68c-8.88,0.04-18.26,2.12-24.42,5.54
				c-12.46,6.91-13.57,18.97-1.11,26.54c11.3,6.86,31.7,8.33,47.15-0.24c10.12-5.61,12.63-12.49,5.22-17.32l-11.9,6.6l4.93,2.99
				l-23.64-1.57l-0.56-4.7l-0.53-4.27l-0.58-4.83l4.43,2.69l24.78-13.75c1.7,1.36,3.59,2.68,5.67,3.95
				c8.32,5.05,18.33,8.36,28.94,9.93c5.07,11.6-1.65,23.86-17.82,32.83c-26.56,14.74-65.74,14.28-88.74,0.3
				C-909.99,178.74-909.22,155.82-883.25,141.41z"/>
		</g>
		<g>
			<path fill="#DCDCDC" d="M-681.81,100.01c7.16-3.97,18.53-3.94,24.88-0.08c6.45,3.92,5.63,10.3-1.43,14.21
				c-7.11,3.94-18.22,4.01-24.77,0.03C-689.53,110.28-688.76,103.87-681.81,100.01z"/>
		</g>
		<g>
			<polygon fill="#DCDCDC" points="-680.17,90.21 -698.59,100.43 -754.78,70.64 -729.04,56.36 			"/>
		</g>
		<g>
			<path fill="#DCDCDC" d="M-806.01,98.33c26-14.42,64.28-14.33,88.47,0.37c24,14.58,22.33,36.72-3.72,51.17
				c-16.99,9.42-39.15,12.66-59.17,9.7c-10.61-1.57-20.63-4.88-28.94-9.93c-2.08-1.26-3.97-2.58-5.67-3.95
				C-833.12,131.2-829.77,111.51-806.01,98.33z M-741.66,137.43c13.29-7.37,13.9-18.82,1.5-26.35c-12.45-7.56-32.22-7.75-45.5-0.38
				c-13.28,7.37-13.86,18.84-1.4,26.41C-774.66,144.63-754.94,144.79-741.66,137.43"/>
		</g>
	</g>
</g>
<polygon fill="#FF2E63" points="-993.34,185.09 -800.38,286.99 -800.84,499.37 -993.34,394.44 "/>
<polygon fill="#010A43" points="-800.84,310.54 -985.26,210.05 -985.26,200.99 -800.84,301.48 "/>
<polygon fill="#010A43" points="-800.84,326.16 -985.26,225.66 -985.26,216.6 -800.84,317.1 "/>
<polygon fill="#010A43" points="-800.84,341.77 -985.26,241.28 -985.26,232.22 -800.84,332.71 "/>
<polygon fill="#010A43" points="-800.84,357.38 -985.26,256.89 -985.26,247.83 -800.84,348.32 "/>
<polygon fill="#010A43" points="-800.83,363.92 -800.83,373.02 -985.23,272.52 -985.23,263.42 "/>
<polygon fill="#010A43" points="-800.83,379.55 -800.83,388.58 -985.23,288.15 -985.23,279.05 "/>
<polygon fill="#010A43" points="-800.83,395.18 -800.83,404.21 -985.23,303.71 -985.23,294.68 "/>
<polygon fill="#010A43" points="-800.83,410.81 -800.83,419.84 -985.23,319.34 -985.23,310.31 "/>
<polygon fill="#010A43" points="-800.83,426.37 -800.83,435.47 -985.23,334.97 -985.23,325.87 "/>
<polygon fill="#010A43" points="-800.83,442 -800.83,451.03 -985.23,350.6 -985.23,341.5 "/>
<polygon fill="#010A43" points="-800.83,457.63 -800.83,466.66 -985.23,366.16 -985.23,357.13 "/>
<polygon fill="#010A43" points="-800.83,473.26 -800.83,482.29 -985.23,381.79 -985.23,372.76 "/>
<path id="Bg" fill="#DCE3FF" d="M260.86,129.01c0,38.59-1.29,74.09-27.46,98.49c-23.87,22.26-51.56,28.5-86.78,28.5
	c-18.36,0-40.95-5.78-56.88-12.48c-17.38-7.31-36.87-28.77-49.59-42.31C17.69,177.3,2.46,164.6,8.65,129.74
	c7.02-39.53,52.79-66.02,63.27-91.38C83.94,9.3,102.71,4,136.64,4c21.22,0,33.68,10.93,51.5,19.73
	c24.02,11.86,43.62,19.14,56.81,42.34C256.01,85.53,260.86,105.03,260.86,129.01z"/>
<path id="ground" fill="#BEC2CC" d="M248.1,168.86l-78.67,46.5l5.19,3.02c1.53,0.89,1.5,3.1-0.04,3.95l-20.31,11.21
	c-3.95,2.19-8.76,2.14-12.66-0.13l-11.96-6.96c-1.94-1.13-1.83-3.96,0.18-4.94l3.4-1.62l-84.07-49.23l-4.33,2.56l-21.03-12.32
	l24.27-11.46l17.72,10.37l97.39-46l84.91,49.7C250.12,164.71,250.13,167.66,248.1,168.86z"/>
<g>
	<g>
		<g>
			<path fill="#AFAFAF" d="M43.95,166.77c0.83,3.63,2.73,1.6,2.36-1.35C46.26,165.53,44.17,166.6,43.95,166.77z"/>
			<g>
				<path fill="#3A3A3A" d="M46.84,168.17c0.37,1.45-2.82,2.96-2.6,0.37C44.46,167.43,46.31,166.55,46.84,168.17z"/>
				<path fill="#3A3A3A" d="M45.32,170.2l-0.63-0.36c0.45-0.37,1.33-3.32,2.19-2.14L45.32,170.2z"/>
				<path fill="#4D4D4D" d="M47.42,168.5c0.37,1.45-2.82,2.96-2.6,0.37C45.03,167.76,46.89,166.88,47.42,168.5z"/>
			</g>
			<path fill="#AFAFAF" d="M44.77,167.06c1.12,5.49,2.54,1.07,2.18-1.56L44.77,167.06z"/>
			<path fill="#FFFFFF" d="M46.32,169.01C46.17,168.8,46.03,168.84,46.32,169.01C46.52,169.19,45.44,169.67,46.32,169.01z"/>
		</g>
		<g>
			<path fill="#AFAFAF" d="M26.91,156.98c0.83,3.63,2.73,1.6,2.36-1.35C29.22,155.74,27.12,156.8,26.91,156.98z"/>
			<g>
				<path fill="#3A3A3A" d="M29.8,158.38c0.37,1.45-2.82,2.96-2.6,0.37C27.41,157.63,29.27,156.75,29.8,158.38z"/>
				<path fill="#3A3A3A" d="M28.27,160.42l-0.63-0.36c0.45-0.37,1.33-3.31,2.19-2.14L28.27,160.42z"/>
				<path fill="#4D4D4D" d="M30.37,158.71c0.37,1.45-2.82,2.96-2.6,0.37C27.99,157.96,29.85,157.09,30.37,158.71z"/>
			</g>
			<path fill="#AFAFAF" d="M27.73,157.26c1.12,5.49,2.54,1.07,2.18-1.56L27.73,157.26z"/>
			<path fill="#FFFFFF" d="M29.28,159.21C29.13,159,28.99,159.05,29.28,159.21C29.48,159.39,28.4,159.88,29.28,159.21z"/>
		</g>
		<g>
			<path fill="#AFAFAF" d="M53.68,161.15c0.83,3.63,2.73,1.6,2.36-1.35C55.99,159.91,53.89,160.98,53.68,161.15z"/>
			<g>
				<path fill="#3A3A3A" d="M56.57,162.55c0.37,1.45-2.82,2.96-2.6,0.37C54.19,161.81,56.04,160.93,56.57,162.55z"/>
				<path fill="#3A3A3A" d="M55.05,164.59l-0.63-0.36c0.45-0.37,1.33-3.31,2.19-2.14L55.05,164.59z"/>
				<path fill="#4D4D4D" d="M57.15,162.88c0.37,1.45-2.82,2.96-2.6,0.37C54.76,162.14,56.62,161.26,57.15,162.88z"/>
			</g>
			<path fill="#AFAFAF" d="M54.5,161.44c1.12,5.49,2.54,1.07,2.18-1.56L54.5,161.44z"/>
			<path fill="#FFFFFF" d="M56.05,163.39C55.9,163.18,55.76,163.22,56.05,163.39C56.25,163.56,55.17,164.06,56.05,163.39z"/>
		</g>
		<g>
			<path fill="#AFAFAF" d="M43.35,129.91c-0.18-0.69,4.43-9.76,2.04-9.35c-5.11,10.49-2.62,22.72-3.14,30.84
				C44.64,152.28,42.81,130.39,43.35,129.91z"/>
			<path fill="#AFAFAF" d="M56.99,126.97c-5.33,11.15-2.76,22.7-3.3,31.27c2.35,0.79,0.6-18.31,1.11-21.24
				C54.14,136.82,59.5,126.69,56.99,126.97z"/>
		</g>
		<g>
			<path fill="#D3D3D3" d="M58.01,158.16c-21.75,12.19-10.09,10.1-33.2-1.71C46.56,144.26,34.91,146.35,58.01,158.16z"/>
			<path fill="#7C7C7C" d="M42.9,166.9v1.31c0.7-0.88,16.89-8.48,15.11-10.04L42.9,166.9z"/>
			<path fill="#AFAFAF" d="M42.9,168.2c1.83-1.74-17.85-11.01-18.09-11.76C22.98,158.18,42.66,167.45,42.9,168.2z"/>
		</g>
		<path fill="#AFAFAF" d="M54.13,144.76l-11.24-6.48c-1.44,1.7,10.87,7.02,11.24,7.73V144.76z"/>
		<path fill="#AFAFAF" d="M54.13,141.29l-11.24-6.48c-1.44,1.7,10.87,7.02,11.24,7.73V141.29z"/>
		<path fill="#7C7C7C" d="M59.81,127.79c-1.23-0.22-18.42-11.91-15.76-7.81C45.28,120.2,62.47,131.88,59.81,127.79z"/>
	</g>
	<g>
		<polygon fill="#DBA763" points="41.36,164 41.35,156.07 52.86,149.42 52.86,157.34 		"/>
		<polygon fill="#E8B679" points="41.36,164 41.35,156.07 29.84,149.42 29.84,157.34 		"/>
		<path fill="#FFE1C0" d="M29.84,149.42c16.26,9.45,8.87,7.03,23.02,0C36.6,139.97,43.99,142.4,29.84,149.42z"/>
		<g>
			<path fill="#4D4D4D" d="M48.58,156.08l-2.57,1.49c-0.47-5.31,0.75-4.46,2.57-5.69V156.08z"/>
			<polygon fill="#6D6D6D" points="48.58,151.88 37.09,145.23 34.52,146.72 46.02,153.37 			"/>
			<path fill="#4D4D4D" d="M42.87,161.94c-0.68-0.98,3.57-2.59,3.87-2.98C47.43,159.96,43.18,161.55,42.87,161.94z"/>
			<path fill="#4D4D4D" d="M42.87,160.62c-0.68-0.98,3.57-2.59,3.87-2.98C47.43,158.64,43.18,160.22,42.87,160.62z"/>
			<path fill="#4D4D4D" d="M50.21,155.23v2.57c2.72-0.96,1.67-2.48,1.85-3.64L50.21,155.23z"/>
			<path fill="#4D4D4D" d="M32.16,155.39c0.06,2.2,0.31,3.83-1.76,1.35C29.82,153.14,30.73,154.72,32.16,155.39z"/>
			<path fill="#4D4D4D" d="M34.68,156.85c0.06,2.2,0.31,3.83-1.76,1.35C32.34,154.6,33.25,156.18,34.68,156.85z"/>
			<path fill="#FFFFFF" d="M40.85,156.4v3.85c-5.48-2.57-3.46-3.13-3.8-6.05L40.85,156.4z"/>
			<path fill="#4D4D4D" d="M40.39,157.19c0.58-0.73-2.75-2.08-2.99-2.35C36.82,155.56,40.16,156.92,40.39,157.19z"/>
		</g>
	</g>
	<g>
		<path fill="#DBA763" d="M41.55,154.68c0-16.38-1.58-10.03,9.44-17.28C50.99,153.77,52.55,147.42,41.55,154.68z"/>
		<path fill="#E8B679" d="M41.55,154.68c-0.01-16.38,1.57-10.03-9.45-17.28C32.11,153.77,30.55,147.42,41.55,154.68z"/>
		<path fill="#FFE1C0" d="M32.1,137.4c13.26,7.92,7.85,5.4,18.89,0C37.74,129.47,43.14,132,32.1,137.4z"/>
		<g>
			<path fill="#4D4D4D" d="M47.48,142.87l-2.11,1.22c-0.44-4.41,0.78-3.73,2.11-4.67V142.87z"/>
			<path fill="#6D6D6D" d="M47.48,139.42c-1.82-0.61-9.87-7.31-11.54-4.23C37.76,135.79,45.81,142.51,47.48,139.42z"/>
			<path fill="#4D4D4D" d="M42.8,152.99c-0.59-0.71,2.96-2.19,3.17-2.45C46.57,151.27,43.02,152.72,42.8,152.99z"/>
			<path fill="#4D4D4D" d="M42.8,151.9c-0.59-0.71,2.96-2.18,3.17-2.44C46.57,150.18,43.02,151.63,42.8,151.9z"/>
			<path fill="#4D4D4D" d="M48.82,147.47c0.02,1.58-0.41,3.03,1.37,1.16C50.92,145.62,49.85,146.96,48.82,147.47z"/>
			<path fill="#4D4D4D" d="M34.18,147.25c-0.03,1.54,0.43,3.21-1.38,1.22C32.09,145.31,33.18,146.8,34.18,147.25z"/>
			<path fill="#4D4D4D" d="M36.25,148.45c-0.03,1.54,0.43,3.21-1.38,1.22C34.16,146.51,35.25,148,36.25,148.45z"/>
			<path fill="#FFFFFF" d="M35.78,140.83v3.16c-4.42-1.96-2.87-2.84-3.12-4.96L35.78,140.83z"/>
			<path fill="#4D4D4D" d="M35.4,141.48c0.48-0.6-2.26-1.71-2.45-1.93C32.48,140.15,35.21,141.26,35.4,141.48z"/>
		</g>
	</g>
	<g>
		<path fill="#DBA763" d="M41.95,141.72c-1.12-6.57,3.98-5.92,7.06-8.49C50.14,139.79,44.97,139.19,41.95,141.72z"/>
		<path fill="#E8B679" d="M41.95,141.72c1.33-6.57-5.13-6.52-8.25-9.18C32.36,139.12,38.82,139.06,41.95,141.72z"/>
		<path fill="#FFE1C0" d="M33.7,132.55c11.18,6.56,6.71,5.03,15.31,0.69C37.83,126.67,42.3,128.21,33.7,132.55z"/>
		<g>
			<path fill="#4D4D4D" d="M42.47,140.92c-0.44-0.54,2.21-1.63,2.37-1.83C45.29,139.63,42.64,140.72,42.47,140.92z"/>
			<path fill="#4D4D4D" d="M42.47,140.1c-0.44-0.54,2.21-1.63,2.37-1.83C45.29,138.82,42.64,139.9,42.47,140.1z"/>
			<path fill="#4D4D4D" d="M35.46,134.34c0,1.58,0.34,2.94-1.3,1.11C33.54,132.6,34.47,133.85,35.46,134.34z"/>
		</g>
		<path fill="#FFFFFF" d="M41.39,137.77v2.45c-1.86-0.92-4.4-2.12-3.61-4.54L41.39,137.77z"/>
		<path fill="#4D4D4D" d="M40.95,138.52c0.55-0.7-2.62-1.98-2.84-2.23C37.56,136.98,40.73,138.27,40.95,138.52z"/>
		<path fill="#4D4D4D" d="M47.22,136.58l-2.44,1.42c-0.54-3.26,1.45-2.86,2.44-3.74V136.58z"/>
		<path fill="#6D6D6D" d="M47.22,134.26c-2.11-0.86-8.64-6.56-10.68-3.35C38.65,131.76,45.19,137.49,47.22,134.26z"/>
	</g>
</g>
<g>
	<polygon fill="#CC2756" points="147.96,218.75 240.39,165.36 240.39,90.11 147.96,140.27 	"/>
	<polygon fill="#FF2E63" points="147.96,140.27 99.73,101.04 55.59,90.18 55.59,165.39 67.93,172.5 72.33,169.44 128.73,202.06 
		128.73,207.67 147.96,218.75 	"/>
	<polygon fill="#707070" points="55.59,86.86 98.91,98.69 191.31,45.32 147.96,33.49 	"/>
	<polygon fill="#4D4D4D" points="98.91,98.69 191.31,45.32 240.39,86.91 147.96,140.27 	"/>
	<polygon fill="#D3D3D3" points="72.33,169.44 128.73,202.06 128.73,149.97 72.33,117.4 	"/>
	<g>
		<polygon fill="#B7B7B7" points="213.35,114.45 194.17,125.52 194.17,134.97 213.35,123.89 		"/>
		<polygon fill="#E2E2E2" points="213.35,125.1 209.89,123.6 194.17,132.69 194.17,136.22 		"/>
		<polygon fill="#919191" points="213.35,125.1 209.89,123.6 209.89,116.45 213.35,114.45 		"/>
	</g>
	<g>
		<polygon fill="#B7B7B7" points="236.23,101.21 217.05,112.28 217.05,121.74 236.23,110.66 		"/>
		<polygon fill="#E2E2E2" points="236.23,111.86 232.77,110.36 217.05,119.46 217.05,122.98 		"/>
		<polygon fill="#919191" points="236.23,111.86 232.77,110.36 232.77,103.21 236.23,101.21 		"/>
	</g>
	<polygon fill="#CC2756" points="72.77,117.62 67.93,114.83 67.93,172.5 72.77,169.72 	"/>
	<g>
		<path fill="#4D4D4D" d="M96.97,122.39c0.22-0.11-4.16,2.2-4.59,7.56c4.19,2.81,9.02,2.23,9.29,1.92
			C102.26,128.35,100.65,123.91,96.97,122.39z"/>
		<path fill="#707070" d="M96.97,122.39c-5.06-2.45-6.58,3-6.58,3s-0.87,2.5,1.76,4.41C93.72,123.87,96.97,122.39,96.97,122.39z"/>
	</g>
	<polygon fill="#D3D3D3" points="55.59,86.86 55.59,90.3 98.85,102.92 147.96,143.67 147.96,140.27 98.91,98.69 	"/>
	<polygon fill="#AAAAAA" points="147.96,140.27 147.96,143.67 240.39,90.28 240.39,86.91 	"/>
	<polygon fill="#AAAAAA" points="147.96,218.75 147.96,213.18 240.39,159.81 240.39,165.36 	"/>
	<polygon fill="#D3D3D3" points="147.96,213.18 147.96,218.75 128.73,207.67 128.73,202.06 	"/>
	<polygon fill="#D3D3D3" points="67.93,172.5 67.93,166.93 55.59,159.8 55.59,165.39 	"/>
	<polygon fill="#AAAAAA" points="72.77,164.14 67.93,166.93 67.93,172.5 72.77,169.72 	"/>
	<g>
		<polygon fill="#AAAAAA" points="72.77,123.67 72.77,125.61 128.73,157.95 128.73,156 		"/>
		<polygon fill="#AAAAAA" points="72.77,130.02 72.77,131.96 128.73,164.3 128.73,162.35 		"/>
		<polygon fill="#AAAAAA" points="72.77,136.36 72.77,138.3 128.73,170.64 128.73,168.69 		"/>
		<polygon fill="#AAAAAA" points="72.77,142.7 72.77,144.64 128.73,176.98 128.73,175.03 		"/>
		<polygon fill="#AAAAAA" points="72.77,149.04 72.77,150.98 128.73,183.32 128.73,181.37 		"/>
		<polygon fill="#AAAAAA" points="72.77,155.38 72.77,157.32 128.73,189.66 128.73,187.71 		"/>
		<polygon fill="#AAAAAA" points="72.77,161.73 72.77,163.67 128.73,196.01 128.73,194.06 		"/>
	</g>
	<g>
		<polygon fill="#AAAAAA" points="101.89,96.98 58.57,85.14 59.83,84.41 103.13,96.25 		"/>
		<polygon fill="#AAAAAA" points="106.33,94.4 63.02,82.57 64.28,81.84 107.58,93.68 		"/>
		<polygon fill="#AAAAAA" points="110.78,91.83 67.46,80 68.72,79.27 112.03,91.11 		"/>
		<polygon fill="#AAAAAA" points="115.2,89.28 71.88,77.45 73.15,76.72 116.45,88.56 		"/>
		<polygon fill="#AAAAAA" points="119.65,86.71 76.33,74.88 77.59,74.15 120.9,85.99 		"/>
		<polygon fill="#AAAAAA" points="124.09,84.15 80.77,72.31 82.03,71.58 125.34,83.43 		"/>
		<polygon fill="#AAAAAA" points="128.53,81.59 85.21,69.75 86.47,69.02 129.78,80.86 		"/>
		<polygon fill="#AAAAAA" points="132.97,79.02 89.65,67.18 90.91,66.46 134.22,78.3 		"/>
		<polygon fill="#AAAAAA" points="137.41,76.45 94.09,64.62 95.35,63.89 138.66,75.73 		"/>
		<polygon fill="#AAAAAA" points="141.85,73.89 98.53,62.06 99.79,61.33 143.09,73.17 		"/>
		<polygon fill="#AAAAAA" points="146.28,71.32 102.97,59.49 104.23,58.76 147.53,70.6 		"/>
		<polygon fill="#AAAAAA" points="150.73,68.76 107.41,56.93 108.68,56.2 151.98,68.04 		"/>
		<polygon fill="#AAAAAA" points="155.17,66.19 111.85,54.36 113.11,53.63 156.42,65.47 		"/>
		<polygon fill="#AAAAAA" points="159.62,63.62 116.3,51.79 117.56,51.06 160.86,62.9 		"/>
		<polygon fill="#AAAAAA" points="164.05,61.06 120.73,49.23 121.99,48.5 165.3,60.34 		"/>
		<polygon fill="#AAAAAA" points="168.49,58.5 125.17,46.67 126.44,45.94 169.74,57.78 		"/>
		<polygon fill="#AAAAAA" points="172.93,55.93 129.61,44.1 130.87,43.37 174.17,55.22 		"/>
		<polygon fill="#AAAAAA" points="177.37,53.37 134.05,41.54 135.32,40.81 178.62,52.65 		"/>
		<polygon fill="#AAAAAA" points="181.8,50.81 138.48,38.97 139.75,38.24 183.05,50.09 		"/>
		<polygon fill="#AAAAAA" points="186.24,48.24 142.93,36.41 144.19,35.68 187.49,47.52 		"/>
	</g>
	<g>
		<polygon fill="#707070" points="101.89,96.97 150.94,138.55 152.18,137.83 103.14,96.25 		"/>
		<polygon fill="#707070" points="106.33,94.41 155.38,135.98 156.62,135.27 107.57,93.69 		"/>
		<polygon fill="#707070" points="110.77,91.84 159.82,133.42 161.06,132.7 112.01,91.12 		"/>
		<polygon fill="#707070" points="115.21,89.28 164.26,130.86 165.5,130.14 116.45,88.56 		"/>
		<polygon fill="#707070" points="119.65,86.71 168.7,128.29 169.94,127.58 120.9,86 		"/>
		<polygon fill="#707070" points="124.09,84.15 173.14,125.73 174.38,125.01 125.34,83.43 		"/>
		<polygon fill="#707070" points="128.53,81.59 177.58,123.16 178.82,122.45 129.78,80.87 		"/>
		<polygon fill="#707070" points="132.97,79.02 182.02,120.6 183.27,119.88 134.22,78.3 		"/>
		<polygon fill="#707070" points="137.41,76.46 186.46,118.03 187.7,117.32 138.66,75.74 		"/>
		<polygon fill="#707070" points="141.85,73.89 190.9,115.47 192.14,114.75 143.1,73.17 		"/>
		<polygon fill="#707070" points="146.29,71.33 195.34,112.91 196.58,112.19 147.54,70.61 		"/>
		<polygon fill="#707070" points="150.73,68.76 199.78,110.34 201.03,109.62 151.98,68.04 		"/>
		<polygon fill="#707070" points="155.17,66.2 204.22,107.78 205.47,107.06 156.42,65.48 		"/>
		<polygon fill="#707070" points="159.61,63.64 208.66,105.21 209.91,104.49 160.86,62.91 		"/>
		<polygon fill="#707070" points="164.05,61.07 213.1,102.65 214.35,101.93 165.3,60.35 		"/>
		<polygon fill="#707070" points="168.49,58.51 217.54,100.08 218.79,99.37 169.74,57.79 		"/>
		<polygon fill="#707070" points="172.93,55.94 221.98,97.52 223.23,96.8 174.18,55.22 		"/>
		<polygon fill="#707070" points="177.37,53.38 226.44,94.95 227.68,94.24 178.62,52.66 		"/>
		<polygon fill="#707070" points="181.81,50.8 230.88,92.39 232.13,91.67 183.06,50.08 		"/>
		<polygon fill="#707070" points="186.25,48.24 235.32,89.83 236.56,89.11 187.5,47.52 		"/>
	</g>
</g>
<g>
	<rect x="170.29" y="178.62" fill="#4D4D4D" width="1" height="25.8"/>
	<rect x="168.59" y="178.62" fill="#3A3A3A" width="1.7" height="25.8"/>
	<path fill="#4D4D4D" d="M170.45,179.28c-3.32-1.73-8.04-13.75-0.34-9.06C179.2,173.89,176.37,177.39,170.45,179.28z M169.84,177.37
		c0.41,1.71,6.85-2.57,4.28-3.58C164.49,168.18,166.45,170.25,169.84,177.37z"/>
	<path fill="#4D4D4D" d="M170.79,179.65c-0.01-0.02,1.37-0.63,1.04-0.86C171.48,179.09,169.93,179.38,170.79,179.65z"/>
	<path fill="#4D4D4D" d="M165.88,169.77c0.9-0.69,1.27-0.4,0.29,0.46L165.88,169.77z"/>
	<path fill="#3A3A3A" d="M169.59,179.76c-3.32-1.73-8.04-13.75-0.34-9.06C178.34,174.37,175.51,177.88,169.59,179.76z
		 M168.98,177.85c0.41,1.71,6.85-2.57,4.28-3.58C163.63,168.66,165.6,170.74,168.98,177.85z"/>
	<g>
		<path fill="#4D4D4D" d="M177.05,215.23c-5.37,2.41-31.81,20.62-33.85,16.84c-6-2.05,24.64-16.01,28.5-19.3
			C171.87,211.81,175.39,214.39,177.05,215.23z"/>
		<path fill="#4D4D4D" d="M177.05,213.98c0.38,2.27-2.9,2.04-2.53-0.36L177.05,213.98z"/>
		<path fill="#4D4D4D" d="M142.31,229.51c0.02,0.47-0.17,1.37,0.47,1.82C142.82,230.7,143.38,229.63,142.31,229.51z"/>
		<path fill="#707070" d="M177.05,213.98c-5.37,2.41-31.81,20.62-33.85,16.84c-6-2.05,24.64-16.01,28.5-19.3
			C171.87,210.56,175.39,213.14,177.05,213.98z"/>
		<path fill="#FF9003" d="M147.78,228.52c0.31,1.02-3.66,1.85-2.92,0.01C145.46,227.79,147.18,227.52,147.78,228.52z"/>
		<path fill="#FFA543" d="M147.55,228.29c0.28,0.91-3.27,1.66-2.61,0.01C145.48,227.63,147.02,227.4,147.55,228.29z"/>
	</g>
	<g>
		<path fill="#4D4D4D" d="M165.03,208.29c-5.37,2.41-31.81,20.62-33.85,16.84c-6-2.05,24.64-16.01,28.5-19.3
			C159.86,204.88,163.37,207.45,165.03,208.29z"/>
		<path fill="#4D4D4D" d="M165.03,207.05c0.38,2.27-2.9,2.04-2.53-0.36L165.03,207.05z"/>
		<path fill="#4D4D4D" d="M130.29,222.58c0.02,0.47-0.17,1.37,0.47,1.82C130.8,223.76,131.36,222.69,130.29,222.58z"/>
		<path fill="#707070" d="M165.03,207.05c-5.37,2.41-31.81,20.62-33.85,16.84c-6-2.05,24.64-16.01,28.5-19.3
			C159.86,203.63,163.37,206.2,165.03,207.05z"/>
		<path fill="#FF9003" d="M135.76,221.58c0.31,1.02-3.66,1.85-2.92,0.01C133.44,220.85,135.17,220.59,135.76,221.58z"/>
		<path fill="#FFA543" d="M135.54,221.36c0.28,0.91-3.27,1.66-2.61,0.01C133.46,220.7,135,220.47,135.54,221.36z"/>
	</g>
	<path fill="#E57700" d="M158.38,205.34l3.59-9.46c16.54,9.85,11.46,3.8,13.22,19.17L158.38,205.34z"/>
	<path fill="#FF9003" d="M175.19,215.05c3.55,0.11,0.53-11.5,0.96-13.07C172.67,201.84,175.63,213.54,175.19,215.05z"/>
	<path fill="#FFA543" d="M161.97,195.89c10.94,6.18,12.29,8.03,14.18,6.1C165.25,195.81,163.88,193.95,161.97,195.89z"/>
	<g>
		<path fill="#DBA763" d="M157.74,230.09c-0.32-16.42-0.89-9.09,15.92-20.19C173.98,226.28,174.52,218.98,157.74,230.09z"/>
		<path fill="#E8B679" d="M157.74,230.09c-0.06-16.61,2.97-7.88-22.94-24.23C134.86,222.44,131.84,213.72,157.74,230.09z"/>
		<path fill="#FFE1C0" d="M134.81,205.86c30.9,16.9,16.68,15.5,38.86,4.04C142.74,192.99,156.97,194.42,134.81,205.86z"/>
		<g>
			<path fill="#4D4D4D" d="M167.75,219.12l-3.55,2.06c-0.32-7.49,0.12-5.64,3.55-7.88V219.12z"/>
			<path fill="#6D6D6D" d="M167.75,213.3c-26.49-15.16-21.62-13.87-26.48-11.17C167.74,217.27,162.9,216.02,167.75,213.3z"/>
			<path fill="#4D4D4D" d="M158.93,228.27c-0.92-1.37,4.9-3.56,5.35-4.12C165.2,225.54,159.39,227.69,158.93,228.27z"/>
			<path fill="#4D4D4D" d="M158.93,226.44c-0.92-1.38,4.9-3.56,5.35-4.13C165.2,223.71,159.39,225.86,158.93,226.44z"/>
			<path fill="#4D4D4D" d="M138.03,213.69v3.71c-3.91-1.51-2.23-3.35-2.56-5.19L138.03,213.69z"/>
			<path fill="#4D4D4D" d="M141.52,215.72v3.71c-3.92-1.5-2.23-3.35-2.56-5.18L141.52,215.72z"/>
			<path fill="#4D4D4D" d="M145.05,217.75v3.71c-3.92-1.5-2.23-3.35-2.56-5.18L145.05,217.75z"/>
			<path fill="#FFFFFF" d="M157.04,219.56v5.33c-7.45-3.78-4.82-3.43-5.25-8.37L157.04,219.56z"/>
			<path fill="#4D4D4D" d="M156.4,220.65c0.76-1.15-3.76-2.79-4.14-3.25C151.51,218.53,156.04,220.19,156.4,220.65z"/>
		</g>
	</g>
	<g>
		<polygon fill="#DBA763" points="155.81,214.78 155.81,208.35 166.1,202.41 166.1,208.82 		"/>
		<polygon fill="#E8B679" points="155.81,214.78 155.81,208.35 141.01,199.8 141.01,206.21 		"/>
		<path fill="#FFE1C0" d="M141.01,199.81c19.74,10.95,11.13,9.85,25.09,2.61C146.36,191.48,154.96,192.56,141.01,199.81z"/>
		<g>
			<path fill="#4D4D4D" d="M156.58,213.61c-0.65-0.78,3.22-2.38,3.46-2.66C160.69,211.74,156.82,213.32,156.58,213.61z"/>
			<path fill="#4D4D4D" d="M156.58,212.42c-0.65-0.78,3.22-2.38,3.46-2.66C160.69,210.55,156.82,212.13,156.58,212.42z"/>
			<path fill="#4D4D4D" d="M143.56,202.4v2.98c-3.13-1.12-1.81-2.9-2.06-4.17L143.56,202.4z"/>
			<path fill="#4D4D4D" d="M146.37,204.03v2.99c-3.12-1.12-1.81-2.9-2.06-4.17L146.37,204.03z"/>
		</g>
		<path fill="#FFFFFF" d="M155,209.04v3.56c-6.56-3.46-5.17-3.02-5.25-6.61L155,209.04z"/>
		<path fill="#4D4D4D" d="M154.36,210.12c0.76-1.15-3.76-2.79-4.14-3.25C149.47,208,154,209.67,154.36,210.12z"/>
		<path fill="#4D4D4D" d="M163.5,207.29l-3.55,2.06c-0.64-4.78,1.67-3.92,3.55-5.44V207.29z"/>
		<path fill="#6D6D6D" d="M163.5,203.91c-17.06-9.83-13.8-9.12-18.36-6.49C162.2,207.24,158.96,206.57,163.5,203.91z"/>
	</g>
</g>
</svg>
