<?xml version="1.0" encoding="utf-8"?>
<!-- Generator: Adobe Illustrator 23.1.1, SVG Export Plug-In . SVG Version: 6.00 Build 0)  -->
<svg version="1.1" id="Layer_1" xmlns="http://www.w3.org/2000/svg" xmlns:xlink="http://www.w3.org/1999/xlink" x="0px" y="0px"
	 viewBox="0 0 976 783" enable-background="new 0 0 976 783" xml:space="preserve">
<path opacity="0.14" fill="#FF2E63" d="M922.7,529.44L541.2,749.95c-7.69,4.44-17.16,4.44-24.85,0L50.19,480.56
	c-16.54-9.56-16.54-33.43,0-42.99l381.54-220.51c7.69-4.44,17.16-4.44,24.85,0L922.7,486.45
	C939.24,496.01,939.24,519.88,922.7,529.44z"/>
<g>
	<g>
		<g>
			<path fill="#AFAFAF" d="M153.71,485.18c0,0,0.7,2.71,1.64,4.96s3.32,2.14,4.46,0.96c1.42-1.46,1.51-3.21,1.72-6.54
				c0.27-4.16,0.13-3.91,0.13-3.91L153.71,485.18z"/>
			<g>
				<path fill="#3A3A3A" d="M163.44,489.88c0.36,2.42-1.34,5.07-3.78,5.92c-2.44,0.85-4.71-0.43-5.07-2.85
					c-0.36-2.42,1.34-5.07,3.78-5.92C160.81,486.18,163.08,487.46,163.44,489.88z"/>
				<polygon fill="#3A3A3A" points="158.31,496.72 156.2,495.51 161.28,487.12 163.56,488.31 				"/>
				<path fill="#4D4D4D" d="M165.37,490.99c0.36,2.42-1.34,5.07-3.78,5.92c-2.44,0.85-4.71-0.43-5.07-2.85
					c-0.36-2.42,1.34-5.07,3.78-5.92C162.75,487.29,165.02,488.57,165.37,490.99z"/>
			</g>
			<path fill="#AFAFAF" d="M156.48,486.13c0,0,1.03,4.84,1.89,7.04c0.86,2.19,2.69,2,3.73,0.85c1.29-1.43,1.49-4.48,1.69-7.73
				c0.25-4.06,0.03-5.39,0.03-5.39L156.48,486.13z"/>
			<path fill="#FFFFFF" d="M161.69,492.69c0.07,0.46-0.26,0.97-0.72,1.13c-0.47,0.16-0.9-0.08-0.97-0.55s0.26-0.97,0.72-1.13
				C161.18,491.98,161.62,492.22,161.69,492.69z"/>
		</g>
		<g>
			<path fill="#AFAFAF" d="M96.4,452.25c0,0,0.7,2.71,1.64,4.96c0.94,2.25,3.32,2.14,4.46,0.96c1.42-1.46,1.51-3.21,1.72-6.54
				c0.27-4.16,0.13-3.91,0.13-3.91L96.4,452.25z"/>
			<g>
				<path fill="#3A3A3A" d="M106.13,456.95c0.36,2.42-1.34,5.07-3.78,5.92c-2.44,0.85-4.71-0.43-5.07-2.85
					c-0.36-2.42,1.34-5.07,3.78-5.92C103.5,453.25,105.77,454.53,106.13,456.95z"/>
				<polygon fill="#3A3A3A" points="101,463.8 98.89,462.58 103.97,454.2 106.25,455.38 				"/>
				<path fill="#4D4D4D" d="M108.06,458.06c0.36,2.42-1.34,5.07-3.78,5.92c-2.44,0.85-4.71-0.43-5.07-2.85
					c-0.36-2.42,1.34-5.07,3.78-5.92C105.44,454.36,107.71,455.64,108.06,458.06z"/>
			</g>
			<path fill="#AFAFAF" d="M99.17,453.2c0,0,1.03,4.84,1.89,7.04c0.86,2.19,2.69,2,3.73,0.85c1.29-1.43,1.49-4.48,1.69-7.73
				c0.25-4.06,0.03-5.39,0.03-5.39L99.17,453.2z"/>
			<path fill="#FFFFFF" d="M104.38,459.76c0.07,0.46-0.26,0.97-0.72,1.13c-0.47,0.16-0.9-0.08-0.97-0.55
				c-0.07-0.46,0.26-0.97,0.72-1.13C103.87,459.05,104.31,459.3,104.38,459.76z"/>
		</g>
		<g>
			<path fill="#AFAFAF" d="M186.42,466.28c0,0,0.7,2.71,1.64,4.96c0.94,2.25,3.32,2.14,4.46,0.96c1.42-1.46,1.51-3.21,1.72-6.54
				c0.27-4.16,0.13-3.91,0.13-3.91L186.42,466.28z"/>
			<g>
				<path fill="#3A3A3A" d="M196.16,470.98c0.36,2.42-1.34,5.07-3.78,5.92c-2.44,0.85-4.71-0.43-5.07-2.85
					c-0.36-2.42,1.34-5.07,3.78-5.92S195.8,468.56,196.16,470.98z"/>
				<polygon fill="#3A3A3A" points="191.03,477.83 188.92,476.61 194,468.23 196.28,469.41 				"/>
				<path fill="#4D4D4D" d="M198.09,472.1c0.36,2.42-1.34,5.07-3.78,5.92c-2.44,0.85-4.71-0.43-5.07-2.85
					c-0.36-2.42,1.34-5.07,3.78-5.92C195.47,468.4,197.74,469.67,198.09,472.1z"/>
			</g>
			<path fill="#AFAFAF" d="M189.2,467.23c0,0,1.03,4.84,1.89,7.04c0.86,2.19,2.69,2,3.73,0.85c1.29-1.43,1.49-4.48,1.69-7.73
				c0.25-4.06,0.03-5.39,0.03-5.39L189.2,467.23z"/>
			<path fill="#FFFFFF" d="M194.41,473.79c0.07,0.46-0.26,0.97-0.72,1.13c-0.47,0.16-0.9-0.08-0.97-0.55
				c-0.07-0.46,0.26-0.97,0.72-1.13C193.9,473.08,194.34,473.33,194.41,473.79z"/>
		</g>
		<g>
			<polygon fill="#AFAFAF" points="151.69,361.21 161.86,331.36 158.54,329.77 147.97,359.23 147.97,433.47 151.69,431.7 			"/>
			<polygon fill="#AFAFAF" points="197.58,351.33 186.49,382.25 186.49,456.49 190.21,454.72 190.21,384.23 201,352.54 			"/>
		</g>
		<g>
			<polygon fill="#D3D3D3" points="201,456.2 150.17,485.59 89.35,450.44 140.19,421.06 			"/>
			<polygon fill="#7C7C7C" points="150.17,485.59 150.17,489.98 201,460.62 201,456.2 			"/>
			<polygon fill="#AFAFAF" points="150.17,489.98 150.17,485.59 89.35,450.44 89.35,454.84 			"/>
		</g>
		<polygon fill="#AFAFAF" points="187.96,411.16 150.17,389.38 150.17,393.6 187.96,415.38 		"/>
		<polygon fill="#AFAFAF" points="187.96,399.49 150.17,377.71 150.17,381.93 187.96,403.71 		"/>
		<path fill="#7C7C7C" d="M207.06,354.07l-42.37-24.46c0,0-0.01,0-0.01,0l-8.75-5.05c-0.89-0.52-2.05-0.21-2.56,0.69
			c-0.52,0.89-0.21,2.05,0.69,2.56l42.37,24.46c0,0,0.01,0,0.01,0l8.75,5.05c0.89,0.52,2.05,0.21,2.56-0.69
			C208.27,355.74,207.96,354.58,207.06,354.07z"/>
	</g>
	<g>
		<polygon fill="#DBA763" points="144.99,475.87 144.98,449.19 183.68,426.82 183.68,453.44 		"/>
		<polygon fill="#E8B679" points="144.99,475.87 144.98,449.19 106.27,426.82 106.27,453.44 		"/>
		<polygon fill="#FFE1C0" points="106.27,426.81 144.98,449.19 183.68,426.81 144.99,404.44 		"/>
		<g>
			<polygon fill="#4D4D4D" points="169.29,449.22 160.66,454.23 160.66,440.1 169.29,435.08 			"/>
			<polygon fill="#6D6D6D" points="169.29,435.08 130.64,412.73 121.99,417.73 160.66,440.11 			"/>
			<polygon fill="#4D4D4D" points="150.1,468.94 150.1,466.45 163.1,458.91 163.1,461.44 			"/>
			<polygon fill="#4D4D4D" points="150.1,464.49 150.1,462 163.1,454.46 163.1,456.99 			"/>
			<polygon fill="#4D4D4D" points="174.76,446.35 174.76,454.99 180.98,451.39 180.98,442.75 			"/>
			<polygon fill="#4D4D4D" points="114.07,446.89 114.07,455.9 107.86,452.31 107.86,443.3 			"/>
			<polygon fill="#4D4D4D" points="122.55,451.81 122.55,460.82 116.34,457.23 116.34,448.22 			"/>
			<polygon fill="#FFFFFF" points="143.3,450.3 143.3,463.24 130.52,455.86 130.52,442.9 			"/>
			<polygon fill="#4D4D4D" points="141.73,452.94 141.73,450.84 131.68,445.04 131.68,447.11 			"/>
		</g>
	</g>
	<g>
		<polygon fill="#DBA763" points="145.65,444.51 145.64,404.76 177.4,386.4 177.4,426.1 		"/>
		<polygon fill="#E8B679" points="145.65,444.51 145.64,404.76 113.88,386.4 113.88,426.1 		"/>
		<polygon fill="#FFE1C0" points="113.88,386.4 145.64,404.76 177.4,386.4 145.65,368.04 		"/>
		<g>
			<polygon fill="#4D4D4D" points="165.6,404.78 158.51,408.89 158.51,397.29 165.6,393.18 			"/>
			<polygon fill="#6D6D6D" points="165.6,393.18 133.88,374.84 126.78,378.94 158.51,397.31 			"/>
			<polygon fill="#4D4D4D" points="149.85,438.82 149.85,436.78 160.51,430.59 160.51,432.66 			"/>
			<polygon fill="#4D4D4D" points="149.85,435.16 149.85,433.12 160.51,426.94 160.51,429.01 			"/>
			<polygon fill="#4D4D4D" points="170.09,420.28 170.09,427.37 175.19,424.42 175.19,417.33 			"/>
			<polygon fill="#4D4D4D" points="120.87,419.54 120.87,426.93 115.77,423.98 115.77,416.59 			"/>
			<polygon fill="#4D4D4D" points="127.83,423.57 127.83,430.96 122.73,428.02 122.73,420.63 			"/>
			<polygon fill="#FFFFFF" points="126.25,397.94 126.25,408.56 115.77,402.5 115.77,391.87 			"/>
			<polygon fill="#4D4D4D" points="124.97,400.11 124.97,398.39 116.72,393.63 116.72,395.33 			"/>
		</g>
	</g>
	<g>
		<polygon fill="#DBA763" points="146.98,400.94 146.97,386.12 170.72,372.39 170.72,387.22 		"/>
		<polygon fill="#E8B679" points="146.98,400.94 146.97,386.12 119.23,370.08 119.23,384.91 		"/>
		<polygon fill="#FFE1C0" points="119.23,370.08 146.97,386.12 170.72,372.39 143,356.36 		"/>
		<g>
			<polygon fill="#4D4D4D" points="148.75,398.23 148.75,396.7 156.72,392.07 156.72,393.62 			"/>
			<polygon fill="#4D4D4D" points="148.75,395.49 148.75,393.97 156.72,389.34 156.72,390.89 			"/>
			<polygon fill="#4D4D4D" points="125.17,376.1 125.17,382.99 120.42,380.24 120.42,373.35 			"/>
		</g>
		<polygon fill="#FFFFFF" points="145.11,387.66 145.11,395.89 132.97,388.88 132.97,380.63 		"/>
		<polygon fill="#4D4D4D" points="143.62,390.18 143.62,388.18 134.07,382.67 134.07,384.64 		"/>
		<polygon fill="#4D4D4D" points="164.72,383.64 156.52,388.4 156.52,380.59 164.72,375.83 		"/>
		<polygon fill="#6D6D6D" points="164.72,375.83 137.02,359.81 128.79,364.56 156.52,380.61 		"/>
	</g>
</g>
<g>
	<polygon fill="#CC2756" points="503.5,659.98 814.31,480.42 814.31,227.36 503.5,396.05 	"/>
	<polygon fill="#FF2E63" points="503.5,396.05 341.3,264.12 192.87,227.6 192.87,480.52 234.37,504.45 249.17,494.16 438.84,603.85 
		438.84,622.7 503.5,659.98 	"/>
	<polygon fill="#707070" points="192.87,216.44 338.55,256.23 649.27,76.74 503.5,36.95 	"/>
	<polygon fill="#4D4D4D" points="338.55,256.23 649.27,76.74 814.31,216.61 503.5,396.05 	"/>
	<polygon fill="#D3D3D3" points="249.17,494.16 438.84,603.85 438.84,428.68 249.16,319.14 	"/>
	<g>
		<polygon fill="#B7B7B7" points="723.39,309.21 658.9,346.44 658.9,378.24 723.39,340.98 		"/>
		<polygon fill="#E2E2E2" points="723.39,345.02 711.76,339.98 658.9,370.57 658.9,382.42 		"/>
		<polygon fill="#919191" points="723.39,345.02 711.76,339.98 711.76,315.94 723.39,309.21 		"/>
	</g>
	<g>
		<polygon fill="#B7B7B7" points="800.33,264.7 735.85,301.94 735.85,333.73 800.33,296.47 		"/>
		<polygon fill="#E2E2E2" points="800.33,300.52 788.7,295.47 735.85,326.06 735.85,337.91 		"/>
		<polygon fill="#919191" points="800.33,300.52 788.7,295.47 788.7,271.43 800.33,264.7 		"/>
	</g>
	<polygon fill="#CC2756" points="250.64,319.89 234.37,310.49 234.37,504.45 250.64,495.08 	"/>
	<g>
		<path fill="#4D4D4D" d="M332.03,335.91c0,0-10.94,5-16.21,24.9c0.74,0.54,1.54,1.07,2.46,1.57c18.36,10.07,29.88,5.3,29.88,5.3
			C348.48,351.02,343.93,341.69,332.03,335.91z"/>
		<path fill="#707070" d="M332.03,335.91c-17-8.25-22.14,10.08-22.14,10.08s-2.91,8.41,5.93,14.82
			C321.09,340.91,332.03,335.91,332.03,335.91z"/>
	</g>
	<polygon fill="#D3D3D3" points="192.87,216.44 192.87,228.02 338.33,270.46 503.5,407.48 503.5,396.05 338.55,256.23 	"/>
	<polygon fill="#AAAAAA" points="503.5,396.05 503.5,407.48 814.31,227.94 814.31,216.61 	"/>
	<polygon fill="#AAAAAA" points="503.5,659.98 503.5,641.25 814.31,461.76 814.31,480.42 	"/>
	<polygon fill="#D3D3D3" points="503.5,641.25 503.5,659.98 438.84,622.7 438.84,603.85 	"/>
	<polygon fill="#D3D3D3" points="234.37,504.45 234.37,485.7 192.87,461.72 192.87,480.52 	"/>
	<polygon fill="#AAAAAA" points="250.64,476.34 234.37,485.7 234.37,504.45 250.64,495.08 	"/>
	<g>
		<polygon fill="#AAAAAA" points="250.64,340.24 250.64,346.76 438.84,455.52 438.84,448.96 		"/>
		<polygon fill="#AAAAAA" points="250.64,361.57 250.64,368.09 438.84,476.85 438.84,470.29 		"/>
		<polygon fill="#AAAAAA" points="250.64,382.89 250.64,389.42 438.84,498.18 438.84,491.61 		"/>
		<polygon fill="#AAAAAA" points="250.64,404.22 250.64,410.74 438.84,519.5 438.84,512.94 		"/>
		<polygon fill="#AAAAAA" points="250.64,425.55 250.64,432.07 438.84,540.83 438.84,534.27 		"/>
		<polygon fill="#AAAAAA" points="250.64,446.88 250.64,453.4 438.84,562.16 438.84,555.6 		"/>
		<polygon fill="#AAAAAA" points="250.64,468.21 250.64,474.73 438.84,583.49 438.84,576.93 		"/>
	</g>
	<g>
		<polygon fill="#AAAAAA" points="348.55,250.46 202.87,210.67 207.12,208.21 352.74,248.03 		"/>
		<polygon fill="#AAAAAA" points="363.5,241.81 217.83,202.02 222.08,199.56 367.7,239.38 		"/>
		<polygon fill="#AAAAAA" points="378.46,233.16 232.78,193.37 237.03,190.91 382.66,230.73 		"/>
		<polygon fill="#AAAAAA" points="393.33,224.58 247.65,184.79 251.91,182.33 397.53,222.15 		"/>
		<polygon fill="#AAAAAA" points="408.29,215.94 262.61,176.15 266.86,173.7 412.48,213.52 		"/>
		<polygon fill="#AAAAAA" points="423.21,207.31 277.53,167.52 281.78,165.06 427.41,204.89 		"/>
		<polygon fill="#AAAAAA" points="438.15,198.7 292.47,158.91 296.72,156.45 442.34,196.27 		"/>
		<polygon fill="#AAAAAA" points="453.07,190.06 307.39,150.27 311.65,147.82 457.27,187.64 		"/>
		<polygon fill="#AAAAAA" points="468.01,181.43 322.33,141.64 326.58,139.18 472.21,179.01 		"/>
		<polygon fill="#AAAAAA" points="482.93,172.82 337.26,133.03 341.51,130.57 487.13,170.39 		"/>
		<polygon fill="#AAAAAA" points="497.85,164.18 352.18,124.39 356.43,121.94 502.05,161.76 		"/>
		<polygon fill="#AAAAAA" points="512.81,155.57 367.13,115.78 371.39,113.32 517.01,153.14 		"/>
		<polygon fill="#AAAAAA" points="527.73,146.94 382.06,107.15 386.31,104.69 531.93,144.51 		"/>
		<polygon fill="#AAAAAA" points="542.69,138.3 397.01,98.51 401.26,96.06 546.88,135.88 		"/>
		<polygon fill="#AAAAAA" points="557.59,129.69 411.92,89.9 416.17,87.44 561.79,127.26 		"/>
		<polygon fill="#AAAAAA" points="572.53,121.07 426.86,81.28 431.11,78.83 576.73,118.65 		"/>
		<polygon fill="#AAAAAA" points="587.46,112.44 441.78,72.65 446.03,70.19 591.65,110.02 		"/>
		<polygon fill="#AAAAAA" points="602.39,103.81 456.72,64.02 460.97,61.56 606.59,101.38 		"/>
		<polygon fill="#AAAAAA" points="617.3,95.19 471.62,55.4 475.87,52.95 621.5,92.77 		"/>
		<polygon fill="#AAAAAA" points="632.24,86.56 486.56,46.77 490.81,44.31 636.43,84.14 		"/>
	</g>
	<g>
		<polygon fill="#707070" points="348.55,250.45 513.5,390.27 517.69,387.86 352.75,248.02 		"/>
		<polygon fill="#707070" points="363.48,241.82 528.44,381.64 532.62,379.23 367.68,239.4 		"/>
		<polygon fill="#707070" points="378.42,233.2 543.37,373.02 547.55,370.61 382.61,230.78 		"/>
		<polygon fill="#707070" points="393.35,224.58 558.3,364.39 562.48,361.98 397.54,222.15 		"/>
		<polygon fill="#707070" points="408.28,215.95 573.23,355.77 577.42,353.36 412.48,213.53 		"/>
		<polygon fill="#707070" points="423.21,207.33 588.17,347.15 592.35,344.74 427.41,204.9 		"/>
		<polygon fill="#707070" points="438.15,198.7 603.1,338.52 607.28,336.11 442.34,196.28 		"/>
		<polygon fill="#707070" points="453.08,190.08 618.03,329.9 622.22,327.49 457.28,187.66 		"/>
		<polygon fill="#707070" points="468.01,181.46 632.97,321.27 637.15,318.86 472.21,179.03 		"/>
		<polygon fill="#707070" points="482.95,172.83 647.9,312.65 652.08,310.24 487.14,170.41 		"/>
		<polygon fill="#707070" points="497.88,164.21 662.83,304.03 667.01,301.62 502.07,161.78 		"/>
		<polygon fill="#707070" points="512.81,155.58 677.76,295.4 681.95,292.99 517.01,153.16 		"/>
		<polygon fill="#707070" points="527.74,146.96 692.7,286.78 696.88,284.37 531.94,144.54 		"/>
		<polygon fill="#707070" points="542.68,138.34 707.63,278.15 711.81,275.74 546.87,135.91 		"/>
		<polygon fill="#707070" points="557.61,129.71 722.56,269.53 726.74,267.12 561.8,127.29 		"/>
		<polygon fill="#707070" points="572.54,121.09 737.49,260.91 741.68,258.5 576.74,118.67 		"/>
		<polygon fill="#707070" points="587.47,112.46 752.43,252.28 756.61,249.87 591.67,110.04 		"/>
		<polygon fill="#707070" points="602.41,103.84 767.4,243.66 771.58,241.25 606.6,101.42 		"/>
		<polygon fill="#707070" points="617.34,95.17 782.35,235.04 786.54,232.63 621.53,92.74 		"/>
		<polygon fill="#707070" points="632.27,86.56 797.28,226.43 801.46,224.02 636.47,84.14 		"/>
	</g>
</g>
<g>
	<rect x="615.28" y="526.69" fill="#4D4D4D" width="3.37" height="86.75"/>
	<rect x="609.56" y="526.69" fill="#3A3A3A" width="5.72" height="86.75"/>
	<path fill="#4D4D4D" d="M615.81,528.9c-0.27-0.06-0.53-0.14-0.8-0.23c-2.07-0.74-3.86-2.38-4.91-4.51l-9.26-18.86
		c-1.5-3.05-1.22-6.43,0.71-8.61c1.93-2.18,5.01-2.61,7.85-1.09l20.27,10.86c2.46,1.32,4.21,3.8,4.66,6.64
		c0.45,2.84-0.48,5.4-2.5,6.86l-11.01,7.99C619.42,528.99,617.62,529.32,615.81,528.9z M613.76,522.49
		c0.43,0.87,1.16,1.55,2.01,1.85c0.86,0.31,1.72,0.2,2.39-0.29l11.01-7.99c0.83-0.6,1.21-1.65,1.03-2.82
		c-0.19-1.16-0.9-2.18-1.91-2.72l-20.27-10.86c-1.77-0.95-2.92,0.1-3.22,0.45c-0.31,0.35-1.23,1.62-0.29,3.53L613.76,522.49z"/>
	<polygon fill="#4D4D4D" points="616.96,530.16 620.6,528.12 620.6,527.22 615.94,529.45 	"/>
	<polygon fill="#4D4D4D" points="600.45,496.94 603.27,495.36 603.88,496.04 601.43,498.48 	"/>
	<path fill="#3A3A3A" d="M612.93,530.52c-0.27-0.06-0.53-0.14-0.8-0.23c-2.07-0.74-3.86-2.38-4.91-4.51l-9.26-18.86
		c-1.5-3.05-1.22-6.43,0.71-8.61c1.93-2.18,5.01-2.61,7.85-1.09l20.27,10.86c2.46,1.32,4.21,3.8,4.66,6.64
		c0.45,2.84-0.48,5.4-2.5,6.86l-11.01,7.99C616.53,530.61,614.74,530.94,612.93,530.52z M610.87,524.11
		c0.43,0.87,1.16,1.55,2.01,1.85c0.86,0.31,1.72,0.2,2.39-0.29l11.01-7.99c0.83-0.6,1.21-1.65,1.03-2.82
		c-0.19-1.16-0.9-2.18-1.91-2.72l-20.27-10.86c-1.77-0.95-2.92,0.1-3.22,0.45c-0.31,0.35-1.23,1.62-0.29,3.53L610.87,524.11z"/>
	<g>
		<path fill="#4D4D4D" d="M638,649.8l-96.39,55.88c-5.13,2.98-12.98,3.32-17.43,0.75l0,0c-4.45-2.56-3.9-7.09,1.23-10.07l96.43-55.9
			L638,649.8z"/>
		<polygon fill="#4D4D4D" points="638,645.6 638,649.8 630.92,651.18 629.5,644.38 		"/>
		<polygon fill="#4D4D4D" points="521.17,697.84 521.17,702.09 522.76,703.95 523.54,698.89 		"/>
		<path fill="#707070" d="M638,645.6l-96.39,55.88c-5.13,2.98-12.98,3.32-17.43,0.75l0,0c-4.45-2.56-3.9-7.09,1.23-10.07l96.43-55.9
			L638,645.6z"/>
		<path fill="#FF9003" d="M539.57,694.49c0.27,1.65-1.82,3.35-4.65,3.81c-2.84,0.46-5.35-0.51-5.62-2.15
			c-0.27-1.65,1.82-3.35,4.65-3.81C536.79,691.88,539.31,692.84,539.57,694.49z"/>
		<path fill="#FFA543" d="M538.82,693.73c0.24,1.47-1.63,3-4.16,3.41c-2.54,0.41-4.79-0.45-5.02-1.93c-0.24-1.47,1.63-3,4.16-3.41
			C536.33,691.4,538.58,692.26,538.82,693.73z"/>
	</g>
	<g>
		<path fill="#4D4D4D" d="M597.59,626.48l-96.39,55.88c-5.13,2.98-12.98,3.32-17.43,0.75l0,0c-4.45-2.56-3.9-7.09,1.23-10.07
			l96.43-55.9L597.59,626.48z"/>
		<polygon fill="#4D4D4D" points="597.59,622.28 597.59,626.48 590.51,627.86 589.09,621.06 		"/>
		<polygon fill="#4D4D4D" points="480.76,674.51 480.76,678.77 482.35,680.63 483.13,675.57 		"/>
		<path fill="#707070" d="M597.59,622.28l-96.39,55.88c-5.13,2.98-12.98,3.32-17.43,0.75l0,0c-4.45-2.56-3.9-7.09,1.23-10.07
			l96.43-55.9L597.59,622.28z"/>
		<path fill="#FF9003" d="M499.16,671.17c0.27,1.65-1.82,3.35-4.65,3.81c-2.84,0.46-5.35-0.51-5.62-2.15
			c-0.27-1.65,1.82-3.35,4.65-3.81C496.38,668.55,498.9,669.52,499.16,671.17z"/>
		<path fill="#FFA543" d="M498.41,670.41c0.24,1.47-1.63,3-4.16,3.41c-2.54,0.41-4.79-0.45-5.02-1.93c-0.24-1.47,1.63-3,4.16-3.41
			C495.92,668.08,498.17,668.94,498.41,670.41z"/>
	</g>
	<polygon fill="#E57700" points="575.22,616.54 587.3,584.74 628.9,608.78 631.77,649.21 	"/>
	<polygon fill="#FF9003" points="631.77,649.21 638,645.6 635,605.26 628.9,608.78 	"/>
	<polygon fill="#FFA543" points="587.3,584.75 628.9,608.78 635,605.26 593.45,581.23 	"/>
	<g>
		<polygon fill="#DBA763" points="573.08,699.77 573.06,662.84 626.63,631.87 626.63,668.72 		"/>
		<polygon fill="#E8B679" points="573.08,699.77 573.06,662.84 495.95,618.29 495.95,655.14 		"/>
		<polygon fill="#FFE1C0" points="495.95,618.29 573.06,662.84 626.63,631.87 549.5,587.33 		"/>
		<g>
			<polygon fill="#4D4D4D" points="606.72,662.88 594.77,669.82 594.77,650.25 606.72,643.31 			"/>
			<polygon fill="#6D6D6D" points="606.72,643.31 529.66,598.8 517.68,605.73 594.77,650.27 			"/>
			<polygon fill="#4D4D4D" points="577.07,693.65 577.07,690.21 595.06,679.78 595.06,683.27 			"/>
			<polygon fill="#4D4D4D" points="577.07,687.49 577.07,684.04 595.06,673.61 595.06,677.11 			"/>
			<polygon fill="#4D4D4D" points="506.78,644.64 506.78,657.11 498.18,652.13 498.18,639.67 			"/>
			<polygon fill="#4D4D4D" points="518.52,651.45 518.52,663.91 509.92,658.94 509.92,646.48 			"/>
			<polygon fill="#4D4D4D" points="530.41,658.28 530.41,670.74 521.81,665.77 521.81,653.31 			"/>
			<polygon fill="#FFFFFF" points="570.73,664.37 570.73,682.28 553.06,672.07 553.06,654.13 			"/>
			<polygon fill="#4D4D4D" points="568.57,668.03 568.57,665.12 554.66,657.1 554.66,659.97 			"/>
		</g>
	</g>
	<g>
		<polygon fill="#DBA763" points="566.6,648.3 566.58,626.68 601.18,606.68 601.18,628.25 		"/>
		<polygon fill="#E8B679" points="566.6,648.3 566.58,626.68 516.8,597.91 516.8,619.48 		"/>
		<polygon fill="#FFE1C0" points="516.8,597.95 566.58,626.72 601.18,606.72 551.37,577.96 		"/>
		<g>
			<polygon fill="#4D4D4D" points="569.17,644.35 569.17,642.12 580.79,635.39 580.79,637.65 			"/>
			<polygon fill="#4D4D4D" points="569.17,640.37 569.17,638.14 580.79,631.41 580.79,633.67 			"/>
			<polygon fill="#4D4D4D" points="525.4,606.65 525.4,616.68 518.47,612.68 518.47,602.64 			"/>
			<polygon fill="#4D4D4D" points="534.85,612.13 534.85,622.17 527.92,618.16 527.92,608.13 			"/>
		</g>
		<polygon fill="#FFFFFF" points="563.87,628.97 563.87,640.95 546.2,630.73 546.2,618.73 		"/>
		<polygon fill="#4D4D4D" points="561.71,632.63 561.71,629.71 547.8,621.69 547.8,624.56 		"/>
		<polygon fill="#4D4D4D" points="592.43,623.1 580.49,630.04 580.49,618.67 592.43,611.73 		"/>
		<polygon fill="#6D6D6D" points="592.43,611.73 542.71,582.97 530.69,589.92 580.49,618.7 		"/>
	</g>
</g>
</svg>
