<?xml version="1.0" encoding="utf-8"?>
<!-- Generator: Adobe Illustrator 25.2.1, SVG Export Plug-In . SVG Version: 6.00 Build 0)  -->
<svg version="1.1" id="Camada_1" xmlns="http://www.w3.org/2000/svg" xmlns:xlink="http://www.w3.org/1999/xlink" x="0px" y="0px"
	 viewBox="0 0 553.3 462.6" style="enable-background:new 0 0 553.3 462.6;" xml:space="preserve">
<style type="text/css">
	.st0{fill-rule:evenodd;clip-rule:evenodd;fill:#FFFFFF;}
	.st1{fill:#FFFFFF;}
	.st2{fill:#CCCCCC;}
	.st3{fill-rule:evenodd;clip-rule:evenodd;fill:#3F3D56;}
	.st4{fill:#33658A;}
	.st5{fill:#2F2E41;}
	.st6{fill:#A0616A;}
	.st7{fill:#3F3D56;}
	.st8{fill:#F26419;}
	.st9{fill:#E6E6E6;}
	.st10{fill:#FFB8B8;}
	.st11{fill:#F2F2F2;}
</style>
<g>
	<path class="st0" d="M293.7,146.8c-19.1,0-34.6,15.5-34.6,34.6c0,12.1,6.3,23.3,16.6,29.5l0.3,0.2c0.2,0.1,0.3,0.3,0.6,0.3
		c0.3,0.2,0.6,0.3,0.9,0.5c0.3,0.1,0.4,0.3,0.6,0.3c2.4,1.3,4.9,2.2,7.6,2.8c0.5,0.2,1.1,0.3,1.7,0.3c2.1,0.4,4.3,0.6,6.4,0.6
		c0.6,0,1.1,0,1.7-0.1c0.8,0,1.5-0.1,2.3-0.2c0.9-0.1,1.8-0.3,2.7-0.4c1.8-0.3,3.5-0.8,5.3-1.4l0.6-0.3c0.6-0.3,1.2-0.5,1.7-0.8
		c0.6-0.3,1.3-0.6,1.8-0.9c6-3.2,10.9-7.9,14.3-13.8c0,0,0-0.1,0.1-0.1c9.3-16.7,3.2-37.8-13.5-47
		C305.3,148.3,299.5,146.8,293.7,146.8L293.7,146.8z M323.3,197.8l0.1-0.2c9-16.3,3.1-36.9-13.3-46c-16.3-9-36.9-3.1-46,13.3
		c-8.8,15.8-3.5,35.8,11.9,45.2l0.3,0.3l0.6,0.3c0.3,0.2,0.6,0.3,0.8,0.5l0.3,0.2l0.3,0.1l0,0c1.8,0.9,3.5,1.6,5.3,2.2
		c1.3,0.3,2.4,0.7,3.8,0.9c2.1,0.4,4.2,0.6,6.3,0.6c0.5,0,0.9,0,1.4,0c0.8,0,1.4-0.1,2.2-0.2c1.2-0.1,2.3-0.3,3.4-0.6
		c1.5-0.3,3-0.8,4.5-1.3c0.3-0.1,0.4-0.2,0.7-0.3c0.5-0.2,1-0.4,1.5-0.6c0.6-0.3,1.3-0.6,1.8-0.8
		C315.1,208.4,320.1,203.7,323.3,197.8z"/>
	<path class="st1" d="M323.3,197.7l-0.1,0.2c-3.3,5.8-8.1,10.5-14,13.6c-0.6,0.3-1.2,0.6-1.8,0.8c-0.5,0.3-1,0.4-1.5,0.6
		c-0.3,0.1-0.4,0.2-0.7,0.3c-1.5,0.5-3,1-4.5,1.3c-1.2,0.3-2.3,0.4-3.4,0.6c-0.8,0.1-1.4,0.2-2.2,0.2c-0.5,0-0.9,0-1.4,0
		c-2.1,0-4.2-0.2-6.3-0.6c-1.3-0.3-2.5-0.5-3.8-0.9c-1.8-0.6-3.7-1.3-5.3-2.2l0,0l-0.3-0.1l-0.3-0.2c-0.3-0.2-0.6-0.3-0.8-0.5
		l-0.6-0.3l-0.3-0.3c-15.9-9.8-20.9-30.6-11.2-46.5c9.8-15.9,30.6-20.9,46.5-11.2C326.8,161.9,332.1,181.8,323.3,197.7L323.3,197.7z
		"/>
	<path class="st2" d="M266.3,374.5c74.7,0,135.3-3.1,135.3-6.9s-60.6-6.9-135.3-6.9S131,363.7,131,367.6S191.5,374.5,266.3,374.5z"
		/>
	<path class="st3" d="M343.7,154.6h1.5v29.9h-1.5v158.9c0,13.4-10.9,24.4-24.4,24.4h-89.2c-13.4,0-24.4-10.9-24.4-24.4v-231
		c0-13.4,10.9-24.4,24.4-24.4l0,0h89.2c13.4,0,24.4,10.9,24.4,24.4V154.6z M338.6,343.2V112.6c0-10-8.2-18.2-18.2-18.2h-11.7
		c1.8,4.4-0.3,9.5-4.8,11.3c-1,0.4-2.1,0.7-3.3,0.7h-51.1c-1.4,0-2.8-0.3-4.1-1c-1.3-0.7-2.3-1.7-3.1-2.8c-1.6-2.4-1.9-5.4-0.8-8.1
		h-10.8c-10,0-18.2,8.2-18.2,18.2v230.6c0,10.1,8.2,18.2,18.2,18.2h89.7C330.4,361.5,338.6,353.3,338.6,343.2z"/>
	<path class="st4" d="M309.6,212c-0.6,0.3-1.3,0.6-1.8,0.9c-0.6,0.3-1.2,0.5-1.7,0.8l-0.6,0.3c-1.7,0.6-3.4,1.1-5.3,1.4
		c-0.9,0.2-1.8,0.3-2.7,0.4c-0.8,0.1-1.5,0.2-2.3,0.2c-0.6,0-1.1,0.1-1.7,0.1c-2.2,0-4.3-0.3-6.4-0.6c-0.6-0.1-1.1-0.3-1.7-0.3
		c-2.6-0.7-5.2-1.6-7.6-2.8c-0.3-0.1-0.4-0.3-0.6-0.3c-0.3-0.2-0.6-0.3-0.9-0.5c0.2-0.2,0.3-0.4,0.5-0.6c7.1-8.8,19.9-10.2,28.7-3.1
		c0.6,0.5,1.2,1,1.7,1.5c0.7,0.7,1.3,1.4,1.9,2.3C309.4,211.6,309.5,211.9,309.6,212z"/>
	<path class="st5" d="M294.4,195.2c9.3,0,16.8-7.6,16.8-16.8s-7.6-16.8-16.8-16.8c-9.3,0-16.8,7.6-16.8,16.8
		S285.2,195.2,294.4,195.2L294.4,195.2z"/>
	<path class="st6" d="M299,195.2c6.1-3.3,8.3-11,5-17c-3.3-6.1-11-8.3-17-5c-6.1,3.3-8.3,11-5,17l0,0
		C285.3,196.3,292.9,198.5,299,195.2z"/>
	<path class="st5" d="M306.1,176.2c-2.8,2-6.3,3-9.8,3c1.3,0.8,2.7,1.4,4.2,1.7c-4.7,1-9.4,1-14.1,0.1c-1-0.2-2-0.5-2.9-1
		c-0.9-0.5-1.6-1.4-1.8-2.4c-0.3-1.8,1.1-3.3,2.5-4.4c4.4-3.3,10.1-4.4,15.5-3.1c1.8,0.4,3.4,1.2,4.6,2.6c1.1,1.4,1.4,3.5,0.4,4.9
		L306.1,176.2z"/>
	<path class="st1" d="M259.5,335.5c-19.1,0-34.6-15.5-34.6-34.6c0-19.1,15.5-34.6,34.6-34.6c19.1,0,34.6,15.5,34.6,34.6
		c0,11.8-6,22.8-15.9,29.1C272.6,333.6,266.1,335.5,259.5,335.5z M259.5,267.1c-18.7,0-33.9,15.1-33.9,33.9
		c0,18.7,15.1,33.9,33.9,33.9c18.7,0,33.9-15.1,33.9-33.9c0-9-3.6-17.6-9.9-24C277.1,270.7,268.5,267.1,259.5,267.1z"/>
	<path class="st1" d="M259.5,267.1c-18.7,0-33.9,15.1-33.9,33.9c0,18.7,15.1,33.9,33.9,33.9c18.7,0,33.9-15.1,33.9-33.9
		c0-9-3.6-17.6-9.9-24C277.1,270.7,268.5,267.1,259.5,267.1z"/>
	<path class="st5" d="M285.9,161.6c-0.2-1.9-2.5-3.1-4.3-2.5c-1.8,0.6-3,2.4-3.4,4.3c-0.2,0.8-0.2,1.6-0.1,2.4
		c0.2,0.8,0.4,1.6,0.9,2.3c0.9,1.4,2.6,2.1,4.2,1.8c1.8-0.4,3.1-2.2,3.4-4c0.3-1.8,0-3.8-0.3-5.5L285.9,161.6z"/>
	<path class="st5" d="M311.7,164.4c-0.2-1.9-2.5-3.1-4.3-2.5c-1.8,0.6-3,2.4-3.4,4.3c-0.2,0.8-0.2,1.6-0.1,2.4
		c0.2,0.8,0.4,1.6,0.9,2.3c0.9,1.4,2.6,2.1,4.2,1.8c1.8-0.4,3.1-2.2,3.4-4s0-3.8-0.3-5.5L311.7,164.4z"/>
	<path class="st1" d="M233.9,195.2c-0.3,0-0.5-0.1-0.7-0.2c-0.3-0.1-0.4-0.3-0.6-0.4l-19.1-20.9c-0.3-0.3-0.5-0.4-0.8-0.6
		c-0.3-0.2-0.6-0.2-0.9-0.2H111.1c-3.2,0-5.8-2.6-5.8-5.8V131c0-3.2,2.6-5.8,5.8-5.8h130.5c3.2,0,5.8,2.6,5.8,5.8v36.4
		c0,3.2-2.6,5.8-5.8,5.8h-3.8c-0.6,0-1.2,0.3-1.7,0.7c-0.4,0.4-0.7,1-0.7,1.7v18.1c0,0.3-0.1,0.7-0.3,1c-0.2,0.3-0.5,0.5-0.8,0.6
		C234.3,195.2,234.1,195.2,233.9,195.2z"/>
	<path class="st7" d="M233.9,195.2c-0.3,0-0.5-0.1-0.7-0.2c-0.3-0.1-0.4-0.3-0.6-0.4l-19.1-20.9c-0.3-0.3-0.5-0.4-0.8-0.6
		c-0.3-0.2-0.6-0.2-0.9-0.2H111.1c-3.2,0-5.8-2.6-5.8-5.8V131c0-3.2,2.6-5.8,5.8-5.8h130.5c3.2,0,5.8,2.6,5.8,5.8v36.4
		c0,3.2-2.6,5.8-5.8,5.8h-3.8c-0.6,0-1.2,0.3-1.7,0.7c-0.4,0.4-0.7,1-0.7,1.7v18.1c0,0.3-0.1,0.7-0.3,1c-0.2,0.3-0.5,0.5-0.8,0.6
		C234.3,195.2,234.1,195.2,233.9,195.2z M111.1,125.9c-2.8,0-5,2.3-5,5v36.4c0,2.8,2.3,5,5,5l0,0h100.8c0.4,0,0.8,0.1,1.3,0.3
		c0.4,0.2,0.8,0.4,1,0.8l19.1,20.8c0.3,0.3,0.7,0.4,1.1,0.3c0.2-0.1,0.3-0.2,0.4-0.3c0.1-0.2,0.2-0.3,0.2-0.6v-18.1
		c0-1.7,1.4-3.1,3.1-3.1h3.8c2.8,0,5-2.3,5-5l0,0V131c0-2.8-2.3-5-5-5H111.1z"/>
	<path class="st8" d="M119.5,141.2c2.8,0,5.1-2.3,5.1-5.1c0-2.8-2.3-5.1-5.1-5.1c-2.8,0-5.1,2.3-5.1,5.1l0,0
		C114.5,139,116.7,141.2,119.5,141.2z"/>
	<path class="st9" d="M235.8,164.1H117c-0.3,0-0.7-0.1-1-0.2c-0.3-0.2-0.7-0.3-0.8-0.6c-1.1-1.1-1.1-2.8,0-3.8
		c0.5-0.5,1.2-0.8,1.9-0.8h118.8c1.5-0.1,2.8,1.1,2.8,2.6c0.1,1.5-1.1,2.8-2.6,2.8C236,164.1,235.9,164.1,235.8,164.1L235.8,164.1z"
		/>
	<path class="st9" d="M197.1,152.7H117c-0.3,0-0.7-0.1-1-0.2c-0.3-0.2-0.7-0.3-0.8-0.6c-1.1-1.1-1.1-2.8,0-3.8
		c0.5-0.5,1.2-0.8,1.9-0.8h80.1c1.5,0,2.7,1.2,2.7,2.7C199.8,151.5,198.5,152.6,197.1,152.7L197.1,152.7z"/>
	<path class="st1" d="M318.6,318.5c-0.7-0.3-1.1-0.9-1.1-1.6v-18.1c0-1.3-1-2.3-2.3-2.3h-3.8c-3.2,0-5.8-2.6-5.8-5.8v-36.3
		c0-3.2,2.6-5.8,5.8-5.8l0,0h130.6c3.2,0,5.8,2.6,5.8,5.8l0,0v36.4c0,3.2-2.6,5.8-5.8,5.8H341.3c-0.3,0-0.7,0.1-0.9,0.2
		c-0.3,0.2-0.6,0.3-0.8,0.6l-19.1,20.9c-0.2,0.2-0.3,0.3-0.6,0.4c-0.3,0.1-0.4,0.2-0.7,0.2C319.1,318.6,318.9,318.5,318.6,318.5z"/>
	<path class="st7" d="M318.6,318.5c-0.7-0.3-1.1-0.9-1.1-1.6v-18.1c0-1.3-1-2.3-2.3-2.3h-3.8c-3.2,0-5.8-2.6-5.8-5.8v-36.3
		c0-3.2,2.6-5.8,5.8-5.8l0,0h130.6c3.2,0,5.8,2.6,5.8,5.8l0,0v36.4c0,3.2-2.6,5.8-5.8,5.8H341.3c-0.3,0-0.7,0.1-0.9,0.2
		c-0.3,0.2-0.6,0.3-0.8,0.6l-19.1,20.9c-0.2,0.2-0.3,0.3-0.6,0.4c-0.3,0.1-0.4,0.2-0.7,0.2C319.1,318.6,318.9,318.5,318.6,318.5z
		 M311.5,249.4c-2.8,0-5,2.3-5,5v36.4c0,2.8,2.3,5,5,5l0,0h3.8c1.7,0,3.1,1.4,3.1,3.1v18.1c0,0.2,0.1,0.4,0.2,0.5
		c0.1,0.2,0.3,0.3,0.4,0.3c0.2,0.1,0.4,0.1,0.6,0.1c0.2-0.1,0.3-0.2,0.5-0.3l19.1-20.9c0.6-0.7,1.4-1,2.3-1h100.8c2.8,0,5-2.3,5-5
		l0,0v-36.4c0-2.8-2.3-5-5-5H311.5z"/>
	<path class="st8" d="M277.9,329.7c-10.9,7-24.9,7.3-36,0.6c1-1.8,2.2-3.4,3.6-4.8c8-8,21-8.1,29-0.1c1.3,1.3,2.3,2.6,3.2,4.1
		C277.9,329.5,277.9,329.6,277.9,329.7z"/>
	<path class="st5" d="M258.5,311.4c9.4,0,17-7.6,17-17c0-9.4-7.6-17-17-17c-9.4,0-17,7.6-17,17l0,0
		C241.5,303.8,249.1,311.4,258.5,311.4L258.5,311.4z"/>
	<path class="st10" d="M271.1,306.4c3.3-6.1,1.1-13.8-5-17.2c-6.1-3.3-13.8-1.1-17.2,5s-1.1,13.8,5,17.2
		C260.1,314.7,267.8,312.5,271.1,306.4L271.1,306.4z"/>
	<path class="st5" d="M246.7,292.3c2.9,2,6.3,3.1,9.8,3c-1.3,0.8-2.7,1.4-4.2,1.8c4.7,1,9.5,1,14.2,0.1c1-0.2,2-0.5,2.9-1
		c0.9-0.5,1.6-1.4,1.8-2.5c0.3-1.8-1.1-3.4-2.5-4.5c-4.4-3.3-10.2-4.4-15.6-3.1c-1.8,0.4-3.5,1.2-4.6,2.6c-1.2,1.4-1.5,3.6-0.4,5
		L246.7,292.3z"/>
	<path class="st8" d="M322.1,264.2c2.8,0,5-2.3,5-5.1c0-2.8-2.3-5-5.1-5c-2.8,0-5,2.3-5,5.1C317,262,319.2,264.2,322.1,264.2
		L322.1,264.2z"/>
	<path class="st9" d="M438.3,287.1H319.6c-1.5,0-2.7-1.2-2.7-2.7l0,0c0-0.8,0.3-1.4,0.8-1.9c0.3-0.3,0.6-0.4,0.9-0.6
		c0.3-0.2,0.7-0.2,1-0.2h118.8c1.5-0.1,2.8,1.1,2.8,2.6c0.1,1.5-1.1,2.8-2.6,2.8C438.5,287.1,438.4,287.1,438.3,287.1L438.3,287.1z"
		/>
	<path class="st9" d="M399.6,275.7h-80.1c-0.3,0-0.7-0.1-1-0.2c-0.3-0.2-0.7-0.3-0.9-0.6c-1.1-1.1-1.1-2.8,0-3.8
		c0.3-0.3,0.6-0.4,0.9-0.6c0.3-0.2,0.7-0.2,1-0.2h80.1c1.5-0.1,2.8,1.1,2.8,2.6c0.1,1.5-1.1,2.8-2.6,2.8
		C399.8,275.7,399.7,275.7,399.6,275.7L399.6,275.7z"/>
	<path class="st11" d="M318.5,321.9c5.2,0,9.4-0.5,9.4-1.1c0-0.6-4.3-1.1-9.4-1.1s-9.4,0.5-9.4,1.1S313.3,321.9,318.5,321.9z"/>
	<path class="st11" d="M234.3,198.9c5.2,0,9.4-0.5,9.4-1.1c0-0.6-4.3-1.1-9.4-1.1s-9.4,0.5-9.4,1.1
		C224.9,198.4,229.1,198.9,234.3,198.9z"/>
</g>
</svg>
