<?xml version="1.0" encoding="utf-8"?>
<!-- Generator: Adobe Illustrator 25.2.1, SVG Export Plug-In . SVG Version: 6.00 Build 0)  -->
<svg version="1.1" id="Camada_1" xmlns="http://www.w3.org/2000/svg" xmlns:xlink="http://www.w3.org/1999/xlink" x="0px" y="0px"
	 viewBox="0 0 600 600" enable-background="new 0 0 600 600" xml:space="preserve">
<g>
	<path fill="#33658A" d="M315.6,139.4h-2.1v-59c0-18.9-15.3-34.2-34.2-34.2h-125c-18.9,0-34.2,15.3-34.2,34.2v323.7
		c0,18.9,15.3,34.2,34.2,34.2h125c18.9,0,34.2-15.3,34.2-34.2l0,0V181.4h2.1V139.4z"/>
	<path fill="#FFFFFF" d="M280.8,55.2h-16.3c2.5,6.2-0.5,13.3-6.6,15.8c-1.5,0.6-3,0.9-4.6,0.9h-71.6c-6.7,0-12.2-5.4-12.2-12.2
		c0-1.6,0.3-3.1,0.9-4.6h-15.3c-14.1,0-25.5,11.4-25.5,25.5v323.2c0,14.1,11.4,25.5,25.5,25.5l0,0h125.7c14.1,0,25.5-11.4,25.5-25.5
		l0,0l0,0V80.7C306.3,66.6,294.8,55.2,280.8,55.2z"/>
	<path fill="#F0F0F0" d="M220.4,325.5c-38.8,0-70.4-31.4-70.4-70.3v-0.1c0-26.5,14.8-50.7,38.5-62.8c16.9-8.7,36.6-10,54.7-4
		c36.8,12.5,56.5,52.6,43.9,89.4C277.3,306.4,250.5,325.5,220.4,325.5L220.4,325.5z M220.4,187.5c-10.7,0-21.3,2.5-30.7,7.4
		c-33.3,16.9-46.6,57.7-29.5,91c16.9,33.3,57.7,46.6,91,29.5c3.1-1.6,6.1-3.4,8.9-5.4c3.7-2.7,7-5.6,10.1-8.9
		c25.3-27.4,23.7-70.2-3.8-95.6C253.8,193.9,237.4,187.5,220.4,187.5z"/>
	<path fill="#FFB6B6" d="M67.8,192.6c7.3,0.9,12.5,7.5,11.6,14.9c-0.1,0.7-0.3,1.6-0.5,2.3l23.4,19.5l-8.4,17.1l-32.7-28.1
		c-6.9-2.7-10.3-10.4-7.7-17.3C55.7,195.3,61.6,191.8,67.8,192.6L67.8,192.6z"/>
	<path fill="#E4E4E4" d="M286.3,273.9c-0.5-5.1-2.4-14.1-4.1-17.5c-5.1-13.3-37.7-24.1-42.2-25.5l-1.1-12.4l-45.5-4.9l-5.7,15.8
		l-16.3,6.1c-2.2,0.8-4,2.7-4.8,4.9l0,0l-14.6,4.2l-14.5,4.1l-50.1-35.3l-2.4,1.6l-15.8,10.3l-2.5,1.6l64.9,58.5l24.1-5.6l18.1-4.2
		l1.6,6.3l-4,22.1c23.9,23.9,61.8,27,89.3,7.2l10.3-9.1c7.2-7.7,12.4-17,15.5-27.2L286.3,273.9z"/>
	
		<ellipse transform="matrix(2.006748e-03 -1 1 2.006748e-03 47.2845 392.3062)" fill="#FFB6B6" cx="220.2" cy="172.5" rx="32.7" ry="32.7"/>
	<path fill="#2F2E41" d="M194.4,135.2c3.2-4.5,7.9-7.7,13.3-8.9c5.3-1.1,11-0.1,15.6,2.9c5.1-2,10.4-3.4,15.7-2.7
		c5.3,0.7,10.5,3.7,13,8.6c0.6,1.3,1.1,2.5,1.8,3.7c2.2,2.9,6.2,3.2,9.8,3.4c-1.8,1-3.6,2.1-5.4,3.1c1.7,0.8,3.6,1.7,5.3,2.5
		c-2.5,0.9-4.9,1.8-7.4,2.8c5.7,5,7.1,13.9,4.9,21.4c-2,7.1-6.7,13-11.9,18c-1-3.8,0.1-7.9,0.8-11.8c0.8-4.1,0.9-9-2-12
		c-1.9-1.9-4.9-2.6-7.5-3c-13.6-2.4-27.4-4.1-41.3-4.9c-1.8-0.3-3.8-0.1-5.5,0.6c-3.4,1.5-4.7,5.6-5.7,9.3
		c-0.5-6.4-0.1-12.9,1.1-19.1C190.2,144,191.6,139.1,194.4,135.2z"/>
	<path fill="#F26419" d="M236.9,358.8h-38.7c-2.8,0-5.1-2.3-5.1-5.1c0-2.8,2.3-5.1,5.1-5.1h38.7c2.8,0,5.1,2.3,5.1,5.1
		C242,356.5,239.7,358.8,236.9,358.8z"/>
	<path fill="#F26419" d="M110,87.8H3.7c-2,0-3.7-1.7-3.7-3.7s1.7-3.7,3.7-3.7H110c2,0,3.7,1.7,3.7,3.7S112.1,87.8,110,87.8z"/>
	<path fill="#F26419" d="M171.4,111.4H3.7c-2,0-3.7-1.7-3.7-3.7s1.7-3.7,3.7-3.7h167.7c2,0,3.7,1.7,3.7,3.7S173.5,111.4,171.4,111.4
		z"/>
	<path fill="#CACACA" d="M139.2,133.7H3.7c-2,0-3.7-1.7-3.7-3.7s1.7-3.7,3.7-3.7h135.5c2,0,3.7,1.7,3.7,3.7S141.2,133.7,139.2,133.7
		z"/>
	<path fill="#CACACA" d="M80.1,155.9H3.7c-2,0-3.7-1.7-3.7-3.7c0-2,1.7-3.7,3.7-3.7h76.4c2,0,3.7,1.7,3.7,3.7
		C83.8,154.2,82.1,155.9,80.1,155.9L80.1,155.9z"/>
	<path fill="#CACACA" d="M122.3,178H3.7c-2,0-3.7-1.7-3.7-3.7s1.7-3.7,3.7-3.7h118.7c2,0,3.7,1.7,3.7,3.7S124.4,178,122.3,178
		L122.3,178z"/>
	<polygon fill="#9F616A" points="456.7,539.8 447.1,539.8 442.6,503.1 456.7,503.1 	"/>
	<path fill="#2F2E41" d="M460.4,553.1H424v-0.5c0-7.8,6.4-14.2,14.2-14.2l0,0l6.6-5.1l12.4,5.1h3.2L460.4,553.1z"/>
	<path fill="#9F616A" d="M451.1,367.1l-4.2-51.3l-3.3-19.2l18.5-4.1l6.2,26.3l-5.3,49.6c2.9,3.7,2.5,9-1.2,12.1
		c-3.7,2.9-9,2.5-12.1-1.2c-2.9-3.7-2.5-9,1.2-12.1C450.9,367.2,451,367.2,451.1,367.1L451.1,367.1z"/>
	<polygon fill="#9F616A" points="406,539.8 396.5,539.8 392,503.1 406,503.1 	"/>
	<path fill="#2F2E41" d="M390.8,378.7l-4.2,7.3c0,0-4.6,1.3-3.1,16.4c1.5,15.1,1.6,104.8,8.9,115.8l1.3,9.5l13.9,1.3l0.4-8.4
		l16.6-116.8c0,0,9.8,114.7,17.8,117.5l2.9,9.6h12.7l-0.7-11.2l0.8-142.1L390.8,378.7z"/>
	<path fill="#E4E4E4" d="M386.1,385.5l-0.3-0.1c8.7-32.6,6.2-74.8,0.1-120.2V265l22.3-20.4h19.3l19.1,12.3
		c12.4,6.2,15.2,19.3,15.2,19.4v0.1l-7.5,26.5l5.7,76.6v0.1v0.1c-1.8,4.7-6.8,4.1-12.5,3.2c-5.7-0.7-26.9,6.3-33.3,6.3
		C401.4,389.3,387,385.7,386.1,385.5z"/>
	<path fill="#E4E4E4" d="M442.6,267.3l8.3-3.6l11,13.4l8.8,43l-30.4-4.6L442.6,267.3z"/>
	<path fill="#9F616A" d="M314.9,346.5l37.9-34.7l13.2-14.4l14.5,12.2l-17,21L321,356.8c-1.1,4.6-5.7,7.5-10.2,6.4
		c-4.6-1.1-7.5-5.7-6.4-10.2c1.1-4.6,5.7-7.5,10.2-6.4C314.6,346.5,314.7,346.5,314.9,346.5L314.9,346.5z"/>
	<path fill="#E4E4E4" d="M352,312.2l10.5-13.6c0.1-0.2,8.8-19.7,16.4-28.2c7.7-8.7,13.9-4.2,13.9-4.2l0.2,0.1l0.5,32.1l-29.1,34.8
		L352,312.2z"/>
	<circle fill="#9F616A" cx="415.9" cy="222.5" r="17.8"/>
	<path fill="#2F2E41" d="M399.7,219.9c0,0-0.2-6.3-0.9-9s-2.4-5.2-1.6-5.2c0.8,0,1.2-1.9,1.2-1.9s0.8-0.4,1.2,0
		c0.4,0.4,0.8-2.8,0.8-2.8s0.4-1.2,0.8-0.4s0.4,0.4,0.8-0.8c0.5-1.2,2.4-1.9,2.4-1.9s7.5,0.4,8.7-1.2c1.2-1.6,14.5-0.4,17.3,1.6
		c2.8,1.9,15,9,13,15c-2,6-7.6,19.5-9,20.9c-2.2,2.1-3.8,2.9-14.5,5.1c-2.1,0.4-12.7-6.4-12.7-7.5c0-1.2,1.3-5-0.7-5.4
		c-3.1-0.7-3.5,3.1-4.2,1.9C401.5,227,399.7,219.9,399.7,219.9z"/>
	<path fill="#2F2E41" d="M409.7,553.1h-36.4v-0.5c0-7.8,6.4-14.2,14.2-14.2l0,0l6.6-5.1l12.4,5.1h3.2L409.7,553.1z"/>
	<path fill="#CACACA" d="M598.9,553.7H3c-0.6,0-1.1-0.5-1.1-1.1c0-0.6,0.5-1.1,1.1-1.1l0,0h595.9c0.6,0,1.1,0.5,1.1,1.1
		C600,553.3,599.5,553.7,598.9,553.7z"/>
</g>
</svg>
