<?xml version="1.0" encoding="utf-8"?>
<!-- Generator: Adobe Illustrator 25.2.1, SVG Export Plug-In . SVG Version: 6.00 Build 0)  -->
<svg version="1.1" id="Camada_1" xmlns="http://www.w3.org/2000/svg" xmlns:xlink="http://www.w3.org/1999/xlink" x="0px" y="0px"
	 viewBox="0 0 600 600" enable-background="new 0 0 600 600" xml:space="preserve">
<path fill="#F2F2F2" d="M541.1,310.7c0.1,64.7-24.9,126.8-69.8,173.5c-2.7,2.9-5.5,5.6-8.3,8.3c-4.3,4.1-8.8,8.1-13.5,11.9
	c-43.3,35.7-97.4,55.7-153.5,56.9c-1.9,0-3.7,0.1-5.6,0.1c-44.8,0-101.1-23.9-152.1-56.9c-4.2-2.8-8.4-5.6-12.5-8.4
	c-1.9-1.3-3.8-2.7-5.8-4c-19.7-13.9-38.4-29.2-56-45.7c-11.5-10.8-22.3-22.3-32.2-34.5c-39.2-48.4-47.9-92.1,8-101
	c6.6-1.1,13-2.2,19.3-3.3c9-1.7,17.7-3.6,25.9-5.6c11.1-2.7,21.5-5.6,31.3-8.8c3.3-1.1,6.5-2.1,9.7-3.3
	c46.4-16.3,77.4-37.5,98.6-60.6c3.5-3.9,6.9-7.8,10-11.9c4.6-6.1,8.8-12.4,12.5-19.1c5.2-9.3,9.5-18.9,13-29l0.2-0.6
	c16.8-48.5,11.7-93.5,30.2-108.5c79.2-64.3,178,27.3,224.3,135.4c2.3,5.5,4.5,10.9,6.6,16.5c1,2.5,1.8,5,2.7,7.4
	c2.3,6.4,4.3,12.9,6.1,19.3c0.7,2.5,1.3,5,2,7.4c0.7,2.7,1.3,5.4,1.9,7.9C538.6,273.4,541.1,292.5,541.1,310.7z"/>
<path fill="#2F2E41" d="M296.1,561.2c-1.9,0-3.7,0.1-5.6,0.1c-44.8,0-101.1-23.9-152.1-56.9c-4.2-2.8-8.4-5.6-12.5-8.4l3.6-22.1
	l110.1-14.6l55.3,42.3L296.1,561.2z"/>
<path fill="#FFFFFF" d="M301.3,165.7h-15.7c-1.1,0-1.8,0.9-1.8,1.8v15.7c0,1.1,0.9,1.8,1.8,1.8l0,0h15.7c1.1,0,1.8-0.9,1.8-1.8
	v-15.7C303.2,166.5,302.4,165.7,301.3,165.7z"/>
<path fill="#E6E6E6" d="M301.3,192.5h-15.7c-1.1,0-1.8,0.9-1.8,1.8v15.7c0,1.1,0.9,1.8,1.8,1.8l0,0h15.7c1.1,0,1.8-0.9,1.8-1.8
	v-15.7C303.2,193.3,302.4,192.5,301.3,192.5z"/>
<path fill="#E6E6E6" d="M301.3,219.2h-15.7c-1.1,0-1.8,0.9-1.8,1.8v15.7c0,1.1,0.9,1.8,1.8,1.8l0,0h15.7c1.1,0,1.8-0.9,1.8-1.8
	v-15.6C303.2,220.1,302.4,219.2,301.3,219.2z"/>
<path fill="#E6E6E6" d="M303.2,247.6c-0.2-0.9-1-1.5-1.8-1.5h-15.7c-1.1,0-1.8,0.9-1.8,1.8v15.7c0,1.1,0.9,1.8,1.8,1.8l0,0h15.7
	c1.1,0,1.8-0.9,1.8-1.8v-15.7C303.2,247.8,303.2,247.7,303.2,247.6z"/>
<path fill="#E6E6E6" d="M302.1,272.9c-0.2-0.1-0.5-0.1-0.7-0.1h-15.7c-1.1,0-1.8,0.9-1.8,1.8l0,0v15.7c0,1.1,0.8,1.8,1.8,1.8l0,0
	h15.7c1.1,0,1.8-0.9,1.8-1.8v-15.7C303.2,273.9,302.8,273.2,302.1,272.9z"/>
<path fill="#E6E6E6" d="M334.4,165.7h-15.7c-1.1,0-1.8,0.9-1.8,1.8v15.7c0,1.1,0.9,1.8,1.8,1.8l0,0h15.7c1.1,0,1.8-0.9,1.8-1.8
	v-15.7C336.2,166.5,335.3,165.7,334.4,165.7z"/>
<path fill="#F26419" d="M334.4,192.5h-15.7c-1.1,0-1.8,0.9-1.8,1.8v15.7c0,1.1,0.9,1.8,1.8,1.8l0,0h15.7c1.1,0,1.8-0.9,1.8-1.8
	v-15.7C336.2,193.3,335.3,192.5,334.4,192.5z"/>
<path fill="#F26419" d="M334.4,219.2h-15.7c-1.1,0-1.8,0.9-1.8,1.8v15.7c0,1.1,0.9,1.8,1.8,1.8l0,0h15.7c1.1,0,1.8-0.9,1.8-1.8
	v-15.6C336.2,220.1,335.3,219.2,334.4,219.2z"/>
<path fill="#F26419" d="M334.4,246h-15.7c-0.8,0-1.5,0.5-1.7,1.2c-0.1,0.2-0.1,0.4-0.1,0.6v15.7c0,1.1,0.9,1.8,1.8,1.8l0,0h15.7
	c1.1,0,1.8-0.9,1.8-1.8v-15.7C336.2,246.9,335.3,246,334.4,246z"/>
<path fill="#E6E6E6" d="M334.4,272.8h-15.7c-1.1,0-1.8,0.9-1.8,1.8l0,0v15.7c0,1.1,0.9,1.8,1.8,1.8l0,0h15.7c1.1,0,1.8-0.9,1.8-1.8
	v-15.7C336.2,273.6,335.3,272.8,334.4,272.8z"/>
<path fill="#F26419" d="M367.4,165.7h-15.7c-1.1,0-1.8,0.9-1.8,1.8v15.7c0,1.1,0.9,1.8,1.8,1.8l0,0h15.7c1.1,0,1.8-0.9,1.8-1.8
	v-15.7C369.2,166.5,368.3,165.7,367.4,165.7z"/>
<path fill="#F26419" d="M367.4,192.5h-15.7c-1.1,0-1.8,0.9-1.8,1.8v15.7c0,1.1,0.9,1.8,1.8,1.8l0,0h15.7c1.1,0,1.8-0.9,1.8-1.8
	v-15.7C369.2,193.3,368.3,192.5,367.4,192.5z"/>
<path fill="#E6E6E6" d="M367.4,219.2h-15.7c-1.1,0-1.8,0.9-1.8,1.8v15.7c0,1.1,0.9,1.8,1.8,1.8l0,0h15.7c1.1,0,1.8-0.9,1.8-1.8
	v-15.6C369.2,220.1,368.3,219.2,367.4,219.2z"/>
<path fill="#F26419" d="M367.4,246h-15.7c-1.1,0-1.8,0.9-1.8,1.8v15.7c0,1.1,0.9,1.8,1.8,1.8l0,0h15.7c1.1,0,1.8-0.9,1.8-1.8v-15.7
	C369.2,246.9,368.3,246,367.4,246z"/>
<path fill="#F26419" d="M367.4,272.8h-15.7c-1.1,0-1.8,0.9-1.8,1.8l0,0v15.7c0,1.1,0.9,1.8,1.8,1.8l0,0h15.7c1.1,0,1.8-0.9,1.8-1.8
	v-15.7C369.2,273.6,368.3,272.8,367.4,272.8z"/>
<path fill="#F26419" d="M400.3,165.7h-15.7c-1.1,0-1.8,0.9-1.8,1.8v15.7c0,1.1,0.9,1.8,1.8,1.8l0,0h15.7c1.1,0,1.8-0.9,1.8-1.8
	v-15.7C402.1,166.5,401.3,165.7,400.3,165.7z"/>
<path fill="#FFFFFF" d="M400.3,192.5h-15.7c-1.1,0-1.8,0.9-1.8,1.8v15.7c0,1.1,0.9,1.8,1.8,1.8l0,0h15.7c1.1,0,1.8-0.9,1.8-1.8
	v-15.7C402.1,193.3,401.3,192.5,400.3,192.5z"/>
<path fill="#FFFFFF" d="M400.3,219.2h-15.7c-1.1,0-1.8,0.9-1.8,1.8v15.7c0,1.1,0.9,1.8,1.8,1.8l0,0h15.7c1.1,0,1.8-0.9,1.8-1.8
	v-15.6C402.1,220.1,401.3,219.2,400.3,219.2z"/>
<path fill="#E6E6E6" d="M400.3,246h-15.7c-1.1,0-1.8,0.9-1.8,1.8v15.7c0,1.1,0.9,1.8,1.8,1.8l0,0h15.7c1.1,0,1.8-0.9,1.8-1.8v-15.7
	C402.1,246.9,401.3,246,400.3,246z"/>
<path fill="#F26419" d="M400.3,272.8h-15.7c-1.1,0-1.8,0.9-1.8,1.8l0,0v15.7c0,1.1,0.9,1.8,1.8,1.8l0,0h15.7c1.1,0,1.8-0.9,1.8-1.8
	v-15.7C402.1,273.6,401.3,272.8,400.3,272.8z"/>
<path fill="#FFFFFF" d="M433.3,165.7h-15.7c-1.1,0-1.8,0.9-1.8,1.8v15.7c0,1.1,0.9,1.8,1.8,1.8h15.7c1.1,0,1.8-0.9,1.8-1.8v-15.7
	C435.1,166.5,434.3,165.7,433.3,165.7z"/>
<path fill="#FFFFFF" d="M433.3,192.5h-15.7c-1.1,0-1.8,0.9-1.8,1.8v15.7c0,1.1,0.9,1.8,1.8,1.8h15.7c1.1,0,1.8-0.9,1.8-1.8v-15.7
	C435.1,193.3,434.3,192.5,433.3,192.5z"/>
<path fill="#FFFFFF" d="M433.3,219.2h-15.7c-1.1,0-1.8,0.9-1.8,1.8v15.7c0,1.1,0.9,1.8,1.8,1.8l0,0h15.7c1.1,0,1.8-0.9,1.8-1.8
	v-15.6C435.1,220.1,434.3,219.2,433.3,219.2z"/>
<path fill="#F26419" d="M433.3,246h-15.7c-1.1,0-1.8,0.9-1.8,1.8v15.7c0,1.1,0.9,1.8,1.8,1.8l0,0h15.7c1.1,0,1.8-0.9,1.8-1.8v-15.7
	C435.1,246.9,434.3,246,433.3,246z"/>
<path fill="#E6E6E6" d="M433.3,272.8h-15.7c-1.1,0-1.8,0.9-1.8,1.8l0,0v15.7c0,1.1,0.9,1.8,1.8,1.8l0,0h15.7c1.1,0,1.8-0.9,1.8-1.8
	v-15.7C435.1,273.6,434.3,272.8,433.3,272.8z"/>
<path fill="#FFFFFF" d="M466.3,165.7h-15.7c-1.1,0-1.8,0.9-1.8,1.8v15.7c0,1.1,0.9,1.8,1.8,1.8h15.7c1.1,0,1.8-0.9,1.8-1.8v-15.7
	C468.1,166.5,467.3,165.7,466.3,165.7z"/>
<path fill="#FFFFFF" d="M466.3,192.5h-15.7c-1.1,0-1.8,0.9-1.8,1.8v15.7c0,1.1,0.9,1.8,1.8,1.8h15.7c1.1,0,1.8-0.9,1.8-1.8v-15.7
	C468.1,193.3,467.3,192.5,466.3,192.5z"/>
<path fill="#F26419" d="M466.3,219.2h-15.7c-1.1,0-1.8,0.9-1.8,1.8v15.7c0,1.1,0.9,1.8,1.8,1.8l0,0h15.7c1.1,0,1.8-0.9,1.8-1.8
	v-15.6C468.1,220.1,467.3,219.2,466.3,219.2z"/>
<path fill="#E6E6E6" d="M466.3,246h-15.7c-1.1,0-1.8,0.9-1.8,1.8v15.7c0,1.1,0.9,1.8,1.8,1.8l0,0h15.7c1.1,0,1.8-0.9,1.8-1.8v-15.7
	C468.1,246.9,467.3,246,466.3,246z"/>
<path fill="#FFFFFF" d="M466.3,272.8h-15.7c-1.1,0-1.8,0.9-1.8,1.8l0,0v15.7c0,1.1,0.9,1.8,1.8,1.8l0,0h15.7c1.1,0,1.8-0.9,1.8-1.8
	v-15.7C468.1,273.6,467.3,272.8,466.3,272.8z"/>
<path fill="#F26419" d="M499.2,165.7h-15.7c-1.1,0-1.8,0.9-1.8,1.8v15.7c0,1.1,0.9,1.8,1.8,1.8h15.7c1.1,0,1.8-0.9,1.8-1.8v-15.7
	C501.1,166.5,500.3,165.7,499.2,165.7z"/>
<path fill="#F26419" d="M499.2,192.5h-15.7c-1.1,0-1.8,0.9-1.8,1.8v15.7c0,1.1,0.9,1.8,1.8,1.8h15.7c1.1,0,1.8-0.9,1.8-1.8v-15.7
	C501.1,193.3,500.3,192.5,499.2,192.5z"/>
<path fill="#E6E6E6" d="M499.2,219.2h-15.7c-1.1,0-1.8,0.9-1.8,1.8v15.7c0,1.1,0.9,1.8,1.8,1.8l0,0h15.7c1.1,0,1.8-0.9,1.8-1.8
	v-15.6C501.1,220.1,500.3,219.2,499.2,219.2z"/>
<path fill="#FFFFFF" d="M499.2,246h-15.7c-1.1,0-1.8,0.9-1.8,1.8v15.7c0,1.1,0.9,1.8,1.8,1.8l0,0h15.7c1.1,0,1.8-0.9,1.8-1.8v-15.7
	C501.1,246.9,500.3,246,499.2,246z"/>
<path fill="#F26419" d="M499.2,272.8h-15.7c-1.1,0-1.8,0.9-1.8,1.8l0,0v15.7c0,1.1,0.9,1.8,1.8,1.8l0,0h15.7c1.1,0,1.8-0.9,1.8-1.8
	v-15.7C501.1,273.6,500.3,272.8,499.2,272.8z"/>
<path fill="#F26419" d="M532.3,165.7h-15.7c-1.1,0-1.8,0.9-1.8,1.8v15.7c0,1.1,0.9,1.8,1.8,1.8h15.7c1.1,0,1.8-0.9,1.8-1.8v-15.7
	C534.1,166.5,533.3,165.7,532.3,165.7z"/>
<path fill="#F26419" d="M532.3,192.5h-15.7c-1.1,0-1.8,0.9-1.8,1.8v15.7c0,1.1,0.9,1.8,1.8,1.8h15.7c1.1,0,1.8-0.9,1.8-1.8v-15.7
	C534.1,193.3,533.3,192.5,532.3,192.5z"/>
<path fill="#E6E6E6" d="M532.3,219.2h-15.7c-1.1,0-1.8,0.9-1.8,1.8v15.7c0,1.1,0.9,1.8,1.8,1.8l0,0h15.7c1.1,0,1.8-0.9,1.8-1.8
	v-15.6C534.1,220.1,533.3,219.2,532.3,219.2z"/>
<path fill="#F26419" d="M532.3,246h-15.7c-1.1,0-1.8,0.9-1.8,1.8v15.7c0,1.1,0.9,1.8,1.8,1.8l0,0h15.7c1.1,0,1.8-0.9,1.8-1.8v-15.7
	C534.1,246.9,533.3,246,532.3,246z"/>
<path fill="#F26419" d="M532.3,272.8h-15.7c-1.1,0-1.8,0.9-1.8,1.8l0,0v15.7c0,1.1,0.9,1.8,1.8,1.8l0,0h15.7c1.1,0,1.8-0.9,1.8-1.8
	v-15.7C534.1,273.6,533.3,272.8,532.3,272.8z"/>
<path fill="#E6E6E6" d="M565.3,165.7h-15.7c-1.1,0-1.8,0.9-1.8,1.8v15.7c0,1.1,0.9,1.8,1.8,1.8h15.7c1.1,0,1.8-0.9,1.8-1.8v-15.7
	C567.1,166.5,566.2,165.7,565.3,165.7z"/>
<path fill="#F26419" d="M565.3,192.5h-15.7c-1.1,0-1.8,0.9-1.8,1.8v15.7c0,1.1,0.9,1.8,1.8,1.8h15.7c1.1,0,1.8-0.9,1.8-1.8v-15.7
	C567.1,193.3,566.2,192.5,565.3,192.5z"/>
<path fill="#F26419" d="M565.3,219.2h-15.7c-1.1,0-1.8,0.9-1.8,1.8v15.7c0,1.1,0.9,1.8,1.8,1.8l0,0h15.7c1.1,0,1.8-0.9,1.8-1.8
	v-15.6C567.1,220.1,566.2,219.2,565.3,219.2z"/>
<path fill="#F26419" d="M565.3,246h-15.7c-1.1,0-1.8,0.9-1.8,1.8v15.7c0,1.1,0.9,1.8,1.8,1.8l0,0h15.7c1.1,0,1.8-0.9,1.8-1.8v-15.7
	C567.1,246.9,566.2,246,565.3,246z"/>
<path fill="#E6E6E6" d="M565.3,272.8h-15.7c-1.1,0-1.8,0.9-1.8,1.8l0,0v15.7c0,1.1,0.9,1.8,1.8,1.8l0,0h15.7c1.1,0,1.8-0.9,1.8-1.8
	v-15.7C567.1,273.6,566.2,272.8,565.3,272.8z"/>
<path fill="#E6E6E6" d="M598.2,165.7h-15.7c-1.1,0-1.8,0.9-1.8,1.8v15.7c0,1.1,0.9,1.8,1.8,1.8h15.7c1.1,0,1.8-0.9,1.8-1.8v-15.7
	C600,166.5,599.2,165.7,598.2,165.7z"/>
<path fill="#E6E6E6" d="M598.2,192.5h-15.7c-1.1,0-1.8,0.9-1.8,1.8v15.7c0,1.1,0.9,1.8,1.8,1.8h15.7c1.1,0,1.8-0.9,1.8-1.8v-15.7
	C600,193.3,599.2,192.5,598.2,192.5z"/>
<path fill="#F26419" d="M598.2,219.2h-15.7c-1.1,0-1.8,0.9-1.8,1.8v15.7c0,1.1,0.9,1.8,1.8,1.8l0,0h15.7c1.1,0,1.8-0.9,1.8-1.8
	v-15.6C600,220.1,599.2,219.2,598.2,219.2z"/>
<path fill="#E6E6E6" d="M598.2,246h-15.7c-1.1,0-1.8,0.9-1.8,1.8v15.7c0,1.1,0.9,1.8,1.8,1.8l0,0h15.7c1.1,0,1.8-0.9,1.8-1.8v-15.7
	C600,246.9,599.2,246,598.2,246z"/>
<path fill="#E6E6E6" d="M598.2,272.8h-15.7c-1.1,0-1.8,0.9-1.8,1.8l0,0v15.7c0,1.1,0.9,1.8,1.8,1.8l0,0h15.7c1.1,0,1.8-0.9,1.8-1.8
	v-15.7C600,273.6,599.2,272.8,598.2,272.8z"/>
<path fill="#2F2E41" d="M237.1,504.3h-0.4H237.1z"/>
<circle id="b6132315-04e2-4cdb-a713-107c9cd58b0b" fill="#FFB6B6" cx="199.6" cy="163.4" r="48.2"/>
<path id="f4304bdd-ba2d-4fff-b404-410205410c5d-230" fill="#2F2E41" d="M241.8,128c0,0,12.6-24.1-15.1-26.3c0,0-23.6-21.4-47.8-3.9
	c0,0-13.1,0-20.3,14.8c0,0-10.3-3.9-12.6,6.6c0,0-7.6,21.9,0,41.6s10,21.9,10,21.9s-12.4-41.3,17.8-43.5s64.1-21.1,66.6,3
	s6.3,30,6.3,30S270.8,137.9,241.8,128z"/>
<path fill="#CACACA" d="M324.2,282.2l-0.2,0.9l-1.7,9.2l-12,63.5l-0.7,3.7l-1.5,7.9l-2,10.8l-4.5,23.9l-1.3,6.9l-0.5,2.6l-0.2,0.9
	l-1.3,7.1l-0.4,2.1l-3.3,24.4l-2.9,21.2l9.6,9.6l-5.7,5.7l-3.7,21.5v0.1H138.4c-6.2-4-12.3-8.1-18.4-12.4l1.2-9.5
	c0,0,4.3-16.8,2.5-18.9c-1.8-2-5.8-5.6-5.8-5.6l5.1-11.8l0.7-1.6l-1.1-24.3v-0.6l-0.4-8l-0.1-1.1l-0.1-1.5l-1.5-30.8v-0.5l-0.5-9.4
	l-0.4-8.9l-0.2-3.7l-1.8-37.5l-1.2-25.5l-1.1-22.2l4.3-1.4l46.1-15.7l19.1-24.8l39.7,0.3l19.4,0.2l32.4,30.1l7.4,3.5h0.1l5.3,2.5
	l13.4,6.4l14.2,6.8l7.3,3.4L324.2,282.2z"/>
<path fill="#FFB6B6" d="M190,432.1c-11,4.3-23.3-1.2-27.7-12.2c-0.5-1.1-0.8-2.4-1.1-3.6l-75.1-10.6l26.1-29.6l67.4,14.6
	c11.8-1.5,22.5,6.8,24,18.6C204.9,419,199.2,428.5,190,432.1L190,432.1z"/>
<path fill="#CACACA" d="M156.4,378.3c-1.4-1.7-3.3-3-5.6-3.4l-30.8-6.4l-3.2-0.7c-3.7-0.8-6.9-3.1-8.8-6.4c-1-1.7-1.5-3.6-1.7-5.6
	c-0.2-1.8,0.1-3.5,0.7-5.3l10.7-32.2l6.9-20.9c0.9-2.5,1.3-5.2,1.4-7.8c0.4-7.4-1.9-14.5-6.4-20.4c-8.1-10.4-22.2-14.4-34.5-9.7
	c-0.2,0.1-0.4,0.1-0.6,0.2c-8.8,3.5-15.4,10.9-17.9,20l-7.6,27.4l-15.5,56.5c-5.9,21.7,6.8,44.1,28.5,50c2,0.6,4,1,6,1.1l44.4,5.2
	l20.6,2.4c5,0.6,9.5-2.7,10.4-7.6c0-0.1,0.1-0.3,0.1-0.4l0.5-3.1l4.2-25.6v-0.3C158.8,383.1,158.1,380.4,156.4,378.3z"/>
<path fill="#FFB6B6" d="M237.8,432.8c11.5,2.7,23-4.5,25.6-16c0.3-1.2,0.5-2.5,0.5-3.7l72.9-21.1l-30-25.5l-64.6,24
	c-11.9,0.2-21.3,10-21.1,21.8C221.2,422.1,228.1,430.6,237.8,432.8L237.8,432.8z"/>
<path fill="#CACACA" d="M373.1,344.7l-34.6-79.8c-2.9-6.5-7.9-11.9-14.3-15c-2-1-4-1.7-6.2-2.3c-0.3-0.1-0.7-0.2-1-0.2
	c-4.5-1-9.3-0.9-13.8,0.3c-8.3,2.1-15.3,7.8-19.3,15.3c0,0,0,0.1-0.1,0.1c-4.4,8.6-4.5,18.8-0.3,27.4l0.4,0.9l24.5,49.2
	c3.3,6.6,0.6,14.6-6,17.9c-0.5,0.2-1,0.4-1.4,0.6l-1.7,0.6l-30.9,11.2c-4.8,1.7-7.5,7-5.8,11.9l0.1,0.3l8.7,27.8
	c0,0.1,0.1,0.3,0.1,0.4c0.1,0.3,0.2,0.5,0.3,0.7c1.9,4.3,6.6,6.5,11.2,5.4l16.7-4.4l3.4-0.9l43.2-11.4c21.7-5.7,34.7-28,29-49.8
	C374.6,348.5,373.9,346.5,373.1,344.7L373.1,344.7z"/>
<path fill="#33658A" d="M31.8,411.7c10,12.2,20.8,23.7,32.2,34.5h318.8c6.4,0,11.6,5.2,11.6,11.6l0.5,80.8c19.6-9,38-20.5,54.6-34.3
	c4.6-3.8,9.1-7.8,13.5-11.9c2.9-2.7,5.6-5.5,8.3-8.3c20.3-21.1,36.7-45.6,48.5-72.4L31.8,411.7L31.8,411.7z"/>
<path fill="#FFFFFF" d="M471.3,484.1c-2.7,2.9-5.5,5.6-8.3,8.3h-67.8v-8.3H471.3z"/>
<path fill="#33658A" d="M323.6,219.2c-0.7-1.2-2-2-3.4-2H88.9c-2.2,0-3.9,1.7-3.9,3.9v138.4h239V221.2
	C324.1,220.5,323.9,219.8,323.6,219.2z"/>
<path fill="#33658A" d="M84.8,355.8v17c0,3,2.4,5.4,5.4,5.4l0,0h88.2v33.7h-1.1c-0.4,0-0.7,0.3-0.7,0.7l0,0v2.4
	c0,0.4,0.3,0.7,0.7,0.7l0,0H232c0.4,0,0.7-0.3,0.7-0.7l0,0v-2.4c0-0.4-0.3-0.7-0.7-0.7l0,0h-1.1v-33.7h88.2c3,0,5.4-2.4,5.4-5.4l0,0
	v-17H84.8z"/>
<circle fill="#F26419" cx="203.7" cy="284.7" r="22.1"/>
<path fill="#F26419" d="M258,160.8h-3.5c0-26.7-26.4-44.1-53-44.1c-3.8,0-7.8,0.4-11.6,1.1c-4.3,0.9-8.7,1.9-13.1,3.3
	c-17.2,5.3-33.1,15.5-33.1,39.8c0,4.7,0.6,9.5,1.8,14.1l-3.4,0.9c-1.2-4.9-1.9-9.9-1.9-14.9c0-21.2,8.7-35.9,23.8-44.6
	c7.9-4.6,17.6-7.6,28.7-9c4.6-0.6,9.3-0.8,14-0.4C237.3,108.9,258,132.4,258,160.8z"/>
<path fill="#F26419" d="M263.9,162.7l-1.4-10.2c-0.4-2.6-1.6-5-3.5-6.7c-2.5-2.3-5.9-3.3-9.4-2.8l-2.2,0.3c-1.2,0.2-2.3,0.8-3.1,1.8
	c-0.8,1-1.1,2.2-1,3.4l3.3,23.6c0.3,2,1.8,3.5,3.7,3.9c0.3,0.1,0.6,0.1,0.9,0.1c0.2,0,0.4,0,0.6,0l2.5-0.3c3.1-0.4,5.7-2,7.6-4.5
	c0.2-0.3,0.4-0.6,0.6-0.9C263.8,168,264.3,165.4,263.9,162.7z"/>
<path fill="#FFFFFF" d="M246,143.6c-0.7,0.3-1.2,0.8-1.6,1.3c-0.8,1-1.1,2.2-1,3.4l3.3,23.6c0.3,2,1.8,3.5,3.7,3.9L246,143.6z"/>
<path fill="#33658A" d="M263.9,162.7l-1.4-10.2c-0.4-2.6-1.6-5-3.5-6.7l3.2,23.5c0.1,0.4,0.2,0.8,0.3,1.1
	C263.8,168,264.3,165.4,263.9,162.7z"/>
<ellipse transform="matrix(0.9909 -0.1344 0.1344 0.9909 -19.9249 35.4026)" fill="#33658A" cx="252.2" cy="165.3" rx="1.7" ry="5"/>
<ellipse transform="matrix(0.9909 -0.1344 0.1344 0.9909 -18.2333 35.0036)" fill="#33658A" cx="250.1" cy="152.5" rx="1.7" ry="5"/>
<ellipse transform="matrix(0.9909 -0.1344 0.1344 0.9909 -18.768 36.8474)" fill="#33658A" cx="263.5" cy="157.4" rx="1.7" ry="5"/>
<path fill="#F26419" d="M156.5,185.3l-5.5-22.6c-0.4-1.6-1.7-3-3.4-3.3c-0.2,0-0.5-0.1-0.7-0.1c-0.3,0-0.7,0-1,0.1l-2.1,0.5
	c-5.6,1.3-9.1,7-7.8,12.6l2.4,10.1c0.6,2.4,1.9,4.5,3.7,6.1c0.3,0.3,0.7,0.5,1,0.7c2.4,1.5,5.3,2,8,1.3l2.1-0.5
	c0.6-0.1,1.1-0.4,1.5-0.7C156.3,188.6,156.9,186.9,156.5,185.3z"/>
<ellipse transform="matrix(0.9722 -0.234 0.234 0.9722 -37.248 38.5763)" fill="#33658A" cx="143.9" cy="176.3" rx="1.7" ry="5"/>
<ellipse transform="matrix(0.9722 -0.234 0.234 0.9722 -37.9389 36.9775)" fill="#33658A" cx="136.9" cy="178.4" rx="1.7" ry="5"/>
<path fill="#FFFFFF" d="M156.9,185.2l-5.5-22.6c-0.5-1.8-1.9-3.2-3.7-3.4L155,190C156.6,188.8,157.2,187,156.9,185.2z"/>
<path fill="#33658A" d="M137.2,168.2c-0.2-0.7-0.5-1.2-0.9-1.7c-0.8,2-0.9,4.1-0.4,6.2l2.4,10.1c0.6,2.4,1.9,4.5,3.7,6.1
	L137.2,168.2z"/>
</svg>
