<?xml version="1.0" encoding="utf-8"?>
<!-- Generator: Adobe Illustrator 25.2.1, SVG Export Plug-In . SVG Version: 6.00 Build 0)  -->
<svg version="1.1" id="Camada_1" xmlns="http://www.w3.org/2000/svg" xmlns:xlink="http://www.w3.org/1999/xlink" x="0px" y="0px"
	 viewBox="0 0 600 600" enable-background="new 0 0 600 600" xml:space="preserve">
<g>
	<path fill="#FFB6B6" d="M306.2,251.2c-0.4,0.3-1,0.6-1.3,1.1l-48.4-12.3l-3.3-11.7l-18.3,2.7l3.8,21.3c0.3,1.7,1.2,3.3,2.4,4.5
		c1.3,1.2,2.9,1.9,4.7,2.1l56.5,6c1,1.9,2.4,3.5,4.3,4.6c1.9,1.1,4,1.6,6.2,1.4c2.1-0.2,4.2-1,5.9-2.3c1.7-1.4,2.9-3.2,3.5-5.2
		c0.6-2,0.5-4.3-0.1-6.3c-0.6-2-2-3.8-3.7-5.1c-1.7-1.3-3.8-2-6-2.1C310.1,249.4,308,250,306.2,251.2L306.2,251.2z"/>
	<path fill="#E6E6E6" d="M231.6,241.4l12.6,10.7l17.5,15l7.7-39.5l0.9-4.2l0.6-3.3l-17.7-30.8l-14.8,0.9l-1,0.1v0.2l-0.2,2l-3,27.1
		l-0.1,0.6L231.6,241.4z"/>
	<path fill="#FFB6B6" d="M313.2,511.1h12.3l5.9-47.7h-18.2V511.1z"/>
	<path fill="#FFB6B6" d="M184.2,512.2h12.3l5.9-47.7h-18.2V512.2z"/>
	<path fill="#2F2E41" d="M174.3,491.2l33.2,5l48.4-163.7l51.4,164.7l37.2-5l-48.3-191.6v-15.1l-6.6-22.7l0.6-6.2l4.8-42.9l2-18.6
		l0.1-1.2c0.1-1-0.1-2-0.7-2.9c-0.6-0.9-1.5-1.4-2.4-1.6l-15.5-3.3h-25.3l-15,4.2l-1.1,0.3l-0.4,0.1l0.2,1.9l3.5,29.4l0.2,1.6
		l3.5,28.4l0.7,6.2c-29.3,21.2-30.2,42.4-30.2,42.4L174.3,491.2z"/>
	<path fill="#FFB6B6" d="M268.9,173.6c13.6,0,24.8-11.1,24.8-24.8c0-13.6-11.1-24.8-24.8-24.8c-13.6,0-24.8,11.1-24.8,24.8
		C244.2,162.6,255.3,173.6,268.9,173.6z"/>
	<path fill="#F26419" d="M243,252.7l-1,7l49,6.4l1-7L243,252.7z"/>
	<path fill="#FFB6B6" d="M361.8,253.2c-0.4,0.4-0.7,0.9-1.1,1.3l-50-0.3l-6-10.5l-17.1,7l8.8,19.7c0.7,1.6,1.9,2.9,3.4,3.7
		c1.5,0.9,3.3,1.2,5,1l56.3-7.8c1.4,1.7,3.2,2.9,5.2,3.5c2,0.6,4.3,0.5,6.3-0.1c2-0.6,3.8-2,5.1-3.7c1.3-1.7,2-3.8,2.1-6
		c0.1-2.1-0.5-4.3-1.6-6.1c-1.2-1.8-2.9-3.2-4.8-4c-2-0.9-4.2-1.1-6.3-0.6C365.2,250.7,363.3,251.7,361.8,253.2L361.8,253.2z"/>
	<path fill="#E6E6E6" d="M283.1,196l8.5-6.6c2.3-0.9,5.5,1.6,6.1,4l12.1,49.4l-25.2,18.1l-3.5-5.5L283.1,196z"/>
	<path fill="#2F2E41" d="M288,128.4c4.7-0.5,9.7-0.2,13.3,2.8c3.6,3,4.8,9,1.4,12.2c-3,2.8-7.8,2.1-11.8,3c-3.5,0.7-6.6,2.7-8.8,5.4
		c-2.2,2.8-3.5,6.2-3.6,9.8c0.1,10.2,9.9,18,11.7,28.1c1.2,6.9-1.7,14.2-6.7,19c-5,4.9-11.9,7.4-18.9,8.2c-6.9,0.7-14-0.4-20.8-2.1
		c-6.8-1.8-13.5-4.4-19.2-8.4c-5.7-4.2-10.3-9.9-12.2-16.7c-1.8-6.8-0.5-14.6,4.2-19.8c5.4-6,14.4-8,19-14.6
		c5.2-7.3,3.3-17.8,7.6-25.8c2.9-5.3,8.2-8.9,13.9-10.9c5.7-1.9,11.8-2.2,17.9-2.4c3.2-0.1,6.4-0.1,9.4,1.1c3,1.2,5.5,3.8,5.6,6.9
		C290,127.4,288,128.4,288,128.4z"/>
	<path fill="#2F2E41" d="M312.7,501l14.8-0.9v6.3l14,9.7c0.7,0.5,1.2,1.2,1.5,1.9c0.3,0.7,0.3,1.7,0,2.4c-0.2,0.9-0.7,1.5-1.4,2
		c-0.6,0.5-1.5,0.7-2.3,0.7h-17.6l-3.1-6.1l-1.2,6.3h-6.6L312.7,501z"/>
	<path fill="#2F2E41" d="M183.7,501l14.8-0.9v6.3l14,9.7c0.7,0.5,1.2,1.2,1.5,1.9c0.3,0.7,0.3,1.7,0,2.4c-0.2,0.9-0.7,1.5-1.4,2
		c-0.6,0.5-1.5,0.7-2.3,0.7h-17.6l-3-6.3l-1.2,6.3H182L183.7,501z"/>
	<g>
		<path fill="#27416D" d="M134,524.1H31.1c-1.8,0-3.6-0.7-4.9-2c-1.3-1.3-2-3.1-2-4.9V453c0-6.2,2.4-12,6.8-16.4s10.2-6.8,16.4-6.8
			H134c1.8,0,3.6,0.7,4.9,2c1.3,1.3,2,3.1,2,4.9v80.5c0,1.8-0.7,3.6-2,4.9C137.6,523.3,135.9,524.1,134,524.1z M47.4,431.7
			c-5.6,0-11,2.2-15,6.2c-3.9,3.9-6.2,9.4-6.2,15v64.3c0,1.3,0.5,2.6,1.5,3.5c1,1,2.1,1.5,3.5,1.5h102.9c1.3,0,2.6-0.5,3.5-1.5
			c1-1,1.5-2.1,1.5-3.5v-80.5c0-1.3-0.5-2.6-1.5-3.5c-1-1-2.1-1.5-3.5-1.5H47.4z"/>
		<path fill="#F26419" d="M50.8,434.3c-5.6,0-11.1,2.2-15.1,6.3c-4,4-6.3,9.4-6.3,15.1v58.9c0,1.4,0.5,2.7,1.5,3.5
			c1,1,2.2,1.5,3.5,1.5h96.1c1.4,0,2.7-0.5,3.5-1.5c1-1,1.5-2.2,1.5-3.5v-75.1c0-1.4-0.5-2.7-1.5-3.5c-1-1-2.2-1.5-3.5-1.5H50.8
			V434.3z"/>
		<path fill="#27416D" d="M89.9,453.5H75.7c-0.6,0-1.3-0.3-1.8-0.7c-0.4-0.4-0.7-1.1-0.7-1.8v-23.2h19.3V451c0,0.6-0.3,1.3-0.7,1.8
			C91.3,453.3,90.7,453.5,89.9,453.5z"/>
		<path fill="#27416D" d="M55.9,504.8H28.5c-0.3,0-0.5-0.1-0.7-0.3s-0.3-0.4-0.3-0.7s0.1-0.5,0.3-0.7c0.2-0.2,0.4-0.3,0.7-0.3h27.4
			c0.3,0,0.5,0.1,0.7,0.3c0.2,0.2,0.3,0.4,0.3,0.7s-0.1,0.5-0.3,0.7C56.4,504.7,56.1,504.8,55.9,504.8z"/>
	</g>
	<g>
		<path fill="#27416D" d="M74.4,428.5c-0.7-0.7-1.3-1.9-1.3-3v-48.8c0-1.2,0.4-2.2,1.3-3c0.7-0.7,1.8-1.3,3-1.3h52.6
			c3.7,0,7.3,1.5,10,4.2c2.7,2.7,4.2,6.3,4.2,10v39c0,1.2-0.4,2.2-1.3,3c-0.7,0.7-1.8,1.3-3,1.3H77.4
			C76.3,429.7,75.2,429.3,74.4,428.5z M77.4,373.7c-0.7,0-1.6,0.3-2.1,0.9s-0.9,1.3-0.9,2.1v48.8c0,0.7,0.3,1.6,0.9,2.1
			s1.3,0.9,2.1,0.9h62.5c0.7,0,1.6-0.3,2.1-0.9s0.9-1.3,0.9-2.1v-39c0-3.4-1.4-6.7-3.7-9.2c-2.4-2.4-5.6-3.7-9.2-3.7L77.4,373.7
			L77.4,373.7z"/>
		<path fill="#B5B5B5" d="M79.5,375.2c-0.9,0-1.6,0.3-2.1,0.9c-0.5,0.5-0.9,1.4-0.9,2.1v45.7c0,0.9,0.3,1.6,0.9,2.1
			c0.5,0.5,1.4,0.9,2.1,0.9h58.3c0.9,0,1.6-0.3,2.1-0.9s0.9-1.4,0.9-2.1v-35.8c0-3.4-1.4-6.7-3.8-9.2c-2.4-2.4-5.7-3.8-9.2-3.8H79.5
			V375.2z"/>
		<path fill="#27416D" d="M103,386.5c-0.3-0.3-0.4-0.6-0.4-1.1v-14.2h11.7v14.2c0,0.4-0.2,0.7-0.4,1.1c-0.3,0.3-0.6,0.4-1.1,0.4
			h-8.6C103.8,386.9,103.3,386.7,103,386.5z"/>
		<path fill="#27416D" d="M124.4,417.9c-0.1-0.1-0.2-0.3-0.2-0.4c0-0.2,0.1-0.3,0.2-0.4c0.1-0.1,0.3-0.2,0.4-0.2h16.6
			c0.2,0,0.3,0.1,0.4,0.2c0.1,0.1,0.2,0.3,0.2,0.4c0,0.2-0.1,0.3-0.2,0.4c-0.1,0.1-0.3,0.2-0.4,0.2h-16.6
			C124.7,418,124.5,418,124.4,417.9z"/>
	</g>
	<path fill="#CCCCCC" d="M600,522.4H0v2h599.9v-2H600z"/>
	<path fill="#27416D" d="M366.4,201.8c3.8,0,7.4,1.5,10.1,4.3c2.7,2.7,4.3,6.4,4.3,10.1v33c0,1.1-0.4,2-1.2,2.8
		c-0.7,0.7-1.7,1.2-2.8,1.2h-56.1c-1.1,0-2-0.4-2.8-1.2c-0.7-0.7-1.2-1.7-1.2-2.8v-43.4c0-1.1,0.4-2,1.2-2.8
		c0.7-0.7,1.7-1.2,2.8-1.2H366.4z"/>
	<path fill="#27416D" d="M318.1,256.6h61.5c1.5,0,2.9-0.5,3.8-1.6c1.1-1.1,1.6-2.4,1.6-3.8v-37.1c0-4.3-1.7-8.3-4.7-11.3
		c-3-3-7-4.7-11.3-4.7H318c-1.5,0-2.9,0.5-3.8,1.6c-1.1,1.1-1.6,2.4-1.6,3.8v47.7c0,1.5,0.5,2.9,1.6,3.8
		C315.2,256.1,316.6,256.6,318.1,256.6z M369.2,199.7c3.8,0,7.4,1.5,10.2,4.3c2.7,2.7,4.3,6.4,4.3,10.2v37.1c0,1.1-0.4,2-1.2,2.8
		c-0.7,0.7-1.7,1.2-2.8,1.2h-61.5c-1.1,0-2-0.4-2.8-1.2c-0.7-0.7-1.2-1.7-1.2-2.8v-47.7c0-1.1,0.4-2,1.2-2.8
		c0.7-0.7,1.7-1.2,2.8-1.2H369.2z"/>
	<path fill="#F26419" d="M360.1,240.1h21c0.2,0,0.4-0.1,0.5-0.2c0.1-0.1,0.2-0.3,0.2-0.5c0-0.2-0.1-0.4-0.2-0.5
		c-0.1-0.1-0.3-0.2-0.5-0.2h-21c-0.2,0-0.4,0.1-0.5,0.2c-0.1,0.1-0.2,0.3-0.2,0.5c0,0.2,0.1,0.4,0.2,0.5
		C359.7,240,359.9,240.1,360.1,240.1z"/>
	<path fill="#F26419" d="M344.7,212.9h8c0.5,0,1-0.2,1.4-0.5c0.3-0.3,0.5-0.9,0.5-1.4v-13.8h-11.8V211c0,0.5,0.2,1,0.5,1.4
		C343.7,212.8,344.2,212.9,344.7,212.9z"/>
	<g>
		<path fill="#FFB7B7" d="M410.7,259.4c0.7-1.2,1.8-2.2,3-3c1.2-0.7,2.6-1.3,3.9-1.5c1.4-0.2,2.9-0.1,4.3,0.2
			c1.4,0.4,2.7,1.1,3.7,1.9c0.3,0.3,0.6,0.6,1,1l39.8-5.7l2.2-30c0.2-2.3,1.3-4.5,3-6c1.7-1.5,4-2.2,6.3-2.1c2.3,0.2,4.5,1.3,6,3
			c1.5,1.7,2.2,4,2.1,6.3c0,0.1,0,0.1,0,0.2l-3.8,42v0.1c-0.5,1.6-1.5,3-2.9,4c-1.4,1-3,1.5-4.7,1.5l-46.8-0.9
			c-0.2,0.3-0.4,0.5-0.6,0.9c-0.9,1.1-2,2-3.3,2.7c-1.3,0.6-2.7,1-4.2,1.1c-1.4,0.1-2.9-0.2-4.2-0.7s-2.6-1.4-3.5-2.3
			c-0.2-0.2-0.4-0.4-0.5-0.6c-1.4-1.7-2.1-3.7-2.2-5.9C409,263.3,409.5,261.2,410.7,259.4z"/>
		<path fill="#FFB7B7" d="M491,514.8h-11.4l-5.4-43.8H491V514.8z"/>
		<path fill="#2F2E41" d="M493.9,525.8h-36.6v-0.4c0-3.8,1.5-7.4,4.2-10.1s6.3-4.2,10.1-4.2l0,0h22.3V525.8z"/>
		<path fill="#FFB7B7" d="M570.4,504.5l-10.7,3.6l-19.3-39.7l15.9-5.4L570.4,504.5z"/>
		<path fill="#2F2E41" d="M576.7,514l-34.6,11.8l-0.1-0.4c-1.2-3.6-1-7.4,0.7-10.9c1.7-3.4,4.6-6,8.2-7.2l0,0l21.2-7.2L576.7,514z"
			/>
		<path fill="#2F2E41" d="M503.6,131.6c0,0-11.3-3.7-18.6,11.2c-7.2,14.9-18.6,31.4-18.6,31.4l6.5,1.5c0,0,1.6-10.4,5.6-11.9
			l-1.6,13.4c0,0,48.4,15.6,70.2-1.5l-0.9-5.2c0,0,3.2,0.7,3.2,5.2l2.4-2.2c0,0-2.4-4.5-9.7-10.4c-4.8-3.9-6.4-11.4-7-16.1
			c-0.4-3.9-2.1-7.7-4.8-10.5C525.7,131.2,516.9,125.6,503.6,131.6z"/>
		<path fill="#FFB7B7" d="M507.7,183.8c11.4,0,20.6-9.3,20.6-20.6s-9.3-20.6-20.6-20.6s-20.6,9.3-20.6,20.6
			C487.1,174.6,496.3,183.8,507.7,183.8z"/>
		<path fill="#CBCBCB" d="M480.2,200.8l-3.7-1.3c0,0-7.6,3.1-7.6,8.7c0,5.6-1.3,28.2-1.3,28.2l16.9,1.9L480.2,200.8z"/>
		<path fill="#FFB7B7" d="M547.4,323.9c-1.6-1.7-2.4-4-2.4-6.3c0-2.3,0.7-4.6,2.2-6.4l-10.5-88.3c-0.1-2.1,0.6-4.2,2-5.6
			c1.4-1.6,3.4-2.4,5.4-2.6c2.1-0.1,4.2,0.6,5.6,2c1.6,1.4,2.4,3.3,2.6,5.4v0.1l9.5,88.4c0.3,0.3,0.6,0.7,1,1.1
			c0.7,1.1,1.3,2.2,1.6,3.5s0.3,2.6,0.1,3.8c-0.2,1.3-0.6,2.4-1.4,3.6c-0.6,1.1-1.6,2-2.7,2.8c-0.1,0.1-0.2,0.1-0.3,0.2
			c-1.2,0.9-2.6,1.3-4,1.5c-1.5,0.2-2.9,0.1-4.3-0.3C550.2,326.3,548.6,325.3,547.4,323.9z"/>
		<path fill="#CBCBCB" d="M537.7,236.5l16.9-1.9c0,0-1.3-22.6-1.3-28.2s-7.6-8.7-7.6-8.7l-3.7,1.3L537.7,236.5z"/>
		<path fill="#2F2E41" d="M482.7,267.7c0,0-14.4,26.3-14.4,58.2s-1.3,178.4-1.3,178.4s18.7,8.7,30-1.9l10-162.1l39.5,159
			c0,0,18.7,3.7,27.6-2.6l-16.9-110.8c0,0-6.9-103.9-25.6-111.4C512.7,267.2,482.7,267.7,482.7,267.7z"/>
		<path fill="#2F2E41" d="M485.4,163.3c7.3-5.3,13.2-11.4,17.1-18.6c0,0,13.4,14.9,21.6,15.6c8.2,0.7,0.7-17.9,0.7-17.9l-14.9-3.7
			l-14.2,1.5l-11.2,7.4L485.4,163.3z"/>
		<path fill="#CBCBCB" d="M528.4,194c0,0,0.6-0.3-35,1l-14.9,4.2l-2,0.5c0,0,1.9,37.6,6.9,44.5c2.8,3.8,3.7,15.5,1.9,16.9
			c-2.6,1.9-3.7,8.7-3.7,8.7l55.1,7.6c0,0,1.9-24.4,6.9-36.9c5-12.6,6.3-17.6,6.3-17.6l-3.7-25L528.4,194z"/>
	</g>
</g>
</svg>
