<?xml version="1.0" encoding="utf-8"?>
<!-- Generator: Adobe Illustrator 23.1.1, SVG Export Plug-In . SVG Version: 6.00 Build 0)  -->
<svg version="1.1" id="Layer_1" xmlns="http://www.w3.org/2000/svg" xmlns:xlink="http://www.w3.org/1999/xlink" x="0px" y="0px"
	 viewBox="0 0 1667 733" enable-background="new 0 0 1667 733" xml:space="preserve">
<g>
	<g id="XMLID_150_">
		<g id="XMLID_66_">
			<g id="XMLID_95_">
				<polygon fill="#010A43" points="550.7,230.8 300,366.9 300,638.9 300,638.9 300,366.9 49.3,230.8 299.9,95 300,94.9 				"/>
				<polygon fill="#FFE1E1" points="300,366.9 300,638.9 125.7,544.4 49.3,503 49.3,230.9 				"/>
				<polygon fill="#C6C6C6" points="87.7,272.8 280.6,374.7 280.2,587.1 87.7,482.2 				"/>
				<polyline id="XMLID_55_" fill="#878787" points="68.7,492.4 280.6,374.7 280.6,607.3 				"/>
				<polyline fill="#010A43" points="280.6,607.3 280.6,607.3 280.6,607.3 133.4,527.5 68.7,492.4 68.7,262.4 87.6,272.7 
					87.6,482.1 87.6,482.1 140.7,511 280.6,587.3 				"/>
			</g>
		</g>
	</g>
	<path fill="#F58B1F" d="M87.7,482.2"/>
	<polygon fill="#2D2C2C" points="280.6,607.3 280.6,607.3 133.4,527.5 	"/>
	<polygon id="XMLID_8_" fill="#FFE1E1" points="550.7,230.8 550.7,502.9 474.3,544.4 300.1,638.9 300.1,638.9 300.1,366.9 	"/>
	<polyline fill="#FF2E63" points="319.5,587.3 319.4,374.7 512.5,272.7 512.4,482.2 	"/>
	<polyline fill="#010A43" points="319.5,587.3 459.4,511 512.4,482.1 512.5,482.1 512.5,272.7 531.3,262.4 531.3,492.4 466.7,527.5 
		319.4,607.3 	"/>
	<polygon fill="#010A43" points="319.5,587.3 319.5,607.3 531.3,492.4 512.5,482.2 512.4,482.2 459.4,511 	"/>
	<polygon fill="#010A43" points="319.9,398.3 504.3,297.8 504.3,288.7 319.9,389.2 	"/>
	<polygon fill="#010A43" points="319.9,413.9 504.3,313.4 504.3,304.3 319.9,404.8 	"/>
	<polygon fill="#010A43" points="319.9,429.5 504.3,329 504.3,319.9 319.9,420.4 	"/>
	<polygon fill="#010A43" points="319.9,445.1 504.3,344.6 504.3,335.5 319.9,436 	"/>
	<polygon fill="#010A43" points="319.9,460.7 504.3,360.2 504.3,351.2 319.9,451.6 	"/>
	<polygon fill="#010A43" points="319.9,476.3 504.3,375.8 504.3,366.8 319.9,467.3 	"/>
	<polygon fill="#010A43" points="319.9,491.9 504.3,391.4 504.3,382.4 319.9,482.9 	"/>
	<polygon fill="#010A43" points="319.9,507.5 504.3,407.1 504.3,398 319.9,498.5 	"/>
	<polygon fill="#010A43" points="319.9,523.2 504.3,422.7 504.3,413.6 319.9,514.1 	"/>
	<polygon fill="#010A43" points="319.9,538.8 504.3,438.3 504.3,429.2 319.9,529.7 	"/>
	<polygon fill="#010A43" points="319.9,554.4 504.3,453.9 504.3,444.8 319.9,545.3 	"/>
	<polygon fill="#010A43" points="319.9,570 504.3,469.5 504.3,460.4 319.9,560.9 	"/>
	<polygon fill="#FF2E63" points="550.7,230.8 300,366.8 49.3,230.8 300,349.6 	"/>
	<polygon fill="#FF2E63" points="49.3,230.8 300.1,94.9 550.7,230.8 300.1,112.1 	"/>
	<g>
		<g>
			<g enable-background="new    ">
				<g>
					<polygon fill="#DCDCDC" points="400.8,178 382.4,188.2 326.2,158.4 352,144.1 					"/>
				</g>
				<g>
					<path fill="#DCDCDC" d="M399.2,187.8c7.2-4,18.5-3.9,24.9-0.1c6.5,3.9,5.6,10.3-1.4,14.2c-7.1,3.9-18.2,4-24.8,0
						C391.5,198,392.2,191.6,399.2,187.8z"/>
				</g>
				<g>
					<path fill="#DCDCDC" d="M275,186.1c26-14.4,64.3-14.3,88.5,0.4c24,14.6,22.3,36.7-3.7,51.2c-17,9.4-39.2,12.7-59.2,9.7
						c-10.6-1.6-20.6-4.9-29-9.9c-2.1-1.3-4-2.6-5.7-3.9C247.9,218.9,251.2,199.3,275,186.1z M339.3,225.2
						c13.3-7.4,13.9-18.8,1.5-26.3c-12.5-7.6-32.2-7.8-45.5-0.4c-13.3,7.4-13.9,18.8-1.4,26.4C306.3,232.4,326.1,232.5,339.3,225.2"
						/>
				</g>
			</g>
			<g>
				<path fill="#DCDCDC" d="M197.7,229.2c10.8-5.8,27.4-10,40.5-10.1l4,16.7c-8.9,0-18.3,2.1-24.4,5.5c-12.4,6.9-13.6,19-1.1,26.5
					c11.3,6.9,31.7,8.3,47.2-0.2c10.1-5.6,12.6-12.5,5.2-17.3l-11.9,6.6l4.9,3l-23.7-1.6l-0.6-4.7l-0.5-4.3l-0.6-4.8l4.4,2.7
					l24.8-13.7c1.7,1.4,3.6,2.7,5.7,3.9c8.3,5.1,18.3,8.4,29,9.9c5.1,11.6-1.7,23.9-17.8,32.8c-26.6,14.7-65.7,14.3-88.7,0.3
					S171.8,243.6,197.7,229.2z"/>
			</g>
		</g>
	</g>
	<polygon fill="#FF2E63" points="87.7,272.8 280.6,374.7 280.2,587.1 87.7,482.2 	"/>
	<polygon fill="#010A43" points="280.2,398.3 95.7,297.8 95.7,288.7 280.2,389.2 	"/>
	<polygon fill="#010A43" points="280.2,413.9 95.7,313.4 95.7,304.3 280.2,404.8 	"/>
	<polygon fill="#010A43" points="280.2,429.5 95.7,329 95.7,320 280.2,420.5 	"/>
	<polygon fill="#010A43" points="280.2,445.1 95.7,344.6 95.7,335.6 280.2,436.1 	"/>
	<polygon fill="#010A43" points="280.2,451.7 280.2,460.8 95.8,360.3 95.8,351.2 	"/>
	<polygon fill="#010A43" points="280.2,467.3 280.2,476.3 95.8,375.9 95.8,366.8 	"/>
	<polygon fill="#010A43" points="280.2,482.9 280.2,492 95.8,391.5 95.8,382.4 	"/>
	<polygon fill="#010A43" points="280.2,498.6 280.2,507.6 95.8,407.1 95.8,398.1 	"/>
	<polygon fill="#010A43" points="280.2,514.1 280.2,523.2 95.8,422.7 95.8,413.6 	"/>
	<polygon fill="#010A43" points="280.2,529.7 280.2,538.8 95.8,438.3 95.8,429.2 	"/>
	<polygon fill="#010A43" points="280.2,545.4 280.2,554.4 95.8,453.9 95.8,444.9 	"/>
	<polygon fill="#010A43" points="280.2,561 280.2,570 95.8,469.5 95.8,460.5 	"/>
</g>
<g>
	<g>
		<path fill="#010A43" d="M1071,374.4c0,121.9-92,200.7-205.9,200.7c-127.3,0-223.6-95-223.6-209.4S737.9,155,862.3,155
			c51,0.7,109.9,22.4,143,53l-58.9,80.8c-22.4-20.9-54.5-34.3-84.1-34.3c-59.7,0-112.2,49-112.2,110.9c0,56.2,45,110.9,119.1,110.9
			c48.5,0,83.1-23.4,84.6-61.7H862v-79.3h205.7C1069.7,348.7,1071,361.7,1071,374.4z"/>
		<path fill="#010A43" d="M1022.8,365.6c0-120.4,95.5-211.7,220.1-211.7S1463,245.3,1463,365.6c0,119.4-95.5,210.2-220.4,210.2
			C1118,575.8,1022.8,485,1022.8,365.6z M1355.3,364.9c0-61.9-48.7-109.7-112.4-109.7s-112.4,47.8-112.4,109.7
			c0,61.7,48.7,109.2,112.4,109.2S1355.3,426.6,1355.3,364.9z"/>
		<path fill="#010A43" d="M1483.5,164.7h123.4l-17.2,260.9h-88.3L1483.5,164.7z M1483.5,521.1c0-31.8,28.4-57.5,61.7-57.5
			c34.3,0,62.7,27.1,62.7,58.7c0,32.1-28.4,57.5-62.2,57.5C1511.6,579.8,1483.5,553.7,1483.5,521.1z"/>
	</g>
</g>
</svg>
