<?xml version="1.0" encoding="utf-8"?>
<!-- Generator: Adobe Illustrator 25.2.1, SVG Export Plug-In . SVG Version: 6.00 Build 0)  -->
<svg version="1.1" id="Camada_1" xmlns="http://www.w3.org/2000/svg" xmlns:xlink="http://www.w3.org/1999/xlink" x="0px" y="0px"
	 viewBox="0 0 767.4 747.1" enable-background="new 0 0 767.4 747.1" xml:space="preserve">
<path id="b3ac2088-de9b-4f7f-bc99-0ed9705c1a9d-35" fill="#33658A" d="M542.3,177h-4.1V64.9c0-35.8-29-64.9-64.9-64.9H235.9
	C200,0,171,29,171,64.9v615c0,35.8,29,64.9,64.9,64.9h237.5c35.8,0,64.9-29,64.9-64.9V256.8h4.1L542.3,177z"/>
<path id="b2715b96-3117-487c-acc0-20904544b5b7-36" fill="#FFFFFF" d="M476,16.9h-31c4.8,11.8-0.8,25.2-12.6,30
	c-2.8,1.1-5.7,1.7-8.7,1.7H287.6c-12.7,0-23-10.3-23-23c0-3,0.6-5.9,1.7-8.7h-29c-26.8,0-48.5,21.7-48.5,48.5l0,0v614.1
	c0,26.8,21.7,48.5,48.5,48.5H476c26.8,0,48.5-21.7,48.5-48.5l0,0V65.3C524.4,38.6,502.7,16.9,476,16.9z"/>
<path id="b06d66ec-6c84-45dd-8c27-1263a6253192-37" fill="#6D6D6D" d="M326.2,261.5c0-8.7,4.7-16.8,12.2-21.2
	c-11.7-6.8-26.6-2.7-33.4,8.9c-6.8,11.7-2.7,26.6,8.9,33.4c7.6,4.4,16.9,4.4,24.5,0C330.9,278.3,326.2,270.2,326.2,261.5z"/>
<path id="e73810fe-4cf4-40cc-8c7c-ca544ce30bd4-38" fill="#6D6D6D" d="M357,261.5c0-8.7,4.7-16.8,12.2-21.2
	c-11.7-6.8-26.6-2.7-33.4,8.9c-6.8,11.7-2.7,26.6,8.9,33.4c7.6,4.4,16.9,4.4,24.5,0C361.6,278.3,357,270.2,357,261.5z"/>
<circle id="a4813fcf-056e-4514-bb8b-e6506f49341f" fill="#F26419" cx="387" cy="261.5" r="24.5"/>
<path id="bbe451c3-febc-41ba-8083-4c8307a2e73e-39" fill="#6D6D6D" d="M427.9,337.9H285.4c-2.8,0-5.1-2.3-5.1-5.1V190.3
	c0-2.8,2.3-5.1,5.1-5.1h142.5c2.8,0,5.1,2.3,5.1,5.1v142.5C433,335.6,430.7,337.9,427.9,337.9z M285.4,187.2c-1.7,0-3.1,1.4-3.1,3.1
	v142.5c0,1.7,1.4,3.1,3.1,3.1h142.5c1.7,0,3.1-1.4,3.1-3.1V190.3c0-1.7-1.4-3.1-3.1-3.1H285.4z"/>
<rect id="bb28937d-932f-4fdf-befe-f406e51091fe" x="241.1" y="447.1" fill="#6D6D6D" width="218.6" height="2"/>
<circle id="fcef55fc-4968-45b2-93bb-1a1080c85fc7" fill="#F26419" cx="248" cy="427.4" r="6.9"/>
<rect id="ff33d889-4c74-4b91-85ef-b4882cc8fe76" x="241.1" y="516.1" fill="#6D6D6D" width="218.6" height="2"/>
<circle id="e8fa0310-b872-4adf-aedd-0c6eda09f3b8" fill="#F26419" cx="248" cy="496.4" r="6.9"/>
<path fill="#F26419" d="M455.7,594.7h-69.1c-2.5,0-4.5-2-4.5-4.5V566c0-2.5,2-4.5,4.5-4.5h69.1c2.5,0,4.5,2,4.5,4.5v24.2
	C460.2,592.7,458.2,594.7,455.7,594.7z"/>
<circle id="e12ee00d-aa4a-4413-a013-11d20b7f97f7" fill="#F26419" cx="270.6" cy="427.4" r="6.9"/>
<circle id="f58f497e-6949-45c8-be5f-eee2aa0f6586" fill="#F26419" cx="293.1" cy="427.4" r="6.9"/>
<circle id="b4d4939a-c6e6-4f4d-ba6c-e8b05485017d" fill="#F26419" cx="270.6" cy="496.4" r="6.9"/>
<circle id="aff120b1-519b-4e96-ac87-836aa55663de" fill="#F26419" cx="293.1" cy="496.4" r="6.9"/>
<path id="f1094013-1297-477a-ac57-08eac07c4bd5-40" fill="#33658A" d="M764.5,747.1H3c-1.6,0-3-0.5-3-1.2s1.3-1.2,3-1.2h761.5
	c1.6,0,3,0.5,3,1.2S766.1,747.1,764.5,747.1z"/>
<path fill="#FFB8B8" d="M587.3,489.5c0.5,0.2,1,0.5,1.4,0.8l44.9-19.1l1.6-11.8l17.9-0.1l-1.1,27.1l-59.2,15.7
	c-0.1,0.4-0.3,0.8-0.4,1.2c-2.4,5.1-8.5,7.3-13.6,4.9c-5.1-2.4-7.3-8.5-4.9-13.6C576.2,489.4,582.2,487.2,587.3,489.5z"/>
<polygon fill="#FFB8B8" points="659.6,735 647.3,735 641.5,687.7 659.6,687.7 "/>
<path fill="#2F2E41" d="M638.5,731.5h23.6l0,0v14.9l0,0h-38.5l0,0l0,0C623.7,738.2,630.3,731.5,638.5,731.5z"/>
<polygon fill="#FFB8B8" points="707.2,731.6 695,732.8 684.6,686.3 702.6,684.5 "/>
<path fill="#2F2E41" d="M686,730.1l23.5-2.3l0,0l1.5,14.8l0,0l-38.3,3.8l0,0l0,0C671.8,738.2,677.8,730.9,686,730.1z"/>
<circle fill="#FFB8B8" cx="663" cy="384.6" r="24.6"/>
<path fill="#2F2E41" d="M644.6,725.5c-2.2,0-4-1.6-4.4-3.7c-6.3-35.2-27.1-150.4-27.6-153.6c0-0.1,0-0.1,0-0.2v-8.6
	c0-0.3,0.1-0.6,0.3-0.9l2.7-3.8c0.3-0.4,0.7-0.6,1.1-0.6c15.6-0.7,66.8-2.9,69.3,0.2l0,0c2.5,3.1,1.6,12.5,1.4,14.4l0,0.2l23,147
	c0.4,2.4-1.3,4.7-3.7,5.1l-14.4,2.4c-2.2,0.4-4.3-1-5-3.1c-4.4-14.2-19.3-61.9-24.5-80.4c-0.1-0.3-0.3-0.4-0.6-0.3
	c-0.2,0.1-0.4,0.3-0.4,0.5c0.3,17.6,0.9,62.5,1.1,78l0,1.7c0,2.3-1.8,4.3-4.1,4.5l-13.8,1.3C644.8,725.5,644.7,725.5,644.6,725.5z"
	/>
<path id="ae7af94f-88d7-4204-9f07-e3651de85c05-41" fill="#F26419" d="M647.4,418.8c-4.3,2.5-6.9,7.2-8.3,12
	c-2.7,8.8-4.4,17.9-4.9,27.2l-1.6,27.6l-19.3,73.2c16.7,14.1,26.3,10.9,48.8-0.6s25,3.9,25,3.9l4.5-62.3l6.4-68
	c-1.4-1.7-3.1-3.3-4.9-4.7c-12-9.3-27.7-12.7-42.4-9L647.4,418.8z"/>
<path fill="#FFB8B8" d="M641.1,504.2c0.5,0.2,1,0.4,1.5,0.7l44.3-22.2l0.7-12l18.3-1.3l1,27.4l-59.3,19.6c-1.3,5.6-7,9.2-12.6,7.8
	c-5.6-1.3-9.2-7-7.8-12.6c1.3-5.6,7-9.2,12.6-7.8C640.3,504,640.7,504.1,641.1,504.2L641.1,504.2z"/>
<path id="a6768b0e-63d0-4b31-8462-9b2e0b00f0fd-42" fill="#F26419" d="M697.8,432c10.9,3.9,12.8,45.6,12.8,45.6
	c-12.8-7.1-28.2,4.5-28.2,4.5s-3.2-10.9-7.1-25c-2.4-8.1-0.4-16.8,5.1-23.1C680.4,433.9,686.9,428.1,697.8,432z"/>
<path id="bfd7963f-0cf8-4885-9d3a-2c00bccda2e3-43" fill="#2F2E41" d="M685,391.1c-3.1-2.4-7.2,2-7.2,2l-2.4-22
	c0,0-15.3,1.8-25.1-0.6s-11.3,8.9-11.3,8.9c-0.5-4.6-0.6-9.2-0.3-13.8c0.6-5.5,8.6-11,22.6-14.7s21.4,12.2,21.4,12.2
	C692.5,368,688.1,393.5,685,391.1z"/>
<g>
	<path fill="#2F2E41" d="M45.8,427.9c21-9,47.3-3.3,72.9,0.7c0.2-4.8,3.1-10.6,0.1-13.9c-3.7-4-3.3-8.3-1.1-12.6
		c5.7-10.9-2.4-22.5-10.6-32.2c-3.7-4.4-9.4-6.8-15.1-6.3l-15.2,1.1c-7.6,0.5-14,5.7-16.1,13l0,0c-3.6,4.9-5.6,9.8-4.3,14.7
		c-5.4,3.7-6.3,8.2-3.9,13.2c2.1,3.2,2,6.3-0.1,9.3c-2.8,3.8-5,8.1-6.4,12.6L45.8,427.9z"/>
	<path fill="#FFB8B8" d="M155.1,493.6l-45.1,24l-0.6-20c14.7-2.5,28.7-6.7,41.7-13.7l4.7-11.6c1.6-4,6.2-6,10.3-4.4
		c1.2,0.5,2.3,1.3,3.1,2.3l0,0c2.6,3.2,2.3,7.9-0.7,10.8L155.1,493.6z"/>
	<path fill="#2F2E41" d="M44.9,632L44.9,632c-0.7-2.4-0.3-5,1.1-7.2l9.9-15.2c4.9-7.4,14.6-10,22.5-5.9l0,0
		c-4.2,7.1-3.6,13.3,1.4,18.7c-7.8,3.8-15,8.7-21.4,14.6c-4,2.8-9.6,1.7-12.3-2.3C45.6,633.8,45.2,632.9,44.9,632z"/>
	<path fill="#2F2E41" d="M157.1,612.1L157.1,612.1c-3,5.1-8.5,8.2-14.4,8.2l-65.8,0.5L74,604.3l29.1-8.6l-24.5-18.8l26.8-31.4
		l48.7,45.4C160,596.4,161.2,605.2,157.1,612.1z"/>
	<path fill="#2F2E41" d="M66.6,725.3H51.2c-13.8-94.8-27.9-189.9,13.7-225.4l49.1,8l-6.3,41.7l-27.4,31.4L66.6,725.3z"/>
	<path fill="#2F2E41" d="M80.2,746.8L80.2,746.8c-2.4,0.7-5,0.3-7.2-1.1l-16.7-2.2c-7.4-4.9-10-14.6-5.9-22.5l0,0
		c7.1,4.2,13.3,3.6,18.7-1.4c3.8,7.7,10.1,7.2,16.1,13.7c2.8,4,1.7,9.6-2.3,12.3C82,746.1,81.1,746.5,80.2,746.8z"/>
	<path fill="#FFB8B8" d="M103.1,436.5l-28.5-6.8c4.7-9.7,5.1-20.5,2.9-32l19.4-0.6C97.5,411.4,99.3,424.7,103.1,436.5z"/>
	<path fill="#F26419" d="M111,525.1c-20.8,14.2-35.4,0.5-46.6-20.6c1.6-12.9-1-28.3-5.6-45.1c-4.3-15.3,3.8-31.4,18.8-37l0,0
		l24.5,10.3c20.8,17,24.9,35.4,17.1,54.8L111,525.1z"/>
	<path fill="#FFB8B8" d="M51.2,450.8l-22.8,12l40.5,24l5.6,13.9c1.5,3.8-0.3,8.1-4.1,9.6c-0.1,0-0.2,0.1-0.4,0.1l0,0
		c-3.9,1.3-8-0.7-9.4-4.6c-0.2-0.6-0.4-1.3-0.4-2l-0.6-9.7l-51.5-17c-3.5-1.2-6.3-3.9-7.6-7.4l0,0c-1.9-5.2,0-10.9,4.5-14l41.4-28.4
		L51.2,450.8z"/>
	<path fill="#F26419" d="M74,453.1c-9.5-4.2-18.2,0.4-29.1,4l-1.7-30.2c10.8-5.8,21.2-7.3,30.8-2.9L74,453.1z"/>
	<circle fill="#FFB8B8" cx="85.4" cy="393.9" r="18.2"/>
	<path fill="#2F2E41" d="M107.2,391.6c-18,1.8-31.8-1.2-40.6-9.6v-6.8h39L107.2,391.6z"/>
</g>
</svg>
