<svg xmlns="http://www.w3.org/2000/svg" viewBox="0 0 342.47 286.5"><defs><style>.cls-1,.cls-2{fill:#fff;}.cls-1,.cls-4{fill-rule:evenodd;}.cls-3{fill:#ccc;}.cls-4,.cls-8{fill:#3f3d56;}.cls-5{fill:#33658a;}.cls-6{fill:#2f2e41;}.cls-7{fill:#a0616a;}.cls-9{fill:#f26419;}.cls-10{fill:#e6e6e6;}.cls-11{fill:#ffb8b8;}.cls-12{fill:#f2f2f2;}</style></defs><g id="Camada_2" data-name="Camada 2"><g id="Camada_1-2" data-name="Camada 1"><path class="cls-1" d="M188.33,58.8a34.59,34.59,0,0,0-18,64.14l.25.17a3.32,3.32,0,0,0,.58.33c.33.17.58.33.92.5a3.06,3.06,0,0,1,.58.34,30.92,30.92,0,0,0,7.59,2.75,10.08,10.08,0,0,0,1.67.33,32.56,32.56,0,0,0,6.42.58,11.68,11.68,0,0,0,1.67-.08,18.93,18.93,0,0,0,2.25-.17,26.23,26.23,0,0,0,2.67-.41,42.6,42.6,0,0,0,5.25-1.42l.59-.25c.58-.25,1.17-.5,1.67-.75a17.4,17.4,0,0,0,1.83-.92,35,35,0,0,0,14.26-13.84.09.09,0,0,1,.09-.09A34.65,34.65,0,0,0,205.1,63a36.71,36.71,0,0,0-16.77-4.17Zm29.61,51.05.08-.17a33.82,33.82,0,1,0-47.29,12.51l.34.25.58.33c.25.17.58.34.83.5l.34.17.25.08h0a31.81,31.81,0,0,0,5.34,2.17c1.25.34,2.41.67,3.75.92a31.48,31.48,0,0,0,6.25.58h1.42A19.8,19.8,0,0,0,192,127a23.24,23.24,0,0,0,3.42-.59,44.42,44.42,0,0,0,4.5-1.25c.25-.08.42-.16.67-.25.5-.16,1-.41,1.5-.58s1.25-.59,1.84-.84A34.52,34.52,0,0,0,217.94,109.85Z"/><path class="cls-2" d="M217.94,109.68l-.08.17a33.87,33.87,0,0,1-14,13.59,13.37,13.37,0,0,1-1.83.84,11.57,11.57,0,0,1-1.5.58c-.25.08-.42.17-.67.25a30.23,30.23,0,0,1-4.5,1.25c-1.17.25-2.25.42-3.42.58a17.62,17.62,0,0,1-2.17.17h-1.42a32.25,32.25,0,0,1-6.25-.58,29.85,29.85,0,0,1-3.76-.92,36.84,36.84,0,0,1-5.34-2.17h0l-.25-.08-.33-.17c-.25-.17-.58-.33-.83-.5l-.59-.33-.33-.25a33.84,33.84,0,1,1,47.29-12.43Z"/><path class="cls-3" d="M160.89,286.5c74.73,0,135.29-3.09,135.29-6.92s-60.56-6.93-135.29-6.93-135.28,3.09-135.28,6.93S86.16,286.5,160.89,286.5Z"/><path class="cls-4" d="M238.37,66.56h1.51V96.5h-1.51V255.39A24.37,24.37,0,0,1,214,279.74H124.78a24.38,24.38,0,0,1-24.36-24.35V24.44A24.51,24.51,0,0,1,124.78,0H214a24.38,24.38,0,0,1,24.35,24.35ZM233.2,255.22V24.6A18.23,18.23,0,0,0,215,6.42H203.34a8.66,8.66,0,0,1-4.75,11.26,8.35,8.35,0,0,1-3.25.67H144.21a8.68,8.68,0,0,1-4.09-1A8.41,8.41,0,0,1,137,14.51a8.73,8.73,0,0,1-.84-8.09H125.36A18.23,18.23,0,0,0,107.18,24.6V255.22a18.18,18.18,0,0,0,18.18,18.19H215A18.13,18.13,0,0,0,233.2,255.22Z"/><path class="cls-5" d="M204.26,124c-.58.34-1.25.59-1.83.92s-1.17.5-1.67.75l-.59.25a33.14,33.14,0,0,1-5.25,1.42c-.92.17-1.75.33-2.67.42a21.27,21.27,0,0,1-2.25.16c-.58,0-1.09.09-1.67.09a40,40,0,0,1-6.42-.59c-.59-.08-1.09-.25-1.67-.33a41.24,41.24,0,0,1-7.59-2.75,2.77,2.77,0,0,1-.58-.34c-.34-.16-.59-.33-.92-.5.17-.16.33-.41.5-.58a20.4,20.4,0,0,1,28.69-3.09c.59.51,1.17,1,1.67,1.51a16.44,16.44,0,0,1,1.92,2.25C204,123.61,204.18,123.86,204.26,124Z"/><path class="cls-6" d="M189.08,107.18a16.85,16.85,0,1,0-16.85-16.85,16.86,16.86,0,0,0,16.85,16.85Z"/><path class="cls-7" d="M193.59,107.18a12.54,12.54,0,1,0-17-5h0A12.46,12.46,0,0,0,193.59,107.18Z"/><path class="cls-6" d="M200.76,88.24a16.84,16.84,0,0,1-9.76,3,10.75,10.75,0,0,0,4.17,1.66,34.7,34.7,0,0,1-14.1.09,9.31,9.31,0,0,1-2.91-1,3.84,3.84,0,0,1-1.84-2.42c-.33-1.75,1.08-3.34,2.5-4.42a18.37,18.37,0,0,1,15.52-3.09,8.17,8.17,0,0,1,4.58,2.59,4.29,4.29,0,0,1,.42,4.92Z"/><path class="cls-2" d="M154.13,247.55A34.69,34.69,0,1,1,172.82,242,34.63,34.63,0,0,1,154.13,247.55Zm0-68.48A33.87,33.87,0,1,0,188,212.94a33.75,33.75,0,0,0-33.87-33.87Z"/><path class="cls-2" d="M154.13,179.07A33.87,33.87,0,1,0,188,212.94a33.75,33.75,0,0,0-33.87-33.87Z"/><path class="cls-6" d="M180.57,73.65c-.16-1.92-2.5-3.09-4.33-2.5a5.56,5.56,0,0,0-3.42,4.33,7.78,7.78,0,0,0-.09,2.42,5.34,5.34,0,0,0,.92,2.25A4.2,4.2,0,0,0,177.82,82a4.86,4.86,0,0,0,3.42-4,15.15,15.15,0,0,0-.33-5.5Z"/><path class="cls-6" d="M206.35,76.4c-.17-1.92-2.51-3.09-4.34-2.5a5.6,5.6,0,0,0-3.42,4.33,7.58,7.58,0,0,0-.08,2.42,5.29,5.29,0,0,0,.91,2.26,4.21,4.21,0,0,0,4.17,1.83,4.86,4.86,0,0,0,3.42-4,15.19,15.19,0,0,0-.33-5.51Z"/><path class="cls-2" d="M128.53,107.18a1.65,1.65,0,0,1-.67-.17,1.38,1.38,0,0,1-.58-.42l-19.1-20.85a4.21,4.21,0,0,0-.75-.58,1.79,1.79,0,0,0-.92-.17H5.76A5.77,5.77,0,0,1,0,79.24V43A5.77,5.77,0,0,1,5.76,37.2H136.29A5.76,5.76,0,0,1,142,43V79.32a5.76,5.76,0,0,1-5.75,5.75h-3.76a2.65,2.65,0,0,0-1.67.67,2.36,2.36,0,0,0-.66,1.67v18.1a1.61,1.61,0,0,1-.34,1,1.49,1.49,0,0,1-.83.58C129,107.18,128.78,107.18,128.53,107.18Z"/><path class="cls-8" d="M128.53,107.18a1.65,1.65,0,0,1-.67-.17,1.38,1.38,0,0,1-.58-.42l-19.1-20.85a4.21,4.21,0,0,0-.75-.58,1.79,1.79,0,0,0-.92-.17H5.76A5.77,5.77,0,0,1,0,79.24V43A5.77,5.77,0,0,1,5.76,37.2H136.29A5.76,5.76,0,0,1,142,43V79.32a5.76,5.76,0,0,1-5.75,5.75h-3.76a2.65,2.65,0,0,0-1.67.67,2.36,2.36,0,0,0-.66,1.67v18.1a1.61,1.61,0,0,1-.34,1,1.49,1.49,0,0,1-.83.58C129,107.18,128.78,107.18,128.53,107.18ZM5.76,38a5,5,0,0,0-5,5V79.32a5,5,0,0,0,5,5H106.51a3.48,3.48,0,0,1,1.25.25,2.31,2.31,0,0,1,1,.75l19.1,20.77a1,1,0,0,0,1.09.25.79.79,0,0,0,.41-.33,1.13,1.13,0,0,0,.17-.58V87.33a3.14,3.14,0,0,1,3.09-3.09h3.75a5,5,0,0,0,5-5h0V43a5,5,0,0,0-5-5Z"/><path class="cls-9" d="M14.1,53.21A5.09,5.09,0,1,0,9,48.13H9A5.15,5.15,0,0,0,14.1,53.21Z"/><path class="cls-10" d="M130.45,76.15H11.59a4,4,0,0,1-1-.17,2.09,2.09,0,0,1-.83-.58,2.67,2.67,0,0,1,1.92-4.59H130.45a2.71,2.71,0,0,1,.25,5.42c-.09-.16-.17-.16-.25-.08Z"/><path class="cls-10" d="M91.75,64.72H11.68a4.26,4.26,0,0,1-1-.16A2.17,2.17,0,0,1,9.84,64a2.67,2.67,0,0,1,1.92-4.58H91.83a2.63,2.63,0,0,1,2.67,2.66,3,3,0,0,1-2.75,2.67Z"/><path class="cls-2" d="M213.27,230.45a1.7,1.7,0,0,1-1.08-1.58v-18.1a2.34,2.34,0,0,0-2.34-2.34H206.1a5.77,5.77,0,0,1-5.76-5.75V166.4a5.77,5.77,0,0,1,5.76-5.76H336.71a5.77,5.77,0,0,1,5.76,5.76h0v36.36a5.77,5.77,0,0,1-5.76,5.76H236a3.09,3.09,0,0,0-.92.16,1.77,1.77,0,0,0-.75.59l-19.1,20.85a1.57,1.57,0,0,1-.59.41,1.79,1.79,0,0,1-.66.17C213.69,230.62,213.52,230.53,213.27,230.45Z"/><path class="cls-8" d="M213.27,230.45a1.7,1.7,0,0,1-1.08-1.58v-18.1a2.34,2.34,0,0,0-2.34-2.34H206.1a5.77,5.77,0,0,1-5.76-5.75V166.4a5.77,5.77,0,0,1,5.76-5.76H336.71a5.77,5.77,0,0,1,5.76,5.76h0v36.36a5.77,5.77,0,0,1-5.76,5.76H236a3.09,3.09,0,0,0-.92.16,1.77,1.77,0,0,0-.75.59l-19.1,20.85a1.57,1.57,0,0,1-.59.41,1.79,1.79,0,0,1-.66.17C213.69,230.62,213.52,230.53,213.27,230.45Zm-7.09-69.06a5,5,0,0,0-5,5v36.36a5,5,0,0,0,5,5h3.75a3.14,3.14,0,0,1,3.09,3.09V229a.83.83,0,0,0,.17.5.79.79,0,0,0,.41.33,1.35,1.35,0,0,0,.59.09l.5-.25,19.1-20.85a3,3,0,0,1,2.25-1H336.79a5,5,0,0,0,5-5h0V166.4a5,5,0,0,0-5-5Z"/><path class="cls-9" d="M172.57,241.71a34.18,34.18,0,0,1-36,.58,22.67,22.67,0,0,1,3.58-4.83,20.55,20.55,0,0,1,29-.09,18.79,18.79,0,0,1,3.17,4.09C172.48,241.54,172.57,241.63,172.57,241.71Z"/><path class="cls-6" d="M153.13,223.36a17,17,0,1,0-17-17h0a17,17,0,0,0,17,17Z"/><path class="cls-11" d="M165.73,218.36a12.66,12.66,0,1,0-17.18,5,12.72,12.72,0,0,0,17.18-5Z"/><path class="cls-6" d="M141.37,204.34a16.69,16.69,0,0,0,9.85,3A12.38,12.38,0,0,1,147,209.1a35.27,35.27,0,0,0,14.18.08,9.12,9.12,0,0,0,2.92-1,3.8,3.8,0,0,0,1.84-2.5c.33-1.75-1.09-3.42-2.5-4.5a18.55,18.55,0,0,0-15.6-3.09,8,8,0,0,0-4.59,2.59,4.16,4.16,0,0,0-.42,5Z"/><path class="cls-9" d="M216.69,176.24a5,5,0,0,0,5-5.09,5,5,0,0,0-5.08-5,5.05,5.05,0,1,0,.08,10.1Z"/><path class="cls-10" d="M333,199.09H214.19a2.64,2.64,0,0,1-2.67-2.67h0a2.65,2.65,0,0,1,.75-1.92,3.43,3.43,0,0,1,.92-.58,2.06,2.06,0,0,1,1-.17H333a2.71,2.71,0,0,1,.25,5.42.32.32,0,0,0-.25-.08Z"/><path class="cls-10" d="M294.26,187.66H214.19a4.26,4.26,0,0,1-1-.16,3.45,3.45,0,0,1-.92-.59,2.65,2.65,0,0,1,0-3.83,3.45,3.45,0,0,1,.92-.59,2.17,2.17,0,0,1,1-.16h80.07a2.71,2.71,0,0,1,.25,5.42.3.3,0,0,0-.25-.09Z"/><path class="cls-12" d="M213.1,233.87c5.17,0,9.43-.5,9.43-1.08s-4.26-1.09-9.43-1.09-9.42.5-9.42,1.09S207.93,233.87,213.1,233.87Z"/><path class="cls-12" d="M129,110.93c5.17,0,9.42-.5,9.42-1.08s-4.25-1.09-9.42-1.09-9.43.5-9.43,1.09S123.77,110.93,129,110.93Z"/></g></g></svg>