<?xml version="1.0" encoding="utf-8"?>
<!-- Generator: Adobe Illustrator 23.1.1, SVG Export Plug-In . SVG Version: 6.00 Build 0)  -->
<svg version="1.1" id="Layer_1" xmlns="http://www.w3.org/2000/svg" xmlns:xlink="http://www.w3.org/1999/xlink" x="0px" y="0px"
	 viewBox="0 0 1243 2436" style="enable-background:new 0 0 1243 2436;" xml:space="preserve">
<style type="text/css">
	.st0{fill:url(#Circle_1_);}
	.st1{opacity:0.27;fill:#231F20;enable-background:new    ;}
	.st2{fill:#010A43;}
	.st3{fill:#FFE1E1;}
	.st4{fill:#C6C6C6;}
	.st5{fill:#878787;}
	.st6{fill:#FF2E63;}
	.st7{fill:#DCDCDC;}
	.st8{enable-background:new    ;}
</style>
<linearGradient id="Circle_1_" gradientUnits="userSpaceOnUse" x1="457.1323" y1="1767.3507" x2="883.3551" y2="1362.4725" gradientTransform="matrix(1 0 0 -1 0 2436)">
	<stop  offset="0.0721" style="stop-color:#FF2E63;stop-opacity:0.6"/>
	<stop  offset="0.7394" style="stop-color:#FF2E63"/>
</linearGradient>
<path id="Circle" class="st0" d="M905.8,815.78c-19.53,404.56-597.7,381.12-586.42-21.7C361.56,418.7,892.12,440.51,905.8,815.78z"
	/>
<g id="Box">
	<g id="XMLID_66_">
		<g id="XMLID_95_">
			<path class="st1" d="M854.41,981.66c-72.59,107.32-205.54,146.11-305.41,120.19c-10.12-13.46-135.13-179.79-135.16-179.84H815.1
				L854.41,981.66z"/>
			<path class="st2" d="M815.15,704.23L614.5,813.11v217.72h-0.05V813.11l-200.6-108.88c0.04-0.07,202.59-109.75,200.66-108.83
				C616.49,596.47,815.11,704.21,815.15,704.23z"/>
			<path class="st3" d="M614.45,813.13v217.69c-40.46-22.24-170.18-91.8-200.63-109.09c0-8.75,0-217.43,0-217.49L614.45,813.13z"/>
			<polygon class="st4" points="444.53,737.84 598.97,819.4 598.6,989.37 444.53,905.39 			"/>
			<polyline id="XMLID_55_" class="st5" points="429.38,913.59 598.97,819.4 598.97,1005.56 			"/>
			<path id="XMLID_8_" class="st3" d="M815.12,704.22c-0.01,0.04,0.01,215.44,0,217.76c-37.59,20.53-159.49,86.49-200.6,108.85
				c0.01-0.01-0.03-219.9,0.01-217.72C616.51,812.04,815.08,704.24,815.12,704.22z"/>
			<path class="st2" d="M598.97,1005.56h-0.05c-34.14-18.85-143.06-77.21-169.54-92.16c0-6.57,0-183.84,0-183.9l15.08,8.2v167.64
				c28.37,15.36,124.72,67.99,154.46,84.18"/>
			<path class="st2" d="M630.09,989.52c30.26-16.45,126.09-68.87,154.45-84.18V737.7l15.08-8.2c-0.02,0.05,0.01,181.75,0,184.07
				c-31.48,17.19-134.91,73.11-169.59,91.99"/>
			<polyline class="st6" points="630.07,989.5 630.03,819.37 784.54,737.7 784.46,905.37 			"/>
			<path class="st2" d="M630.07,989.5v16.06l169.54-91.97c-16.86-8.8-13.3-9.48-19.94-5.61
				C742.46,928.23,659.73,973.34,630.07,989.5z"/>
			<path class="st2" d="M630.39,838.22c145.97-80.73,150.24-77.29,147.61-87.68C632.03,831.27,627.76,827.83,630.39,838.22z"/>
			<path class="st2" d="M630.39,850.71c145.97-80.73,150.24-77.29,147.61-87.68C632.03,843.76,627.76,840.32,630.39,850.71z"/>
			<path class="st2" d="M630.39,863.21c145.97-80.73,150.24-77.29,147.61-87.68C632.03,856.26,627.76,852.82,630.39,863.21z"/>
			<path class="st2" d="M630.39,875.71c146.09-80.79,150.23-77.29,147.61-87.69C631.91,868.81,627.77,865.31,630.39,875.71z"/>
			<path class="st2" d="M630.39,888.2c145.97-80.73,150.24-77.29,147.61-87.68C632.03,881.25,627.76,877.81,630.39,888.2z"/>
			<path class="st2" d="M630.39,900.7c145.97-80.73,150.24-77.29,147.61-87.68C632.03,893.75,627.76,890.31,630.39,900.7z"/>
			<path class="st2" d="M630.39,913.19C776.36,832.46,780.63,835.9,778,825.51C632.03,906.24,627.76,902.8,630.39,913.19z"/>
			<path class="st2" d="M630.39,925.69C776.36,844.96,780.63,848.4,778,838.01C632.03,918.74,627.76,915.3,630.39,925.69z"/>
			<path class="st2" d="M630.39,938.19C776.48,857.4,780.62,860.9,778,850.5C631.91,931.29,627.77,927.79,630.39,938.19z"/>
			<path class="st2" d="M630.39,950.68C776.36,869.95,780.63,873.39,778,863C632.03,943.73,627.76,940.29,630.39,950.68z"/>
			<path class="st2" d="M630.39,963.18C776.36,882.45,780.63,885.89,778,875.5C632.03,956.23,627.76,952.79,630.39,963.18z"/>
			<path class="st2" d="M630.39,975.67c145.97-80.73,150.24-77.29,147.61-87.68C632.03,968.72,627.76,965.28,630.39,975.67z"/>
			<polygon class="st6" points="815.15,704.23 614.49,813.01 413.85,704.23 614.49,799.26 			"/>
			<polygon class="st6" points="413.85,704.22 614.53,595.41 815.13,704.22 614.53,609.16 			"/>
			<g>
				<g>
					<g>
						<path class="st7" d="M532.64,702.88c40.23-16.31,31.7-4.87,35.56,5.29c-71.62,10.13,15.27,53.82,24.29,14.41
							c-1.69-6.17-9.7,1.76-12.33,2.48l3.95,2.4c-23.83-1.6-18.07,1.17-20.26-12.31c3.56,5.52,16.11-5.97,22.83-8.54
							c15.33,10,31.43,8.35,29.58,16.41C608.36,777.09,468.96,747.62,532.64,702.88z"/>
					</g>
					<g class="st8">
						<g>
							<polygon class="st7" points="695.18,661.9 680.43,670.08 635.47,646.23 656.07,634.81 							"/>
						</g>
						<g>
							<path class="st7" d="M693.86,669.74c3.48-1.97,10.64-3.07,16.01-1.67C740.17,682.48,672.5,691.72,693.86,669.74z"/>
						</g>
						<g>
							<path class="st7" d="M594.46,668.4c23.65-12.06,57.1-13.12,78.71,6.58C711.58,738.15,522.2,725.25,594.46,668.4z
								 M645.96,699.69c27.28-19.62-20.39-32.69-35.21-21.4C583.55,697.88,631.09,711.02,645.96,699.69"/>
						</g>
					</g>
				</g>
			</g>
		</g>
	</g>
</g>
<g id="Title">
	<g>
		<path class="st2" d="M290.14,1578.51l8.13-5.98c14.1,25.36,59.24,10.07,42.05-11.37c-13.93-13.36-42.6-11.76-45.64-33.3
			c1.51-50.59,77.93-17.65,48.11-5.42c-22-32.04-63.93,9.58-13.05,21.1c7.91,3.3,15.22,6.93,20.34,12.79
			C374.01,1595.89,303.61,1610.85,290.14,1578.51z"/>
		<path class="st2" d="M426.67,1512.1h-27.11v83.12H389v-83.12h-27.22v-10.45h64.89L426.67,1512.1L426.67,1512.1z"/>
		<path class="st2" d="M429.92,1548.5c3.91-66.17,94.38-61.47,96.18,0C522.19,1614.21,431.78,1609.78,429.92,1548.5z
			 M515.42,1548.44c-3.17-51.67-73.53-47.58-74.82,0C443.74,1600.04,514.17,1595.61,515.42,1548.44z"/>
		<path class="st2" d="M595.12,1595.22c-31-43.56-22.21-36.25-43.59-36.51v36.51h-10.56l-0.06-93.57
			c77.79-8.03,65.11,49.25,39.47,55.83l27.8,37.73h-13.06V1595.22z M568.89,1549.83c41.35-10.3,13.88-45.75-17.41-37.72
			C551.76,1560.51,547.07,1548.19,568.89,1549.83z"/>
		<path class="st2" d="M680.05,1579.84c-0.07,0.02-46.37-0.02-50.79,0c-9.26,18.41-4.31,15.38-18.58,15.38
			c1.14-0.1,42.88-98.95,44.41-94.99c0.91,2,43.25,94.91,43.29,94.99C681.32,1597.91,685.1,1587.08,680.05,1579.84z M675.99,1570.67
			l-21.42-48.12l-21.48,48.12H675.99z"/>
		<path class="st2" d="M788.89,1552.33c-4.5,68.74-100.67,50.71-92.29-10.9c13.9-67.19,99.56-34.77,75.51-18.24
			c-30.1-28.9-73.77-1.64-63.67,36.25c9.28,32.87,57.54,34.91,67.83,6.13c10.64-18.17-25.47-7.89-32.25-10.41v-9.52
			C748.21,1548.02,795.51,1539.3,788.89,1552.33z"/>
		<path class="st2" d="M814.26,1512.04v29.6h38.48v10.56h-38.48v32.5h44.4v10.51H803.7v-93.57h54.97v10.39L814.26,1512.04
			L814.26,1512.04z"/>
		<path class="st2" d="M869.53,1578.51l8.13-5.98c14.1,25.36,59.24,10.07,42.05-11.37c-13.93-13.36-42.6-11.76-45.64-33.3
			c1.51-50.59,77.93-17.65,48.11-5.42c-22-32.04-63.93,9.58-13.05,21.1c7.91,3.3,15.22,6.93,20.34,12.79
			C953.41,1595.89,882.98,1610.85,869.53,1578.51z"/>
	</g>
	<g>
		<path class="st2" d="M444.3,1321.42c9.48-11.28,22.44-26.84,31.96-38.19v13.36c0.04,0,92.47,0,102.67,0
			c26.36,138.36-147.25,193.93-229.72,95.73c-93.42-124,66.17-267.72,189.32-175.91c11.84-0.1-32.81,49.59-32.19,51.99
			c-62.91-55.87-144.89,11.58-110.82,77.79c24.47,49.06,113.23,47.16,115.3-1.57h-34.55v14.86"/>
		<path class="st2" d="M546.95,1314.98c5.42-172.66,263.2-168.63,266.68,0C808.19,1486.28,550.44,1482.57,546.95,1314.98z
			 M748.4,1314.53c-3.27-89.25-132.04-86.68-136.16-2.33C612.61,1404.14,746.91,1401.54,748.4,1314.53z"/>
		<path class="st2" d="M827.25,1188.64h74.73l-10.4,158.05h-53.49L827.25,1188.64z M827.25,1404.55
			c3.73-48.97,74.12-43.17,75.34,0.76C899.21,1453.8,828.17,1449.11,827.25,1404.55z"/>
	</g>
</g>
<g id="Door">
	<polygon class="st6" points="71.39,578.46 225.83,660.01 225.46,829.99 71.39,746.01 	"/>
	<path class="st2" d="M225.46,678.86C79.5,598.13,75.23,601.57,77.86,591.18C223.82,671.91,228.09,668.47,225.46,678.86z"/>
	<path class="st2" d="M225.46,691.36C79.5,610.63,75.23,614.07,77.86,603.68C223.82,684.41,228.09,680.97,225.46,691.36z"/>
	<path class="st2" d="M225.46,703.85C79.5,623.12,75.23,626.56,77.86,616.17C223.82,696.9,228.09,693.46,225.46,703.85z"/>
	<path class="st2" d="M225.46,716.35C79.5,635.62,75.23,639.06,77.86,628.67C223.82,709.4,228.09,705.96,225.46,716.35z"/>
	<path class="st2" d="M225.47,721.58v7.28C79.27,648,75.28,651.58,77.88,641.15L225.47,721.58z"/>
	<path class="st2" d="M225.47,734.09v7.23C79.24,660.49,75.28,664.09,77.88,653.66L225.47,734.09z"/>
	<path class="st2" d="M225.47,746.6v7.23C79.88,673.28,75.21,676.52,77.88,666.17L225.47,746.6z"/>
	<path class="st2" d="M225.47,759.11v7.23C79.76,685.73,75.22,689.03,77.88,678.67L225.47,759.11z"/>
	<path class="st2" d="M225.47,771.57v7.27c-146.2-80.86-150.19-77.28-147.59-87.71L225.47,771.57z"/>
	<path class="st2" d="M225.47,784.07v7.23C79.24,710.47,75.28,714.07,77.88,703.64L225.47,784.07z"/>
	<path class="st2" d="M225.47,796.58v7.23C79.76,723.2,75.22,726.51,77.88,716.15L225.47,796.58z"/>
	<path class="st2" d="M225.47,809.09v7.23C79.88,735.77,75.21,739.01,77.88,728.66L225.47,809.09z"/>
</g>
</svg>
